<svg width="64" height="64" viewBox="0 0 64 64" fill="none" xmlns="http://www.w3.org/2000/svg">
<rect width="64" height="64" rx="16" fill="#E3F4FF"/>
<path d="M46.4824 18.2127L44.4133 19.5921L40.9647 18.9024L38.8956 18.2127L36.1368 18.9024L34.0676 18.2127L35.447 15.4539H38.2058L40.9095 14.1021C42.9946 15.1331 44.8809 16.5249 46.4824 18.2127Z" fill="#1C75DF"/>
<path d="M30.6191 15.4538L29.9295 17.5229L27.8603 18.2126L25.7912 21.6611L22.3426 23.7303L17.5147 24.42V26.4891L18.8941 27.8685V30.6273L16.8251 29.2479L14.756 27.8685L13.5559 24.2614C15.6215 19.3389 19.5701 15.4475 24.5222 13.4536L26.4809 14.7641L30.6191 15.4538Z" fill="#1C75DF"/>
<path d="M31.9987 34.7655L31.309 38.214L28.5502 40.9728V43.042L25.7913 45.111V48.5595L23.7223 47.8699L22.3428 44.4213V37.5243L18.8943 36.8346L17.5149 34.0758V32.0066L18.8943 30.6272L20.9634 28.5581L22.3428 31.3169H27.1707L29.2398 34.7655H31.9987Z" fill="#1C75DF"/>
<path d="M49.4482 22.2335C53.2133 28.9505 52.7843 37.2332 48.3447 43.5246L46.4825 41.6624V38.9036L45.1031 36.1447L43.7237 33.3859V30.6271L41.6546 29.2477L38.8958 29.9374L34.0679 27.8682L33.3782 23.0403L35.4473 20.9712H39.5855L40.9649 23.0403L45.1031 23.73L49.2413 22.3506L49.4482 22.2335Z" fill="#1C75DF"/>
<path d="M36.1368 18.9023L38.8957 18.2126L40.9648 18.9023L44.4133 19.592L46.4825 18.2126C47.6377 19.4217 48.6344 20.7728 49.4482 22.2336L49.2413 22.3508L45.1031 23.7302L40.9649 23.0405L39.5855 20.9714H35.4473L33.3782 23.0405L34.0679 27.8684L38.8958 29.9376L41.6546 29.2479L43.7237 30.6272V33.3861L45.1031 36.1449L46.4825 38.9037V41.6626L48.3447 43.5248C41.9753 52.5503 29.495 54.7028 20.4702 48.3334C12.8055 42.9233 9.93015 32.9136 13.5559 24.2613L14.756 27.8684L16.8252 29.2478L18.8943 30.6272L17.5149 32.0066V34.0758L18.8942 36.8346L22.3428 37.5243V44.4213L23.7221 47.8699L25.7913 48.5595V45.111L28.5501 43.0419V40.9727L31.3089 38.2139L31.9986 34.7654H29.2398L27.1707 31.3169H22.3428L20.9634 28.558L18.8942 30.6272V27.8683L17.5149 26.489V24.4199L22.3428 23.7302L25.7913 21.6611L27.8604 18.2125L29.9296 17.5228L30.6193 15.4537L26.481 14.764L24.5223 13.4535C29.8261 11.3175 35.7907 11.5534 40.9097 14.1019L38.206 15.4537H35.4472L34.0678 18.2125L36.1368 18.9023Z" fill="#1493FF"/>
</svg>
