<?xml version="1.0" encoding="UTF-8" standalone="no"?><!DOCTYPE svg PUBLIC "-//W3C//DTD SVG 1.1//EN" "http://www.w3.org/Graphics/SVG/1.1/DTD/svg11.dtd"><svg width="100%" height="100%" viewBox="0 0 753 306" version="1.1" xmlns="http://www.w3.org/2000/svg" xmlns:xlink="http://www.w3.org/1999/xlink" xml:space="preserve" xmlns:serif="http://www.serif.com/" style="fill-rule:evenodd;clip-rule:evenodd;stroke-linejoin:round;stroke-miterlimit:2;"><rect id="Artboard3" x="0.077" y="0.172" width="752.746" height="304.864" style="fill:none;"/><g><path d="M133.545,104.434c20.6,4.589 37.135,23.247 39.074,44.24c1.991,21.551 -11.216,42.084 -25.978,58.229c-10.11,11.056 -29.269,26.281 -38.625,31.538l4.398,-36.266c-19.327,-4.049 -35.61,-20.942 -38.918,-40.665c-2.655,-15.834 2.878,-32.78 14.378,-43.994c11.581,-11.292 28.561,-16.453 44.722,-13.281c0.317,0.064 0.633,0.13 0.949,0.199Zm-2.652,9.659c-16.682,-3.383 -34.994,4.965 -43.2,20.025c-6.711,12.316 -6.281,28.175 1.07,40.111c5.662,9.194 15.159,15.826 25.749,18.169c6.675,1.533 9.881,1.296 9.881,1.296l-4.252,24.747c13.214,-10.949 24.469,-22.29 33.449,-36.997c7.233,-11.845 11.637,-26.165 7.532,-39.716c-4.052,-13.374 -15.332,-24.137 -29.214,-27.412c-0.338,-0.078 -0.676,-0.152 -1.015,-0.223Z" style="fill:#333;"/><path d="M243.545,104.434c20.6,4.589 37.135,23.247 39.074,44.24c1.991,21.551 -11.216,42.084 -25.978,58.229c-10.11,11.056 -29.269,26.281 -38.625,31.538l4.398,-36.266c-19.327,-4.049 -35.61,-20.942 -38.918,-40.665c-2.655,-15.834 2.878,-32.78 14.378,-43.994c11.581,-11.292 28.561,-16.453 44.722,-13.281c0.317,0.064 0.633,0.13 0.949,0.199Zm-2.652,9.659c-16.682,-3.383 -34.994,4.965 -43.2,20.025c-6.711,12.316 -6.281,28.175 1.07,40.111c5.662,9.194 15.159,15.826 25.749,18.169c6.675,1.533 9.881,1.296 9.881,1.296l-4.252,24.747c13.214,-10.949 24.469,-22.29 33.449,-36.997c7.233,-11.845 11.637,-26.165 7.532,-39.716c-4.052,-13.374 -15.332,-24.137 -29.214,-27.412c-0.338,-0.078 -0.676,-0.152 -1.015,-0.223Z" style="fill:#333;"/><path d="M147.779,69.803l-19.449,88.638l-10.325,-0.101l19.457,-88.501l10.317,-0.036Z" style="fill:#333;"/><path d="M192.614,68.441l-19.448,88.638l-10.325,-0.101l19.456,-88.501l10.317,-0.036Z" style="fill:#333;"/><path d="M182.694,78.441l-70,0l1.749,-10l70,0l-1.749,10Z" style="fill:#333;"/><path d="M153.498,79.283l-0.096,0l-7.695,0l2.695,-12.515l7.861,0l-2.765,12.515Z" style="fill:#fff;"/><path d="M232.841,158.441l-65.864,0l1.748,-10l65.864,0l-1.748,10Z" style="fill:#333;"/></g><g><path d="M359.264,163.751c0.985,0 2.297,-0.164 3.937,-0.492l0,11.236c-2.023,0.82 -4.593,1.23 -7.709,1.23c-5.632,0 -9.911,-1.585 -12.836,-4.757c-2.926,-3.171 -4.388,-7.573 -4.388,-13.205l0,-13.451l-7.792,0l0,-10.908l7.792,0l0,-9.432l14.845,-4.757l0,14.189l10.006,0l0,10.908l-10.006,0l0,13.451c0,1.969 0.588,3.459 1.763,4.47c1.176,1.012 2.639,1.518 4.388,1.518Z" style="fill:#333;fill-rule:nonzero;"/><path d="M412.659,133.404l0,41.665l-14.6,0l0,-5.659c-1.203,1.968 -2.952,3.513 -5.249,4.634c-2.296,1.121 -4.812,1.681 -7.546,1.681c-3.554,0 -6.725,-0.875 -9.514,-2.624c-2.788,-1.75 -4.962,-4.252 -6.52,-7.505c-1.559,-3.253 -2.338,-7.013 -2.338,-11.278c0,-4.319 0.793,-8.147 2.379,-11.482c1.585,-3.336 3.773,-5.933 6.561,-7.792c2.789,-1.859 5.933,-2.789 9.432,-2.789c2.734,0 5.236,0.588 7.505,1.764c2.269,1.175 4.033,2.748 5.29,4.716l0,-5.331l14.6,0Zm-22.802,31.249c2.625,0 4.648,-0.902 6.07,-2.707c1.421,-1.804 2.132,-4.401 2.132,-7.792c0,-3.444 -0.711,-6.083 -2.132,-7.914c-1.422,-1.832 -3.445,-2.748 -6.07,-2.748c-2.569,0 -4.593,0.943 -6.069,2.83c-1.476,1.886 -2.214,4.552 -2.214,7.996c0,3.336 0.71,5.892 2.132,7.669c1.422,1.777 3.472,2.666 6.151,2.666Z" style="fill:#333;fill-rule:nonzero;"/><path d="M449.403,132.255c4.921,0 8.598,1.49 11.031,4.47c2.434,2.981 3.65,7.478 3.65,13.493l0,24.851l-14.845,0l0,-24.195c0,-2.57 -0.438,-4.416 -1.312,-5.537c-0.875,-1.12 -2.242,-1.681 -4.101,-1.681c-2.242,0 -4.047,0.752 -5.414,2.256c-1.367,1.503 -2.05,3.485 -2.05,5.946l0,23.211l-14.845,0l0,-29.691c0,-4.483 -0.219,-8.475 -0.657,-11.974l13.944,0l0.738,6.151c1.585,-2.351 3.554,-4.155 5.905,-5.413c2.351,-1.258 5.003,-1.887 7.956,-1.887Z" style="fill:#333;fill-rule:nonzero;"/><path d="M516.576,114.704l0,60.365l-14.599,0l0,-5.659c-1.203,1.968 -2.953,3.513 -5.249,4.634c-2.297,1.121 -4.812,1.681 -7.546,1.681c-3.554,0 -6.726,-0.916 -9.514,-2.747c-2.789,-1.832 -4.962,-4.402 -6.521,-7.71c-1.558,-3.308 -2.337,-7.122 -2.337,-11.442c0,-4.265 0.779,-8.037 2.337,-11.318c1.559,-3.281 3.732,-5.81 6.521,-7.587c2.788,-1.777 5.96,-2.666 9.514,-2.666c2.625,0 5.044,0.547 7.259,1.641c2.214,1.093 3.977,2.57 5.29,4.429l0,-19.808l14.845,-3.813Zm-22.801,49.949c2.625,0 4.648,-0.916 6.069,-2.748c1.422,-1.832 2.133,-4.47 2.133,-7.915c0,-3.335 -0.725,-5.919 -2.174,-7.75c-1.449,-1.832 -3.458,-2.748 -6.028,-2.748c-2.679,0 -4.73,0.889 -6.151,2.666c-1.422,1.777 -2.133,4.333 -2.133,7.668c0,3.445 0.725,6.111 2.174,7.997c1.449,1.887 3.485,2.83 6.11,2.83Z" style="fill:#333;fill-rule:nonzero;"/><path d="M563.901,155.713l-26.164,0c0.273,3.226 1.203,5.55 2.789,6.971c1.585,1.422 3.909,2.133 6.971,2.133c2.078,0 4.156,-0.342 6.234,-1.025c2.077,-0.684 3.964,-1.627 5.659,-2.83l3.773,9.842c-2.078,1.531 -4.593,2.734 -7.546,3.609c-2.953,0.875 -5.905,1.312 -8.858,1.312c-4.757,0 -8.885,-0.875 -12.385,-2.624c-3.499,-1.75 -6.179,-4.252 -8.038,-7.505c-1.859,-3.253 -2.788,-7.095 -2.788,-11.524c0,-4.21 0.888,-7.969 2.665,-11.277c1.777,-3.308 4.238,-5.892 7.382,-7.751c3.144,-1.859 6.739,-2.789 10.785,-2.789c3.937,0 7.382,0.875 10.335,2.625c2.952,1.75 5.222,4.251 6.807,7.505c1.586,3.253 2.379,7.04 2.379,11.359l0,1.969Zm-19.11,-13.287c-3.664,0 -5.96,2.132 -6.89,6.397l13.287,0c-0.547,-4.265 -2.679,-6.397 -6.397,-6.397Z" style="fill:#333;fill-rule:nonzero;"/><path d="M623.856,132.255c4.812,0 8.38,1.477 10.704,4.429c2.324,2.953 3.486,7.464 3.486,13.534l0,24.851l-14.846,0l0,-24.441c0,-2.461 -0.369,-4.238 -1.107,-5.332c-0.738,-1.093 -1.982,-1.64 -3.732,-1.64c-2.078,0 -3.691,0.766 -4.839,2.297c-1.148,1.531 -1.722,3.69 -1.722,6.479l0,22.637l-14.846,0l0,-24.441c0,-2.461 -0.382,-4.238 -1.148,-5.332c-0.765,-1.093 -1.996,-1.64 -3.691,-1.64c-2.078,0 -3.677,0.766 -4.798,2.297c-1.121,1.531 -1.681,3.69 -1.681,6.479l0,22.637l-14.846,0l0,-29.691c0,-4.483 -0.218,-8.475 -0.656,-11.974l13.943,0l0.739,5.823c1.257,-2.242 3.021,-3.964 5.29,-5.167c2.269,-1.203 4.88,-1.805 7.833,-1.805c5.96,0 10.006,2.516 12.138,7.546c1.477,-2.296 3.431,-4.128 5.865,-5.495c2.433,-1.367 5.071,-2.051 7.914,-2.051Z" style="fill:#333;fill-rule:nonzero;"/><path d="M663.389,164.079l20.177,0l0,10.99l-37.483,0l0,-10.416l18.865,-20.341l-18.783,0l0,-10.908l36.581,0l0,9.76l-19.357,20.915Z" style="fill:#333;fill-rule:nonzero;"/></g></svg>