<?xml version="1.0" encoding="UTF-8"?>
<svg width="670px" height="597px" viewBox="0 0 670 597" version="1.1" xmlns="http://www.w3.org/2000/svg" xmlns:xlink="http://www.w3.org/1999/xlink">
    <!-- Generator: Sketch 58 (84663) - https://sketch.com -->
    <title>Web—Section Left Copy 3</title>
    <desc>Created with Sketch.</desc>
    <g id="Web—Section-Left-Copy-3" stroke="none" stroke-width="1" fill="none" fill-rule="evenodd">
        <g id="Background-Shape-2" opacity="0.504510789" transform="translate(41.000000, 257.000000)" fill="#F2F2F2">
            <path d="M555.761814,177.647373 C563.720698,246.321216 370.704218,291.114813 204.570459,259.854441 C38.4366997,228.59407 -37.7775918,106.518792 41.4986682,41.4722859 C120.774928,-23.5742207 547.80293,108.97353 555.761814,177.647373 Z" id="Background-Shape" transform="translate(283.000000, 147.000000) rotate(5.000000) translate(-283.000000, -147.000000) "></path>
        </g>
        <path d="M123.145514,230.772279 C123.376885,231.883065 123.699946,232.962988 124.130692,234 C123.543917,233.092821 123.245869,231.985543 123.145514,230.772279 Z M221.163846,76.868658 C220.98512,79.6993298 219.693714,82.274863 218.156373,84.5608047 C217.99143,84.8028852 218.038469,84.7911189 217.995929,84.4540318 C217.972239,84.6206668 217.916115,84.7436657 217.832908,84.8327819 C217.911432,86.3227223 218.065146,87.8481026 217.990272,89.1666021 C217.775633,92.9424357 217.331331,96.7403875 216.687153,100.467834 C216.530465,101.374379 216.351055,102.273572 216.150019,103.164982 C217.668789,101.878295 219.716233,100.734756 220.517334,100.377069 C222.596536,99.4496514 225.800624,98.4478119 227.864547,100.01615 C229.576852,101.317181 229.657381,103.615748 228.257313,105.172332 C226.590158,107.025431 223.547746,106.959534 221.276747,106.780205 C220.249464,106.69897 214.764258,106.26506 216.064937,105.371914 C215.964893,105.409512 215.755965,105.500783 215.532366,105.624788 C215.411853,106.061882 215.285304,106.497436 215.15344,106.931039 C215.185691,106.949783 215.213173,106.969894 215.247651,106.988521 C215.210319,106.972274 215.184086,106.954699 215.151209,106.938218 C213.82986,111.272162 211.950071,115.399111 209.489424,119.260409 C210.409505,118.899807 211.362446,118.626673 212.32887,118.504839 C215.190758,118.143534 221.209736,120.351538 218.006749,124.14151 C214.935561,127.774769 210.15913,123.880954 206.675987,123.345425 C203.294762,128.035643 199.567178,132.530752 195.660882,136.875822 C195.90005,136.950207 196.109926,137.105296 196.230127,137.346869 C197.796748,136.55606 199.429375,135.425055 200.879055,135.118353 C202.970941,134.676399 207.260126,134.406874 208.840073,136.267527 C210.783338,138.555428 208.698106,140.415657 206.400622,140.855791 C203.069225,141.494156 198.709536,139.878245 195.504868,138.786556 C195.138189,138.851191 194.73801,138.744766 194.499052,138.453321 C194.428232,138.430288 194.357432,138.407625 194.288526,138.385606 C190.332727,142.709494 186.225783,146.890811 182.143839,150.980501 C182.187277,150.978215 182.230696,150.975559 182.275991,150.973176 C183.340585,150.278653 184.482414,149.70866 185.719927,149.409776 C188.582633,148.714677 191.950438,148.709563 194.272229,150.767561 C196.584997,152.816742 197.402822,156.402227 195.007909,158.705786 C190.214193,163.316825 183.160136,152.812459 180.743503,152.375056 C176.595366,156.487554 172.209392,160.330104 167.754601,164.095254 C168.26035,163.941908 168.779015,163.829138 169.315057,163.778264 C173.681755,163.360456 183.92803,168.677604 178.566613,173.916884 C173.894496,178.482501 168.494044,169.702231 164.7323,166.632518 C160.534433,170.141827 156.313716,173.627066 152.2114,177.24805 C154.448114,176.656502 156.609477,176.568429 159.006562,177.287464 C161.486912,178.032594 165.488936,179.892921 163.91903,183.223825 C162.322286,186.611146 157.516171,185.072614 155.01307,183.998647 C153.647852,183.41301 150.911053,181.435198 148.507676,180.602766 C141.961287,186.748059 136.290254,193.515912 131.995472,201.487263 C129.31423,206.464368 127.27878,211.781386 125.845196,217.245877 C124.930145,220.733731 123.127701,226.59189 123.485633,231.13072 C121.773163,222.046029 124.883495,211.1325 128.232218,203.009856 C131.311267,195.540656 135.91698,188.982721 141.310727,183.07907 C139.960015,179.034377 128.576494,173.205452 135.38542,169.44355 C139.001096,167.454484 142.701661,170.75004 143.490029,174.241929 C144.031509,176.641493 143.203126,179.657239 142.32441,181.986948 C144.02116,180.187298 145.78496,178.445445 147.602406,176.761349 C150.114081,174.433807 152.685866,172.173718 155.282216,169.942069 C151.007697,165.949745 146.966172,154.53241 152.701133,152.661898 C161.169817,149.90758 157.084894,165.48617 156.492738,168.405864 C156.324984,168.415805 156.194288,168.365446 156.098189,168.257517 C156.14565,168.524845 156.20078,168.810724 156.267575,169.098963 C161.236924,164.849971 166.279875,160.684447 171.156813,156.334023 C170.717803,156.011477 170.020184,154.778592 169.471806,154.122475 C168.234175,152.643346 167.050059,151.098218 166.184987,149.367571 C164.818515,146.632693 163.501458,142.269946 167.128311,140.659013 C171.072643,138.903897 172.944081,143.838077 172.970074,146.782112 C172.987762,148.818248 172.429058,150.752771 172.13751,152.748685 C172.046407,153.371176 172.394643,156.176724 171.542412,154.970185 C171.582395,155.415188 171.588052,155.737491 171.567964,155.966004 C172.443557,155.181076 173.312374,154.387585 174.175684,153.588438 C174.135797,153.487587 174.106231,153.377644 174.099575,153.250144 C174.053758,152.372464 174.942232,152.033965 175.565068,152.290719 C176.704286,151.214291 177.832373,150.124326 178.940346,149.012748 C181.288644,146.657751 183.671034,144.235549 186.03696,141.761808 C185.524168,141.323842 185.728516,140.716948 185.248937,140.251961 C184.770158,139.788048 183.82681,139.531805 183.263759,139.100942 C181.847565,138.016619 180.67353,136.436397 179.824684,134.881063 C178.423267,132.311181 176.613204,126.919604 180.711668,125.692311 C184.936124,124.425312 187.077412,129.615119 187.347341,132.860373 C187.399891,133.489058 186.923517,139.154428 186.559973,141.211737 C190.937816,136.614402 195.243744,131.844684 199.145144,126.992185 C197.962971,126.98191 194.612609,124.575522 193.935385,123.918751 C192.282949,122.31687 189.656691,118.776731 192.556057,116.901171 C195.134041,115.237641 198.309405,117.643574 199.410262,119.982858 C199.591198,120.368041 200.228103,123.953753 200.277099,125.562691 C201.891876,123.504963 203.43231,121.435164 204.865551,119.358741 C205.82137,117.978282 206.714601,116.561348 207.550421,115.114358 C207.349434,115.00117 207.16043,114.803728 206.981943,114.55816 C202.684125,113.835065 197.207587,107.170196 202.257403,104.847743 C204.661682,103.743409 207.267352,106.019129 208.443898,107.882796 C208.684939,108.264073 209.074668,110.181401 209.391878,111.69372 C211.796791,106.900258 213.635311,101.825889 215.035288,96.6233284 C214.661168,96.5311426 214.344418,96.2471353 214.302894,95.7583576 C212.216711,94.5766019 210.569349,93.5925241 209.113771,91.3187316 C208.209475,89.9064308 206.581286,86.6794932 209.240844,85.8939914 C212.701871,84.8719435 214.872944,90.1259677 215.15474,92.7142456 C215.187548,93.0146787 215.185886,93.888538 215.174081,94.6893423 C215.29422,94.6729866 215.415679,94.6747727 215.534782,94.6956374 C216.331207,91.4741863 216.967251,88.211371 217.473455,84.9431223 C215.58499,84.3396728 215.263375,74.4775089 216.521701,73.0725858 C219.334282,69.926799 221.315131,74.4679535 221.163846,76.868658 Z M229.624923,85.2758907 C227.919082,89.3114591 221.612118,89.3613135 218.050219,89.2813251 C218.406721,89.2625682 219.554728,85.5618876 219.947749,85.0026842 C221.106819,83.3530525 222.775813,82.1575246 224.536298,81.27955 C227.39992,79.8540013 231.217419,81.5073207 229.624923,85.2758907 Z" id="Leaf-Top" fill="#C1DEE2" opacity="0.2"></path>
        <g id="Plant-Right" opacity="0.7" transform="translate(430.000000, 219.000000)">
            <path d="M65.3082283,92.8048177 C54.1432323,93.393659 41.0942844,101.342913 41.1829543,113.582869 C41.2476245,122.476248 42.4366922,131.225857 42.0287495,140.155615 C41.7021187,147.292382 40.1586254,154.272662 37.7593659,160.994465 C35.4523332,167.458187 29.8756402,173.340114 28.9729315,180.08118 C28.3974881,184.376469 29.5853105,190.208788 31.4166361,194.158631 C33.6436646,198.960983 32.6969124,198.662437 29.7420144,203.198972 C23.9518366,212.089199 18.8456954,221.118436 15.6387874,231.346582 C11.0193366,246.078783 8.75095393,262.97009 12.6362723,278.156538 C13.1302432,280.085042 14.2104927,287.078158 16.9492275,287.287046 C20.0080743,287.520914 18.1822535,283.648371 17.8855442,282.366626 C15.9935915,274.188171 14.3250556,267.040904 14.6722887,258.496227 C16.0124913,225.528033 36.9696466,201.696779 49.1833022,172.55179 C49.8645839,171.043395 51.2624786,167.475185 52.2470824,165.114575 C53.8015402,161.387695 55.0318019,154.477679 57.3629324,151.590356 C61.7531136,146.15101 58.2815678,156.523287 57.5238863,158.513379 C56.5660245,161.030666 55.5028997,163.710786 54.4840389,165.935421 C49.8353389,176.239568 44.6213987,187.502104 39.8182559,198.125038 C65.7491758,201.254753 80.3710812,168.823562 85.0549701,148.020085 C88.9141783,130.8803 91.5457202,91.4790138 65.3082283,92.8048177" id="Leaf-Me-Alone!" fill="#69A1AC" transform="translate(49.068054, 190.034683) scale(-1, 1) rotate(6.000000) translate(-49.068054, -190.034683) "></path>
            <path d="M172.357417,64.0993507 C153.670345,65.5837192 141.673655,77.9286139 136.089156,95.1951804 C133.07931,104.500259 132.734324,114.059289 131.061729,123.621769 C128.545605,138.008619 123.131877,148.911241 112.551626,159.161043 C109.274605,162.335425 106.859705,165.594687 105.14304,169.081676 C101.735186,172.563145 98.7687222,176.502829 96.5893212,181.319608 C93.8053345,187.471008 93.0175826,194.851445 96.2319408,200.984213 C97.0961266,202.632821 99.2521154,205.942459 101.486604,207.44615 C93.1208718,225.283415 88.5210619,244.818975 89.0395734,264.329691 C89.3528838,276.107338 89.9271714,287.889815 90.5971737,299.652969 C90.7775854,302.811479 91.8049681,308.027126 93.3481079,302.730049 C94.7604148,297.884977 92.9893503,290.278882 92.8254648,285.217123 C92.0280726,260.559078 91.3463643,238.138971 101.485227,215.101241 C102.548416,212.68664 103.675645,210.291362 104.849698,207.915407 C104.918558,207.875382 104.982597,207.827076 105.047325,207.78015 C105.092084,207.814654 105.132711,207.851919 105.177469,207.885733 C105.252526,207.751857 105.355127,207.592448 105.474942,207.414406 C105.811665,207.066604 106.105694,206.627022 106.385264,206.136373 C107.284568,204.888703 108.30231,203.422966 108.307819,202.6204 C108.307819,202.614189 108.304376,202.604528 108.304376,202.598317 C114.580913,192.340924 121.769837,182.648708 129.113007,173.146265 C129.057919,173.215273 137.077977,162.282979 135.837819,168.328796 C135.240119,171.242326 129.340932,176.790593 126.958395,179.876645 C121.687895,186.74228 115.498809,195.441466 110.355698,203.853578 C109.663661,204.251756 108.685857,206.206761 107.978671,207.662836 C107.588238,208.400535 107.223972,209.144444 106.865902,209.792432 C125.08955,215.820307 139.265641,203.678297 148.932128,189.555749 C148.943834,189.539187 148.954163,189.521934 148.96518,189.505373 C151.906855,185.602953 154.920144,181.728137 158.684689,178.643466 C164.965357,173.496137 171.691546,172.587988 179.09669,170.054693 C199.291094,163.146963 207.877177,136.945201 210.60401,117.503493 C213.680649,95.5698955 198.631421,61.9366306 172.357417,64.0993507" id="Leaf-Me-Alone!" fill="#89C5CC"></path>
            <path d="M153.071662,6.78709987 C131.316153,23.9387341 118.288115,50.1382315 107.399373,74.9593514 C95.2379366,102.682058 85.7655065,131.236773 81.3426971,161.215375 C78.4372744,180.911482 75.1148458,200.674519 73.4937318,220.527785 C72.9175367,227.578601 72.6275061,234.682097 72.7595157,241.755778 C72.7705735,242.337072 73.0703454,258.132063 75.940358,254.864659 C77.5725986,253.006563 75.6598558,238.483952 75.6939879,236.114689 C75.8888336,222.770438 77.3623431,209.507227 79.2989057,196.311061 C82.4871961,174.584009 84.8889281,152.859932 90.1296476,131.50286 C90.9116095,128.314055 91.6481768,124.952898 92.8584093,121.895957 C94.143927,118.645834 92.9024109,119.968955 95.7370611,119.009162 C98.4914619,118.075839 101.644298,118.707519 104.54165,117.458297 C116.034375,112.502358 123.776434,96.7114874 129.517844,86.4435166 C136.084514,74.7016798 140.875859,61.8699941 145.053073,49.1292589 C148.120964,39.7681416 150.691024,30.3966196 152.753277,20.7680859 C153.403115,17.7334903 153.866671,14.5297716 154.890462,11.60002 C155.166342,10.809692 156.179789,9.4854454 156.25157,8.76129334 C156.403392,7.22868313 155.612967,6.20368806 155.717906,4.91268496 C154.822989,5.51841429 153.940065,6.14363916 153.071662,6.78709987" id="Leaf-Me-Alone!" fill="#89C5CC" transform="translate(114.499510, 130.110962) rotate(-8.000000) translate(-114.499510, -130.110962) "></path>
            <path d="M31,269 C31,302.137085 57.6390574,329 90.5,329 C123.360943,329 150,302.137085 150,269" id="Base" fill="#89C5CC"></path>
            <path d="M131.382603,217.069895 C146.197583,215.972112 162.742345,227.985032 169.888573,240.486242 C175.649455,250.565504 174.678954,263.800891 171.120681,274.509149 C168.737915,281.678172 163.537521,291.899533 154.865136,291.999141 C144.014991,292.123826 143.491776,278.645338 143.281938,270.765821 C143.003075,260.290215 141.686065,251.164548 133.473391,244.024084 C131.559309,242.360692 129.467141,240.897214 127.533732,239.256809 C124.506266,236.689279 121.160592,234.060451 120.770597,229.812812 C120.232197,223.952631 123.523341,222.898035 128.548409,223.986762 C129.405018,224.172048 138.033917,228.063743 136.756252,224.987723 C136.366257,224.04806 134.941567,223.303434 133.143448,222.745488 C128.490428,222.236997 122.941454,221.647008 121.345581,221.999469 C104.129199,225.795735 97.4261159,249.765153 95.6459439,264.994103 C95.4538567,266.637605 95.2985175,268.286468 95.1630544,269.937864 L92.0000195,269.938408 C92.2194833,265.94991 92.5093624,261.968391 93.1727542,258.024297 C95.7101378,242.939536 103.643948,220.783967 121.044629,218.335549 C121.686568,218.2443 124.047936,218.228975 126.90836,218.397543 C128.264024,217.6362 129.782588,217.175772 131.382603,217.069895 Z" id="Leaf-Me-Alone!" fill="#69A1AC"></path>
        </g>
        <g id="Plant-Left" opacity="0.5" transform="translate(52.000000, 114.000000)">
            <path d="M146.846879,91.2257101 C150.316244,86.3119546 156.754392,73.8326287 161.637457,72.0767963 C164.782603,70.945878 163.865591,82.644362 163.904432,84.8750062 C164.055689,93.5050174 163.209861,102.080308 162.165332,110.637862 C160.283509,126.071377 154.130113,139.816095 145.690275,152.951603 C141.347313,159.710622 136.253363,166.551597 129.198004,170.7689 C125.950416,172.711054 122.042751,173.036235 118.835553,174.709558 C115.100304,176.657525 117.134513,175.082798 115.451164,178.949045 C113.113476,184.316811 112.36575,191.241802 111.284139,196.969399 C106.31791,223.262183 94.2947637,362.252698 96.3791163,388.997486 C96.5642402,391.368026 93.2365362,391.934904 93.0704153,389.04097 C92.1874541,373.69652 99.8279191,267.43644 103.682663,232.686339 C107.537407,197.936237 111.438232,167.23626 115.349582,155.213813 C120.094633,140.62803 128.664466,123.087499 135.798253,109.485624 C139.111843,103.1665 142.723722,97.0650669 146.846879,91.2257101 Z" id="Leaf" fill="#69A1AC"></path>
            <path d="M171.391082,261.862482 C180.363419,255.298095 190.0753,267.687051 181.95626,274.252447 C177.467862,277.8814 172.775503,276.590483 170.133834,273.566284 C168.418969,275.649397 166.813913,277.827493 165.271663,279.667228 C160.572822,285.273249 156.131706,291.013073 151.887287,296.886732 C143.070161,309.089116 135.514044,321.980673 127.613586,334.636499 C119.816867,347.12711 112.082491,359.681696 105.01565,372.488767 C99.0290322,383.339462 91.0496314,396.104434 89,408 C92.1098344,382.771563 103.910247,358.522568 117.96248,336.281768 C131.900369,314.223675 147.895716,290.133788 169.476739,272.726023 C167.280319,269.507195 167.219346,264.912562 171.391082,261.862482 Z" id="Leaf" fill="#C1DEE2"></path>
            <path d="M1.57457774,200.025206 C6.61076972,201.005599 14.8398507,212.345951 18.9911746,216.666713 C23.9247442,221.801333 28.4007162,227.274107 32.6198465,233.008213 C41.7027702,245.350638 49.825849,258.473198 56.7332291,272.157731 C67.9940673,294.466256 77.015463,317.366731 83.5626758,341.659466 C87.5704622,356.529927 90.165338,371.942582 91.7032011,387.247605 C91.993633,390.134041 95.0338196,412.387914 90.6530969,412.987717 C86.7130987,413.527802 87.9300171,396.089895 87.7399407,393.71791 C85.5913334,366.957483 79.154715,340.919812 70.2014377,315.696769 C68.2512856,310.202168 66.4395253,303.472263 63.320772,298.527653 C61.0748326,294.966129 63.3046657,296.208147 59.3577226,294.860282 C55.9686429,293.702233 52.107269,293.985209 48.6367747,292.567661 C41.097469,289.490034 35.0606478,283.515445 29.7689609,277.50571 C19.4853583,265.826318 11.3361263,253.191044 7.08827604,238.225627 C4.73186236,229.927793 2.56643848,221.581692 1.36476118,213.027271 C1.05390819,210.816204 -1.66919551,199.393743 1.57457774,200.025206 Z" id="Leaf" fill="#69A1AC"></path>
            <path d="M21.54093,11.2426491 C40.4592646,44.008534 56.0055771,80.0009995 66.0439431,116.455924 C72.1259948,138.543568 76.3793561,161.208736 80.6054092,183.710179 C87.1486902,218.550858 93.3378835,253.388849 95.0984159,288.848403 C96.8696245,324.513454 100.37207,365.6489 88.6782319,400 C94.5193627,365.124301 88.9582097,328.001834 87.9735553,292.909688 C87.5030126,276.157266 86.1394671,259.568628 84.3507504,242.914098 C82.614979,226.75831 79.7792196,210.679452 77.1384887,194.650647 C75.8521397,186.84433 74.5011834,179.049758 73.1257224,171.25945 C72.7151001,168.935202 72.5416445,162.038347 71.0653316,160.45055 C69.5794574,158.852299 61.9983311,158.200747 59.6182085,157.028046 C54.8254593,154.666082 50.3172318,151.311084 46.3273333,147.7661 C38.6786457,140.970453 32.0246725,132.091116 26.7728244,123.338108 C14.6214102,103.085025 9.7632807,78.3688886 10.0088302,54.9132415 C10.0560094,50.3592147 17.3895814,1.31963223 14.4443009,0.644316611 C14.6216318,0.436909325 14.7893732,0.222755066 14.9475393,0 C17.177369,3.7285119 19.3654779,7.48229144 21.54093,11.2426491 Z" id="Leaf" fill="#89C5CC"></path>
            <path d="M225.58353,129.188449 C225.876048,128.767688 227.779881,125.841418 226.821171,126.028434 C228.77314,125.647663 224.13636,129.255798 229,127.041863 C226.69071,129.216845 228.023475,132.042181 228.054298,134.969469 C228.104585,139.722084 227.307211,144.435726 226.40963,149.086368 C224.991311,156.437614 222.878399,163.585173 219.811546,170.422714 C213.127244,185.323273 201.776957,199.667783 188.302057,208.983503 C181.649871,213.583048 175.130434,215.149024 167.543612,217.26648 C162.751454,218.604217 162.371429,221.076315 159.82774,225.713786 C154.531971,235.372647 149.330514,244.996764 144.660115,254.981516 C139.08335,266.90436 133.669656,278.840346 128.562971,290.973076 C111.359465,331.841533 97.3574077,374.181866 90.0039547,418 C89.8239113,392.178108 95.813847,365.583767 103.369572,340.971209 C108.873462,323.039058 116.038494,305.753006 123.680701,288.641947 C125.532562,284.496592 128.33889,279.16426 129.125315,274.587609 C129.675971,271.38098 127.992455,268.297143 127.221648,264.919208 C124.216617,251.764902 124.431697,237.027839 127.070561,223.803198 C129.980111,209.220521 138.394394,202.452206 152.628242,200.386664 C157.833845,199.63111 164.4503,199.908026 169.223581,197.694554 C174.424,195.284155 176.569251,187.361206 179.526399,182.275295 C187.469199,168.613463 196.906395,155.510933 207.742903,143.999707 C210.743429,140.812102 213.970216,137.87132 217.393475,135.145576 C219.552181,133.425784 224.112385,131.307001 225.58353,129.188449 Z" id="Leaf" fill="#89C5CC"></path>
            <path d="M67.7953126,390 L116.204687,390 C118.966111,390 121.204687,392.238576 121.204687,395 C121.204687,395.245241 121.186644,395.49015 121.150705,395.732743 L117.862078,417.930973 C116.409243,427.737612 107.991681,435 98.0780088,435 L85.9219912,435 C76.0083186,435 67.5907574,427.737612 66.137922,417.930973 L62.8492953,395.732743 C62.4446124,393.001133 64.3309594,390.458666 67.0625693,390.053983 C67.3051627,390.018043 67.5500715,390 67.7953126,390 Z" id="Base" fill="#C1DEE2"></path>
        </g>
        <path d="M-27.140815,47.4524679 C136.294865,133.356186 283.559355,178.871981 414.652658,183.999853 C545.74596,189.127726 669.894075,153.901876 787.097005,78.3223048" id="Path-3" stroke="#AFB9C5" stroke-width="2"></path>
        <g id="Group" transform="translate(388.000000, 179.000000)">
            <g id="Group-5" transform="translate(37.500000, 60.000000) rotate(1.000000) translate(-37.500000, -60.000000) translate(1.000000, 13.000000)">
                <rect id="Rectangle" stroke="#E4E4E4" fill="#FFFFFF" x="0.791941866" y="0.841100684" width="72" height="93"></rect>
                <rect id="Rectangle" fill="#DDE3E9" x="7.96638978" y="35.8513499" width="59" height="3" rx="1.5"></rect>
                <rect id="Rectangle-Copy-3" fill="#DDE3E9" x="7.84422293" y="42.8502838" width="59" height="3" rx="1.5"></rect>
                <rect id="Rectangle-Copy-5" fill="#DDE3E9" x="7.51262721" y="61.84739" width="59" height="3" rx="1.5"></rect>
                <rect id="Rectangle-Copy-4" fill="#DDE3E9" x="7.70658364" y="50.6221841" width="33" height="3" rx="1.5"></rect>
                <rect id="Rectangle-Copy-6" fill="#DDE3E9" x="7.39198341" y="68.6717998" width="39" height="3" rx="1.5"></rect>
                <rect id="Rectangle" fill="#F2F2F2" x="7.30034623" y="8.58373143" width="30" height="19"></rect>
                <rect id="Rectangle" fill="#AFB9C5" x="41.1260089" y="82.1494564" width="26" height="7" rx="2"></rect>
            </g>
            <path d="M9.5,0.5 L9.5,17.5" id="Line" stroke="#AFB9C5" stroke-linecap="square"></path>
            <path d="M67,0.5 L67,17.5" id="Line-Copy" stroke="#AFB9C5" stroke-linecap="square"></path>
        </g>
        <g id="Group-Copy-2" transform="translate(233.061910, 214.390776) rotate(-382.000000) translate(-233.061910, -214.390776) translate(195.561910, 161.890776)">
            <g id="Group-5" transform="translate(37.500000, 57.000000) rotate(1.000000) translate(-37.500000, -57.000000) translate(1.000000, 10.000000)">
                <rect id="Rectangle" stroke="#E4E4E4" fill="#FFFFFF" x="0.791941866" y="0.841100684" width="72" height="93"></rect>
                <rect id="Rectangle" fill="#DDE3E9" x="7.96638978" y="35.8513499" width="59" height="3" rx="1.5"></rect>
                <rect id="Rectangle-Copy-3" fill="#DDE3E9" x="7.84422293" y="42.8502838" width="59" height="3" rx="1.5"></rect>
                <rect id="Rectangle-Copy-5" fill="#DDE3E9" x="7.51262721" y="61.84739" width="59" height="3" rx="1.5"></rect>
                <rect id="Rectangle-Copy-4" fill="#DDE3E9" x="7.70658364" y="50.6221841" width="33" height="3" rx="1.5"></rect>
                <rect id="Rectangle-Copy-6" fill="#DDE3E9" x="7.39198341" y="68.6717998" width="39" height="3" rx="1.5"></rect>
                <rect id="Rectangle" fill="#F2F2F2" x="7.30034623" y="8.58373143" width="30" height="19"></rect>
                <rect id="Rectangle" fill="#AFB9C5" x="41.1260089" y="82.1494564" width="26" height="7" rx="2"></rect>
            </g>
            <path d="M73.1442729,0.149869107 L67,14.5" id="Line-Copy" stroke="#AFB9C5" stroke-linecap="square"></path>
        </g>
        <g id="Group-Copy" transform="translate(320.500000, 223.000000) rotate(9.000000) translate(-320.500000, -223.000000) translate(283.000000, 169.000000)">
            <g id="Group-5" transform="translate(37.500000, 60.000000) rotate(1.000000) translate(-37.500000, -60.000000) translate(1.000000, 13.000000)">
                <rect id="Rectangle" stroke="#E4E4E4" fill="#FFFFFF" x="0.791941866" y="0.841100684" width="72" height="93"></rect>
                <rect id="Rectangle" fill="#DDE3E9" x="7.96638978" y="35.8513499" width="59" height="3" rx="1.5"></rect>
                <rect id="Rectangle-Copy-3" fill="#DDE3E9" x="7.84422293" y="42.8502838" width="59" height="3" rx="1.5"></rect>
                <rect id="Rectangle-Copy-5" fill="#DDE3E9" x="7.51262721" y="61.84739" width="59" height="3" rx="1.5"></rect>
                <rect id="Rectangle-Copy-4" fill="#DDE3E9" x="7.70658364" y="50.6221841" width="33" height="3" rx="1.5"></rect>
                <rect id="Rectangle-Copy-6" fill="#DDE3E9" x="7.39198341" y="68.6717998" width="39" height="3" rx="1.5"></rect>
                <rect id="Rectangle" fill="#F2F2F2" x="7.30034623" y="8.58373143" width="30" height="19"></rect>
                <rect id="Rectangle" fill="#AFB9C5" x="41.1260089" y="82.1494564" width="26" height="7" rx="2"></rect>
            </g>
            <path d="M9.5,0.5 L9.5,17.5" id="Line" stroke="#AFB9C5" stroke-linecap="square"></path>
            <path d="M67,0.5 L67,17.5" id="Line-Copy" stroke="#AFB9C5" stroke-linecap="square"></path>
        </g>
        <g id="Group-2" transform="translate(527.500000, 228.000000) rotate(-3.000000) translate(-527.500000, -228.000000) translate(484.000000, 169.000000)">
            <g id="Group-5-Copy" transform="translate(43.500000, 66.000000) rotate(-8.000000) translate(-43.500000, -66.000000) translate(7.000000, 19.000000)">
                <rect id="Rectangle" stroke="#E4E4E4" fill="#FFFFFF" x="0.791941866" y="0.841100684" width="72" height="93"></rect>
                <rect id="Rectangle" fill="#DDE3E9" x="7.96638978" y="35.8513499" width="59" height="3" rx="1.5"></rect>
                <rect id="Rectangle-Copy-3" fill="#DDE3E9" x="7.84422293" y="42.8502838" width="59" height="3" rx="1.5"></rect>
                <rect id="Rectangle-Copy-5" fill="#DDE3E9" x="7.51262721" y="61.84739" width="59" height="3" rx="1.5"></rect>
                <rect id="Rectangle-Copy-4" fill="#DDE3E9" x="7.70658364" y="50.6221841" width="33" height="3" rx="1.5"></rect>
                <rect id="Rectangle-Copy-6" fill="#DDE3E9" x="7.39198341" y="68.6717998" width="39" height="3" rx="1.5"></rect>
                <rect id="Rectangle" fill="#F2F2F2" x="7.30034623" y="8.58373143" width="30" height="19"></rect>
                <rect id="Rectangle" fill="#AFB9C5" x="41.1260089" y="82.1494564" width="26" height="7" rx="2"></rect>
            </g>
            <path d="M3.09722388,8.31602145 L9.5,27.5" id="Line-2" stroke="#AFB9C5" stroke-linecap="square"></path>
            <path d="M67.5852096,0.680597763 L66.5,19.5" id="Line-3" stroke="#AFB9C5" stroke-linecap="square"></path>
        </g>
        <g id="Image" transform="translate(161.000000, 167.000000)">
            <g id="Group-3" transform="translate(133.500000, 192.000000) scale(-1, 1) translate(-133.500000, -192.000000) ">
                <g id="Humaaan" transform="translate(133.500000, 192.000000) scale(-1, 1) translate(-133.500000, -192.000000) ">
                    <g id="Head/Front/Pony" transform="translate(114.043637, 54.620196) rotate(-8.000000) translate(-114.043637, -54.620196) translate(53.523637, 8.479350)">
                        <g id="Head" stroke-width="1" transform="translate(48.044118, 27.423077)" fill="#B28B67">
                            <path d="M33.9363552,8.08001758 C39.0920324,17.6348561 38.4794039,41.8714963 31.8161505,43.5792125 C29.1588512,44.2602481 23.4980102,42.5919809 17.736598,39.1391819 L21.3529412,64.5769231 L0,64.5769231 L7.35071317,30.5101694 C3.25118289,25.725565 0.476568002,19.8620107 0.940220121,13.2917477 C2.27616145,-5.63944128 28.780678,-1.47482091 33.9363552,8.08001758 Z"></path>
                        </g>
                        <path d="M75.625,17.6923077 C80.5387099,17.6923077 84.5220588,21.6528657 84.5220588,26.5384615 C84.5220588,31.2633294 80.7964899,35.1230226 76.1068294,35.3718639 C73.4243756,36.1948649 69.9776832,36.7991453 66.1553063,37.0539764 C66.526252,38.4415967 66.7279412,40.0180244 66.7279412,41.7994589 C66.7279412,43.3726107 66.5532875,45.0410349 66.2316937,46.7350854 C65.4025792,45.754634 64.2941477,45.1153846 63.1691176,45.1153846 C60.0217243,45.1153846 57.8308824,47.6897473 57.8308824,50.4230769 C57.8308824,53.8919211 59.8448695,56.4014257 62.7849517,56.602375 C60.1377409,61.6557102 56.4755162,65.4615385 52.816801,65.4615385 C45.8675614,65.4615385 40.9264706,56.2237472 40.9264706,46.2915415 C40.9264706,45.9428835 40.9334126,45.5965429 40.9471098,45.2527866 C33.5961344,50.2674005 27.9307597,60.1538462 18.2040456,60.1538462 C4.97099065,60.1538462 -0.284407163,33.6153846 18.2040456,33.6153846 C30.7776103,33.6153846 36.9624656,35.4381214 42.2926062,38.1335184 C43.3438562,35.187175 44.9461102,32.7105935 46.905295,30.9807103 C47.3767208,30.452864 48.0992787,29.9477863 49.0316433,29.4795385 C49.6015477,29.1694846 50.1903729,28.9171076 50.7955253,28.7269874 C54.0102299,27.551664 58.6686362,26.7223782 63.8725218,26.5416936 C64.8435517,26.5079786 65.7972196,26.4981092 66.7275661,26.5105311 C66.7432065,21.6377057 70.7207033,17.6923077 75.625,17.6923077 Z" id="hair" fill="#191847"></path>
                    </g>
                    <g id="Bottom/Standing/Skinny-Jeans" transform="translate(0.000000, 171.929577)">
                        <polygon id="Leg" fill="#191847" points="113.92 9.9475983e-14 146.186916 112.853995 169.729192 196.033473 186.9 196.033473 161.882967 9.9475983e-14"></polygon>
                        <path d="M105.290864,0 C104.544534,58.1662576 101.99956,89.8917151 101.215944,95.1763725 C100.432327,100.46103 88.5836329,134.080063 65.6698616,196.033473 L83.4576556,196.033473 C112.62864,136.599762 128.912629,102.980729 132.309624,95.1763725 C135.70662,87.3720163 146.190078,55.6465588 161.98,0 L105.290864,0 Z" id="Leg" fill="#2F3676"></path>
                        <g id="Accessories/Shoe/Flat-Pointy" transform="translate(64.080000, 176.518828)" fill="#191847">
                            <path d="M0,35 L0.885245902,16.625 L19.4754098,16.625 C28.2903373,22.75 39.798534,27.7083333 54,31.5 L54,35 L20.3606557,35 L8.85245902,33.25 L8.85245902,35 L0,35 Z" id="Shoe"></path>
                        </g>
                        <g id="Accessories/Shoe/Flat-Pointy" transform="translate(167.320000, 176.518828)" fill="#191847">
                            <path d="M0,35 L0.885245902,16.625 L19.4754098,16.625 C28.2903373,22.75 39.798534,27.7083333 54,31.5 L54,35 L20.3606557,35 L8.85245902,33.25 L8.85245902,35 L0,35 Z" id="Shoe"></path>
                        </g>
                    </g>
                    <g id="Body/Pointing-Up" transform="translate(129.294852, 163.138234) rotate(-8.000000) translate(-129.294852, -163.138234) translate(15.374852, 80.173445)">
                        <path d="M167.532668,61.4005817 L195.942065,82.1937228 C203.647279,84.2660403 210.084736,86.8443534 215.254436,89.9286619 C216.475609,91.0377594 217.951511,93.2838661 212.887012,92.8956827 L212.252847,92.84836 C207.385194,92.4956956 202.448786,92.3979495 201.7791,94.0479601 C201.080298,95.7697104 204.145059,97.828735 202.732474,100.151827 C201.790752,101.700555 197.341675,97.817177 189.385243,88.5016929 L161.252487,76.8740557 L167.532668,61.4005817 Z M223.046613,-15.0704775 C219.687682,-11.2726841 216.325955,-7.12740776 217.284986,-5.5349766 C218.244017,-3.94254544 221.738264,-5.14298328 222.749565,-2.62047604 C223.423766,-0.938804543 217.634624,0.265643789 205.382138,0.992868961 L179.134586,16.3892248 L170.515716,2.07794955 L204.273767,-8.02267851 C210.571359,-12.9089776 216.511433,-16.4816102 222.09399,-18.7405761 C223.717593,-19.0451741 226.405543,-18.868271 223.046613,-15.0704775 Z" id="Skin" fill="#B28B67"></path>
                        <path d="M113.133048,13.9171506 C135.518314,37.6855254 162.831923,53.185005 200.089459,66.9222459 L191.79959,83.4313593 C153.349659,79.8476853 132.79442,76.9772065 116.698,53.1669787 C112.658126,47.1910942 105.442727,26.6237086 101.118821,15.9435077 L113.133048,13.9171506 Z" id="Coat-Back" fill="#E87613" transform="translate(150.604140, 48.674255) rotate(15.000000) translate(-150.604140, -48.674255) "></path>
                        <path d="M80.15625,101.197861 L148.734375,101.197861 C133.200281,53.9769693 125.264877,21.5674848 124.928161,3.96940752 C124.910995,3.07224053 123.248587,1.49130558 122.513102,1.69834309 C117.134576,3.21238604 111.379128,2.64627168 105.246759,0 C88.98901,26.0614734 83.3667984,58.148424 80.15625,101.197861 Z" id="Shirt" fill="#F2F2F2"></path>
                        <path d="M199.431133,-7.98930481 L203.0625,10.0962446 C175.262884,27.9168684 147.113439,41.721497 122.447616,39.7606908 C133.159528,85.5534641 132.66587,123.04059 109.019155,123.04059 L109.019155,123.04059 L72.4533473,123.04059 C66.645853,84.1397605 81.9090846,30.2027814 96.05921,2.99740455 C96.5995607,1.95851315 97.7500215,-3.22408766e-13 100.459829,-3.22408766e-13 L100.459829,-3.22408766e-13 L111.084774,-3.22408766e-13 C111.089439,0.0140003699 111.094103,0.028000728 111.098767,0.0420010735 C130.755333,0.202388251 162.648868,3.78061392 199.431133,-7.98930481 Z" id="Coat-Front" fill="#FF9B21"></path>
                    </g>
                </g>
            </g>
        </g>
    </g>
</svg>