<?xml version="1.0" encoding="UTF-8"?>
<svg width="670px" height="560px" viewBox="0 0 670 560" version="1.1" xmlns="http://www.w3.org/2000/svg" xmlns:xlink="http://www.w3.org/1999/xlink">
    <!-- Generator: Sketch 58 (84663) - https://sketch.com -->
    <title>Web—Section Left Copy 3</title>
    <desc>Created with Sketch.</desc>
    <g id="Web—Section-Left-Copy-3" stroke="none" stroke-width="1" fill="none" fill-rule="evenodd">
        <g id="Background-Shape-2" opacity="0.504510789" transform="translate(35.000000, 225.000000)" fill="#F2F2F2" fill-rule="nonzero">
            <path d="M555.761814,177.647373 C563.720698,246.321216 370.704218,291.114813 204.570459,259.854441 C38.4366997,228.59407 -37.7775918,106.518792 41.4986682,41.4722859 C120.774928,-23.5742207 547.80293,108.97353 555.761814,177.647373 Z" id="Background-Shape" transform="translate(283.000000, 147.000000) rotate(5.000000) translate(-283.000000, -147.000000) "></path>
        </g>
        <path d="M117.145514,198.772279 C117.376885,199.883065 117.699946,200.962988 118.130692,202 C117.543917,201.092821 117.245869,199.985543 117.145514,198.772279 Z M215.163846,44.868658 C214.98512,47.6993298 213.693714,50.274863 212.156373,52.5608047 C211.99143,52.8028852 212.038469,52.7911189 211.995929,52.4540318 C211.972239,52.6206668 211.916115,52.7436657 211.832908,52.8327819 C211.911432,54.3227223 212.065146,55.8481026 211.990272,57.1666021 C211.775633,60.9424357 211.331331,64.7403875 210.687153,68.467834 C210.530465,69.374379 210.351055,70.273572 210.150019,71.164982 C211.668789,69.878295 213.716233,68.734756 214.517334,68.377069 C216.596536,67.4496514 219.800624,66.4478119 221.864547,68.01615 C223.576852,69.317181 223.657381,71.615748 222.257313,73.172332 C220.590158,75.025431 217.547746,74.959534 215.276747,74.780205 C214.249464,74.69897 208.764258,74.26506 210.064937,73.371914 C209.964893,73.409512 209.755965,73.500783 209.532366,73.624788 C209.411853,74.061882 209.285304,74.497436 209.15344,74.931039 C209.185691,74.949783 209.213173,74.969894 209.247651,74.988521 C209.210319,74.972274 209.184086,74.954699 209.151209,74.938218 C207.82986,79.272162 205.950071,83.399111 203.489424,87.260409 C204.409505,86.899807 205.362446,86.626673 206.32887,86.504839 C209.190758,86.143534 215.209736,88.351538 212.006749,92.14151 C208.935561,95.774769 204.15913,91.880954 200.675987,91.345425 C197.294762,96.035643 193.567178,100.530752 189.660882,104.875822 C189.90005,104.950207 190.109926,105.105296 190.230127,105.346869 C191.796748,104.55606 193.429375,103.425055 194.879055,103.118353 C196.970941,102.676399 201.260126,102.406874 202.840073,104.267527 C204.783338,106.555428 202.698106,108.415657 200.400622,108.855791 C197.069225,109.494156 192.709536,107.878245 189.504868,106.786556 C189.138189,106.851191 188.73801,106.744766 188.499052,106.453321 C188.428232,106.430288 188.357432,106.407625 188.288526,106.385606 C184.332727,110.709494 180.225783,114.890811 176.143839,118.980501 C176.187277,118.978215 176.230696,118.975559 176.275991,118.973176 C177.340585,118.278653 178.482414,117.70866 179.719927,117.409776 C182.582633,116.714677 185.950438,116.709563 188.272229,118.767561 C190.584997,120.816742 191.402822,124.402227 189.007909,126.705786 C184.214193,131.316825 177.160136,120.812459 174.743503,120.375056 C170.595366,124.487554 166.209392,128.330104 161.754601,132.095254 C162.26035,131.941908 162.779015,131.829138 163.315057,131.778264 C167.681755,131.360456 177.92803,136.677604 172.566613,141.916884 C167.894496,146.482501 162.494044,137.702231 158.7323,134.632518 C154.534433,138.141827 150.313716,141.627066 146.2114,145.24805 C148.448114,144.656502 150.609477,144.568429 153.006562,145.287464 C155.486912,146.032594 159.488936,147.892921 157.91903,151.223825 C156.322286,154.611146 151.516171,153.072614 149.01307,151.998647 C147.647852,151.41301 144.911053,149.435198 142.507676,148.602766 C135.961287,154.748059 130.290254,161.515912 125.995472,169.487263 C123.31423,174.464368 121.27878,179.781386 119.845196,185.245877 C118.930145,188.733731 117.127701,194.59189 117.485633,199.13072 C115.773163,190.046029 118.883495,179.1325 122.232218,171.009856 C125.311267,163.540656 129.91698,156.982721 135.310727,151.07907 C133.960015,147.034377 122.576494,141.205452 129.38542,137.44355 C133.001096,135.454484 136.701661,138.75004 137.490029,142.241929 C138.031509,144.641493 137.203126,147.657239 136.32441,149.986948 C138.02116,148.187298 139.78496,146.445445 141.602406,144.761349 C144.114081,142.433807 146.685866,140.173718 149.282216,137.942069 C145.007697,133.949745 140.966172,122.53241 146.701133,120.661898 C155.169817,117.90758 151.084894,133.48617 150.492738,136.405864 C150.324984,136.415805 150.194288,136.365446 150.098189,136.257517 C150.14565,136.524845 150.20078,136.810724 150.267575,137.098963 C155.236924,132.849971 160.279875,128.684447 165.156813,124.334023 C164.717803,124.011477 164.020184,122.778592 163.471806,122.122475 C162.234175,120.643346 161.050059,119.098218 160.184987,117.367571 C158.818515,114.632693 157.501458,110.269946 161.128311,108.659013 C165.072643,106.903897 166.944081,111.838077 166.970074,114.782112 C166.987762,116.818248 166.429058,118.752771 166.13751,120.748685 C166.046407,121.371176 166.394643,124.176724 165.542412,122.970185 C165.582395,123.415188 165.588052,123.737491 165.567964,123.966004 C166.443557,123.181076 167.312374,122.387585 168.175684,121.588438 C168.135797,121.487587 168.106231,121.377644 168.099575,121.250144 C168.053758,120.372464 168.942232,120.033965 169.565068,120.290719 C170.704286,119.214291 171.832373,118.124326 172.940346,117.012748 C175.288644,114.657751 177.671034,112.235549 180.03696,109.761808 C179.524168,109.323842 179.728516,108.716948 179.248937,108.251961 C178.770158,107.788048 177.82681,107.531805 177.263759,107.100942 C175.847565,106.016619 174.67353,104.436397 173.824684,102.881063 C172.423267,100.311181 170.613204,94.919604 174.711668,93.692311 C178.936124,92.425312 181.077412,97.615119 181.347341,100.860373 C181.399891,101.489058 180.923517,107.154428 180.559973,109.211737 C184.937816,104.614402 189.243744,99.844684 193.145144,94.992185 C191.962971,94.98191 188.612609,92.575522 187.935385,91.918751 C186.282949,90.31687 183.656691,86.776731 186.556057,84.901171 C189.134041,83.237641 192.309405,85.643574 193.410262,87.982858 C193.591198,88.368041 194.228103,91.953753 194.277099,93.562691 C195.891876,91.504963 197.43231,89.435164 198.865551,87.358741 C199.82137,85.978282 200.714601,84.561348 201.550421,83.114358 C201.349434,83.00117 201.16043,82.803728 200.981943,82.55816 C196.684125,81.835065 191.207587,75.170196 196.257403,72.847743 C198.661682,71.743409 201.267352,74.019129 202.443898,75.882796 C202.684939,76.264073 203.074668,78.181401 203.391878,79.69372 C205.796791,74.900258 207.635311,69.825889 209.035288,64.6233284 C208.661168,64.5311426 208.344418,64.2471353 208.302894,63.7583576 C206.216711,62.5766019 204.569349,61.5925241 203.113771,59.3187316 C202.209475,57.9064308 200.581286,54.6794932 203.240844,53.8939914 C206.701871,52.8719435 208.872944,58.1259677 209.15474,60.7142456 C209.187548,61.0146787 209.185886,61.888538 209.174081,62.6893423 C209.29422,62.6729866 209.415679,62.6747727 209.534782,62.6956374 C210.331207,59.4741863 210.967251,56.211371 211.473455,52.9431223 C209.58499,52.3396728 209.263375,42.4775089 210.521701,41.0725858 C213.334282,37.926799 215.315131,42.4679535 215.163846,44.868658 Z M223.624923,53.2758907 C221.919082,57.3114591 215.612118,57.3613135 212.050219,57.2813251 C212.406721,57.2625682 213.554728,53.5618876 213.947749,53.0026842 C215.106819,51.3530525 216.775813,50.1575246 218.536298,49.27955 C221.39992,47.8540013 225.217419,49.5073207 223.624923,53.2758907 Z" id="Leaf-Top" fill="#C1DEE2" fill-rule="nonzero" opacity="0.2"></path>
        <g id="Plant-Right" opacity="0.7" transform="translate(424.000000, 187.000000)" fill-rule="nonzero">
            <path d="M65.3082276,92.8048177 C54.1432316,93.393659 41.0942837,101.342913 41.1829536,113.582869 C41.2476238,122.476248 42.4366915,131.225857 42.0287488,140.155615 C41.702118,147.292382 40.1586247,154.272662 37.7593652,160.994465 C35.4523325,167.458187 29.8756395,173.340114 28.9729308,180.08118 C28.3974874,184.376469 29.5853098,190.208788 31.4166354,194.158631 C33.6436639,198.960983 32.6969117,198.662437 29.7420137,203.198972 C23.9518359,212.089199 18.8456947,221.118436 15.6387867,231.346582 C11.0193359,246.078783 8.75095327,262.97009 12.6362716,278.156538 C13.1302425,280.085042 14.210492,287.078158 16.9492268,287.287046 C20.0080736,287.520914 18.1822528,283.648371 17.8855435,282.366626 C15.9935908,274.188171 14.3250549,267.040904 14.672288,258.496227 C16.0124906,225.528033 36.9696459,201.696779 49.1833015,172.55179 C49.8645832,171.043395 51.2624779,167.475185 52.2470817,165.114575 C53.8015395,161.387695 55.0318012,154.477679 57.3629317,151.590356 C61.7531129,146.15101 58.2815671,156.523287 57.5238856,158.513379 C56.5660238,161.030666 55.502899,163.710786 54.4840382,165.935421 C49.8353382,176.239568 44.621398,187.502104 39.8182552,198.125038 C65.7491751,201.254753 80.3710805,168.823562 85.0549694,148.020085 C88.9141776,130.8803 91.5457195,91.4790138 65.3082276,92.8048177" id="Leaf-Me-Alone!" fill="#69A1AC" transform="translate(49.068054, 190.034684) scale(-1, 1) rotate(6.000000) translate(-49.068054, -190.034684) "></path>
            <path d="M172.357417,64.0993507 C153.670345,65.5837192 141.673655,77.9286139 136.089156,95.1951804 C133.07931,104.500259 132.734324,114.059289 131.061729,123.621769 C128.545605,138.008619 123.131877,148.911241 112.551626,159.161043 C109.274605,162.335425 106.859705,165.594687 105.14304,169.081676 C101.735186,172.563145 98.7687222,176.502829 96.5893212,181.319608 C93.8053345,187.471008 93.0175826,194.851445 96.2319408,200.984213 C97.0961266,202.632821 99.2521154,205.942459 101.486604,207.44615 C93.1208718,225.283415 88.5210619,244.818975 89.0395734,264.329691 C89.3528838,276.107338 89.9271714,287.889815 90.5971737,299.652969 C90.7775854,302.811479 91.8049681,308.027126 93.3481079,302.730049 C94.7604148,297.884977 92.9893503,290.278882 92.8254648,285.217123 C92.0280726,260.559078 91.3463643,238.138971 101.485227,215.101241 C102.548416,212.68664 103.675645,210.291362 104.849698,207.915407 C104.918558,207.875382 104.982597,207.827076 105.047325,207.78015 C105.092084,207.814654 105.132711,207.851919 105.177469,207.885733 C105.252526,207.751857 105.355127,207.592448 105.474942,207.414406 C105.811665,207.066604 106.105694,206.627022 106.385264,206.136373 C107.284568,204.888703 108.30231,203.422966 108.307819,202.6204 C108.307819,202.614189 108.304376,202.604528 108.304376,202.598317 C114.580913,192.340924 121.769837,182.648708 129.113007,173.146265 C129.057919,173.215273 137.077977,162.282979 135.837819,168.328796 C135.240119,171.242326 129.340932,176.790593 126.958395,179.876645 C121.687895,186.74228 115.498809,195.441466 110.355698,203.853578 C109.663661,204.251756 108.685857,206.206761 107.978671,207.662836 C107.588238,208.400535 107.223972,209.144444 106.865902,209.792432 C125.08955,215.820307 139.265641,203.678297 148.932128,189.555749 C148.943834,189.539187 148.954163,189.521934 148.96518,189.505373 C151.906855,185.602953 154.920144,181.728137 158.684689,178.643466 C164.965357,173.496137 171.691546,172.587988 179.09669,170.054693 C199.291094,163.146963 207.877177,136.945201 210.60401,117.503493 C213.680649,95.5698955 198.631421,61.9366306 172.357417,64.0993507" id="Leaf-Me-Alone!" fill="#89C5CC"></path>
            <path d="M153.071662,6.78709988 C131.316153,23.9387341 118.288115,50.1382315 107.399373,74.9593514 C95.2379366,102.682058 85.7655065,131.236773 81.3426971,161.215375 C78.4372744,180.911482 75.1148458,200.674519 73.4937318,220.527785 C72.9175367,227.578601 72.6275061,234.682097 72.7595157,241.755778 C72.7705735,242.337072 73.0703454,258.132063 75.940358,254.864659 C77.5725986,253.006563 75.6598558,238.483952 75.6939879,236.114689 C75.8888336,222.770438 77.3623431,209.507227 79.2989057,196.311061 C82.4871961,174.584009 84.8889281,152.859932 90.1296476,131.50286 C90.9116095,128.314055 91.6481768,124.952898 92.8584093,121.895957 C94.143927,118.645834 92.9024109,119.968955 95.7370611,119.009162 C98.4914619,118.075839 101.644298,118.707519 104.54165,117.458297 C116.034375,112.502358 123.776434,96.7114874 129.517844,86.4435166 C136.084514,74.7016798 140.875859,61.8699941 145.053073,49.1292589 C148.120964,39.7681416 150.691024,30.3966196 152.753277,20.7680859 C153.403115,17.7334903 153.866671,14.5297716 154.890462,11.60002 C155.166342,10.809692 156.179789,9.48544541 156.25157,8.76129335 C156.403392,7.22868314 155.612967,6.20368807 155.717906,4.91268497 C154.822989,5.5184143 153.940065,6.14363917 153.071662,6.78709988" id="Leaf-Me-Alone!" fill="#89C5CC" transform="translate(114.499510, 130.110962) rotate(-8.000000) translate(-114.499510, -130.110962) "></path>
            <path d="M31,269 C31,302.137085 57.6390574,329 90.5,329 C123.360943,329 150,302.137085 150,269" id="Base" fill="#89C5CC"></path>
            <path d="M131.382603,217.069895 C146.197583,215.972112 162.742345,227.985032 169.888573,240.486242 C175.649455,250.565504 174.678954,263.800891 171.120681,274.509149 C168.737915,281.678172 163.537521,291.899533 154.865136,291.999141 C144.014991,292.123826 143.491776,278.645338 143.281938,270.765821 C143.003075,260.290215 141.686065,251.164548 133.473391,244.024084 C131.559309,242.360692 129.467141,240.897214 127.533732,239.256809 C124.506266,236.689279 121.160592,234.060451 120.770597,229.812812 C120.232197,223.952631 123.523341,222.898035 128.548409,223.986762 C129.405018,224.172048 138.033917,228.063743 136.756252,224.987723 C136.366257,224.04806 134.941567,223.303434 133.143448,222.745488 C128.490428,222.236997 122.941454,221.647008 121.345581,221.999469 C104.129199,225.795735 97.4261159,249.765153 95.6459439,264.994103 C95.4538567,266.637605 95.2985175,268.286468 95.1630544,269.937864 L92.0000195,269.938408 C92.2194833,265.94991 92.5093624,261.968391 93.1727542,258.024297 C95.7101378,242.939536 103.643948,220.783967 121.044629,218.335549 C121.686568,218.2443 124.047936,218.228975 126.90836,218.397543 C128.264024,217.6362 129.782588,217.175772 131.382603,217.069895 Z" id="Leaf-Me-Alone!" fill="#69A1AC"></path>
        </g>
        <g id="Plant-Left" opacity="0.5" transform="translate(46.000000, 82.000000)" fill-rule="nonzero">
            <path d="M146.846879,91.2257101 C150.316244,86.3119546 156.754392,73.8326287 161.637457,72.0767963 C164.782603,70.945878 163.865591,82.644362 163.904432,84.8750062 C164.055689,93.5050174 163.209861,102.080308 162.165332,110.637862 C160.283509,126.071377 154.130113,139.816095 145.690275,152.951603 C141.347313,159.710622 136.253363,166.551597 129.198004,170.7689 C125.950416,172.711054 122.042751,173.036235 118.835553,174.709558 C115.100304,176.657525 117.134513,175.082798 115.451164,178.949045 C113.113476,184.316811 112.36575,191.241802 111.284139,196.969399 C106.31791,223.262183 94.2947637,362.252698 96.3791163,388.997486 C96.5642402,391.368026 93.2365362,391.934904 93.0704153,389.04097 C92.1874541,373.69652 99.8279191,267.43644 103.682663,232.686339 C107.537407,197.936237 111.438232,167.23626 115.349582,155.213813 C120.094633,140.62803 128.664466,123.087499 135.798253,109.485624 C139.111843,103.1665 142.723722,97.0650669 146.846879,91.2257101 Z" id="Leaf" fill="#69A1AC"></path>
            <path d="M171.391082,261.862482 C180.363419,255.298095 190.0753,267.687051 181.95626,274.252447 C177.467862,277.8814 172.775503,276.590483 170.133834,273.566284 C168.418969,275.649397 166.813913,277.827493 165.271663,279.667228 C160.572822,285.273249 156.131706,291.013073 151.887287,296.886732 C143.070161,309.089116 135.514044,321.980673 127.613586,334.636499 C119.816867,347.12711 112.082491,359.681696 105.01565,372.488767 C99.0290322,383.339462 91.0496314,396.104434 89,408 C92.1098344,382.771563 103.910247,358.522568 117.96248,336.281768 C131.900369,314.223675 147.895716,290.133788 169.476739,272.726023 C167.280319,269.507195 167.219346,264.912562 171.391082,261.862482 Z" id="Leaf" fill="#C1DEE2"></path>
            <path d="M1.57457774,200.025206 C6.61076972,201.005599 14.8398507,212.345951 18.9911746,216.666713 C23.9247442,221.801333 28.4007162,227.274107 32.6198465,233.008213 C41.7027702,245.350638 49.825849,258.473198 56.7332291,272.157731 C67.9940673,294.466256 77.015463,317.366731 83.5626758,341.659466 C87.5704622,356.529927 90.165338,371.942582 91.7032011,387.247605 C91.993633,390.134041 95.0338196,412.387914 90.6530969,412.987717 C86.7130987,413.527802 87.9300171,396.089895 87.7399407,393.71791 C85.5913334,366.957483 79.154715,340.919812 70.2014377,315.696769 C68.2512856,310.202168 66.4395253,303.472263 63.320772,298.527653 C61.0748326,294.966129 63.3046657,296.208147 59.3577226,294.860282 C55.9686429,293.702233 52.107269,293.985209 48.6367747,292.567661 C41.097469,289.490034 35.0606478,283.515445 29.7689609,277.50571 C19.4853583,265.826318 11.3361263,253.191044 7.08827604,238.225627 C4.73186236,229.927793 2.56643848,221.581692 1.36476118,213.027271 C1.05390819,210.816204 -1.66919551,199.393743 1.57457774,200.025206 Z" id="Leaf" fill="#69A1AC"></path>
            <path d="M21.54093,11.2426491 C40.4592646,44.008534 56.0055771,80.0009995 66.0439431,116.455924 C72.1259948,138.543568 76.3793561,161.208736 80.6054092,183.710179 C87.1486902,218.550858 93.3378835,253.388849 95.0984159,288.848403 C96.8696245,324.513454 100.37207,365.6489 88.6782319,400 C94.5193627,365.124301 88.9582097,328.001834 87.9735553,292.909688 C87.5030126,276.157266 86.1394671,259.568628 84.3507504,242.914098 C82.614979,226.75831 79.7792196,210.679452 77.1384887,194.650647 C75.8521397,186.84433 74.5011834,179.049758 73.1257224,171.25945 C72.7151001,168.935202 72.5416445,162.038347 71.0653316,160.45055 C69.5794574,158.852299 61.9983311,158.200747 59.6182085,157.028046 C54.8254593,154.666082 50.3172318,151.311084 46.3273333,147.7661 C38.6786457,140.970453 32.0246725,132.091116 26.7728244,123.338108 C14.6214102,103.085025 9.7632807,78.3688886 10.0088302,54.9132415 C10.0560094,50.3592147 17.3895814,1.31963223 14.4443009,0.644316611 C14.6216318,0.436909325 14.7893732,0.222755066 14.9475393,0 C17.177369,3.7285119 19.3654779,7.48229144 21.54093,11.2426491 Z" id="Leaf" fill="#89C5CC"></path>
            <path d="M225.58353,129.188449 C225.876048,128.767688 227.779881,125.841418 226.821171,126.028434 C228.77314,125.647663 224.13636,129.255798 229,127.041863 C226.69071,129.216845 228.023475,132.042181 228.054298,134.969469 C228.104585,139.722084 227.307211,144.435726 226.40963,149.086368 C224.991311,156.437614 222.878399,163.585173 219.811546,170.422714 C213.127244,185.323273 201.776957,199.667783 188.302057,208.983503 C181.649871,213.583048 175.130434,215.149024 167.543612,217.26648 C162.751454,218.604217 162.371429,221.076315 159.82774,225.713786 C154.531971,235.372647 149.330514,244.996764 144.660115,254.981516 C139.08335,266.90436 133.669656,278.840346 128.562971,290.973076 C111.359465,331.841533 97.3574077,374.181866 90.0039547,418 C89.8239113,392.178108 95.813847,365.583767 103.369572,340.971209 C108.873462,323.039058 116.038494,305.753006 123.680701,288.641947 C125.532562,284.496592 128.33889,279.16426 129.125315,274.587609 C129.675971,271.38098 127.992455,268.297143 127.221648,264.919208 C124.216617,251.764902 124.431697,237.027839 127.070561,223.803198 C129.980111,209.220521 138.394394,202.452206 152.628242,200.386664 C157.833845,199.63111 164.4503,199.908026 169.223581,197.694554 C174.424,195.284155 176.569251,187.361206 179.526399,182.275295 C187.469199,168.613463 196.906395,155.510933 207.742903,143.999707 C210.743429,140.812102 213.970216,137.87132 217.393475,135.145576 C219.552181,133.425784 224.112385,131.307001 225.58353,129.188449 Z" id="Leaf" fill="#89C5CC"></path>
            <path d="M67.7953126,390 L116.204687,390 C118.966111,390 121.204687,392.238576 121.204687,395 C121.204687,395.245241 121.186644,395.49015 121.150705,395.732743 L117.862078,417.930973 C116.409243,427.737612 107.991681,435 98.0780088,435 L85.9219912,435 C76.0083186,435 67.5907574,427.737612 66.137922,417.930973 L62.8492953,395.732743 C62.4446124,393.001133 64.3309594,390.458666 67.0625693,390.053983 C67.3051627,390.018043 67.5500715,390 67.7953126,390 Z" id="Base" fill="#C1DEE2"></path>
        </g>
        <path d="M-33.140815,15.4524679 C130.294865,101.356186 277.559355,146.871981 408.652658,151.999853 C539.74596,157.127726 663.894075,121.901876 781.097005,46.3223048" id="Path-3" stroke="#AFB9C5" stroke-width="2"></path>
        <g id="Group" transform="translate(382.000000, 147.000000)">
            <g id="Group-5" transform="translate(37.500000, 60.000000) rotate(1.000000) translate(-37.500000, -60.000000) translate(1.000000, 13.000000)" fill-rule="nonzero">
                <rect id="Rectangle" stroke="#E4E4E4" fill="#FFFFFF" x="0.791941866" y="0.841100684" width="72" height="93"></rect>
                <rect id="Rectangle" fill="#DDE3E9" x="7.96638978" y="35.8513499" width="59" height="3" rx="1.5"></rect>
                <rect id="Rectangle-Copy-3" fill="#DDE3E9" x="7.84422293" y="42.8502838" width="59" height="3" rx="1.5"></rect>
                <rect id="Rectangle-Copy-5" fill="#DDE3E9" x="7.51262721" y="61.84739" width="59" height="3" rx="1.5"></rect>
                <rect id="Rectangle-Copy-4" fill="#DDE3E9" x="7.70658364" y="50.6221841" width="33" height="3" rx="1.5"></rect>
                <rect id="Rectangle-Copy-6" fill="#DDE3E9" x="7.39198341" y="68.6717998" width="39" height="3" rx="1.5"></rect>
                <rect id="Rectangle" fill="#F2F2F2" x="7.30034623" y="8.58373143" width="30" height="19"></rect>
                <rect id="Rectangle" fill="#AFB9C5" x="41.1260089" y="82.1494564" width="26" height="7" rx="2"></rect>
            </g>
            <path d="M9.5,0.5 L9.5,17.5" id="Line" stroke="#AFB9C5" stroke-linecap="square"></path>
            <path d="M67,0.5 L67,17.5" id="Line-Copy" stroke="#AFB9C5" stroke-linecap="square"></path>
        </g>
        <g id="Group-Copy-2" transform="translate(227.061910, 182.390776) rotate(-22.000000) translate(-227.061910, -182.390776) translate(189.561910, 129.890776)">
            <g id="Group-5" transform="translate(37.500000, 57.000000) rotate(1.000000) translate(-37.500000, -57.000000) translate(1.000000, 10.000000)" fill-rule="nonzero">
                <rect id="Rectangle" stroke="#E4E4E4" fill="#FFFFFF" x="0.791941866" y="0.841100684" width="72" height="93"></rect>
                <rect id="Rectangle" fill="#DDE3E9" x="7.96638978" y="35.8513499" width="59" height="3" rx="1.5"></rect>
                <rect id="Rectangle-Copy-3" fill="#DDE3E9" x="7.84422293" y="42.8502838" width="59" height="3" rx="1.5"></rect>
                <rect id="Rectangle-Copy-5" fill="#DDE3E9" x="7.51262721" y="61.84739" width="59" height="3" rx="1.5"></rect>
                <rect id="Rectangle-Copy-4" fill="#DDE3E9" x="7.70658364" y="50.6221841" width="33" height="3" rx="1.5"></rect>
                <rect id="Rectangle-Copy-6" fill="#DDE3E9" x="7.39198341" y="68.6717998" width="39" height="3" rx="1.5"></rect>
                <rect id="Rectangle" fill="#F2F2F2" x="7.30034623" y="8.58373143" width="30" height="19"></rect>
                <rect id="Rectangle" fill="#AFB9C5" x="41.1260089" y="82.1494564" width="26" height="7" rx="2"></rect>
            </g>
            <path d="M73.1442729,0.149869107 L67,14.5" id="Line-Copy" stroke="#AFB9C5" stroke-linecap="square"></path>
        </g>
        <g id="Group-Copy" transform="translate(314.500000, 191.000000) rotate(9.000000) translate(-314.500000, -191.000000) translate(277.000000, 137.000000)">
            <g id="Group-5" transform="translate(37.500000, 60.000000) rotate(1.000000) translate(-37.500000, -60.000000) translate(1.000000, 13.000000)" fill-rule="nonzero">
                <rect id="Rectangle" stroke="#E4E4E4" fill="#FFFFFF" x="0.791941866" y="0.841100684" width="72" height="93"></rect>
                <rect id="Rectangle" fill="#DDE3E9" x="7.96638978" y="35.8513499" width="59" height="3" rx="1.5"></rect>
                <rect id="Rectangle-Copy-3" fill="#DDE3E9" x="7.84422293" y="42.8502838" width="59" height="3" rx="1.5"></rect>
                <rect id="Rectangle-Copy-5" fill="#DDE3E9" x="7.51262721" y="61.84739" width="59" height="3" rx="1.5"></rect>
                <rect id="Rectangle-Copy-4" fill="#DDE3E9" x="7.70658364" y="50.6221841" width="33" height="3" rx="1.5"></rect>
                <rect id="Rectangle-Copy-6" fill="#DDE3E9" x="7.39198341" y="68.6717998" width="39" height="3" rx="1.5"></rect>
                <rect id="Rectangle" fill="#F2F2F2" x="7.30034623" y="8.58373143" width="30" height="19"></rect>
                <rect id="Rectangle" fill="#AFB9C5" x="41.1260089" y="82.1494564" width="26" height="7" rx="2"></rect>
            </g>
            <path d="M9.5,0.5 L9.5,17.5" id="Line" stroke="#AFB9C5" stroke-linecap="square"></path>
            <path d="M67,0.5 L67,17.5" id="Line-Copy" stroke="#AFB9C5" stroke-linecap="square"></path>
        </g>
        <g id="Group-2" transform="translate(521.500000, 196.000000) rotate(-3.000000) translate(-521.500000, -196.000000) translate(478.000000, 137.000000)">
            <g id="Group-5-Copy" transform="translate(43.500000, 66.000000) rotate(-8.000000) translate(-43.500000, -66.000000) translate(7.000000, 19.000000)" fill-rule="nonzero">
                <rect id="Rectangle" stroke="#E4E4E4" fill="#FFFFFF" x="0.791941866" y="0.841100684" width="72" height="93"></rect>
                <rect id="Rectangle" fill="#DDE3E9" x="7.96638978" y="35.8513499" width="59" height="3" rx="1.5"></rect>
                <rect id="Rectangle-Copy-3" fill="#DDE3E9" x="7.84422293" y="42.8502838" width="59" height="3" rx="1.5"></rect>
                <rect id="Rectangle-Copy-5" fill="#DDE3E9" x="7.51262721" y="61.84739" width="59" height="3" rx="1.5"></rect>
                <rect id="Rectangle-Copy-4" fill="#DDE3E9" x="7.70658364" y="50.6221841" width="33" height="3" rx="1.5"></rect>
                <rect id="Rectangle-Copy-6" fill="#DDE3E9" x="7.39198341" y="68.6717998" width="39" height="3" rx="1.5"></rect>
                <rect id="Rectangle" fill="#F2F2F2" x="7.30034623" y="8.58373143" width="30" height="19"></rect>
                <rect id="Rectangle" fill="#AFB9C5" x="41.1260089" y="82.1494564" width="26" height="7" rx="2"></rect>
            </g>
            <path d="M3.09722388,8.31602145 L9.5,27.5" id="Line-2" stroke="#AFB9C5" stroke-linecap="square"></path>
            <path d="M67.5852096,0.680597763 L66.5,19.5" id="Line-3" stroke="#AFB9C5" stroke-linecap="square"></path>
        </g>
        <g id="Image" transform="translate(162.000000, 141.000000)">
            <g id="Group-3" transform="translate(133.500000, 189.000000) scale(-1, 1) translate(-133.500000, -189.000000) ">
                <g id="Humaaan" transform="translate(133.500000, 189.000000) scale(-1, 1) translate(-133.500000, -189.000000) ">
                    <g id="Head/Front/Pony" transform="translate(114.043637, 48.620196) rotate(2.000000) translate(-114.043637, -48.620196) translate(53.523637, 2.479350)">
                        <g id="Head" stroke-width="1" transform="translate(48.044118, 27.423077)" fill="#B28B67">
                            <path d="M33.9363552,8.08001758 C39.0920324,17.6348561 38.4794039,41.8714963 31.8161505,43.5792125 C29.1588512,44.2602481 23.4980102,42.5919809 17.736598,39.1391819 L21.3529412,64.5769231 L0,64.5769231 L7.35071317,30.5101694 C3.25118289,25.725565 0.476568002,19.8620107 0.940220121,13.2917477 C2.27616145,-5.63944128 28.780678,-1.47482091 33.9363552,8.08001758 Z"></path>
                        </g>
                        <path d="M75.625,17.6923077 C80.5387099,17.6923077 84.5220588,21.6528657 84.5220588,26.5384615 C84.5220588,31.2633294 80.7964899,35.1230226 76.1068294,35.3718639 C73.4243756,36.1948649 69.9776832,36.7991453 66.1553063,37.0539764 C66.526252,38.4415967 66.7279412,40.0180244 66.7279412,41.7994589 C66.7279412,43.3726107 66.5532875,45.0410349 66.2316937,46.7350854 C65.4025792,45.754634 64.2941477,45.1153846 63.1691176,45.1153846 C60.0217243,45.1153846 57.8308824,47.6897473 57.8308824,50.4230769 C57.8308824,53.8919211 59.8448695,56.4014257 62.7849517,56.602375 C60.1377409,61.6557102 56.4755162,65.4615385 52.816801,65.4615385 C45.8675614,65.4615385 40.9264706,56.2237472 40.9264706,46.2915415 C40.9264706,45.9428835 40.9334126,45.5965429 40.9471098,45.2527866 C33.5961344,50.2674005 27.9307597,60.1538462 18.2040456,60.1538462 C4.97099065,60.1538462 -0.284407163,33.6153846 18.2040456,33.6153846 C30.7776103,33.6153846 36.9624656,35.4381214 42.2926062,38.1335184 C43.3438562,35.187175 44.9461102,32.7105935 46.905295,30.9807103 C47.3767208,30.452864 48.0992787,29.9477863 49.0316433,29.4795385 C49.6015477,29.1694846 50.1903729,28.9171076 50.7955253,28.7269874 C54.0102299,27.551664 58.6686362,26.7223782 63.8725218,26.5416936 C64.8435517,26.5079786 65.7972196,26.4981092 66.7275661,26.5105311 C66.7432065,21.6377057 70.7207033,17.6923077 75.625,17.6923077 Z" id="hair" fill="#191847"></path>
                    </g>
                    <g id="Bottom/Standing/Skinny-Jeans" transform="translate(0.000000, 165.929577)">
                        <polygon id="Leg" fill="#191847" points="113.92 9.9475983e-14 146.186916 112.853995 169.729192 196.033473 186.9 196.033473 161.882967 9.9475983e-14"></polygon>
                        <path d="M105.290864,0 C104.544534,58.1662576 101.99956,89.8917151 101.215944,95.1763725 C100.432327,100.46103 88.5836329,134.080063 65.6698616,196.033473 L83.4576556,196.033473 C112.62864,136.599762 128.912629,102.980729 132.309624,95.1763725 C135.70662,87.3720163 146.190078,55.6465588 161.98,0 L105.290864,0 Z" id="Leg" fill="#2F3676"></path>
                        <g id="Accessories/Shoe/Flat-Sneaker" transform="translate(64.080000, 176.518828)" fill="#E4E4E4">
                            <path d="M2.28004921,22.4680239 C1.35018034,24.9605595 0.885245902,26.8353722 0.885245902,28.092462 C0.885245902,29.6703374 1.15118635,31.9728501 1.68306723,35 C3.53494727,35 20.178105,35 51.6125403,35 C52.9100303,30.7601938 52.1610439,28.4712589 49.3655809,28.1331953 C46.5701179,27.7951316 44.2478793,27.4898872 42.3988652,27.217462 L19.2938401,17.0363435 C18.7884459,16.8136439 18.1982092,17.0428133 17.9755097,17.5482075 C17.9728332,17.5542814 17.9702173,17.5603818 17.9676624,17.5665078 L16.5215329,21.0338582 L16.5215329,21.0338582 C13.9336653,22.2273206 11.8307543,22.8240519 10.2127997,22.8240519 C8.93655596,22.8240519 7.18822216,22.3294296 4.96779829,21.3401852 L4.96778998,21.3402038 C3.95883528,20.8906937 2.77651599,21.3442132 2.32700593,22.3531679 C2.31016951,22.3909584 2.29450973,22.4292621 2.28004921,22.4680239 Z" id="shoe"></path>
                        </g>
                        <g id="Accessories/Shoe/Flat-Sneaker" transform="translate(167.320000, 176.518828)" fill="#E4E4E4">
                            <path d="M2.28004921,22.4680239 C1.35018034,24.9605595 0.885245902,26.8353722 0.885245902,28.092462 C0.885245902,29.6703374 1.15118635,31.9728501 1.68306723,35 C3.53494727,35 20.178105,35 51.6125403,35 C52.9100303,30.7601938 52.1610439,28.4712589 49.3655809,28.1331953 C46.5701179,27.7951316 44.2478793,27.4898872 42.3988652,27.217462 L19.2938401,17.0363435 C18.7884459,16.8136439 18.1982092,17.0428133 17.9755097,17.5482075 C17.9728332,17.5542814 17.9702173,17.5603818 17.9676624,17.5665078 L16.5215329,21.0338582 L16.5215329,21.0338582 C13.9336653,22.2273206 11.8307543,22.8240519 10.2127997,22.8240519 C8.93655596,22.8240519 7.18822216,22.3294296 4.96779829,21.3401852 L4.96778998,21.3402038 C3.95883528,20.8906937 2.77651599,21.3442132 2.32700593,22.3531679 C2.31016951,22.3909584 2.29450973,22.4292621 2.28004921,22.4680239 Z" id="shoe"></path>
                        </g>
                    </g>
                    <g id="Body/Pointing-Up" transform="translate(129.294852, 157.138234) rotate(-8.000000) translate(-129.294852, -157.138234) translate(15.374852, 74.173445)">
                        <path d="M167.532668,61.4005817 L195.942065,82.1937228 C203.647279,84.2660403 210.084736,86.8443534 215.254436,89.9286619 C216.475609,91.0377594 217.951511,93.2838661 212.887012,92.8956827 L212.252847,92.84836 C207.385194,92.4956956 202.448786,92.3979495 201.7791,94.0479601 C201.080298,95.7697104 204.145059,97.828735 202.732474,100.151827 C201.790752,101.700555 197.341675,97.817177 189.385243,88.5016929 L161.252487,76.8740557 L167.532668,61.4005817 Z M223.046613,-15.0704775 C219.687682,-11.2726841 216.325955,-7.12740776 217.284986,-5.5349766 C218.244017,-3.94254544 221.738264,-5.14298328 222.749565,-2.62047604 C223.423766,-0.938804543 217.634624,0.265643789 205.382138,0.992868961 L179.134586,16.3892248 L170.515716,2.07794955 L204.273767,-8.02267851 C210.571359,-12.9089776 216.511433,-16.4816102 222.09399,-18.7405761 C223.717593,-19.0451741 226.405543,-18.868271 223.046613,-15.0704775 Z" id="Skin" fill="#B28B67"></path>
                        <path d="M113.133048,13.9171506 C135.518314,37.6855254 162.831923,53.185005 200.089459,66.9222459 L191.79959,83.4313593 C153.349659,79.8476853 132.79442,76.9772065 116.698,53.1669787 C112.658126,47.1910942 105.442727,26.6237086 101.118821,15.9435077 L113.133048,13.9171506 Z" id="Coat-Back" fill="#E87613" transform="translate(150.604140, 48.674255) rotate(15.000000) translate(-150.604140, -48.674255) "></path>
                        <path d="M80.15625,101.197861 L148.734375,101.197861 C133.200281,53.9769693 125.264877,21.5674848 124.928161,3.96940752 C124.910995,3.07224053 123.248587,1.49130558 122.513102,1.69834309 C117.134576,3.21238604 111.379128,2.64627168 105.246759,0 C88.98901,26.0614734 83.3667984,58.148424 80.15625,101.197861 Z" id="Shirt" fill="#F2F2F2"></path>
                        <path d="M199.431133,-7.98930481 L203.0625,10.0962446 C175.262884,27.9168684 147.113439,41.721497 122.447616,39.7606908 C133.159528,85.5534641 132.66587,123.04059 109.019155,123.04059 L109.019155,123.04059 L72.4533473,123.04059 C66.645853,84.1397605 81.9090846,30.2027814 96.05921,2.99740455 C96.5995607,1.95851315 97.7500215,-3.22408766e-13 100.459829,-3.22408766e-13 L100.459829,-3.22408766e-13 L111.084774,-3.22408766e-13 C111.089439,0.0140003699 111.094103,0.028000728 111.098767,0.0420010735 C130.755333,0.202388251 162.648868,3.78061392 199.431133,-7.98930481 Z" id="Coat-Front" fill="#FF9B21"></path>
                    </g>
                </g>
            </g>
        </g>
    </g>
</svg>