<svg width="64" height="64" viewBox="0 0 64 64" fill="none" xmlns="http://www.w3.org/2000/svg">
<circle cx="32" cy="32" r="32" fill="#E7FFE8"/>
<path d="M32.9231 36.8204H50V40.6153H32.9231V36.8204Z" fill="#0B8749"/>
<path d="M32.9231 16.8973H50V20.6922H32.9231V16.8973Z" fill="#0B8749"/>
<path d="M32.9231 44.4102H41.4616V48.205H32.9231V44.4102Z" fill="#0B8749"/>
<path d="M32.9231 24.4871H41.4616V28.2819H32.9231V24.4871Z" fill="#0B8749"/>
<path d="M13 34.9296H28.1795V50.1091H13V34.9296Z" fill="white"/>
<path d="M13 15H28.1795V30.1795H13V15Z" fill="white"/>
<path d="M19.7552 42.1963L23.9089 37.7693L26.2821 40.299L19.7552 47.2565L14.8975 42.0782L17.2706 39.5485L19.7552 42.1963Z" fill="#00BD66"/>
<path d="M19.7552 22.2732L23.9089 17.8462L26.2821 20.3759L19.7552 27.3334L14.8975 22.1551L17.2706 19.6254L19.7552 22.2732Z" fill="#00BD66"/>
</svg>
