<svg width="295" height="461" viewBox="0 0 295 461" fill="none" xmlns="http://www.w3.org/2000/svg">
<rect width="294.542" height="461" fill="white"/>
<g clip-path="url(#clip0)">
<path fill-rule="evenodd" clip-rule="evenodd" d="M88 221.854L124.631 348.08L141.86 442.854H159.153L141.891 221.854H88Z" fill="#BA8B72"/>
<path fill-rule="evenodd" clip-rule="evenodd" d="M71.5378 221.854C74.0937 287.428 73.0857 323.194 72.5136 329.151C71.9416 335.109 68.694 375.01 46.5637 444.854H64.55C93.8579 377.85 104.089 337.95 107.45 329.151C110.812 320.353 120.739 284.587 135.233 221.854H71.5378Z" fill="#D4A181"/>
<path fill-rule="evenodd" clip-rule="evenodd" d="M87.2136 221.854C96.7419 265.289 113.222 334.622 136.653 429.854H161.946C163.814 332.107 155.867 267.774 142.105 221.854H87.2136Z" fill="#FCB143"/>
<path fill-rule="evenodd" clip-rule="evenodd" d="M71.41 221.854C73.9132 287.428 67.4259 352.031 47.3306 430.874H74.3169C103.679 364.871 124.723 300.587 139.106 221.854H71.41Z" fill="#FFD938"/>
<path fill-rule="evenodd" clip-rule="evenodd" d="M44 457.854L44.9924 441.854C50.8029 443.553 58.0807 442.886 66.8257 439.854C76.2288 446.514 88.0659 451.062 102.337 453.498L102.337 453.498C103.426 453.684 104.158 454.717 103.972 455.806C103.96 455.876 103.944 455.946 103.925 456.015L102.553 460.854H66.8257H45.9848L44 457.854Z" fill="#DC3A16"/>
<path fill-rule="evenodd" clip-rule="evenodd" d="M138 457.854L138.992 441.854C144.803 443.553 152.081 442.886 160.826 439.854C170.229 446.514 182.066 451.062 196.337 453.498L196.337 453.498C197.426 453.684 198.158 454.717 197.972 455.806C197.96 455.876 197.944 455.946 197.925 456.015L196.553 460.854H160.826H139.985L138 457.854Z" fill="#DC3A16"/>
</g>
<path fill-rule="evenodd" clip-rule="evenodd" d="M115.583 79.5784C111.587 73.3379 109.302 66.0478 110.892 58.4471C115.471 36.5474 145.586 45.6261 150.045 57.6062C154.505 69.5863 149.917 97.798 141.906 98.7332C138.711 99.1061 132.403 96.2574 126.265 91.3084L126.396 121.595L101.598 118.2L115.583 79.5784Z" fill="#D4A181"/>
<path fill-rule="evenodd" clip-rule="evenodd" d="M138.887 57.7274C135.264 59.1491 132.386 62.3485 128.87 66.5805C128.205 66.2084 127.461 65.9521 126.661 65.8426C123.237 65.3738 120.082 67.7694 119.613 71.1933C119.375 72.9315 119.875 74.6005 120.873 75.884C119.162 77.7123 117.265 79.6074 115.123 81.5377C108.814 76.472 105.346 63.751 113.499 53.045C122.329 30.5733 152.355 49.3826 159.049 46.3052C159.24 54.9247 153.968 61.1319 138.887 57.7274Z" fill="#191847"/>
<path fill-rule="evenodd" clip-rule="evenodd" d="M147.011 148.118L184.055 129.921C190.387 123.047 196.559 117.765 202.571 114.073C204.388 113.408 207.527 113.096 204.38 118.143C201.233 123.191 198.149 128.641 199.564 130.302C200.979 131.963 204.784 129.9 206.439 132.629C207.542 134.448 201.087 136.957 187.075 140.156L159.728 163.045L147.011 148.118ZM202.905 167.349L219.178 159.33C221.785 150.948 224.639 146.8 227.741 146.885C230.172 145.883 225.548 156.415 230.103 155.686C234.659 154.958 246.041 147.254 247.866 149.002C250.565 151.588 247.724 159.035 244.606 162.663C238.778 169.445 234.105 171.645 222.68 174.289C216.706 175.672 210.179 178.686 203.1 183.331L202.905 167.349Z" fill="#D4A181"/>
<path fill-rule="evenodd" clip-rule="evenodd" d="M129.596 142.922C142.268 143.352 159.278 141.428 177.81 130.79L184.186 146.889C171.205 158.674 153.274 168.032 138.009 166.923C125.979 166.049 120.471 151.205 129.596 142.922Z" fill="#DC3A16"/>
<path fill-rule="evenodd" clip-rule="evenodd" d="M145.525 168.994C158.823 172.946 181.549 169.995 213.703 160.14C220.831 176.732 223.945 188.474 223.045 195.364C195.26 208.34 171.706 213.628 152.514 213.192C152.617 224.596 150.75 235.36 145.658 245.044C135.189 264.954 80.0276 243.629 61.0338 246.498C50.9468 207.68 74.438 193.132 75.5468 168.631C76.7611 141.799 100.145 101.456 103.315 101.597L132.223 102.884C132.906 123.447 139.929 146.389 145.525 168.994Z" fill="#FF5533"/>
<defs>
<clipPath id="clip0">
<rect x="44" y="221.854" width="154" height="239" fill="white"/>
</clipPath>
</defs>
</svg>
