<svg width="259" height="286" viewBox="0 0 259 286" fill="none" xmlns="http://www.w3.org/2000/svg">
<rect width="259" height="286" fill="white"/>
<circle cx="125.342" cy="160.205" r="125" fill="#E7FFE8"/>
<path fill-rule="evenodd" clip-rule="evenodd" d="M92.6593 50.445C88.5059 44.3764 86.0124 37.1772 87.3427 29.4883C91.1757 7.33475 121.267 15.0443 126.062 26.8425C130.857 38.6407 127.217 67.119 119.319 68.425C116.169 68.9458 109.837 66.382 103.604 61.706L104.7 92.0464L80.0514 89.7866L92.6593 50.445Z" fill="#D4A181"/>
<path fill-rule="evenodd" clip-rule="evenodd" d="M114.941 27.5589C111.382 29.1499 108.625 32.4925 105.266 36.9009C104.593 36.5572 103.844 36.3334 103.044 36.2595C99.6206 35.9431 96.5598 38.4911 96.2072 41.9506C96.0282 43.7068 96.5816 45.3604 97.6178 46.6042C95.9751 48.5175 94.15 50.5061 92.0835 52.5411C85.635 47.7385 81.7607 35.1202 89.5181 24.0015C97.558 1.03681 128.067 18.5715 134.626 15.1793C135.103 23.8265 130.063 30.2976 114.941 27.5589Z" fill="#192948"/>
<g clip-path="url(#clip0)">
<path d="M67.8566 32.1789C68.3477 30.5747 69.3298 29.131 70.6394 28.008C73.0948 26.0027 74.65 22.9548 74.65 19.586C74.65 13.3297 69.3299 8.19634 62.782 8.5172C56.9708 8.75783 52.2236 13.5704 52.06 19.2652C51.9781 22.7944 53.5332 25.9226 56.0705 28.008C57.4619 29.1309 58.4441 30.5747 58.9352 32.1789L67.8566 32.1789Z" fill="#FFD938"/>
<path d="M62.291 32.3391L63.0276 32.3391L59.7537 20.3879C59.8355 20.3879 59.9173 20.3879 59.9992 20.3879C60.4084 20.3879 60.8177 20.2275 61.145 19.9067C61.3087 19.7463 61.4725 19.6661 61.718 19.6661C61.9635 19.6661 62.1272 19.7463 62.291 19.9067C62.8639 20.5483 63.8461 20.5483 64.419 19.9067C64.5826 19.7463 64.7464 19.6661 64.9919 19.6661C65.1556 19.6661 65.4011 19.7463 65.5649 19.9067C65.8923 20.2275 66.2196 20.3879 66.7107 20.3879C66.7926 20.3879 66.8744 20.3879 66.9563 20.3879L63.7642 32.3391L64.5008 32.3391L67.8566 19.8265C67.8566 19.6661 67.8566 19.5056 67.6929 19.4254C67.5292 19.3452 67.3655 19.4254 67.2837 19.5057C67.12 19.6661 66.9563 19.7463 66.7926 19.7463C66.5471 19.7463 66.3834 19.6661 66.1378 19.5057C65.8104 19.1848 65.4831 19.0244 65.0738 19.0244C64.6645 19.0244 64.3372 19.1848 64.0098 19.5057C63.6823 19.8265 63.1913 19.8265 62.8639 19.5057C62.6184 19.1848 62.2092 19.0244 61.7999 19.0244C61.3907 19.0244 60.9814 19.1848 60.7358 19.5057C60.5722 19.6661 60.3266 19.7463 60.0811 19.7463C59.9174 19.7463 59.6719 19.6661 59.59 19.5057C59.5081 19.4254 59.3444 19.3453 59.1808 19.4254C59.0171 19.5057 58.9352 19.6661 59.0171 19.8265L62.291 32.3391Z" fill="white"/>
<path d="M60.8176 39.5581C61.2269 40.5206 62.2091 41.2425 63.3549 41.2425C64.5008 41.2425 65.4829 40.5206 65.8922 39.5581L60.8176 39.5581Z" fill="#192948"/>
<path d="M66.3833 39.6383L60.4084 39.6383C59.5899 39.6383 58.9352 38.9967 58.9352 38.1945L58.9352 32.0986L67.8566 32.0986L67.8566 38.1945C67.8566 38.9966 67.2018 39.6383 66.3833 39.6383Z" fill="#192948"/>
<path d="M67.7748 35.1469L58.9352 35.1469C58.4441 35.1469 58.0349 34.7458 58.0349 34.2646C58.0349 33.7833 58.4441 33.3823 58.9352 33.3823L67.7748 33.3823C68.2658 33.3823 68.6751 33.7833 68.6751 34.2646C68.6751 34.7458 68.2658 35.1469 67.7748 35.1469Z" fill="#536383"/>
<path d="M67.7748 37.9545L58.9352 37.9545C58.4441 37.9545 58.0349 37.5535 58.0349 37.0722C58.0349 36.591 58.4441 36.1899 58.9352 36.1899L67.7748 36.1899C68.2658 36.1899 68.6751 36.591 68.6751 37.0722C68.6751 37.5534 68.2658 37.9545 67.7748 37.9545Z" fill="#536383"/>
<path d="M63.3551 2.74219C62.9458 2.74219 62.5366 3.06305 62.5366 3.5443L62.5366 6.27143C62.5366 6.67245 62.864 7.07355 63.3551 7.07355C63.8461 7.07355 64.1736 6.75269 64.1736 6.27143L64.1736 3.5443C64.1736 3.06305 63.7643 2.74219 63.3551 2.74219Z" fill="#FFD938"/>
<path d="M52.3875 7.63518C52.0601 7.31432 51.569 7.31432 51.2416 7.63518C50.9143 7.95604 50.9142 8.43729 51.2416 8.75808L53.206 10.6831C53.5334 11.004 54.0245 11.004 54.3518 10.6831C54.6791 10.3622 54.6792 9.88098 54.3518 9.56019L52.3875 7.63518Z" fill="#FFD938"/>
<path d="M49.8501 18.7041L47.0673 18.7041C46.6581 18.7041 46.2488 19.025 46.2488 19.5062C46.2488 19.9072 46.5762 20.3083 47.0673 20.3083L49.8501 20.3083C50.2593 20.3083 50.6686 19.9875 50.6686 19.5062C50.6686 19.1051 50.2593 18.7041 49.8501 18.7041Z" fill="#FFD938"/>
<path d="M53.2059 28.329L51.2415 30.254C50.9141 30.5749 50.9141 31.0561 51.2415 31.3769C51.5689 31.6977 52.06 31.6978 52.3874 31.3769L54.3517 29.4519C54.6791 29.131 54.6791 28.6498 54.3517 28.329C54.0243 28.0082 53.5333 28.0081 53.2059 28.329Z" fill="#FFD938"/>
<path d="M73.5041 28.329C73.1767 28.0082 72.6856 28.0082 72.3582 28.329C72.0308 28.6499 72.0308 29.1311 72.3582 29.4519L74.3226 31.3769C74.65 31.6978 75.1411 31.6978 75.4684 31.3769C75.7957 31.0561 75.7958 30.5748 75.4684 30.254L73.5041 28.329Z" fill="#FFD938"/>
<path d="M79.6427 18.7041L76.8598 18.7041C76.4506 18.7041 76.0413 19.025 76.0413 19.5062C76.0413 19.9072 76.3687 20.3083 76.8598 20.3083L79.6427 20.3083C80.0519 20.3083 80.4612 19.9875 80.4612 19.5062C80.4611 19.1051 80.1338 18.7041 79.6427 18.7041Z" fill="#FFD938"/>
<path d="M74.3226 7.63466L72.3582 9.55968C72.0308 9.88054 72.0308 10.3618 72.3582 10.6826C72.6856 11.0034 73.1767 11.0034 73.5041 10.6826L75.4684 8.75756C75.7958 8.4367 75.7958 7.95545 75.4684 7.63466C75.141 7.31387 74.65 7.3138 74.3226 7.63466Z" fill="#FFD938"/>
</g>
<path d="M235.288 63.5229C235.288 64.0049 234.895 64.3993 234.415 64.3993H206.726C206.246 64.3993 205.853 64.0049 205.853 63.5229V50.7763C205.853 50.2943 206.246 49.8999 206.726 49.8999H234.415C234.895 49.8999 235.288 50.2943 235.288 50.7763V63.5229Z" fill="#FFAF10"/>
<path d="M209.32 63.5229V50.7763C209.32 50.2943 209.713 49.8999 210.194 49.8999H206.727C206.246 49.8999 205.853 50.2943 205.853 50.7763V63.5229C205.853 64.0049 206.246 64.3993 206.727 64.3993H210.194C209.713 64.3993 209.32 64.0049 209.32 63.5229Z" fill="#FF9518"/>
<path d="M214.828 69.4379H207.294C206.571 69.4379 205.984 68.8495 205.984 68.1232C205.984 67.397 206.571 66.8086 207.294 66.8086H214.828C215.551 66.8086 216.138 67.397 216.138 68.1232C216.138 68.8495 215.551 69.4379 214.828 69.4379Z" fill="#C3DDF4"/>
<path d="M214.828 73.4335H207.294C206.571 73.4335 205.984 72.8451 205.984 72.1189C205.984 71.3926 206.571 70.8042 207.294 70.8042H214.828C215.551 70.8042 216.138 71.3926 216.138 72.1189C216.138 72.8451 215.551 73.4335 214.828 73.4335Z" fill="#C3DDF4"/>
<path d="M223.916 69.4379H218.314C217.59 69.4379 217.004 68.8495 217.004 68.1232C217.004 67.397 217.59 66.8086 218.314 66.8086H223.916C224.64 66.8086 225.227 67.397 225.227 68.1232C225.227 68.8495 224.64 69.4379 223.916 69.4379Z" fill="#C3DDF4"/>
<path d="M223.916 73.4335H218.314C217.59 73.4335 217.004 72.8451 217.004 72.1189C217.004 71.3926 217.59 70.8042 218.314 70.8042H223.916C224.64 70.8042 225.227 71.3926 225.227 72.1189C225.227 72.8451 224.64 73.4335 223.916 73.4335Z" fill="#C3DDF4"/>
<path d="M234.486 69.4379H227.351C226.627 69.4379 226.04 68.8495 226.04 68.1232C226.04 67.397 226.627 66.8086 227.351 66.8086H234.486C235.21 66.8086 235.797 67.397 235.797 68.1232C235.797 68.8495 235.21 69.4379 234.486 69.4379Z" fill="#C3DDF4"/>
<path d="M234.486 73.4335H227.351C226.627 73.4335 226.04 72.8451 226.04 72.1189C226.04 71.3926 226.627 70.8042 227.351 70.8042H234.486C235.21 70.8042 235.797 71.3926 235.797 72.1189C235.797 72.8451 235.21 73.4335 234.486 73.4335Z" fill="#C3DDF4"/>
<path d="M225.329 46.8191C225.329 47.3011 224.936 47.6955 224.455 47.6955H222.533C222.053 47.6955 221.66 47.3011 221.66 46.8191V44.8911C221.66 44.409 222.053 44.0146 222.533 44.0146H224.455C224.936 44.0146 225.329 44.409 225.329 44.8911V46.8191Z" fill="#EF8318"/>
<path d="M230.221 46.8191C230.221 47.3011 229.828 47.6955 229.348 47.6955H227.426C226.945 47.6955 226.552 47.3011 226.552 46.8191V44.8911C226.552 44.409 226.945 44.0146 227.426 44.0146H229.348C229.828 44.0146 230.221 44.409 230.221 44.8911V46.8191Z" fill="#EF8318"/>
<path d="M235.114 46.8191C235.114 47.3011 234.72 47.6955 234.24 47.6955H232.318C231.837 47.6955 231.444 47.3011 231.444 46.8191V44.8911C231.444 44.409 231.837 44.0146 232.318 44.0146H234.24C234.72 44.0146 235.114 44.409 235.114 44.8911V46.8191Z" fill="#EF8318"/>
<path d="M195.892 72.3974H194.319C193.595 72.3974 193.008 71.8089 193.008 71.0827C193.008 70.3565 193.595 69.7681 194.319 69.7681H195.892C196.615 69.7681 197.202 70.3565 197.202 71.0827C197.202 71.8089 196.615 72.3974 195.892 72.3974Z" fill="#69CDFF"/>
<path d="M189.951 72.3974H188.378C187.654 72.3974 187.067 71.8089 187.067 71.0827C187.067 70.3565 187.654 69.7681 188.378 69.7681H189.951C190.674 69.7681 191.261 70.3565 191.261 71.0827C191.261 71.8089 190.674 72.3974 189.951 72.3974Z" fill="#69CDFF"/>
<path d="M184.009 72.3974H182.437C181.713 72.3974 181.126 71.8089 181.126 71.0827C181.126 70.3565 181.713 69.7681 182.437 69.7681H184.009C184.733 69.7681 185.32 70.3565 185.32 71.0827C185.32 71.8089 184.733 72.3974 184.009 72.3974Z" fill="#69CDFF"/>
<path d="M178.068 72.3974H176.496C175.772 72.3974 175.185 71.8089 175.185 71.0827C175.185 70.3565 175.772 69.7681 176.496 69.7681H178.068C178.792 69.7681 179.379 70.3565 179.379 71.0827C179.379 71.8089 178.792 72.3974 178.068 72.3974Z" fill="#69CDFF"/>
<path d="M201.003 66.9813C200.279 66.9813 199.692 66.3929 199.692 65.6667V64.0891C199.692 63.363 200.279 62.7744 201.003 62.7744C201.726 62.7744 202.313 63.363 202.313 64.0891V65.6667C202.313 66.3929 201.726 66.9813 201.003 66.9813Z" fill="#69CDFF"/>
<path d="M201.003 61.0213C200.279 61.0213 199.692 60.4329 199.692 59.7067V58.1291C199.692 57.4031 200.279 56.8145 201.003 56.8145C201.726 56.8145 202.313 57.4031 202.313 58.1291V59.7067C202.313 60.4329 201.726 61.0213 201.003 61.0213Z" fill="#69CDFF"/>
<path d="M201.003 55.0619C200.279 55.0619 199.692 54.4734 199.692 53.7472V52.1696C199.692 51.4436 200.279 50.855 201.003 50.855C201.726 50.855 202.313 51.4436 202.313 52.1696V53.7472C202.313 54.4734 201.726 55.0619 201.003 55.0619Z" fill="#69CDFF"/>
<path d="M171.297 66.9813C170.574 66.9813 169.987 66.3929 169.987 65.6667V64.0891C169.987 63.363 170.574 62.7744 171.297 62.7744C172.021 62.7744 172.608 63.363 172.608 64.0891V65.6667C172.608 66.3929 172.021 66.9813 171.297 66.9813Z" fill="#69CDFF"/>
<path d="M171.297 61.0213C170.574 61.0213 169.987 60.4329 169.987 59.7067V58.1291C169.987 57.4031 170.574 56.8145 171.297 56.8145C172.021 56.8145 172.608 57.4031 172.608 58.1291V59.7067C172.608 60.4329 172.021 61.0213 171.297 61.0213Z" fill="#69CDFF"/>
<path d="M171.297 55.0619C170.574 55.0619 169.987 54.4734 169.987 53.7472V52.1696C169.987 51.4436 170.574 50.855 171.297 50.855C172.021 50.855 172.608 51.4436 172.608 52.1696V53.7472C172.608 54.4734 172.021 55.0619 171.297 55.0619Z" fill="#69CDFF"/>
<path d="M195.892 48.5585H194.319C193.595 48.5585 193.008 47.9701 193.008 47.2439C193.008 46.5176 193.595 45.9292 194.319 45.9292H195.892C196.615 45.9292 197.202 46.5176 197.202 47.2439C197.202 47.9701 196.615 48.5585 195.892 48.5585Z" fill="#69CDFF"/>
<path d="M189.951 48.5585H188.378C187.654 48.5585 187.067 47.9701 187.067 47.2439C187.067 46.5176 187.654 45.9292 188.378 45.9292H189.951C190.674 45.9292 191.261 46.5176 191.261 47.2439C191.261 47.9701 190.674 48.5585 189.951 48.5585Z" fill="#69CDFF"/>
<path d="M184.009 48.5585H182.437C181.713 48.5585 181.126 47.9701 181.126 47.2439C181.126 46.5176 181.713 45.9292 182.437 45.9292H184.009C184.733 45.9292 185.32 46.5176 185.32 47.2439C185.32 47.9701 184.733 48.5585 184.009 48.5585Z" fill="#69CDFF"/>
<path d="M178.068 48.5585H176.496C175.772 48.5585 175.185 47.9701 175.185 47.2439C175.185 46.5176 175.772 45.9292 176.496 45.9292H178.068C178.792 45.9292 179.379 46.5176 179.379 47.2439C179.379 47.9701 178.792 48.5585 178.068 48.5585Z" fill="#69CDFF"/>
<path d="M197.508 66.7007C197.508 67.1827 197.115 67.5771 196.634 67.5771H175.666C175.185 67.5771 174.792 67.1827 174.792 66.7007V51.6259C174.792 51.1439 175.185 50.7495 175.666 50.7495H196.634C197.115 50.7495 197.508 51.1439 197.508 51.6259V66.7007Z" fill="#5DC1D8"/>
<path d="M178.259 66.7007V51.6259C178.259 51.1439 178.653 50.7495 179.133 50.7495H175.666C175.185 50.7495 174.792 51.1439 174.792 51.6259V66.7007C174.792 67.1827 175.185 67.5771 175.666 67.5771H179.133C178.653 67.5771 178.259 67.1827 178.259 66.7007Z" fill="#28A5A5"/>
<path d="M203.448 48.5594C203.448 49.0415 203.055 49.4359 202.575 49.4359H198.905C198.425 49.4359 198.032 49.0415 198.032 48.5594V44.8784C198.032 44.3963 198.425 44.002 198.905 44.002H202.575C203.055 44.002 203.448 44.3963 203.448 44.8784V48.5594Z" fill="#52BBEF"/>
<path d="M174.442 48.91C174.442 49.3921 174.049 49.7864 173.568 49.7864H169.899C169.418 49.7864 169.025 49.3921 169.025 48.91V45.229C169.025 44.7469 169.418 44.3525 169.899 44.3525H173.568C174.049 44.3525 174.442 44.7469 174.442 45.229V48.91Z" fill="#52BBEF"/>
<path d="M203.448 73.0775C203.448 73.5595 203.055 73.9539 202.575 73.9539H198.905C198.425 73.9539 198.032 73.5595 198.032 73.0775V69.3965C198.032 68.9144 198.425 68.52 198.905 68.52H202.575C203.055 68.52 203.448 68.9144 203.448 69.3965V73.0775Z" fill="#52BBEF"/>
<path d="M174.442 73.0775C174.442 73.5595 174.049 73.9539 173.568 73.9539H169.899C169.418 73.9539 169.025 73.5595 169.025 73.0775V69.3965C169.025 68.9144 169.418 68.52 169.899 68.52H173.568C174.049 68.52 174.442 68.9144 174.442 69.3965V73.0775Z" fill="#52BBEF"/>
<path d="M199.958 48.5594V44.8784C199.958 44.3963 200.351 44.002 200.831 44.002H198.905C198.425 44.002 198.032 44.3963 198.032 44.8784V48.5594C198.032 49.0415 198.425 49.4359 198.905 49.4359H200.831C200.351 49.4359 199.958 49.0415 199.958 48.5594Z" fill="#1E99D6"/>
<path d="M170.951 48.91V45.229C170.951 44.7469 171.344 44.3525 171.825 44.3525H169.899C169.418 44.3525 169.025 44.7469 169.025 45.229V48.91C169.025 49.3921 169.418 49.7864 169.899 49.7864H171.825C171.344 49.7864 170.951 49.3921 170.951 48.91Z" fill="#1E99D6"/>
<path d="M199.958 73.0775V69.3965C199.958 68.9144 200.351 68.52 200.831 68.52H198.905C198.425 68.52 198.032 68.9144 198.032 69.3965V73.0775C198.032 73.5595 198.425 73.9539 198.905 73.9539H200.831C200.351 73.9539 199.958 73.5595 199.958 73.0775Z" fill="#1E99D6"/>
<path d="M170.951 73.0775V69.3965C170.951 68.9144 171.344 68.52 171.825 68.52H169.899C169.418 68.52 169.025 68.9144 169.025 69.3965V73.0775C169.025 73.5595 169.418 73.9539 169.899 73.9539H171.825C171.344 73.9539 170.951 73.5595 170.951 73.0775Z" fill="#1E99D6"/>
<path d="M238.625 91.6386C238.598 91.5646 238.6 91.5226 238.604 91.5089C238.604 91.5089 238.615 91.5078 238.625 91.5078C238.645 91.5078 238.68 91.5119 238.732 91.5313L246.089 94.2421V77.6533C246.089 77.1713 245.696 76.7769 245.216 76.7769H217.432C216.952 76.7769 216.559 77.1713 216.559 77.6533V97.7763C216.559 98.2583 216.952 98.6527 217.432 98.6527H241.193L238.625 91.6386Z" fill="#5DC1D8"/>
<path d="M220.026 97.7758V77.6528C220.026 77.1708 220.419 76.7764 220.9 76.7764H217.433C216.952 76.7764 216.559 77.1708 216.559 77.6528V97.7758C216.559 98.2578 216.952 98.6522 217.433 98.6522H220.9C220.419 98.6522 220.026 98.2578 220.026 97.7758Z" fill="#28A5A5"/>
<path d="M238.793 91.3666C238.505 91.2606 238.356 91.4101 238.461 91.699L243.068 104.281C243.174 104.57 243.438 104.629 243.655 104.411L246.101 101.958C246.317 101.74 246.672 101.74 246.889 101.958L249.708 104.785C249.925 105.002 250.279 105.002 250.496 104.785L251.837 103.44C252.054 103.222 252.054 102.866 251.837 102.648L249.019 99.8213C248.802 99.6037 248.802 99.2477 249.019 99.03L251.465 96.5765C251.682 96.3592 251.623 96.0943 251.336 95.9883L238.793 91.3666Z" fill="#293D7C"/>
<mask id="mask0" mask-type="alpha" maskUnits="userSpaceOnUse" x="0" y="35" width="250" height="251">
<circle cx="125" cy="160.205" r="125" fill="#E7FFE8"/>
</mask>
<g mask="url(#mask0)">
<g clip-path="url(#clip1)">
<path fill-rule="evenodd" clip-rule="evenodd" d="M72.6579 188.205L108.913 315.431L135.365 409.205H154.658L126.549 188.205H72.6579Z" fill="#192948"/>
<path fill-rule="evenodd" clip-rule="evenodd" d="M62.9623 188.205C62.1237 253.779 59.2642 289.545 58.3837 295.502C57.5032 301.46 44.1901 339.361 18.4443 409.205H38.4306C71.2069 342.201 89.5036 304.301 93.3204 295.502C97.1373 286.704 108.916 250.938 126.658 188.205H62.9623Z" fill="#192948"/>
</g>
<path fill-rule="evenodd" clip-rule="evenodd" d="M92.3172 50.445C88.1638 44.3764 85.6703 37.1772 87.0006 29.4883C90.8336 7.33475 120.925 15.0443 125.72 26.8425C130.515 38.6407 126.875 67.119 118.977 68.425C115.827 68.9458 109.494 66.382 103.262 61.706L104.358 92.0464L79.7093 89.7866L92.3172 50.445Z" fill="#D4A181"/>
<path fill-rule="evenodd" clip-rule="evenodd" d="M114.599 27.5589C111.04 29.1499 108.283 32.4925 104.924 36.9009C104.25 36.5572 103.502 36.3334 102.702 36.2595C99.2785 35.9431 96.2177 38.4911 95.8651 41.9506C95.6861 43.7068 96.2395 45.3604 97.2757 46.6042C95.633 48.5175 93.8079 50.5061 91.7414 52.5411C85.2929 47.7385 81.4186 35.1202 89.176 24.0015C97.2159 1.03681 127.725 18.5715 134.284 15.1793C134.761 23.8265 129.721 30.2976 114.599 27.5589Z" fill="#192948"/>
<path fill-rule="evenodd" clip-rule="evenodd" d="M129.829 115.397L164.183 92.6671C169.571 85.0387 175.005 79.013 180.486 74.5899C182.2 73.7012 185.269 72.9987 182.801 78.4122C180.332 83.8257 177.979 89.6323 179.594 91.1077C181.209 92.583 184.712 90.0554 186.702 92.5629C188.029 94.2345 181.958 97.5368 168.49 102.47L144.344 128.656L129.829 115.397Z" fill="#D4A181"/>
<path fill-rule="evenodd" clip-rule="evenodd" d="M111.83 112.476C124.446 111.32 141.058 107.282 158.057 94.3876L166.448 109.6C155.098 122.941 138.529 134.488 123.256 135.292C111.22 135.926 103.852 121.853 111.83 112.476Z" fill="#DC3A16"/>
<g clip-path="url(#clip2)">
<path d="M148.692 34.2358C149.171 35.3608 150.319 36.2046 151.658 36.2046C152.997 36.2046 154.145 35.3608 154.624 34.2358L148.692 34.2358Z" fill="#192948"/>
</g>
<path d="M203.571 117.462L188.483 127.473L190.731 143.344C197.146 137.839 203.223 134.026 208.963 131.904C219.94 127.845 224.286 125.073 229.187 117.599C231.809 113.601 233.665 105.839 230.659 103.603C228.627 102.093 218.343 111.178 213.924 112.472C209.506 113.766 212.732 102.712 210.453 104.013C207.369 104.316 205.075 108.799 203.571 117.462Z" fill="#D4A181"/>
<path fill-rule="evenodd" clip-rule="evenodd" d="M130.902 136.364C144.576 138.632 166.698 132.86 197.267 119.048C206.457 134.651 211.049 145.933 211.043 152.895C185.201 169.263 162.56 177.462 143.502 179.426C145.069 190.749 144.604 201.682 140.807 211.944C133.001 233.043 75.6455 218.735 57.2086 223.959C42.2334 186.632 63.6223 169.238 61.5716 144.744C59.3258 117.921 77.2933 74.8979 80.45 74.6422L109.237 72.3103C112.556 92.6657 122.457 114.593 130.902 136.364Z" fill="#FF5533"/>
</g>
<defs>
<clipPath id="clip0">
<rect x="46.2437" y="2.74219" width="34.2225" height="38.5003" fill="white"/>
</clipPath>
<clipPath id="clip1">
<rect x="16.6579" y="188.205" width="177" height="239" fill="white"/>
</clipPath>
<clipPath id="clip2">
<rect x="131.658" y="-8.79541" width="40" height="45" fill="white"/>
</clipPath>
</defs>
</svg>
