<svg width="304" height="464" viewBox="0 0 304 464" fill="none" xmlns="http://www.w3.org/2000/svg">
<g clip-path="url(#clip0)">
<rect width="304" height="464" fill="white"/>
<path d="M262 223.5C290 315 225.198 397.325 100.284 420.75C-24.6296 444.175 14.9677 140.001 73.9094 76.2706C145.758 -1.41489 239.814 151 262 223.5Z" fill="#FFFAC4"/>
<path fill-rule="evenodd" clip-rule="evenodd" d="M117 225L153.255 352.227L179.707 446H199L170.891 225H117Z" fill="#192948"/>
<path fill-rule="evenodd" clip-rule="evenodd" d="M107.304 225C106.466 290.574 103.606 326.34 102.726 332.298C101.845 338.256 88.5322 376.156 62.7864 446H82.7727C115.549 378.997 133.846 341.096 137.663 332.298C141.479 323.5 153.259 287.734 171 225H107.304Z" fill="#192948"/>
<path fill-rule="evenodd" clip-rule="evenodd" d="M61 464L62 443H83C92.9576 450 105.958 455.667 122 460V464H84L71 462V464H61Z" fill="#85501E"/>
<path fill-rule="evenodd" clip-rule="evenodd" d="M177 464L178 443H199C208.958 450 221.958 455.667 238 460V464H200L187 462V464H177Z" fill="#85501E"/>
<path fill-rule="evenodd" clip-rule="evenodd" d="M136.659 87.2407C132.506 81.172 130.013 73.9728 131.343 66.284C135.176 44.1304 165.267 51.8399 170.062 63.6381C174.858 75.4363 171.217 103.915 163.319 105.221C160.169 105.741 153.837 103.178 147.604 98.5017L148.7 128.842L124.051 126.582L136.659 87.2407Z" fill="#D4A181"/>
<path fill-rule="evenodd" clip-rule="evenodd" d="M158.941 64.3543C155.382 65.9453 152.625 69.2879 149.266 73.6963C148.593 73.3526 147.844 73.1288 147.044 73.0549C143.621 72.7385 140.56 75.2865 140.207 78.746C140.028 80.5023 140.582 82.1558 141.618 83.3996C139.975 85.3129 138.15 87.3015 136.084 89.3365C129.635 84.5339 125.761 71.9156 133.518 60.7969C141.558 37.8322 172.067 55.367 178.626 51.9747C179.103 60.6219 174.063 67.093 158.941 64.3543Z" fill="#191847"/>
<path fill-rule="evenodd" clip-rule="evenodd" d="M174.171 152.192L208.525 129.462C213.913 121.834 219.347 115.808 224.828 111.385C226.542 110.497 229.611 109.794 227.143 115.208C224.674 120.621 222.321 126.428 223.936 127.903C225.551 129.378 229.054 126.851 231.044 129.358C232.371 131.03 226.3 134.332 212.832 139.265L188.686 165.451L174.171 152.192ZM232.008 164.336L247.096 154.325C248.6 145.662 250.894 141.179 253.978 140.876C256.256 139.575 253.03 150.629 257.449 149.335C261.868 148.041 272.152 138.956 274.184 140.467C277.19 142.702 275.333 150.464 272.711 154.463C267.811 161.936 263.465 164.708 252.487 168.767C246.748 170.889 240.671 174.702 234.256 180.207L232.008 164.336Z" fill="#D4A181"/>
<path fill-rule="evenodd" clip-rule="evenodd" d="M156.172 149.271C168.788 148.115 185.4 144.077 202.4 131.183L210.79 146.396C199.44 159.736 182.871 171.283 167.598 172.087C155.562 172.721 148.194 158.649 156.172 149.271Z" fill="#DC3A16"/>
<path fill-rule="evenodd" clip-rule="evenodd" d="M175.245 173.16C188.918 175.427 211.04 169.655 241.609 155.843C250.799 171.446 255.391 182.728 255.385 189.69C229.543 206.059 206.902 214.257 187.844 216.221C189.411 227.544 188.946 238.477 185.149 248.74C177.343 269.838 119.988 255.53 101.551 260.754C86.5755 223.428 107.964 206.033 105.914 181.539C103.668 154.716 121.635 111.693 124.792 111.438L153.579 109.106C156.898 129.461 166.8 151.389 175.245 173.16Z" fill="#FF5533"/>
</g>
<defs>
<clipPath id="clip0">
<rect width="304" height="464" fill="white"/>
</clipPath>
</defs>
</svg>
