<svg width="295" height="461" viewBox="0 0 295 461" fill="none" xmlns="http://www.w3.org/2000/svg">
<rect width="294.542" height="461" fill="white"/>
<path fill-rule="evenodd" clip-rule="evenodd" d="M112 222L148.255 349.227L174.707 443H194L165.891 222H112Z" fill="#192948"/>
<path fill-rule="evenodd" clip-rule="evenodd" d="M102.304 222C101.466 287.574 98.6063 323.34 97.7258 329.298C96.8453 335.256 83.5322 373.156 57.7864 443H77.7727C110.549 375.997 128.846 338.096 132.663 329.298C136.479 320.5 148.259 284.734 166 222H102.304Z" fill="#192948"/>
<path fill-rule="evenodd" clip-rule="evenodd" d="M56 461L57 440H78C87.9576 447 100.958 452.667 117 457V461H79L66 459V461H56Z" fill="#85501E"/>
<path fill-rule="evenodd" clip-rule="evenodd" d="M172 461L173 440H194C203.958 447 216.958 452.667 233 457V461H195L182 459V461H172Z" fill="#85501E"/>
<path fill-rule="evenodd" clip-rule="evenodd" d="M131.507 84.1647C127.268 78.0861 124.699 70.8915 125.988 63.2342C129.702 41.1713 160.151 49.0586 165.078 60.8541C170.005 72.6495 166.531 101.02 158.562 102.269C155.384 102.768 148.97 100.169 142.641 95.4654L143.964 125.724L119.051 123.306L131.507 84.1647Z" fill="#D4A181"/>
<path fill-rule="evenodd" clip-rule="evenodd" d="M153.933 61.4139C150.369 62.977 147.619 66.287 144.272 70.6541C143.593 70.3084 142.84 70.0816 142.036 70.0036C138.596 69.6698 135.537 72.1877 135.204 75.6274C135.034 77.3736 135.6 79.0216 136.648 80.2648C135.009 82.1591 133.188 84.1273 131.124 86.1403C124.62 81.3267 120.655 68.7519 128.381 57.7336C136.32 34.9319 167.063 52.5459 173.63 49.2076C174.16 57.8129 169.136 64.2226 153.933 61.4139Z" fill="#191847"/>
<path fill-rule="evenodd" clip-rule="evenodd" d="M169.099 149.279L203.54 126.536C208.95 118.916 214.403 112.894 219.899 108.471C221.617 107.581 224.691 106.874 222.209 112.279C219.726 117.684 217.358 123.481 218.972 124.949C220.586 126.418 224.099 123.889 226.086 126.387C227.41 128.051 221.326 131.358 207.832 136.306L183.604 162.475L169.099 149.279ZM226.979 161.275L242.105 151.259C243.629 142.615 245.934 138.138 249.022 137.829C251.306 136.527 248.054 147.56 252.48 146.261C256.907 144.961 267.222 135.877 269.253 137.38C272.258 139.604 270.383 147.351 267.75 151.345C262.829 158.81 258.472 161.584 247.473 165.654C241.722 167.782 235.63 171.599 229.197 177.103L226.979 161.275Z" fill="#D4A181"/>
<path fill-rule="evenodd" clip-rule="evenodd" d="M151.166 146.331C163.791 145.152 180.42 141.089 197.455 128.189L205.818 143.351C194.435 156.685 177.834 168.239 162.551 169.073C150.507 169.729 143.164 155.703 151.166 146.331Z" fill="#DC3A16"/>
<path fill-rule="evenodd" clip-rule="evenodd" d="M170.269 170.175C183.96 172.411 206.129 166.604 236.776 152.756C245.949 168.312 250.525 179.564 250.505 186.513C224.588 202.904 201.893 211.133 182.8 213.132C184.347 224.431 183.859 235.344 180.034 245.596C172.172 266.671 114.753 252.505 96.276 257.757C81.3532 220.529 102.812 203.123 100.809 178.679C98.6144 151.909 116.699 108.929 119.862 108.668L148.7 106.282C151.982 126.593 161.855 148.461 170.269 170.175Z" fill="#FF5533"/>
</svg>
