<svg width="304" height="464" viewBox="0 0 304 464" fill="none" xmlns="http://www.w3.org/2000/svg">
<g clip-path="url(#clip0)">
<rect width="304" height="464" fill="white"/>
<path d="M277 223.5C305 315 240.198 397.325 115.284 420.75C-9.62958 444.175 29.9677 140.001 88.9094 76.2706C160.758 -1.41489 254.814 151 277 223.5Z" fill="#FFFAC4"/>
<path fill-rule="evenodd" clip-rule="evenodd" d="M116 225L152.255 352.227L178.707 446H198L169.891 225H116Z" fill="#192948"/>
<path fill-rule="evenodd" clip-rule="evenodd" d="M106.304 225C105.466 290.574 102.606 326.34 101.726 332.298C100.845 338.256 87.5322 376.156 61.7864 446H81.7727C114.549 378.997 132.846 341.096 136.663 332.298C140.479 323.5 152.259 287.734 170 225H106.304Z" fill="#192948"/>
<path fill-rule="evenodd" clip-rule="evenodd" d="M60 464L61 443H82C91.9576 450 104.958 455.667 121 460V464H83L70 462V464H60Z" fill="#85501E"/>
<path fill-rule="evenodd" clip-rule="evenodd" d="M176 464L177 443H198C207.958 450 220.958 455.667 237 460V464H199L186 462V464H176Z" fill="#85501E"/>
<path fill-rule="evenodd" clip-rule="evenodd" d="M135.659 87.2407C131.506 81.172 129.013 73.9728 130.343 66.284C134.176 44.1304 164.267 51.8399 169.062 63.6381C173.858 75.4363 170.217 103.915 162.319 105.221C159.169 105.741 152.837 103.178 146.604 98.5017L147.7 128.842L123.051 126.582L135.659 87.2407Z" fill="#D4A181"/>
<path fill-rule="evenodd" clip-rule="evenodd" d="M157.941 64.3543C154.382 65.9453 151.625 69.2879 148.266 73.6963C147.593 73.3526 146.844 73.1288 146.044 73.0549C142.621 72.7385 139.56 75.2865 139.207 78.746C139.028 80.5023 139.582 82.1558 140.618 83.3996C138.975 85.3129 137.15 87.3015 135.084 89.3365C128.635 84.5339 124.761 71.9156 132.518 60.7969C140.558 37.8322 171.067 55.367 177.626 51.9747C178.103 60.6219 173.063 67.093 157.941 64.3543Z" fill="#192948"/>
<path fill-rule="evenodd" clip-rule="evenodd" d="M173.171 152.192L207.525 129.462C212.913 121.834 218.347 115.808 223.828 111.385C225.542 110.497 228.611 109.794 226.143 115.208C223.674 120.621 221.321 126.428 222.936 127.903C224.551 129.378 228.054 126.851 230.044 129.358C231.371 131.03 225.3 134.332 211.832 139.265L187.686 165.451L173.171 152.192ZM231.008 164.336L246.096 154.325C247.6 145.662 249.894 141.179 252.978 140.876C255.256 139.575 252.03 150.629 256.449 149.335C260.868 148.041 271.152 138.956 273.184 140.467C276.19 142.702 274.333 150.464 271.711 154.463C266.811 161.936 262.465 164.708 251.487 168.767C245.748 170.889 239.671 174.702 233.256 180.207L231.008 164.336Z" fill="#D4A181"/>
<path fill-rule="evenodd" clip-rule="evenodd" d="M155.172 149.271C167.788 148.116 184.4 144.077 201.4 131.183L209.79 146.396C198.44 159.736 181.871 171.283 166.598 172.087C154.562 172.721 147.194 158.649 155.172 149.271Z" fill="#DC3A16"/>
<path fill-rule="evenodd" clip-rule="evenodd" d="M174.245 173.16C187.918 175.428 210.04 169.656 240.609 155.844C249.799 171.447 254.391 182.729 254.385 189.691C228.543 206.059 205.902 214.258 186.844 216.222C188.411 227.545 187.946 238.478 184.149 248.74C176.343 269.839 118.988 255.531 100.551 260.755C85.5755 223.428 106.964 206.033 104.914 181.54C102.668 154.716 120.635 111.694 123.792 111.438L152.579 109.106C155.898 129.462 165.8 151.389 174.245 173.16Z" fill="#FF5533"/>
<path fill-rule="evenodd" clip-rule="evenodd" d="M260 16.7764C262.209 16.7764 264 18.5672 264 20.7764V58.9709C264 61.1801 262.209 62.9709 260 62.9709H203.419L194.6 73V62.9709H190.131C187.922 62.9709 186.131 61.1801 186.131 58.9709V20.7764C186.131 18.5672 187.922 16.7764 190.131 16.7764H260Z" fill="#F7F9FB"/>
<path d="M230.231 43.91C228.849 45.3286 229.022 48.191 229.022 48.191H222.016C222.016 48.191 222.164 45.3286 220.808 43.91C219.303 42.5422 218.341 40.5664 218.341 38.3626C218.341 34.3096 221.548 31.0166 225.495 31.0166C229.442 31.0166 232.648 34.3096 232.648 38.3626C232.648 40.5664 231.711 42.5422 230.231 43.91Z" fill="#FFD938"/>
<path d="M229.219 50.4454C229.219 50.8254 228.923 51.1294 228.553 51.1294H222.46C222.09 51.1294 221.794 50.8254 221.794 50.4454C221.794 50.0654 222.09 49.7615 222.46 49.7615H228.529C228.899 49.7615 229.219 50.0654 229.219 50.4454Z" fill="#FFD938"/>
<path d="M228.307 53.2826C228.307 53.6625 228.011 53.9665 227.641 53.9665H223.373C223.003 53.9665 222.707 53.6625 222.707 53.2826C222.707 52.9026 223.003 52.5986 223.373 52.5986H227.641C228.011 52.5986 228.307 52.9026 228.307 53.2826Z" fill="#FFD938"/>
<path d="M225.963 27.7236V24.4813C225.963 24.228 225.766 24 225.495 24C225.248 24 225.026 24.2026 225.026 24.4813V27.749C225.026 28.0023 225.223 28.2303 225.495 28.2303C225.766 28.2049 225.963 28.0023 225.963 27.7236Z" fill="#FFD938"/>
<path d="M233.265 26.4064C233.043 26.2544 232.772 26.3304 232.624 26.5331L230.872 29.2435C230.724 29.4715 230.798 29.7501 230.996 29.9021C231.07 29.9527 231.168 29.9781 231.242 29.9781C231.39 29.9781 231.538 29.9021 231.637 29.7754L233.388 27.065C233.536 26.8624 233.462 26.5584 233.265 26.4064Z" fill="#FFD938"/>
<path d="M219.92 29.8767C219.994 29.8767 220.092 29.8514 220.166 29.8007C220.388 29.6487 220.438 29.3701 220.314 29.1421L218.612 26.4064C218.464 26.1784 218.193 26.1277 217.971 26.2544C217.749 26.4064 217.699 26.685 217.823 26.913L219.525 29.6487C219.624 29.8007 219.772 29.8767 219.92 29.8767Z" fill="#FFD938"/>
<path d="M213.383 32.1565L216.17 33.7017C216.244 33.7524 216.318 33.7524 216.392 33.7524C216.565 33.7524 216.713 33.6511 216.811 33.4991C216.935 33.2711 216.861 32.9671 216.614 32.8405L213.827 31.2953C213.605 31.1686 213.309 31.2446 213.185 31.4979C213.087 31.7512 213.161 32.0299 213.383 32.1565Z" fill="#FFD938"/>
<path d="M234.597 33.7779C234.671 33.7779 234.745 33.7526 234.819 33.7272L237.607 32.182C237.829 32.0554 237.927 31.7768 237.804 31.5234C237.681 31.2955 237.409 31.1941 237.163 31.3208L234.375 32.866C234.153 32.9926 234.055 33.2713 234.178 33.5246C234.252 33.6766 234.425 33.7779 234.597 33.7779Z" fill="#FFD938"/>
</g>
<defs>
<clipPath id="clip0">
<rect width="304" height="464" fill="white"/>
</clipPath>
</defs>
</svg>
