<?xml version="1.0" encoding="UTF-8"?>
<svg width="670px" height="597px" viewBox="0 0 670 597" version="1.1" xmlns="http://www.w3.org/2000/svg" xmlns:xlink="http://www.w3.org/1999/xlink">
    <!-- Generator: Sketch 58 (84663) - https://sketch.com -->
    <title>Web—Section Left Copy 4</title>
    <desc>Created with Sketch.</desc>
    <g id="Web—Section-Left-Copy-4" stroke="none" stroke-width="1" fill="none" fill-rule="evenodd">
        <g id="Group-6" transform="translate(32.000000, 0.000000)">
            <g id="Clock" transform="translate(428.000000, 27.000000)">
                <circle id="Clock-Frame" fill="#F2F2F2" cx="53" cy="53" r="53"></circle>
                <circle id="Time" fill-opacity="0.1" fill="#000000" cx="53" cy="11" r="3"></circle>
                <circle id="Time" fill-opacity="0.1" fill="#000000" cx="11" cy="53" r="3"></circle>
                <circle id="Time" fill-opacity="0.1" fill="#000000" cx="95" cy="53" r="3"></circle>
                <circle id="Time" fill-opacity="0.1" fill="#000000" cx="53" cy="95" r="3"></circle>
                <polygon id="Hand" fill="#AFB9C5" points="53 17 55 52 51 52"></polygon>
                <polygon id="Hand" fill="#AFB9C5" transform="translate(62.213203, 62.213203) rotate(135.000000) translate(-62.213203, -62.213203) " points="62.2132034 50.2132034 64.2132034 74.2132034 60.2132034 74.2132034"></polygon>
                <circle id="Time" fill="#C5CFD6" cx="53" cy="53" r="4"></circle>
            </g>
            <g id="Background-Shape-2" opacity="0.345889137" transform="translate(9.000000, 200.000000)">
                <path d="M0.173186467,153.171685 C5.96014048,84.7104545 316.45486,-47.4269321 374.097122,17.4181921 C431.739385,82.2633163 376.323499,203.960652 255.526608,235.124242 C134.729717,266.287832 -5.61376754,221.632915 0.173186467,153.171685 Z" id="Background-Shape" fill="#F2F2F2" transform="translate(198.500000, 122.619195) scale(-1, 1) translate(-198.500000, -122.619195) "></path>
                <path d="M244.11909,197.65475 C249.213626,139.494257 522.557159,27.2383775 573.302433,82.3268474 C624.047707,137.415317 611.203088,253.287531 504.859737,279.76222 C398.516386,306.236909 239.024555,255.815244 244.11909,197.65475 Z" id="Background-Shape" fill="#DDE3E9"></path>
            </g>
            <g id="Hanging-Lamp">
                <g id="Light" transform="translate(0.000000, 130.000000)">
                    <ellipse id="Hanging-Lamp-Light" fill="#F2F2F2" cx="49.5" cy="34.5" rx="42.5" ry="22.5"></ellipse>
                    <path d="M99,50 C99,22.3857625 76.8380951,0 49.5,0 C22.1619049,0 -7.10542736e-15,22.3857625 -7.10542736e-15,50" id="Hanging-Lamp" fill="#DDE3E9"></path>
                </g>
                <rect id="Wire" fill="#DDE3E9" x="47" y="0" width="5" height="137"></rect>
            </g>
            <g id="Hanging-Lamp" opacity="0.7" transform="translate(81.000000, 0.000000)">
                <g id="Light" transform="translate(0.000000, 95.000000)">
                    <ellipse id="Hanging-Lamp-Light" fill="#F2F2F2" cx="37" cy="27.8421053" rx="31.7676768" ry="18.1578947"></ellipse>
                    <path d="M74,40.3508772 C74,18.0657031 57.4345357,0 37,0 C16.5654643,0 -7.10542736e-15,18.0657031 -7.10542736e-15,40.3508772" id="Hanging-Lamp" fill="#DDE3E9"></path>
                </g>
                <rect id="Wire" fill="#DDE3E9" x="35" y="0" width="5" height="118"></rect>
            </g>
            <g id="Lamp" transform="translate(449.000000, 141.000000)">
                <path d="M60,34.620532 L77.0257145,16.9694354 C80.0930665,13.7894146 85.1575628,13.6980784 88.3375836,16.7654304 C88.406806,16.8322003 88.4748187,16.900213 88.5415886,16.9694354 L134.515874,64.6324308 C137.392515,67.6147352 139,71.5967215 139,75.740295 L139,395 L139,395" id="Body" stroke="#CBCBCB" stroke-width="8"></path>
                <rect id="Lamp-Base" fill="#AFB9C5" x="109" y="394" width="59" height="7" rx="3"></rect>
                <g id="Lamp-Top" transform="translate(48.083261, 48.083261) rotate(45.000000) translate(-48.083261, -48.083261) translate(14.583261, 14.583261)">
                    <path d="M33.0303119,0.383901642 C51.2557087,0.383901642 66.0303119,15.1585049 66.0303119,33.3839016 L66.0303119,61.3839016 L66.0303119,61.3839016 L0.03031192,61.3839016 L0.03031192,33.3839016 C0.03031192,15.1585049 14.8049152,0.383901642 33.0303119,0.383901642 Z" id="Lamp" fill="#C5CFD6"></path>
                    <ellipse id="Lamp" fill="#F2F2F2" cx="33.2089288" cy="60.4454002" rx="33" ry="6.5"></ellipse>
                </g>
            </g>
        </g>
        <g id="Group-2" transform="translate(34.000000, 247.000000)">
            <g id="Group">
                <g id="Head/Front/Pony" transform="translate(61.420000, 0.000000)">
                    <g id="Head" stroke-width="1" transform="translate(44.867647, 25.634615)" fill="#B28B67">
                        <path d="M31.6926292,7.55305991 C36.5074352,16.4847568 35.9353111,39.1407466 29.7126034,40.7370899 C27.2310676,41.3736911 21.9447395,39.8143364 16.5644139,36.5869167 L19.9411765,60.3653846 L0,60.3653846 L6.86451779,28.5201446 C3.03613939,24.047622 0.445066831,18.5665564 0.878056807,12.4248946 C2.12567143,-5.27165163 26.8778233,-1.37863694 31.6926292,7.55305991 Z"></path>
                    </g>
                    <path d="M70.625,16.5384615 C75.2138365,16.5384615 78.9338235,20.2407223 78.9338235,24.8076923 C78.9338235,29.2236382 75.4557994,32.831119 71.0772882,33.0648799 C68.5713576,33.8341673 65.3514986,34.399231 61.7806413,34.6374645 C62.1278714,35.9349211 62.3161765,37.4083709 62.3161765,39.0734072 C62.3161765,40.5439089 62.153082,42.1034631 61.8527714,43.6869731 C61.0782769,42.7705411 60.0432114,42.1730769 58.9926471,42.1730769 C56.0533458,42.1730769 54.0073529,44.5795464 54.0073529,47.1346154 C54.0073529,50.3770431 55.8879664,52.7228006 58.6334043,52.9108831 C56.1617475,57.6346278 52.7416255,61.1923077 49.3247811,61.1923077 C42.8349953,61.1923077 38.2205882,52.5569811 38.2205882,43.272528 C38.2205882,42.9466449 38.2270698,42.6229275 38.2398586,42.3016254 C31.3750314,46.9888665 26.0842086,56.2307692 17.0004724,56.2307692 C4.64233011,56.2307692 -0.265603384,31.4230769 17.0004724,31.4230769 C28.7438507,31.4230769 34.5197717,33.1272657 39.49783,35.6472733 C40.4783234,32.891583 41.9755488,30.5755292 43.8063535,28.9582543 C44.2475288,28.4638996 44.9252381,27.9906105 45.79979,27.5519848 C46.3347337,27.260979 46.8884528,27.0245351 47.4575758,26.8470902 C50.4586621,25.7513707 54.8005282,24.9792389 59.6495451,24.810714 C60.5568617,24.7791808 61.4479466,24.7699621 62.3172258,24.7816024 C62.3303385,20.2266442 66.0448964,16.5384615 70.625,16.5384615 Z" id="hair" fill="#191847"></path>
                </g>
                <g id="Bottom/Sitting/Baggy-Pants" transform="translate(0.000000, 156.299766)">
                    <g id="Objects/Seat/Cube-2" transform="translate(8.300000, 34.970711)" fill="#C5CFD6">
                        <path d="M142.060345,0 C150.896901,-3.39960584e-15 158.060345,7.163444 158.060345,16 L158.060345,87 C158.060345,95.836556 150.896901,103 142.060345,103 L51.7715517,103 C42.9349957,103 35.7715517,95.836556 35.7715517,87 L35.7715517,16 C35.7715517,7.163444 42.9349957,1.623249e-15 51.7715517,0 L142.060345,0 Z M130.767241,23.2580645 L63.0646552,23.2580645 C60.8555162,23.2580645 59.0646552,25.0489255 59.0646552,27.2580645 L59.0646552,27.2580645 L59.0646552,75.7419355 C59.0646552,77.9510745 60.8555162,79.7419355 63.0646552,79.7419355 L63.0646552,79.7419355 L130.767241,79.7419355 C132.97638,79.7419355 134.767241,77.9510745 134.767241,75.7419355 L134.767241,75.7419355 L134.767241,27.2580645 C134.767241,25.0489255 132.97638,23.2580645 130.767241,23.2580645 L130.767241,23.2580645 Z" id="Seat"></path>
                    </g>
                    <path d="M248.30194,134.054393 C231.937769,114.007995 220.86538,99.1464916 215.084772,89.4698833 C205.186969,72.9011806 197.08609,58.1580953 194.529655,52.526303 C188.433507,39.0965722 208.563973,32.8080377 213.119955,39.0721096 C220.015615,48.5530312 234.742296,78.3868222 257.3,128.573483 L248.30194,134.054393 Z" id="LegLower" fill="#B28B67"></path>
                    <path d="M214.768781,128.225941 L184.314114,51.3209983 C177.800466,37.30174 209.256079,28.0865406 214.043118,34.6108226 C224.911177,49.4229623 250.742042,107.854705 253.98,112.267736 L214.768781,128.225941 Z" id="LegLower" fill="#69A1AC"></path>
                    <g id="Lower-Leg" stroke-width="1" transform="translate(182.743557, 82.014048) rotate(39.000000) translate(-182.743557, -82.014048) translate(159.918557, 22.064257)" fill="#B28B67">
                        <path d="M3.99268329,114.866325 C3.15717506,104.374599 1.60490431,68.0544301 3.15801429,51.2431694 C3.60431581,46.4122873 4.07452442,41.7415992 4.54838162,37.3600795 C5.95685291,24.3366526 30.0285931,24.7483314 28.1169951,37.1212397 C23.3563607,67.9346713 14.9771014,111.117912 14.3765284,114.849187 C13.5347997,120.078728 4.51777417,121.460047 3.99268329,114.866325 Z" id="LegLower"></path>
                    </g>
                    <g id="Accessories/Shoe/Flat-Sneaker" transform="translate(157.285000, 116.569038) rotate(30.000000) translate(-157.285000, -116.569038) translate(131.970000, 99.916318)" fill="#E4E4E4">
                        <path d="M2.11012516,21.3003743 C1.2607521,23.5926093 0.836065574,25.321544 0.836065574,26.4871784 C0.836065574,27.9748896 1.08723155,30.1458301 1.5895635,33 C3.33856131,33 19.0570991,33 48.745177,33 C49.9705842,29.0024685 49.2632081,26.8443299 46.6230486,26.5255841 C43.9828891,26.2068384 41.7896638,25.9190365 40.0433726,25.6621784 L18.2729393,16.0852641 C17.767407,15.8628781 17.1773126,16.0924135 16.9549266,16.5979458 C16.9524174,16.6036497 16.9499617,16.6093768 16.9475596,16.6151266 L15.60367,19.8319234 L15.60367,19.8319234 C13.1595728,20.957188 11.1734901,21.5198203 9.64542194,21.5198203 C8.45934004,21.5198203 6.84152979,21.0682465 4.79199121,20.1650987 L4.79198549,20.1651117 C3.78120932,19.719704 2.60073906,20.1780257 2.15533137,21.1888019 C2.1391465,21.2255307 2.12407094,21.2627383 2.11012516,21.3003743 Z" id="shoe"></path>
                    </g>
                    <g id="Accessories/Shoe/Flat-Sneaker" transform="translate(239.040000, 109.907950)" fill="#E4E4E4">
                        <path d="M2.11012516,21.3003743 C1.2607521,23.5926093 0.836065574,25.321544 0.836065574,26.4871784 C0.836065574,27.9748896 1.08723155,30.1458301 1.5895635,33 C3.33856131,33 19.0570991,33 48.745177,33 C49.9705842,29.0024685 49.2632081,26.8443299 46.6230486,26.5255841 C43.9828891,26.2068384 41.7896638,25.9190365 40.0433726,25.6621784 L18.2729393,16.0852641 C17.767407,15.8628781 17.1773126,16.0924135 16.9549266,16.5979458 C16.9524174,16.6036497 16.9499617,16.6093768 16.9475596,16.6151266 L15.60367,19.8319234 L15.60367,19.8319234 C13.1595728,20.957188 11.1734901,21.5198203 9.64542194,21.5198203 C8.45934004,21.5198203 6.84152979,21.0682465 4.79199121,20.1650987 L4.79198549,20.1651117 C3.78120932,19.719704 2.60073906,20.1780257 2.15533137,21.1888019 C2.1391465,21.2255307 2.12407094,21.2627383 2.11012516,21.3003743 Z" id="shoe"></path>
                    </g>
                    <path d="M173.355535,55.1621774 C148.043176,51.0253778 131.088614,48.1966502 122.49185,46.6759947 C97.9876844,42.3415269 90.8420611,29.1133924 95.0669351,0.251646456 L140.215444,0.251646456 C146.190124,1.98250096 171.154653,12.6872745 215.109032,32.3659672 C223.017292,36.3042056 221.544514,47.9161178 220.099024,51.7417292 C220.040072,51.8977522 206.708261,74.8148534 180.103593,120.493033 L143.170208,96.8900944 L173.424897,57.9434608 C174.223894,56.3290627 174.200774,55.4019683 173.355535,55.1621774 Z" id="Leg-and-Butt" fill="#89C5CC"></path>
                </g>
                <g id="Body/Hoodie" transform="translate(16.600000, 68.173302)">
                    <path d="M56.5675029,77.1020491 L73.8731555,77.1701659 C63.1877135,111.695933 57.4191627,130.015089 56.5675029,132.127634 C54.6512685,136.880859 58.7062783,144.119938 60.4403614,148.010165 C54.7925104,150.539705 55.394295,141.171786 48.2696829,144.489419 C41.7666673,147.5176 36.8198396,153.004462 29.3065448,148.364319 C28.3828293,147.79384 27.3705877,145.645886 29.8162915,143.967374 C35.9094315,139.785587 44.6900153,132.466707 45.8764105,130.057641 C47.4942723,126.772449 51.0579697,109.120585 56.5675029,77.1020491 L56.5675029,77.1020491 Z M157.990685,76.4319799 L184.406441,95.8472622 C191.570938,97.7822575 197.556643,100.189718 202.363558,103.069645 C203.499034,104.105248 204.871364,106.202517 200.162268,105.840056 C195.453172,105.477596 190.483623,105.308319 189.833859,106.915978 C189.184095,108.523636 192.033785,110.446219 190.72033,112.615372 C189.844693,114.061473 185.707832,110.435427 178.309747,101.737234 L152.151219,90.8801032 L157.990685,76.4319799 Z" id="Skin" fill="#B28B67"></path>
                    <path d="M101.633354,7.93784403 L108.659857,6.08904471 C137.129973,26.6586497 151.847761,69.6728459 186.328522,90.1246639 L179.367334,100.49593 C122.474185,98.4450458 103.83221,46.038405 101.633354,7.93784403 Z" id="Coat-Back" fill="#E87613" transform="translate(143.980938, 53.292488) rotate(5.000000) translate(-143.980938, -53.292488) "></path>
                    <path d="M74.53125,94.4919786 C103.243798,94.4919786 124.364146,94.4919786 137.892295,94.4919786 C140.787572,94.4919786 140.242012,90.3075067 139.823482,88.1959992 C134.993143,63.8266512 116.13733,37.5576733 116.13733,2.86851976 L97.861022,0 C82.7441672,24.3345083 77.5164968,54.2952152 74.53125,94.4919786 Z" id="Shirt" fill="#DDE3E9"></path>
                    <path d="M96.4848697,-5.32907052e-15 C97.105495,-4.88498131e-15 97.6737516,0.0390661873 98.1896394,0.117198562 L103.906158,0.443233643 C120.157428,55.5707242 124.757124,92.5344006 117.705246,111.334263 L117.487986,111.898396 L67.6175026,111.899343 C64.6629005,118.795077 61.8355903,124.5969 59.135572,129.304813 L59.135572,129.304813 L45.546875,129.304813 C44.2679806,87.9163445 54.0992762,52.7878138 75.0407618,23.9192208 C72.3866088,23.1565022 70.2842179,21.3752009 68.734375,18.5761202 C62.0543519,6.51172057 64.4668209,-0.130625036 71.605647,-2.31400155 C78.7444732,-4.49737805 85.1108113,-1.687539e-14 96.4848697,-5.32907052e-15 Z" id="Coat-Front" fill="#FF9B21"></path>
                    <path d="M86.125,111.898396 L67.6175026,111.899343 C71.0641207,103.855295 74.6839552,94.3226743 78.4770062,83.3014805 C80.0459096,96.4350741 82.5950758,105.967684 86.125,111.898396 Z" id="Shade" fill-opacity="0.1" fill="#000000"></path>
                </g>
            </g>
        </g>
        <g id="Group-2-Copy" transform="translate(474.500000, 424.500000) scale(-1, 1) translate(-474.500000, -424.500000) translate(350.000000, 247.000000)">
            <g id="Group">
                <g id="Head/Front/Short-Beard" transform="translate(61.420000, 0.000000)">
                    <g id="Head" stroke-width="1" transform="translate(44.867647, 25.634615)" fill="#D4A181">
                        <path d="M31.6926292,7.55305991 C36.5074352,16.4847568 35.9353111,39.1407466 29.7126034,40.7370899 C27.2310676,41.3736911 21.9447395,39.8143364 16.5644139,36.5869167 L19.9411765,60.3653846 L0,60.3653846 L6.86451779,28.5201446 C3.03613939,24.047622 0.445066831,18.5665564 0.878056807,12.4248946 C2.12567143,-5.27165163 26.8778233,-1.37863694 31.6926292,7.55305991 Z"></path>
                    </g>
                    <path d="M65.7494309,24.4939339 C71.3445118,24.9715585 76.3406507,26.6695205 77.7565966,27.6778984 C77.7565966,32.9497185 76.7302156,34.513852 67.9635223,34.3759795 C65.8096792,35.5080447 64.1538495,37.4573551 62.4292611,40.0129414 C63.1916811,50.5955828 65.2109045,55.8873429 68.4861355,55.8873429 C73.3989821,55.8873429 77.5671833,52.7833636 79.7228223,52.7833636 C81.2942101,52.7833636 80.9433674,54.7404393 79.9017695,56.1914718 C79.0424176,57.3886204 74.8574461,58.5425285 74.8574461,60.3985107 C74.8574461,62.254493 78.1639207,60.8186218 78.1639207,61.9193686 C78.1639207,63.7401381 78.7450287,67.1635105 75.5697671,67.1635105 C72.3562965,67.1635105 63.142707,65.9980404 61.5637474,61.2514096 C60.5448278,58.188358 59.8859896,51.8414476 59.5872327,42.2106784 C59.3920604,42.184927 59.1937442,42.1730769 58.9926471,42.1730769 C56.2393451,42.1730769 54.0073529,44.3944334 54.0073529,47.1346154 C54.0073529,48.5256805 54.582566,49.7830376 55.5091853,50.6839462 C54.3556558,52.3043865 53.0628802,53.9971534 51.5814974,55.7438688 C46.0162633,52.4208652 41.8865431,42.6931878 47.3274627,33.348384 C48.8313501,28.7705099 52.2359405,26.3252953 56.2568438,25.1899037 C59.5139826,23.8339245 62.8952011,23.6810367 65.7494309,24.4939339 Z" id="Hair" fill="#3D2216"></path>
                </g>
                <g id="Bottom/Sitting/Skinny-Jeans-1" transform="translate(0.000000, 156.299766)">
                    <g id="Objects/Seat/Cube" transform="translate(8.300000, 34.970711)" stroke-width="1">
                        <g id="Seat" transform="translate(45.754310, 0.000000)">
                            <polygon id="Seat-Stuff" fill="#AFB9C5" points="22.9791802 0 87.2469752 0 95.6681034 103 0 103"></polygon>
                            <polygon id="Seat-Stuff" fill-opacity="0.1" fill="#000000" points="22.9791802 0 42.7451751 0 54.575553 103 0 103"></polygon>
                        </g>
                    </g>
                    <path d="M214.102297,17.283435 L214.340768,17.1428939 C221.202096,13.2868166 232.407785,18.5233982 232.400004,24.3449567 C232.376437,41.967277 216.345046,125.021209 215.508026,130.271487 C214.671006,135.521765 205.70442,136.908562 205.182266,130.288693 C204.351432,119.755365 202.807844,83.2911764 204.352266,66.4132543 C204.989857,59.4454623 205.676516,52.8096146 206.352507,46.8896587 C197.941642,62.1290097 184.931125,83.9495382 167.322296,112.350719 L157.763555,107.969719 C165.269737,83.1604336 171.424694,65.6457385 176.228425,55.4256333 C184.453578,37.9263321 192.166004,22.9405135 195.411916,17.6618805 C200.518121,9.35796096 209.406574,12.2561665 214.102297,17.283435 Z" id="Skin" fill="#D4A181"></path>
                    <path d="M173.362891,102.665071 L177.526038,18.1796816 C180.57371,3.57334628 206.501417,10.3800476 206.498727,18.2092433 C206.492619,35.9839414 195.903802,97.3750373 195.901982,102.670714 L173.362891,102.665071 Z" id="LegLower" fill="#1F28CF" transform="translate(189.930809, 56.132377) rotate(20.000000) translate(-189.930809, -56.132377) "></path>
                    <g id="Accessories/Shoe/Flat-Pointy" transform="translate(178.865000, 110.740586) rotate(30.000000) translate(-178.865000, -110.740586) translate(153.550000, 94.087866)" fill="#191847">
                        <path d="M0,33 L0.836065574,15.675 L18.3934426,15.675 C26.7186519,21.45 37.5875044,26.125 51,29.7 L51,33 L19.2295082,33 L8.36065574,31.35 L8.36065574,33 L0,33 Z" id="Shoe"></path>
                    </g>
                    <g id="Accessories/Shoe/Flat-Pointy" transform="translate(200.860000, 104.912134)" fill="#191847">
                        <path d="M0,33 L0.836065574,15.675 L18.3934426,15.675 C26.7186519,21.45 37.5875044,26.125 51,29.7 L51,33 L19.2295082,33 L8.36065574,31.35 L8.36065574,33 L0,33 Z" id="Shoe"></path>
                    </g>
                    <path d="M234.69941,30.3354499 C234.69941,52.4560669 224.227488,104.054763 224.220861,108.925532 L201.69,108.942894 C204.98782,62.9018859 206.157202,39.6333836 205.198147,39.1373866 C203.759563,38.393391 146.225945,44.8999208 128.970677,44.8999208 C104.088495,44.8999208 93.7952344,29.1592428 92.96,-4.40536496e-13 L142.250677,-4.40536496e-13 C152.286701,1.07732017 204.635525,11.6696071 224.07684,15.3108542 C232.4,16.8697345 234.69941,24.2417894 234.69941,30.3354499 Z" id="Leg-and-Butt" fill="#2B44FF"></path>
                </g>
                <g id="Body/Pointing-Forward" transform="translate(16.600000, 68.173302)">
                    <path d="M197.554503,38.4663439 C201.142598,37.7269838 209.900112,31.2077901 211.409075,32.5314328 C213.641489,34.4896768 211.650932,40.5026206 209.305582,43.4937382 C204.922127,49.0841332 201.292815,50.9958796 192.322406,53.499323 C187.632214,54.8082525 182.561286,57.4318889 177.109623,61.3702323 L176.390625,48.6881024 L189.016652,41.7457327 C190.788262,34.9984287 192.906006,31.6036319 195.369885,31.5613423 C197.262655,30.6798552 193.966408,39.205704 197.554503,38.4663439 Z M175.823195,9.56648976 C173.504842,13.6850735 171.251343,18.1215651 172.432452,19.3904116 C173.613562,20.6592581 176.558764,18.8867354 177.96781,20.9949347 C178.907173,22.4004009 173.875528,24.6206418 162.872875,27.6556573 L141.986828,46.7964414 L131.372126,35.393241 L160.116164,19.6359486 C164.896122,13.9545772 169.605711,9.54219641 174.244933,6.39880605 C175.66253,5.80644516 178.141548,5.44790603 175.823195,9.56648976 Z" id="Skin" fill="#D4A181"></path>
                    <path d="M118.304773,28.8065992 C128.265485,30.276437 141.858872,30.2745298 157.431627,23.526127 L161.023809,36.8090412 C149.728747,44.957683 134.744259,50.7493295 122.798588,48.5115791 C113.384741,46.7481085 110.365171,34.5344982 118.304773,28.8065992 Z" id="Sleeve" fill="#191847" transform="translate(137.384266, 36.261025) rotate(-9.000000) translate(-137.384266, -36.261025) "></path>
                    <path d="M118.044043,-1.42108547e-13 C119.311843,16.3029683 125.692965,34.2702286 130.929875,52.0205945 C141.617611,54.6895533 159.541731,51.5432563 184.701632,42.5822472 C190.942167,55.504521 193.82701,64.7171111 193.356161,70.2200176 C171.770739,81.5056463 153.270524,86.5366107 138.029277,86.8676952 C138.519237,95.9158464 137.418797,104.529869 133.720601,112.400667 C126.119032,128.578936 81.607626,113.596055 66.6415272,116.545052 C57.2693161,86.0799713 75.3907699,73.6990855 75.4053507,54.205751 C75.4213182,32.8584725 92.5466208,-1.42108547e-13 95.0662661,-1.42108547e-13 L95.0662661,-1.42108547e-13 Z" id="Clothes" fill="#2F3676"></path>
                </g>
            </g>
        </g>
    </g>
</svg>