<svg width="64" height="64" viewBox="0 0 64 64" fill="none" xmlns="http://www.w3.org/2000/svg">
<rect width="64" height="64" rx="16" fill="#E8D0FF"/>
<path d="M28.8178 16.0715V13.3571C28.8178 12.6076 28.2102 12 27.4606 12C26.7111 12 26.1035 12.6076 26.1035 13.3571V16.0715C26.1035 16.821 26.7111 17.4286 27.4606 17.4286C28.2102 17.4286 28.8178 16.821 28.8178 16.0715Z" fill="#F7F9FB"/>
<path d="M19.7855 16.0715V13.3571C19.7855 12.6076 19.1779 12 18.4284 12C17.6789 12 17.0713 12.6076 17.0713 13.3571V16.0715C17.0713 16.821 17.6789 17.4286 18.4284 17.4286C19.1779 17.4286 19.7855 16.821 19.7855 16.0715Z" fill="#F7F9FB"/>
<path d="M37.8964 16.0715V13.3571C37.8964 12.6076 37.2888 12 36.5393 12C35.7897 12 35.1821 12.6076 35.1821 13.3571V16.0715C35.1821 16.821 35.7897 17.4286 36.5393 17.4286C37.2888 17.4286 37.8964 16.821 37.8964 16.0715Z" fill="#F7F9FB"/>
<path d="M46.9286 16.0715V13.3571C46.9286 12.6076 46.321 12 45.5715 12C44.822 12 44.2144 12.6076 44.2144 13.3571V16.0715C44.2144 16.821 44.822 17.4286 45.5715 17.4286C46.321 17.4286 46.9286 16.821 46.9286 16.0715Z" fill="#F7F9FB"/>
<path d="M48.0953 16.5234H15.9048C14.8002 16.5234 13.9048 17.4189 13.9048 18.5234V47.9997C13.9048 49.1043 14.8002 49.9997 15.9048 49.9997H48.0953C49.1998 49.9997 50.0953 49.1043 50.0953 47.9997V18.5234C50.0953 17.4189 49.1998 16.5234 48.0953 16.5234Z" fill="white"/>
<path d="M48.0953 16.5234H32V49.9997H48.0953C49.1998 49.9997 50.0953 49.1042 50.0953 47.9997V18.5234C50.0953 17.4189 49.1998 16.5234 48.0953 16.5234Z" fill="#F7F9FB"/>
<path d="M48.0953 16.5234H15.9048C14.8002 16.5234 13.9048 17.4189 13.9048 18.5234V25.5711H50.0953V18.5234C50.0953 17.4189 49.1998 16.5234 48.0953 16.5234Z" fill="#8D4FF8"/>
<path d="M48.0953 16.5234H32V25.5711H50.0953V18.5234C50.0953 17.4189 49.1998 16.5234 48.0953 16.5234Z" fill="#7525DC"/>
</svg>
