<svg width="1280" height="520" viewBox="0 0 1280 520" fill="none" xmlns="http://www.w3.org/2000/svg">
<rect width="1280" height="520" fill="white"/>
<path fill-rule="evenodd" clip-rule="evenodd" d="M164.431 160.724C149.184 190.578 60.1916 218.05 25.9219 189.98C-8.34775 161.91 40.797 153.816 65.7017 112.091C90.6065 70.3672 90.0234 38.0353 133.347 56.8104C176.671 75.5856 179.678 130.87 164.431 160.724Z" fill="#1493FF"/>
<path fill-rule="evenodd" clip-rule="evenodd" d="M1186.96 452.328C1077.05 524.552 957.898 455.195 940.883 421.328C914.016 367.849 1026.29 391.908 1087.78 343.528C1149.28 295.148 1170.34 249.503 1215.59 293.643C1260.85 337.782 1227.52 416.656 1186.96 452.328Z" fill="#FFD938"/>
<path d="M584.932 208.201L726.513 279.917L593.614 366.672L584.932 208.201Z" fill="#00BD66"/>
</svg>
