<svg width="1280" height="520" viewBox="0 0 1280 520" fill="none" xmlns="http://www.w3.org/2000/svg">
<rect width="1280" height="520" fill="white"/>
<path fill-rule="evenodd" clip-rule="evenodd" d="M651.506 286.306C718.995 302.503 881.997 199.477 883.964 107.781C885.931 16.0856 807.048 82.5055 707.886 65.525C608.724 48.5445 558.644 4.10847 529.867 97.5369C501.09 190.965 584.017 270.11 651.506 286.306Z" fill="#FF5533"/>
<path fill-rule="evenodd" clip-rule="evenodd" d="M1203.52 413.424C1047.4 542.254 853.494 456.046 821.804 407.077C771.763 329.754 947.581 347.817 1033.6 263.545C1119.61 179.272 1144.22 105.932 1220.84 165.899C1297.45 225.867 1259.63 352.086 1203.52 413.424Z" fill="#FFD938"/>
<path d="M1212.63 40L1144.18 246L1000 83.7192L1212.63 40Z" fill="#00BD66"/>
</svg>
