<svg width="1280" height="520" viewBox="0 0 1280 520" fill="none" xmlns="http://www.w3.org/2000/svg">
<g clip-path="url(#clip0)">
<rect width="1280" height="520" fill="white"/>
<path fill-rule="evenodd" clip-rule="evenodd" d="M1176.8 49.1513C1213.83 69.0302 1245.98 181.287 1209.91 223.523C1173.85 265.76 1164.96 203.949 1113.3 171.66C1061.64 139.371 1021.09 139.271 1045.74 85.4472C1070.39 31.6229 1139.77 29.2724 1176.8 49.1513Z" fill="#FF5533"/>
<path fill-rule="evenodd" clip-rule="evenodd" d="M1185.96 466.328C1076.05 538.552 956.898 469.196 939.883 435.328C913.016 381.849 1025.29 405.908 1086.78 357.528C1148.28 309.149 1169.34 263.503 1214.59 307.643C1259.85 351.782 1226.52 430.656 1185.96 466.328Z" fill="#FFD938"/>
<path d="M591.932 54.2009L733.513 125.918L600.614 212.672L591.932 54.2009Z" fill="#00BD66"/>
</g>
<defs>
<clipPath id="clip0">
<rect width="1280" height="520" fill="white"/>
</clipPath>
</defs>
</svg>
