<?xml version="1.0" encoding="UTF-8"?>
<svg width="670px" height="560px" viewBox="0 0 670 560" version="1.1" xmlns="http://www.w3.org/2000/svg" xmlns:xlink="http://www.w3.org/1999/xlink">
    <!-- Generator: Sketch 58 (84663) - https://sketch.com -->
    <title>Hero</title>
    <desc>Created with Sketch.</desc>
    <g id="Hero" stroke="none" stroke-width="1" fill="none" fill-rule="evenodd">
        <path d="M49.7348372,284.258807 C57.903171,221.10376 496.169058,99.2078666 577.531593,159.027079 C658.894127,218.846291 639.023414,414.327835 464.665621,442.778639 C290.307828,471.229444 41.5665033,347.413854 49.7348372,284.258807 Z" id="Background-Shape" fill-opacity="0.3" fill="#FFFFFF" transform="translate(336.556566, 294.958908) rotate(-3.000000) translate(-336.556566, -294.958908) "></path>
        <g id="Humaaan" transform="translate(471.000000, 269.500000) scale(-1, 1) translate(-471.000000, -269.500000) translate(325.000000, 56.000000)">
            <g id="Head/Front/Rad" transform="translate(159.711289, 65.054786) rotate(14.000000) translate(-159.711289, -65.054786) translate(93.606469, 14.665359)">
                <g id="Head" stroke-width="1" transform="translate(52.411765, 30.105769)" fill="#B28B67">
                    <path d="M37.0214784,8.87045409 C42.6458535,19.360005 41.9775315,45.9676209 34.7085278,47.8423963 C31.8097046,48.5900424 25.6344005,46.7586493 19.3493329,42.9682061 L23.2941176,70.8942308 L0,70.8942308 L8.01900476,33.4949126 C3.54676525,28.2422395 0.519890672,21.8050576 1.02569468,14.5920273 C2.48308521,-6.19112575 31.3971033,-1.61909687 37.0214784,8.87045409 Z"></path>
                </g>
                <path d="M92.6005411,37.7795366 C93.3529197,37.033512 93.7633242,35.9686875 94.1183411,34.9575922 C94.4870262,33.9072631 94.8452592,32.8461107 95.0900368,31.7528754 C95.5791454,29.5685309 95.5837908,27.0564959 94.0264155,25.360353 C92.7774242,24.000211 90.9033567,23.3901522 89.1737437,23.2575686 C88.0214128,23.1691473 86.837904,23.3306249 85.733278,23.6939737 C84.6373174,24.0544234 83.6926009,24.7728103 82.6301409,25.2186856 C82.5895829,22.864746 82.1865931,20.4017052 80.9930789,18.3917874 C79.8445894,16.4579216 78.0134919,15.372707 75.9281473,15.0856035 C73.7877725,14.7909624 71.6741981,15.2921132 69.7580538,16.3289134 C69.2783254,16.5885725 68.8030637,16.8606009 68.3482597,17.168481 C67.967425,17.426304 67.5714927,17.7367933 67.1246396,17.8416426 C66.6265082,17.9586679 66.3795865,17.6707913 66.0558368,17.3071527 C65.6762528,16.8807977 65.2486067,16.5052729 64.7960361,16.1723642 C62.7949343,14.7006084 60.1693816,14.0954781 57.8510516,14.9776619 C56.7828742,15.38411 55.7441773,16.074376 55.0194926,17.0255574 C54.3735119,17.8734356 53.9127225,19.2184059 53.0211602,19.8091375 C52.6428269,20.0599061 52.3756262,19.7276739 52.0311508,19.4821236 C51.5137231,19.11317 51.0202371,18.7060454 50.4965559,18.3471419 C49.7609723,17.8428988 48.9645517,17.4657312 48.1116714,17.2683053 C46.8631268,16.9792691 45.1377126,17.0470104 44.7807303,18.6832395 C44.6467279,19.2978401 44.7494631,19.9551535 44.7927905,20.5743925 C44.8521982,21.4246866 44.9141966,22.2746908 44.9879873,23.1237287 C45.0440002,23.7683828 45.1148428,24.3910042 45.2364276,25.0240621 C45.3012848,25.3615126 45.5042537,25.9906085 45.3596205,26.3285421 C45.1788959,26.7509351 44.344776,26.5107963 43.9884191,26.5254849 C43.2845494,26.5545721 42.5777317,26.6780721 41.9269269,26.9789944 C41.4225421,27.2122721 40.8922501,27.5553274 40.679365,28.1337864 C40.5484894,28.4891144 40.5829727,28.854106 40.6447924,29.2196774 C40.7189404,29.6584017 40.6341616,29.8910995 40.5787739,30.3337859 C39.633432,29.8680037 36.3575212,28.8331361 35.94533,30.5283128 C35.8081116,31.0927596 36.1206051,31.7305527 36.3590399,32.2065782 C36.7772166,33.0415073 37.3254649,33.8046364 37.885952,34.5323969 C39.0550779,36.0506343 40.4508463,37.3601394 41.952566,38.480046 C40.1931152,39.2626954 39.7338444,41.5712163 41.2571832,42.9466267 C41.9297856,43.553883 42.8341228,43.6890758 43.6825364,43.6502284 C43.9930645,43.636023 44.4407217,43.5165818 44.6850526,43.5706975 C44.8165536,43.5997848 44.9573454,43.7113019 45.1394993,43.7237679 C46.3368549,43.8058112 47.688492,43.5171616 48.8589578,43.2513178 C50.9445704,42.7776115 52.9190504,41.7889357 54.531456,40.2831642 C54.9450766,39.8969129 55.2867826,39.6745551 55.8435177,39.6802565 C56.3313756,39.6851849 56.810032,39.8190248 57.2974432,39.8313942 C58.5870818,39.8643468 59.7498649,39.2335115 60.9473992,38.8136311 C61.0207432,40.4323692 61.4814433,42.215194 62.1432362,43.6714882 C62.6829083,44.8590395 63.8098681,45.0316302 64.9172635,45.135803 C68.458499,45.4691948 72.0122413,45.0971489 75.5579435,45.1020773 C72.1256073,45.8783488 68.5788331,46.1983083 65.1769601,47.1118019 C63.6392384,47.5246279 64.8134564,48.5616214 65.4709612,49.2804915 C66.5536109,50.4642741 67.3586077,51.9310048 67.9169508,53.4762035 C69.5960003,51.286254 72.563795,49.8432956 75.1930998,50.5160706 C78.0982707,51.2592928 80.1439506,55.1903206 78.2862314,58.0164203 C77.2076911,59.656998 75.2600116,60.2903458 73.6393872,60.9952037 C74.9036547,62.3104103 75.2094481,64.2528767 75.9704027,65.8891058 C76.3456987,66.6960107 76.8725066,67.6083446 77.711808,67.8895534 C78.0223361,67.9936296 78.3864651,68.0025201 78.6314214,68.2558012 C78.9348921,68.5693828 79.007164,68.9199757 79.3946988,69.1894916 C80.9410859,70.2652359 83.3566123,70.1823228 84.7272777,68.7785016 C85.9667994,67.5089069 85.6443004,65.4998588 84.6090876,64.2126764 C86.2569592,63.5254061 89.2591479,62.6414829 88.6042337,60.0727231 C92.1749497,59.8354834 100.844544,54.0410369 96.0520843,49.8068641 C98.6821931,48.31955 101.098524,44.6847094 99.4091112,41.4805724 C98.1082164,39.0132796 95.0828007,37.9103808 92.6005411,37.7795366" id="hair" fill="#191847" transform="translate(67.941176, 42.245192) scale(-1, 1) translate(-67.941176, -42.245192) "></path>
            </g>
            <g id="Bottom/Standing/Skinny-Jeans" transform="translate(0.000000, 194.981454)">
                <polygon id="Leg" fill="#191847" points="124.586667 9.9475983e-14 159.87483 123.500598 185.621438 214.527197 204.4 214.527197 177.040548 9.9475983e-14"></polygon>
                <path d="M115.14956,0 C114.333348,63.6536404 111.550081,98.3720656 110.693092,104.155276 C109.836103,109.938486 96.8779806,146.729126 71.818725,214.527197 L91.2720429,214.527197 C123.174392,149.486532 140.9831,112.695892 144.698166,104.155276 C148.413232,95.6146593 159.878288,60.8962341 177.146667,0 L115.14956,0 Z" id="Leg" fill="#2F3676"></path>
                <g id="Accessories/Shoe/Flat-Pointy" transform="translate(70.080000, 193.171548)" fill="#191847">
                    <path d="M0,39 L0.967213115,18.525 L21.2786885,18.525 C30.909813,25.35 43.4835835,30.875 59,35.1 L59,39 L22.2459016,39 L9.67213115,37.05 L9.67213115,39 L0,39 Z" id="Shoe"></path>
                </g>
                <g id="Accessories/Shoe/Flat-Pointy" transform="translate(182.986667, 193.171548)" fill="#191847">
                    <path d="M0,39 L0.967213115,18.525 L21.2786885,18.525 C30.909813,25.35 43.4835835,30.875 59,35.1 L59,39 L22.2459016,39 L9.67213115,37.05 L9.67213115,39 L0,39 Z" id="Shoe"></path>
                </g>
            </g>
            <g id="Body/Trench-Coat/2" transform="translate(145.819456, 183.837639) rotate(3.000000) translate(-145.819456, -183.837639) translate(21.386853, 93.233572)">
                <path d="M78.2431517,93.7709137 C70.0065794,136.962801 65.5204465,159.837466 64.7847529,162.394908 C63.1294425,168.149155 68.7540229,176.060809 71.2567715,180.366847 C64.969824,183.994531 64.5236936,173.041623 56.6084179,177.764975 C49.3837212,182.076232 44.2783807,189.05274 34.9329841,184.581856 C33.7840225,184.032187 32.3381604,181.66134 34.9890858,179.413209 C41.5935078,173.812295 50.9523205,164.239799 52.042645,161.297097 C53.5294973,157.284197 56.4893321,135.352687 60.9221494,95.5025682 L60.9221494,95.5025682 Z M206.395177,83.7500697 L233.139859,103.427409 C246.36427,105.60788 252.51404,107.571614 251.58917,109.31861 C250.201864,111.939104 246.544173,110.240418 245.320163,111.858287 C244.144153,113.412709 247.030265,117.975639 250.108278,122.322075 L250.485874,122.852991 C253.699115,127.352847 250.75941,127.239328 249.030864,126.724585 C243.226248,123.640813 237.18378,119.091902 230.903461,113.077853 L230.903461,113.077853 L195.394926,98.2899497 L206.395177,83.7500697 Z" id="Skin" fill="#B28B67" transform="translate(142.706610, 134.886028) rotate(-4.000000) translate(-142.706610, -134.886028) "></path>
                <path d="M139.609958,-1.79658126 C155.116992,30.1012667 176.483719,60.6134671 209.095155,86.1196255 C210.970081,85.0499362 213.395508,85.5020037 214.742748,87.256838 C215.584727,88.3535499 215.822654,89.7208252 215.509727,90.9629962 C216.534634,91.7116629 217.57188,92.4556392 218.619795,93.194761 L210.792659,109.095614 C208.87828,108.145756 206.970588,107.209482 205.072503,106.283125 C203.162774,107.607303 196.650806,106.5779 196.892231,104.504978 C196.971986,103.820176 197.084701,103.142853 197.23006,102.473054 C169.586066,89.0502675 144.939934,76.6870022 132.791341,53.4520848 C128.056767,44.3969259 129.659285,13.6385719 129.207372,2.44881186 L139.609958,-1.79658126 Z" id="Back-Arm" fill="#DB2721" transform="translate(173.913583, 53.649516) rotate(-5.000000) translate(-173.913583, -53.649516) "></path>
                <path d="M87.5390625,110.254887 C118.117747,113.597747 142.186526,113.597747 159.745399,110.254887 C161.920826,109.840729 161.825292,100.508623 160.816441,97.9599375 C145.105998,58.2702634 134.771544,29.2155608 134.771544,1.64800726 C131.888875,3.14642845 126.843934,3.37098559 119.636719,2.32167869 C100.267438,30.7309291 91.36407,63.3272934 87.5390625,110.254887 Z" id="Shirt" fill="#F2F2F2"></path>
                <path d="M113.345172,-6.66133815e-14 L122.893585,-6.66133815e-14 C119.636719,42.859968 164.621722,136.432283 149.001788,216.346408 C120.130689,222.7624 87.2112807,205.11567 47.0900881,221.064223 C48.0876522,199.56 58.9580883,174.759516 69.0591172,150.446654 L52.6515673,149.763802 C52.6832723,148.067079 52.7278146,146.380289 52.7851941,144.70343 C50.6197592,143.813434 47.8796171,137.929856 49.7305751,136.975535 C50.8573648,136.394583 52.0250952,135.918907 53.2324498,135.547074 C56.6946222,81.2666168 74.2143996,37.8623364 105.791713,5.33420097 L106.752904,4.35182899 L111.850754,3.08698876 L111.870153,3.23906366 C112.30594,2.34313349 112.70962,1.4722206 113.076749,0.628068849 L113.345172,-6.66133815e-14 L122.893585,-6.66133815e-14 Z M86.2915954,90.8961522 L86.1974448,91.1081788 C80.6667258,103.805164 76.4329148,119.480982 73.4960117,138.135631 C73.6288403,138.321014 73.7467809,138.516249 73.8488433,138.719342 C77.0333224,130.718232 79.9425308,122.838773 82.1849555,115.220109 C80.9386388,114.261297 80.2552277,112.65941 80.5458448,111.003164 L80.5471129,110.995972 L81.0468161,108.175831 C81.3943262,106.214611 82.9958884,104.790281 84.8808383,104.582505 C85.1830499,103.128495 85.4512575,101.687256 85.6829787,100.259918 C86.1922498,97.1229525 86.3437675,94.0018253 86.2915954,90.8961522 Z" id="Coat-Front" fill="#FF4133"></path>
                <polygon id="Shade-Lapel" fill-opacity="0.1" fill="#000000" points="115.848961 0.967914439 110.830876 16.3243078 120.936184 27.8362935 111.803532 36.8828699 133.898049 74.5294118 106.878957 36.9580821 115.848961 27.8362935 106.878957 17.6629462"></polygon>
                <path d="M133.253906,125.828877 C135.402639,125.828877 137.144531,127.562277 137.144531,129.700535 C137.144531,131.838792 135.402639,133.572193 133.253906,133.572193 C131.105173,133.572193 129.363281,131.838792 129.363281,129.700535 C129.363281,127.562277 131.105173,125.828877 133.253906,125.828877 Z M132.28125,103.566845 C134.429983,103.566845 136.171875,105.300245 136.171875,107.438503 C136.171875,109.57676 134.429983,111.31016 132.28125,111.31016 C130.132517,111.31016 128.390625,109.57676 128.390625,107.438503 C128.390625,105.300245 130.132517,103.566845 132.28125,103.566845 Z M127.417969,81.3048128 C129.566702,81.3048128 131.308594,83.0382131 131.308594,85.1764706 C131.308594,87.3147281 129.566702,89.0481283 127.417969,89.0481283 C125.269236,89.0481283 123.527344,87.3147281 123.527344,85.1764706 C123.527344,83.0382131 125.269236,81.3048128 127.417969,81.3048128 Z" id="Buttons" fill-opacity="0.4" fill="#000000"></path>
            </g>
        </g>
        <g id="Image" transform="translate(68.000000, 155.657925)">
            <g id="Group-3" transform="translate(133.500000, 193.500000) scale(-1, 1) translate(-133.500000, -193.500000) ">
                <g id="Humaaan" transform="translate(133.500000, 193.500000) scale(-1, 1) translate(-133.500000, -193.500000) ">
                    <g id="Head/Front/Pony" transform="translate(120.043637, 55.620196) rotate(9.000000) translate(-120.043637, -55.620196) translate(59.523637, 9.479350)">
                        <g id="Head" stroke-width="1" transform="translate(48.044118, 27.423077)" fill="#B28B67">
                            <path d="M33.9363552,8.08001758 C39.0920324,17.6348561 38.4794039,41.8714963 31.8161505,43.5792125 C29.1588512,44.2602481 23.4980102,42.5919809 17.736598,39.1391819 L21.3529412,64.5769231 L0,64.5769231 L7.35071317,30.5101694 C3.25118289,25.725565 0.476568002,19.8620107 0.940220121,13.2917477 C2.27616145,-5.63944128 28.780678,-1.47482091 33.9363552,8.08001758 Z"></path>
                        </g>
                        <path d="M75.625,17.6923077 C80.5387099,17.6923077 84.5220588,21.6528657 84.5220588,26.5384615 C84.5220588,31.2633294 80.7964899,35.1230226 76.1068294,35.3718639 C73.4243756,36.1948649 69.9776832,36.7991453 66.1553063,37.0539764 C66.526252,38.4415967 66.7279412,40.0180244 66.7279412,41.7994589 C66.7279412,43.3726107 66.5532875,45.0410349 66.2316937,46.7350854 C65.4025792,45.754634 64.2941477,45.1153846 63.1691176,45.1153846 C60.0217243,45.1153846 57.8308824,47.6897473 57.8308824,50.4230769 C57.8308824,53.8919211 59.8448695,56.4014257 62.7849517,56.602375 C60.1377409,61.6557102 56.4755162,65.4615385 52.816801,65.4615385 C45.8675614,65.4615385 40.9264706,56.2237472 40.9264706,46.2915415 C40.9264706,45.9428835 40.9334126,45.5965429 40.9471098,45.2527866 C33.5961344,50.2674005 27.9307597,60.1538462 18.2040456,60.1538462 C4.97099065,60.1538462 -0.284407163,33.6153846 18.2040456,33.6153846 C30.7776103,33.6153846 36.9624656,35.4381214 42.2926062,38.1335184 C43.3438562,35.187175 44.9461102,32.7105935 46.905295,30.9807103 C47.3767208,30.452864 48.0992787,29.9477863 49.0316433,29.4795385 C49.6015477,29.1694846 50.1903729,28.9171076 50.7955253,28.7269874 C54.0102299,27.551664 58.6686362,26.7223782 63.8725218,26.5416936 C64.8435517,26.5079786 65.7972196,26.4981092 66.7275661,26.5105311 C66.7432065,21.6377057 70.7207033,17.6923077 75.625,17.6923077 Z" id="hair" fill="#191847"></path>
                    </g>
                    <g id="Bottom/Sitting/Sweat-Pants" transform="translate(0.000000, 174.929577)">
                        <g id="Objects/Seat/Ball" transform="translate(8.900000, 37.255230)" fill="#2B44FF">
                            <ellipse id="Ballsy-Ball" cx="103" cy="51.8951613" rx="68.3706897" ry="65.2016129"></ellipse>
                        </g>
                        <path d="M230.590304,33.2652204 C235.109596,44.9286967 242.999257,83.2500125 252.479287,141.132934 L241.643235,144.28405 C230.239857,119.129404 221.993049,97.2257556 218.68281,85.6693388 C213.014879,65.8819474 208.703057,48.4701985 207.613261,41.9678186 C205.014503,26.4620597 227.604395,25.5591284 230.590304,33.2652204 Z M196.40393,65.7816979 C163.414291,70.5137719 116.645907,75.4004073 112.643555,75.9487996 C107.034088,76.7173948 102.795218,67.9321239 109.370628,65.3417188 C119.833216,61.2199468 156.47264,48.3208142 174.143835,44.6718857 C179.221827,43.6233299 184.143567,42.6491034 188.770865,41.7686734 C202.524832,39.1517241 209.650678,63.8815682 196.40393,65.7816979 Z" id="Skin" fill="#B28B67"></path>
                        <path d="M147.350345,0 C202.10109,13.9048247 230.078676,22.8158743 231.283103,26.7331488 C231.296497,26.776711 231.30874,26.8203322 231.319832,26.8640125 C231.348284,26.8984529 231.374361,26.9333935 231.4,26.9685362 C242.25044,41.8411944 248.748726,114.450698 250.88158,119.887451 L230.08968,122.978962 C222.136226,93.584513 196.69,73.1072693 197.365944,37.9018838 C197.183441,36.8692684 197.137315,35.8900034 197.212517,34.9636307 L140.62,6.25064474 L140.62,0 L147.350345,0 Z" id="Leg-Back" fill="#DDE3E9"></path>
                        <path d="M150.358169,-4.97379915e-14 C158.290588,2.27107712 199.514893,19.5011949 220.903894,28.6655374 C235.059587,34.7306933 230.598098,56.594456 222.582044,62.2859614 C222.537957,62.6349396 222.393624,62.8727532 222.136226,62.9790795 C179.011812,80.7929806 144.896442,71.4460722 133.5,74.4325501 L128.228637,57.8595158 L145.320171,52.0154501 C140.142801,50.9825197 135.374991,50.0606465 131.295207,49.3474433 C104.939268,44.7400571 97.2536516,30.6790171 101.797798,-4.97379915e-14 L150.358169,-4.97379915e-14 Z" id="Leg-Front" fill="#F2F2F2"></path>
                        <g id="Accessories/Shoe/Flat-Sneaker" transform="translate(128.123772, 82.788058) rotate(64.000000) translate(-128.123772, -82.788058) translate(100.978772, 65.047473)" fill="#E4E4E4">
                            <path d="M2.28004921,22.4680239 C1.35018034,24.9605595 0.885245902,26.8353722 0.885245902,28.092462 C0.885245902,29.6703374 1.15118635,31.9728501 1.68306723,35 C3.53494727,35 20.178105,35 51.6125403,35 C52.9100303,30.7601938 52.1610439,28.4712589 49.3655809,28.1331953 C46.5701179,27.7951316 44.2478793,27.4898872 42.3988652,27.217462 L19.2938401,17.0363435 C18.7884459,16.8136439 18.1982092,17.0428133 17.9755097,17.5482075 C17.9728332,17.5542814 17.9702173,17.5603818 17.9676624,17.5665078 L16.5215329,21.0338582 L16.5215329,21.0338582 C13.9336653,22.2273206 11.8307543,22.8240519 10.2127997,22.8240519 C8.93655596,22.8240519 7.18822216,22.3294296 4.96779829,21.3401852 L4.96778998,21.3402038 C3.95883528,20.8906937 2.77651599,21.3442132 2.32700593,22.3531679 C2.31016951,22.3909584 2.29450973,22.4292621 2.28004921,22.4680239 Z" id="shoe"></path>
                        </g>
                        <g id="Accessories/Shoe/Flat-Sneaker" transform="translate(234.070000, 117.087866)" fill="#E4E4E4">
                            <path d="M2.28004921,22.4680239 C1.35018034,24.9605595 0.885245902,26.8353722 0.885245902,28.092462 C0.885245902,29.6703374 1.15118635,31.9728501 1.68306723,35 C3.53494727,35 20.178105,35 51.6125403,35 C52.9100303,30.7601938 52.1610439,28.4712589 49.3655809,28.1331953 C46.5701179,27.7951316 44.2478793,27.4898872 42.3988652,27.217462 L19.2938401,17.0363435 C18.7884459,16.8136439 18.1982092,17.0428133 17.9755097,17.5482075 C17.9728332,17.5542814 17.9702173,17.5603818 17.9676624,17.5665078 L16.5215329,21.0338582 L16.5215329,21.0338582 C13.9336653,22.2273206 11.8307543,22.8240519 10.2127997,22.8240519 C8.93655596,22.8240519 7.18822216,22.3294296 4.96779829,21.3401852 L4.96778998,21.3402038 C3.95883528,20.8906937 2.77651599,21.3442132 2.32700593,22.3531679 C2.31016951,22.3909584 2.29450973,22.4292621 2.28004921,22.4680239 Z" id="shoe"></path>
                        </g>
                    </g>
                    <g id="Body/Pointing-Forward" transform="translate(129.294852, 166.138234) rotate(-11.000000) translate(-129.294852, -166.138234) translate(15.374852, 83.173445)">
                        <path d="M212.464277,41.1962135 C216.323171,40.4043826 225.74163,33.4225365 227.364477,34.8401151 C229.765375,36.9373312 227.624587,43.3770001 225.10223,46.5803906 C220.387948,52.5675233 216.484725,54.614942 206.837305,57.2960492 C201.793135,58.6978704 196.339496,61.5077004 190.476387,65.7255391 L189.703125,52.1433871 L203.282059,44.708333 C205.187376,37.4821881 207.46495,33.8464702 210.114781,33.8011795 C212.150403,32.8571353 208.605382,41.9880443 212.464277,41.1962135 Z M189.09287,10.2454019 C186.599547,14.6562722 184.175973,19.4076116 185.446222,20.7665053 C186.716472,22.125399 189.883954,20.2270844 191.399342,22.4848978 C192.409602,23.9901068 186.99821,26.3679131 175.165167,29.6183169 L152.702815,50.1174792 L141.287004,37.9050194 L172.200403,21.0294675 C177.341112,14.9449021 182.406142,10.2193845 187.395494,6.85291487 C188.920079,6.21851546 191.586193,5.83453162 189.09287,10.2454019 Z" id="Skin" fill="#997659"></path>
                        <path d="M127.230937,30.8366913 C137.943326,32.4179339 152.561129,32.4253508 169.302774,25.2081223 L173.174912,39.4376588 C161.034308,48.1576292 144.924596,54.3505065 132.077124,51.9453884 C121.952609,50.0500227 118.696981,36.9661925 127.230937,30.8366913 Z" id="Sleeve" fill="#E87613" transform="translate(147.754124, 38.838038) rotate(-9.000000) translate(-147.754124, -38.838038) "></path>
                        <path d="M126.953027,-1.42108547e-13 C128.31652,17.4600739 135.179321,36.7025754 140.811492,55.7127728 C152.305191,58.5708421 171.582236,55.2012997 198.641378,45.6042132 C205.352897,59.4435515 208.455464,69.3099384 207.949079,75.2033737 C184.734516,87.2899451 164.838022,92.6779427 148.446471,93.0325018 C148.97346,102.723237 147.789928,111.948327 143.812721,120.377489 C135.63745,137.703893 87.7666921,121.657711 71.6710764,124.815991 C61.5915286,92.1888725 81.0806393,78.9293432 81.0963205,58.0526108 C81.1134931,35.1903641 99.5312715,-1.42108547e-13 102.241079,-1.42108547e-13 L102.241079,-1.42108547e-13 Z" id="Clothes" fill="#FF9B21"></path>
                    </g>
                </g>
            </g>
        </g>
        <g id="Group-4" transform="translate(306.000000, 200.000000)">
            <path d="M11.2951641,2.06139732 L33.4718536,10.291872 C33.912811,10.4555254 34.1801208,10.9043529 34.1139728,11.3700248 L26.7105995,63.4886486 C26.6484623,63.9260852 26.2434777,64.2303255 25.8060411,64.1681882 C25.7354251,64.1581573 25.6664677,64.1387279 25.6010023,64.1104165 L3.14373555,54.3984665 C2.72694086,54.218218 2.48392124,53.7797649 2.55195895,53.3307903 L10.2258411,2.69154648 C10.29204,2.2547061 10.6998338,1.95424181 11.1366742,2.0204407 C11.1907657,2.02863772 11.2438736,2.04236176 11.2951641,2.06139732 Z" id="Rectangle" fill="#FFFFFF"></path>
            <g id="Group-2" transform="translate(7.854956, 2.789583)">
                <polygon id="Rectangle" fill-opacity="0.398382867" fill="#4E02B2" points="2.65969596 -3.25443751e-13 26.1120432 7.31911483 23.8421541 24.1367563 0.222576322 15.3196881"></polygon>
                <polygon id="Rectangle" fill="#AFB9C5" points="1.96432363 20.1372817 14.2731857 24.7109426 13.8732047 27.2016281 1.57435608 22.6143074"></polygon>
                <path d="M7.77723858,51.740853 L15.8886675,54.768946 C16.3176938,54.9291066 16.5831043,55.3602264 16.5329047,55.8154131 L16.4695567,56.3898234 C16.4090158,56.9387799 15.9149205,57.334719 15.365964,57.2741781 C15.2831805,57.2650484 15.2018618,57.2456127 15.1238968,57.2163223 L7.00124701,54.1647583 C6.56465245,54.0007359 6.29941426,53.5566891 6.36196887,53.0945148 L6.43653768,52.5435755 C6.51061318,51.996281 7.01433309,51.6126612 7.56162759,51.6867367 C7.63528579,51.6967062 7.70760283,51.7148571 7.77723858,51.740853 Z" id="Rectangle-Copy-5" fill="#2B44FF"></path>
                <polygon id="Rectangle-Copy-2" fill="#AFB9C5" points="1.35425883 23.9360222 20.0702994 30.9894413 19.8778365 32.3723623 1.16179593 25.3189432"></polygon>
                <polygon id="Rectangle-Copy-3" fill="#AFB9C5" points="1.0359932 25.9379541 19.7520338 32.9913732 19.5595709 34.3742941 0.843530303 27.3208751"></polygon>
                <polygon id="Rectangle-Copy-4" fill="#AFB9C5" points="0.748305824 27.9384281 14.7180549 33.1915318 14.525592 34.5744528 0.555842925 29.3213491"></polygon>
                <polygon id="Rectangle-Copy-6" fill="#DDE3E9" points="4.73846609 34.9937575 18.7082151 40.2468612 18.5157522 41.6297822 4.54600319 36.3766784"></polygon>
                <polygon id="Rectangle-Copy-7" fill="#DDE3E9" points="4.03346605 39.9697808 18.0032151 45.2228845 17.8107522 46.6058054 3.84100315 41.3527017"></polygon>
            </g>
            <ellipse id="Oval" fill="#DDE3E9" cx="9.283269" cy="36.0635326" rx="1.79491831" ry="2.07283977"></ellipse>
            <ellipse id="Oval-Copy" fill="#DDE3E9" cx="8.57826896" cy="41.0395559" rx="1.79491831" ry="2.07283977"></ellipse>
            <g id="Group" transform="translate(18.763069, 33.476094) rotate(8.000000) translate(-18.763069, -33.476094) translate(4.763069, 1.976094)" fill="#2F3676">
                <path d="M1.88183663,0.31799205 C1.98103671,0.31799205 2.08004642,0.326674949 2.17773228,0.343941343 L25.8035912,4.51991327 C26.7542266,4.68794215 27.4491625,5.51103608 27.4554364,6.47638675 L27.8069394,60.561201 C27.8123234,61.3896107 27.1451292,62.0655339 26.3167196,62.0709178 C26.1834872,62.0717837 26.0507334,62.0548948 25.9219618,62.020697 L25.5183275,61.9140955 C25.4862538,61.909251 25.4544679,61.9024547 25.4231486,61.8937311 L24.9978366,61.774992 L1.14816192,55.4415218 C0.578448811,55.2902232 0.181836633,54.774535 0.181836633,54.185074 L0.181836633,2.01799205 C0.181836633,1.07910797 0.942952559,0.31799205 1.88183663,0.31799205 Z M2.06372982,2.86151129 C1.78758744,2.86151129 1.56372982,3.08536891 1.56372982,3.36151129 L1.56372982,3.36151129 L1.56372982,53.1778764 C1.56372982,53.6299154 1.86698114,54.0257447 2.30343838,54.1434065 L2.30343838,54.1434065 L24.212727,60.0497995 C24.2814459,60.0683251 24.3523297,60.0775975 24.4235016,60.0773714 C24.8653271,60.0759679 25.2223597,59.7166596 25.2209561,59.2748341 L25.2209561,59.2748341 L25.0585241,8.14372379 C25.0570072,7.66621677 24.7181006,7.25640588 24.249367,7.16527898 L24.249367,7.16527898 L20.1857658,6.37527075 L20.1857658,7.74613268 C20.1857658,7.77596848 20.1830953,7.8057444 20.1777863,7.83510404 C20.1286487,8.10683942 19.8685298,8.28729063 19.5967945,8.2381531 L19.5967945,8.2381531 L6.68117891,5.90264038 C6.20525002,5.81657882 5.85912164,5.40224703 5.85912164,4.91859953 L5.85912164,4.91859953 L5.85912164,3.59001544 L2.15914877,2.8707005 C2.12771016,2.8645885 2.09575703,2.86151129 2.06372982,2.86151129 Z" id="Combined-Shape"></path>
            </g>
        </g>
        <path d="M412,62 C414.209139,62 416,63.790861 416,66 L416,98 C416,100.209139 414.209139,102 412,102 L408.666011,102 L408.666486,110.68415 L401.031011,102 L352.573011,102 C350.363872,102 348.573011,100.209139 348.573011,98 L348.573011,66 C348.573011,63.790861 350.363872,62 352.573011,62 L412,62 Z" id="Combined-Shape" fill="#FFFFFF"></path>
        <path d="M275.041682,131.31585 C277.250821,131.31585 279.041682,133.106711 279.041682,135.31585 L279.041682,167.31585 C279.041682,169.524989 277.250821,171.31585 275.041682,171.31585 L271.707693,171.31585 L271.708168,180 L264.072693,171.31585 L215.614693,171.31585 C213.405554,171.31585 211.614693,169.524989 211.614693,167.31585 L211.614693,135.31585 C211.614693,133.106711 213.405554,131.31585 215.614693,131.31585 L275.041682,131.31585 Z" id="Combined-Shape-Copy" fill="#2B44FF" transform="translate(245.328187, 155.657925) scale(-1, 1) translate(-245.328187, -155.657925) "></path>
        <path d="M381.071506,85.612 C380.975505,85.612 380.891506,85.5760004 380.819506,85.504 C380.747505,85.4319996 380.711506,85.3480005 380.711506,85.252 C380.711506,85.0839992 380.717506,84.9580004 380.729506,84.874 C380.813506,84.3819975 381.002504,83.938002 381.296506,83.542 C381.548507,83.2025697 381.877647,82.8278789 382.283933,82.417919 L382.493506,82.21 C382.865507,81.8499982 383.147505,81.5470012 383.339506,81.301 C383.531507,81.0549988 383.633506,80.8120012 383.645506,80.572 C383.681506,80.2239983 383.570507,79.9420011 383.312506,79.726 C383.054504,79.5099989 382.733508,79.402 382.349506,79.402 C381.461501,79.402 380.915507,79.8279957 380.711506,80.68 C380.651505,80.8240007 380.579506,80.9319996 380.495506,81.004 C380.411505,81.0760004 380.291506,81.112 380.135506,81.112 L377.795506,81.112 C377.675505,81.112 377.576506,81.0670004 377.498506,80.977 C377.420505,80.8869995 377.381506,80.7700007 377.381506,80.626 C377.405506,79.9779968 377.615504,79.354003 378.011506,78.754 C378.407508,78.153997 378.995502,77.6650019 379.775506,77.287 C380.55551,76.9089981 381.4855,76.72 382.565506,76.72 C383.669511,76.72 384.566502,76.8909983 385.256506,77.233 C385.946509,77.5750017 386.441504,77.9919975 386.741506,78.484 C387.041507,78.9760025 387.191506,79.4739975 387.191506,79.978 C387.191506,80.5900031 387.053507,81.1239977 386.777506,81.58 C386.540933,81.9708591 386.216201,82.4013862 385.803302,82.8715911 L385.291505,83.4460006 C385.110172,83.6540003 384.963506,83.8299993 384.851506,83.974 C384.683505,84.1900011 384.545506,84.4239987 384.437506,84.676 C384.389505,84.7840005 384.347506,84.933999 384.311506,85.126 C384.215505,85.3060009 384.128506,85.4319996 384.050506,85.504 C383.972505,85.5760004 383.867506,85.612 383.735506,85.612 L381.071506,85.612 Z M381.125506,89.5 C380.993505,89.5 380.882506,89.4580004 380.792506,89.374 C380.702505,89.2899996 380.657506,89.1820007 380.657506,89.05 L380.657506,86.908 C380.657506,86.7759993 380.702505,86.6650004 380.792506,86.575 C380.882506,86.4849995 380.993505,86.44 381.125506,86.44 L383.537506,86.44 C383.669506,86.44 383.780505,86.4849995 383.870506,86.575 C383.960506,86.6650004 384.005506,86.7759993 384.005506,86.908 L384.005506,89.05 C384.005506,89.1820007 383.960506,89.2899996 383.870506,89.374 C383.780505,89.4580004 383.669506,89.5 383.537506,89.5 L381.125506,89.5 Z" id="?" fill="#191847"></path>
        <path d="M240.495187,150.7 C240.375187,150.7 240.270188,150.655 240.180187,150.565 C240.090187,150.475 240.045187,150.370001 240.045187,150.25 L240.045187,147.982 C240.045187,147.849999 240.090187,147.742 240.180187,147.658 C240.270188,147.574 240.375187,147.532 240.495187,147.532 L242.871187,147.532 C243.003188,147.532 243.114187,147.574 243.204187,147.658 C243.294188,147.742 243.339187,147.849999 243.339187,147.982 L243.339187,150.25 C243.339187,150.382001 243.294188,150.49 243.204187,150.574 C243.114187,150.658 243.003188,150.7 242.871187,150.7 L240.495187,150.7 Z M240.495187,157 C240.375187,157 240.270188,156.955 240.180187,156.865 C240.090187,156.775 240.045187,156.670001 240.045187,156.55 L240.045187,154.282 C240.045187,154.149999 240.090187,154.042 240.180187,153.958 C240.270188,153.874 240.375187,153.832 240.495187,153.832 L242.871187,153.832 C243.003188,153.832 243.114187,153.874 243.204187,153.958 C243.294188,154.042 243.339187,154.149999 243.339187,154.282 L243.339187,156.55 C243.339187,156.682001 243.294188,156.79 243.204187,156.874 C243.114187,156.958 243.003188,157 242.871187,157 L240.495187,157 Z M245.211187,159.862 C245.091187,159.862 244.986188,159.82 244.896187,159.736 C244.806187,159.652 244.761187,159.544001 244.761187,159.412 L244.761187,157.792 C244.761187,157.671999 244.803187,157.57 244.887187,157.486 C244.971188,157.402 245.073187,157.354 245.193187,157.342 C246.141192,157.282 246.798185,156.769005 247.164187,155.803 C247.530189,154.836995 247.713187,153.38201 247.713187,151.438 C247.713187,149.50599 247.530189,148.057005 247.164187,147.091 C246.798185,146.124995 246.141192,145.612 245.193187,145.552 C245.073187,145.54 244.971188,145.492 244.887187,145.408 C244.803187,145.324 244.761187,145.222001 244.761187,145.102 L244.761187,143.482 C244.761187,143.349999 244.806187,143.242 244.896187,143.158 C244.986188,143.074 245.091187,143.032 245.211187,143.032 C248.811205,143.032 250.611187,145.833972 250.611187,151.438 C250.611187,157.054028 248.811205,159.862 245.211187,159.862 Z" id=":)" fill="#FFFFFF"></path>
    </g>
</svg>