<svg width="788" height="832" viewBox="0 0 788 832" fill="none" xmlns="http://www.w3.org/2000/svg">
<g clip-path="url(#clip0)">
<rect width="788" height="832" fill="white"/>
<g opacity="0.7">
<path opacity="0.7" d="M111.577 346.432C125.538 345.705 142.804 353.885 144.294 369.117C145.375 380.185 145.04 391.221 146.715 402.272C148.054 411.104 150.885 419.582 154.748 427.627C158.461 435.364 166.165 441.949 168.168 450.214C169.445 455.48 168.731 462.888 166.969 468.039C164.828 474.302 165.966 473.807 170.233 479.062C178.596 489.36 186.125 499.921 191.45 512.221C199.12 529.937 204.149 550.645 201.302 570.038C200.94 572.501 200.51 581.338 197.132 581.956C193.359 582.646 195.123 577.592 195.325 575.959C196.608 565.542 197.749 556.436 196.2 545.856C190.225 505.034 161.049 478.139 142.052 443.492C141.008 441.706 138.803 437.451 137.27 434.644C134.85 430.213 132.417 421.781 129.141 418.495C122.971 412.305 128.643 424.75 129.846 427.125C131.366 430.13 133.038 433.324 134.596 435.958C141.723 448.163 149.679 461.487 157.04 474.069C125.203 481.35 102.782 442.932 94.2384 417.675C87.1993 396.866 78.7771 348.213 111.577 346.432Z" fill="#69A1AC"/>
<path d="M298.637 307.751C275.271 309.607 260.271 325.043 253.288 346.633C249.525 358.268 249.094 370.22 247.002 382.177C243.856 400.166 237.087 413.798 223.858 426.614C219.76 430.583 216.741 434.659 214.594 439.019C210.333 443.372 206.624 448.298 203.899 454.321C200.418 462.012 199.433 471.241 203.452 478.909C204.532 480.97 207.228 485.109 210.022 486.989C199.562 509.292 193.81 533.719 194.459 558.115C194.85 572.841 195.568 587.574 196.406 602.282C196.632 606.231 197.916 612.753 199.846 606.129C201.612 600.071 199.397 590.561 199.192 584.232C198.195 553.4 197.343 525.366 210.02 496.56C211.35 493.541 212.759 490.546 214.227 487.575C214.313 487.525 214.393 487.465 214.474 487.406C214.53 487.449 214.581 487.496 214.637 487.538C214.731 487.371 214.859 487.172 215.009 486.949C215.43 486.514 215.798 485.964 216.147 485.351C217.272 483.791 218.544 481.958 218.551 480.955C218.551 480.947 218.547 480.935 218.547 480.927C226.395 468.101 235.384 455.983 244.566 444.101C244.497 444.187 254.525 430.518 252.974 438.077C252.227 441.72 244.851 448.658 241.871 452.516C235.281 461.101 227.543 471.978 221.112 482.497C220.247 482.994 219.024 485.439 218.14 487.26C217.651 488.182 217.196 489.112 216.748 489.922C239.535 497.46 257.26 482.277 269.347 464.619C269.362 464.598 269.374 464.577 269.388 464.556C273.066 459.676 276.834 454.831 281.541 450.974C289.395 444.538 297.805 443.403 307.064 440.235C332.315 431.598 343.05 398.836 346.46 374.526C350.307 347.101 331.49 305.047 298.637 307.751Z" fill="#89C5CC"/>
<path opacity="0.7" d="M252.594 230.878C228.64 255.901 217.068 290.608 207.905 323.237C197.671 359.68 190.911 396.685 190.652 434.574C190.482 459.468 189.807 484.517 191.254 509.381C191.768 518.212 192.645 527.058 194.039 535.794C194.154 536.512 197.274 556.017 200.259 551.472C201.957 548.887 197.061 531.238 196.691 528.298C194.61 511.741 194.127 495.062 194.228 478.386C194.395 450.928 193.589 423.611 196.361 396.255C196.774 392.17 197.102 387.88 198.068 383.885C199.094 379.637 197.787 381.491 201.13 379.809C204.378 378.174 208.392 378.408 211.762 376.357C225.13 368.22 231.968 347.321 237.291 333.608C243.378 317.926 247.078 301.204 250.033 284.701C252.203 272.577 253.754 260.525 254.632 248.244C254.909 244.374 254.925 240.326 255.683 236.521C255.887 235.494 256.912 233.678 256.874 232.769C256.796 230.845 255.639 229.713 255.544 228.096C254.541 229.002 253.557 229.93 252.594 230.878Z" fill="#89C5CC"/>
<path opacity="0.7" d="M121.884 573.954C121.884 615.388 155.193 648.976 196.281 648.976C237.37 648.976 270.679 615.388 270.679 573.954" fill="#89C5CC"/>
<path opacity="0.7" d="M247.404 499.022C265.928 497.649 286.616 512.67 295.551 528.301C302.754 540.904 301.541 557.453 297.092 570.843C294.112 579.807 287.61 592.587 276.766 592.712C263.199 592.868 262.545 576.014 262.283 566.162C261.934 553.064 260.287 541.653 250.018 532.725C247.625 530.645 245.009 528.815 242.592 526.764C238.806 523.554 234.623 520.267 234.135 514.955C233.462 507.628 237.577 506.309 243.86 507.671C244.931 507.902 255.721 512.768 254.123 508.922C253.636 507.747 251.854 506.816 249.606 506.119C243.788 505.483 236.85 504.745 234.854 505.186C213.327 509.933 204.946 539.903 202.72 558.945C202.48 561 202.285 563.062 202.116 565.127L198.161 565.128C198.436 560.14 198.798 555.162 199.627 550.23C202.8 531.369 212.72 503.666 234.478 500.605C235.281 500.49 238.233 500.471 241.81 500.682C243.505 499.73 245.404 499.154 247.404 499.022Z" fill="#69A1AC"/>
</g>
<path d="M196 665L245.143 427H260L204.571 665H196Z" fill="#FFD938"/>
<path fill-rule="evenodd" clip-rule="evenodd" d="M599.87 301.923C605.521 295.29 609.346 287.16 608.707 278.051C606.865 251.804 570.329 257.578 563.222 270.825C556.115 284.072 556.96 317.674 566.145 320.042C569.808 320.986 577.611 318.673 585.553 313.886L580.568 349.154H610.003L599.87 301.923Z" fill="#B28B67"/>
<path fill-rule="evenodd" clip-rule="evenodd" d="M621.54 269.314C622.49 268.372 623.009 267.027 623.458 265.75C623.923 264.424 624.376 263.084 624.685 261.703C625.303 258.945 625.309 255.772 623.341 253.63C621.763 251.913 619.395 251.142 617.21 250.975C615.753 250.863 614.258 251.067 612.862 251.526C611.477 251.981 610.284 252.888 608.941 253.451C608.89 250.479 608.381 247.368 606.872 244.83C605.421 242.388 603.107 241.017 600.472 240.655C597.768 240.282 595.097 240.915 592.676 242.225C592.07 242.553 591.469 242.896 590.894 243.285C590.413 243.611 589.913 244.003 589.348 244.135C588.719 244.283 588.407 243.919 587.998 243.46C587.518 242.922 586.978 242.447 586.406 242.027C583.877 240.168 580.559 239.404 577.63 240.518C576.28 241.032 574.968 241.903 574.052 243.104C573.236 244.175 572.653 245.874 571.527 246.62C571.049 246.936 570.711 246.517 570.276 246.207C569.622 245.741 568.998 245.227 568.337 244.773C567.407 244.137 566.401 243.66 565.323 243.411C563.745 243.046 561.565 243.132 561.114 245.198C560.945 245.974 561.075 246.804 561.129 247.586C561.204 248.66 561.283 249.733 561.376 250.806C561.447 251.62 561.536 252.406 561.69 253.206C561.772 253.632 562.028 254.426 561.846 254.853C561.617 255.386 560.563 255.083 560.113 255.102C559.224 255.138 558.33 255.294 557.508 255.674C556.871 255.969 556.201 256.402 555.932 257.133C555.766 257.581 555.81 258.042 555.888 258.504C555.982 259.058 555.874 259.352 555.805 259.911C554.61 259.323 550.47 258.016 549.95 260.157C549.776 260.87 550.171 261.675 550.472 262.276C551.001 263.331 551.694 264.294 552.402 265.213C553.879 267.131 555.643 268.784 557.54 270.199C555.317 271.187 554.737 274.103 556.662 275.839C557.512 276.606 558.654 276.777 559.726 276.728C560.119 276.71 560.684 276.559 560.993 276.628C561.159 276.664 561.337 276.805 561.567 276.821C563.08 276.925 564.788 276.56 566.267 276.224C568.903 275.626 571.398 274.377 573.435 272.476C573.958 271.988 574.39 271.707 575.093 271.714C575.71 271.721 576.314 271.89 576.93 271.905C578.56 271.947 580.029 271.15 581.542 270.62C581.635 272.664 582.217 274.916 583.054 276.755C583.735 278.255 585.16 278.473 586.559 278.604C591.034 279.025 595.524 278.555 600.005 278.562C595.667 279.542 591.186 279.946 586.887 281.1C584.944 281.621 586.428 282.931 587.259 283.838C588.627 285.333 589.644 287.186 590.349 289.137C592.471 286.371 596.221 284.549 599.543 285.399C603.214 286.337 605.799 291.302 603.452 294.871C602.089 296.943 599.628 297.742 597.58 298.633C599.178 300.294 599.564 302.747 600.526 304.813C601 305.832 601.666 306.984 602.726 307.339C603.119 307.471 603.579 307.482 603.888 307.802C604.272 308.198 604.363 308.641 604.853 308.981C606.807 310.339 609.859 310.235 611.591 308.462C613.157 306.859 612.75 304.321 611.442 302.696C613.524 301.828 617.317 300.712 616.49 297.468C621.002 297.168 631.957 289.85 625.901 284.503C629.225 282.625 632.278 278.034 630.143 273.988C628.499 270.872 624.676 269.479 621.54 269.314Z" fill="#191847"/>
<path fill-rule="evenodd" clip-rule="evenodd" d="M460.436 476.405C450.334 470.339 433.385 478.132 433.397 486.808C433.431 512.765 457.12 635.101 458.357 642.834C459.594 650.567 472.843 652.61 473.615 642.859C474.842 627.344 477.123 573.634 474.841 548.773C473.899 538.511 472.885 528.738 471.886 520.019C484.316 542.467 503.54 574.606 529.558 616.437L543.683 609.984C532.591 573.441 523.496 547.642 516.398 532.589C504.244 506.813 492.848 484.739 488.052 476.964C480.507 464.733 467.375 469.001 460.436 476.405Z" fill="#B28B67"/>
<path fill-rule="evenodd" clip-rule="evenodd" d="M542.673 589.69L494.194 474.849C482.581 456.167 450.019 478.65 453.98 489.485C462.971 514.085 508.7 593.724 511.379 601.053L542.673 589.69Z" fill="#192948"/>
<path fill-rule="evenodd" clip-rule="evenodd" d="M545.365 602.742C548.384 605.228 550.349 607.259 551.258 608.833C552.364 610.749 553.658 613.728 555.142 617.771C552.92 619.054 532.951 630.583 495.235 652.358C490.707 648.11 490.002 644.813 493.119 642.466C496.236 640.119 498.808 638.14 500.836 636.528L521.513 608.04C521.911 607.492 522.678 607.37 523.226 607.768C523.236 607.774 523.245 607.781 523.254 607.789L527.55 611.097C531.492 610.753 534.433 610.02 536.374 608.9C537.952 607.989 539.762 606.094 541.805 603.216L541.805 603.216C542.59 602.111 544.121 601.852 545.226 602.636C545.273 602.67 545.32 602.705 545.365 602.742Z" fill="#192948"/>
<path fill-rule="evenodd" clip-rule="evenodd" d="M658.365 509C670.866 509 681 519.134 681 531.635V632.078C681 644.578 670.866 654.712 658.365 654.712H530.635C518.134 654.712 508 644.578 508 632.078V531.635C508 519.134 518.134 509 530.635 509H658.365ZM644.875 524.903C626.75 524.903 546.611 524.903 546.611 524.903C526 524.903 523.952 529 523.952 547.562V616.151C523.952 632.078 530.635 638.81 546.611 638.81H642.389C660.5 638.81 665.048 634 665.048 616.151V547.562C665.048 531.635 663 524.903 644.875 524.903Z" fill="#FFD938"/>
<path fill-rule="evenodd" clip-rule="evenodd" d="M476.716 636.635C478.088 640.297 478.774 643.038 478.774 644.856C478.774 647.068 478.406 650.295 477.669 654.538C475.103 654.538 452.046 654.538 408.495 654.538C406.698 648.596 407.735 645.387 411.608 644.913C415.481 644.44 418.699 644.012 421.26 643.63L453.412 629.297C454.03 629.021 454.755 629.299 455.031 629.918C455.036 629.928 455.04 629.939 455.045 629.95L457.111 634.963C460.697 636.636 463.61 637.472 465.852 637.472C467.673 637.472 470.188 636.736 473.397 635.265L473.397 635.265C474.629 634.701 476.085 635.241 476.649 636.473C476.673 636.526 476.696 636.58 476.716 636.635Z" fill="#192948"/>
<path fill-rule="evenodd" clip-rule="evenodd" d="M429.998 495.632C429.998 528.214 445.472 604.218 445.482 611.392L478.774 611.418C473.901 543.601 472.173 509.327 473.59 508.597C475.716 507.501 560.73 517.085 586.228 517.085C622.995 517.085 638.204 493.899 639.438 450.948H566.604C551.775 452.535 474.422 468.137 445.694 473.501C433.396 475.797 429.998 486.656 429.998 495.632Z" fill="#536383"/>
<path fill-rule="evenodd" clip-rule="evenodd" d="M555.258 374.541L512.688 351.226C505.609 342.82 498.634 336.291 491.764 331.64C489.664 330.763 485.993 330.233 489.426 336.327C492.86 342.421 496.197 348.985 494.448 350.863C492.699 352.74 488.337 350.118 486.25 353.237C484.859 355.317 492.311 358.602 508.606 363.093L539.538 391.414L555.258 374.541ZM488.586 394.213L469.887 383.941C467.263 373.957 464.127 368.934 460.478 368.872C457.675 367.567 462.556 380.183 457.242 379.089C451.928 377.995 438.959 368.348 436.724 370.307C433.418 373.204 436.366 382.101 439.839 386.527C446.331 394.799 451.706 397.628 464.991 401.332C471.937 403.269 479.447 407.151 487.521 412.978L488.586 394.213Z" fill="#B28B67"/>
<path fill-rule="evenodd" clip-rule="evenodd" d="M575.991 369.348C561.08 369.19 541.197 366.041 519.981 352.574L511.649 371.155C526.283 385.678 546.86 397.61 564.852 397.105C579.031 396.707 586.277 379.556 575.991 369.348Z" fill="#1C75DF"/>
<path fill-rule="evenodd" clip-rule="evenodd" d="M555.914 399.145C540.085 403.093 513.54 398.437 476.279 385.179C467.037 404.299 462.764 417.93 463.462 426.073C495.426 442.769 522.822 450.214 545.392 450.705C544.675 464.098 546.305 476.841 551.781 488.485C563.039 512.423 628.96 490.254 651.125 494.617C665.005 449.54 638.167 431.22 638.146 402.377C638.122 370.791 612.76 322.172 609.028 322.172H574.998C573.121 346.295 563.67 372.88 555.914 399.145Z" fill="#1493FF"/>
<path d="M469 665L419.857 427H405L460.429 665H469Z" fill="#FFD938"/>
<rect x="213" y="270" width="213" height="52" rx="4" fill="#F7F9FB"/>
<path d="M286.96 305.95H288.51V307H284.12V305.95H285.68V301.36L284.23 302.23V301.08L286.21 299.88H286.96V305.95ZM294.756 304.6V305.61H293.746V307H292.486V305.61H289.386V304.65L292.716 299.88H293.746V304.6H294.756ZM290.606 304.6H292.486V301.89L290.606 304.6ZM295.542 302.06H296.942V303.45H295.542V302.06ZM295.542 305.6H296.942V307H295.542V305.6ZM301.602 303.34C302.022 303.453 302.342 303.66 302.562 303.96C302.789 304.26 302.902 304.63 302.902 305.07C302.902 305.69 302.672 306.18 302.212 306.54C301.759 306.9 301.145 307.08 300.372 307.08C299.892 307.08 299.429 307.007 298.982 306.86C298.542 306.713 298.179 306.51 297.892 306.25L298.332 305.31C298.965 305.803 299.629 306.05 300.322 306.05C300.775 306.05 301.112 305.96 301.332 305.78C301.559 305.6 301.672 305.327 301.672 304.96C301.672 304.6 301.559 304.337 301.332 304.17C301.105 303.997 300.755 303.91 300.282 303.91H299.342V302.88H300.112C301.032 302.88 301.492 302.53 301.492 301.83C301.492 301.503 301.392 301.253 301.192 301.08C300.992 300.907 300.712 300.82 300.352 300.82C299.712 300.82 299.072 301.067 298.432 301.56L298.002 300.62C298.289 300.367 298.649 300.167 299.082 300.02C299.522 299.867 299.972 299.79 300.432 299.79C301.132 299.79 301.689 299.963 302.102 300.31C302.522 300.65 302.732 301.107 302.732 301.68C302.725 302.073 302.622 302.417 302.422 302.71C302.229 302.997 301.955 303.207 301.602 303.34ZM306.498 307.09C305.651 307.09 305.005 306.78 304.558 306.16C304.118 305.533 303.898 304.623 303.898 303.43C303.898 302.257 304.118 301.36 304.558 300.74C305.005 300.12 305.651 299.81 306.498 299.81C307.345 299.81 307.988 300.12 308.428 300.74C308.875 301.353 309.098 302.25 309.098 303.43C309.098 304.617 308.875 305.523 308.428 306.15C307.988 306.777 307.345 307.09 306.498 307.09ZM306.498 306.08C306.958 306.08 307.291 305.87 307.498 305.45C307.711 305.023 307.818 304.35 307.818 303.43C307.818 302.523 307.711 301.863 307.498 301.45C307.291 301.03 306.958 300.82 306.498 300.82C306.038 300.82 305.701 301.03 305.488 301.45C305.281 301.863 305.178 302.523 305.178 303.43C305.178 304.35 305.281 305.023 305.488 305.45C305.701 305.87 306.038 306.08 306.498 306.08ZM312.928 304.8V303.8H315.938V304.8H312.928ZM323.327 305.95H324.877V307H320.487V305.95H322.047V301.36L320.597 302.23V301.08L322.577 299.88H323.327V305.95ZM328.743 302.45C329.19 302.45 329.583 302.547 329.923 302.74C330.263 302.927 330.527 303.193 330.713 303.54C330.9 303.88 330.993 304.273 330.993 304.72C330.993 305.187 330.887 305.6 330.673 305.96C330.46 306.313 330.153 306.59 329.753 306.79C329.353 306.983 328.89 307.08 328.363 307.08C327.917 307.08 327.477 307.007 327.043 306.86C326.61 306.707 326.253 306.503 325.973 306.25L326.403 305.31C327.05 305.803 327.71 306.05 328.383 306.05C328.83 306.05 329.17 305.94 329.403 305.72C329.643 305.493 329.763 305.173 329.763 304.76C329.763 304.367 329.64 304.053 329.393 303.82C329.153 303.58 328.83 303.46 328.423 303.46C328.143 303.46 327.88 303.513 327.633 303.62C327.387 303.72 327.17 303.87 326.983 304.07H326.203V299.88H330.663V300.88H327.463V302.82C327.823 302.573 328.25 302.45 328.743 302.45ZM331.909 302.06H333.309V303.45H331.909V302.06ZM331.909 305.6H333.309V307H331.909V305.6ZM337.829 305.95H339.379V307H334.989V305.95H336.549V301.36L335.099 302.23V301.08L337.079 299.88H337.829V305.95ZM343.245 302.45C343.692 302.45 344.085 302.547 344.425 302.74C344.765 302.927 345.029 303.193 345.215 303.54C345.402 303.88 345.495 304.273 345.495 304.72C345.495 305.187 345.389 305.6 345.175 305.96C344.962 306.313 344.655 306.59 344.255 306.79C343.855 306.983 343.392 307.08 342.865 307.08C342.419 307.08 341.979 307.007 341.545 306.86C341.112 306.707 340.755 306.503 340.475 306.25L340.905 305.31C341.552 305.803 342.212 306.05 342.885 306.05C343.332 306.05 343.672 305.94 343.905 305.72C344.145 305.493 344.265 305.173 344.265 304.76C344.265 304.367 344.142 304.053 343.895 303.82C343.655 303.58 343.332 303.46 342.925 303.46C342.645 303.46 342.382 303.513 342.135 303.62C341.889 303.72 341.672 303.87 341.485 304.07H340.705V299.88H345.165V300.88H341.965V302.82C342.325 302.573 342.752 302.45 343.245 302.45Z" fill="#536383"/>
<g clip-path="url(#clip1)">
<path d="M272 309.108L268.685 305.794C268.03 305.138 267.583 304.303 267.403 303.394C267.222 302.484 267.315 301.542 267.669 300.685C268.024 299.829 268.625 299.097 269.396 298.582C270.167 298.067 271.073 297.792 272 297.792C272.927 297.792 273.833 298.067 274.604 298.582C275.375 299.097 275.976 299.829 276.331 300.685C276.685 301.542 276.778 302.484 276.597 303.394C276.417 304.303 275.97 305.138 275.315 305.794L272 309.108ZM274.578 305.057C275.088 304.547 275.435 303.898 275.576 303.191C275.716 302.483 275.644 301.75 275.368 301.084C275.092 300.418 274.625 299.849 274.025 299.448C273.426 299.047 272.721 298.834 272 298.834C271.279 298.834 270.574 299.047 269.975 299.448C269.375 299.849 268.908 300.418 268.632 301.084C268.356 301.75 268.284 302.483 268.424 303.191C268.565 303.898 268.912 304.547 269.422 305.057L272 307.635L274.578 305.057V305.057ZM272 303.521C271.724 303.521 271.459 303.411 271.263 303.216C271.068 303.02 270.958 302.755 270.958 302.479C270.958 302.203 271.068 301.938 271.263 301.743C271.459 301.547 271.724 301.438 272 301.438C272.276 301.438 272.541 301.547 272.737 301.743C272.932 301.938 273.042 302.203 273.042 302.479C273.042 302.755 272.932 303.02 272.737 303.216C272.541 303.411 272.276 303.521 272 303.521Z" fill="#536383"/>
</g>
<rect x="265" y="282" width="106" height="10" fill="#DBE0E5"/>
<g clip-path="url(#clip2)">
<path d="M239 312C230.157 312 223 304.834 223 296C223 287.157 230.156 280 239 280C247.843 280 255 287.156 255 296C255 304.842 247.833 312 239 312V312Z" fill="#00BD66"/>
<path d="M239 299.75C234.344 299.75 229.905 301.785 226.661 306.186C233.121 313.994 245.079 313.928 251.452 306.046C249.878 304.481 246.334 299.75 239 299.75Z" fill="#E7FFE8"/>
<path d="M239 296.938C235.898 296.938 233.375 294.414 233.375 291.312V289.438C233.375 286.336 235.898 283.812 239 283.812C242.102 283.812 244.625 286.336 244.625 289.438V291.312C244.625 294.414 242.102 296.938 239 296.938Z" fill="#E7FFE8"/>
</g>
<rect x="169" y="330" width="213" height="52" rx="4" fill="#F7F9FB"/>
<path d="M242.96 365.95H244.51V367H240.12V365.95H241.68V361.36L240.23 362.23V361.08L242.21 359.88H242.96V365.95ZM250.756 364.6V365.61H249.746V367H248.486V365.61H245.386V364.65L248.716 359.88H249.746V364.6H250.756ZM246.606 364.6H248.486V361.89L246.606 364.6ZM251.542 362.06H252.942V363.45H251.542V362.06ZM251.542 365.6H252.942V367H251.542V365.6ZM257.602 363.34C258.022 363.453 258.342 363.66 258.562 363.96C258.789 364.26 258.902 364.63 258.902 365.07C258.902 365.69 258.672 366.18 258.212 366.54C257.759 366.9 257.145 367.08 256.372 367.08C255.892 367.08 255.429 367.007 254.982 366.86C254.542 366.713 254.179 366.51 253.892 366.25L254.332 365.31C254.965 365.803 255.629 366.05 256.322 366.05C256.775 366.05 257.112 365.96 257.332 365.78C257.559 365.6 257.672 365.327 257.672 364.96C257.672 364.6 257.559 364.337 257.332 364.17C257.105 363.997 256.755 363.91 256.282 363.91H255.342V362.88H256.112C257.032 362.88 257.492 362.53 257.492 361.83C257.492 361.503 257.392 361.253 257.192 361.08C256.992 360.907 256.712 360.82 256.352 360.82C255.712 360.82 255.072 361.067 254.432 361.56L254.002 360.62C254.289 360.367 254.649 360.167 255.082 360.02C255.522 359.867 255.972 359.79 256.432 359.79C257.132 359.79 257.689 359.963 258.102 360.31C258.522 360.65 258.732 361.107 258.732 361.68C258.725 362.073 258.622 362.417 258.422 362.71C258.229 362.997 257.955 363.207 257.602 363.34ZM262.498 367.09C261.651 367.09 261.005 366.78 260.558 366.16C260.118 365.533 259.898 364.623 259.898 363.43C259.898 362.257 260.118 361.36 260.558 360.74C261.005 360.12 261.651 359.81 262.498 359.81C263.345 359.81 263.988 360.12 264.428 360.74C264.875 361.353 265.098 362.25 265.098 363.43C265.098 364.617 264.875 365.523 264.428 366.15C263.988 366.777 263.345 367.09 262.498 367.09ZM262.498 366.08C262.958 366.08 263.291 365.87 263.498 365.45C263.711 365.023 263.818 364.35 263.818 363.43C263.818 362.523 263.711 361.863 263.498 361.45C263.291 361.03 262.958 360.82 262.498 360.82C262.038 360.82 261.701 361.03 261.488 361.45C261.281 361.863 261.178 362.523 261.178 363.43C261.178 364.35 261.281 365.023 261.488 365.45C261.701 365.87 262.038 366.08 262.498 366.08ZM268.928 364.8V363.8H271.938V364.8H268.928ZM279.327 365.95H280.877V367H276.487V365.95H278.047V361.36L276.597 362.23V361.08L278.577 359.88H279.327V365.95ZM284.743 362.45C285.19 362.45 285.583 362.547 285.923 362.74C286.263 362.927 286.527 363.193 286.713 363.54C286.9 363.88 286.993 364.273 286.993 364.72C286.993 365.187 286.887 365.6 286.673 365.96C286.46 366.313 286.153 366.59 285.753 366.79C285.353 366.983 284.89 367.08 284.363 367.08C283.917 367.08 283.477 367.007 283.043 366.86C282.61 366.707 282.253 366.503 281.973 366.25L282.403 365.31C283.05 365.803 283.71 366.05 284.383 366.05C284.83 366.05 285.17 365.94 285.403 365.72C285.643 365.493 285.763 365.173 285.763 364.76C285.763 364.367 285.64 364.053 285.393 363.82C285.153 363.58 284.83 363.46 284.423 363.46C284.143 363.46 283.88 363.513 283.633 363.62C283.387 363.72 283.17 363.87 282.983 364.07H282.203V359.88H286.663V360.88H283.463V362.82C283.823 362.573 284.25 362.45 284.743 362.45ZM287.909 362.06H289.309V363.45H287.909V362.06ZM287.909 365.6H289.309V367H287.909V365.6ZM293.829 365.95H295.379V367H290.989V365.95H292.549V361.36L291.099 362.23V361.08L293.079 359.88H293.829V365.95ZM299.245 362.45C299.692 362.45 300.085 362.547 300.425 362.74C300.765 362.927 301.029 363.193 301.215 363.54C301.402 363.88 301.495 364.273 301.495 364.72C301.495 365.187 301.389 365.6 301.175 365.96C300.962 366.313 300.655 366.59 300.255 366.79C299.855 366.983 299.392 367.08 298.865 367.08C298.419 367.08 297.979 367.007 297.545 366.86C297.112 366.707 296.755 366.503 296.475 366.25L296.905 365.31C297.552 365.803 298.212 366.05 298.885 366.05C299.332 366.05 299.672 365.94 299.905 365.72C300.145 365.493 300.265 365.173 300.265 364.76C300.265 364.367 300.142 364.053 299.895 363.82C299.655 363.58 299.332 363.46 298.925 363.46C298.645 363.46 298.382 363.513 298.135 363.62C297.889 363.72 297.672 363.87 297.485 364.07H296.705V359.88H301.165V360.88H297.965V362.82C298.325 362.573 298.752 362.45 299.245 362.45Z" fill="#536383"/>
<g clip-path="url(#clip3)">
<path d="M228 369.108L224.685 365.794C224.03 365.138 223.583 364.303 223.403 363.394C223.222 362.484 223.315 361.542 223.669 360.685C224.024 359.829 224.625 359.097 225.396 358.582C226.167 358.067 227.073 357.792 228 357.792C228.927 357.792 229.833 358.067 230.604 358.582C231.375 359.097 231.976 359.829 232.331 360.685C232.685 361.542 232.778 362.484 232.597 363.394C232.417 364.303 231.97 365.138 231.315 365.794L228 369.108ZM230.578 365.057C231.088 364.547 231.435 363.898 231.576 363.191C231.716 362.483 231.644 361.75 231.368 361.084C231.092 360.418 230.625 359.849 230.025 359.448C229.426 359.047 228.721 358.834 228 358.834C227.279 358.834 226.574 359.047 225.975 359.448C225.375 359.849 224.908 360.418 224.632 361.084C224.356 361.75 224.284 362.483 224.424 363.191C224.565 363.898 224.912 364.547 225.422 365.057L228 367.635L230.578 365.057V365.057ZM228 363.521C227.724 363.521 227.459 363.411 227.263 363.216C227.068 363.02 226.958 362.755 226.958 362.479C226.958 362.203 227.068 361.938 227.263 361.743C227.459 361.547 227.724 361.438 228 361.438C228.276 361.438 228.541 361.547 228.737 361.743C228.932 361.938 229.042 362.203 229.042 362.479C229.042 362.755 228.932 363.02 228.737 363.216C228.541 363.411 228.276 363.521 228 363.521Z" fill="#536383"/>
</g>
<rect x="221" y="342" width="106" height="10" fill="#DBE0E5"/>
<g clip-path="url(#clip4)">
<path d="M195 372C186.157 372 179 364.834 179 356C179 347.157 186.156 340 195 340C203.843 340 211 347.156 211 356C211 364.842 203.833 372 195 372V372Z" fill="#8D4FF8"/>
<path d="M195 359.75C190.344 359.75 185.905 361.785 182.661 366.186C189.121 373.994 201.079 373.928 207.452 366.046C205.878 364.481 202.334 359.75 195 359.75Z" fill="#E8D0FF"/>
<path d="M195 356.938C191.898 356.938 189.375 354.414 189.375 351.312V349.438C189.375 346.336 191.898 343.812 195 343.812C198.102 343.812 200.625 346.336 200.625 349.438V351.312C200.625 354.414 198.102 356.938 195 356.938Z" fill="#E8D0FF"/>
</g>
<path d="M212.478 424.392C212.231 423.155 213.178 422 214.44 422H450.56C451.822 422 452.769 423.155 452.522 424.392L451.322 430.392C451.135 431.327 450.314 432 449.36 432H215.64C214.686 432 213.865 431.327 213.678 430.392L212.478 424.392Z" fill="#FFD938"/>
<path d="M331 417L432 418.667V418.667C432 420.508 430.508 422 428.667 422H333C331.895 422 331 421.105 331 420V417Z" fill="#192948"/>
<path d="M330.947 419.622C329.665 419.682 328.577 418.69 328.517 417.408L324.029 321.032C323.969 319.749 324.96 318.661 326.243 318.601V318.601L330.947 419.622V419.622Z" fill="#192948"/>
<path d="M107 175C128.024 175 145.067 165.925 145.067 154.73C145.067 143.536 128.024 134.461 107 134.461C85.976 134.461 68.9326 143.536 68.9326 154.73C68.9326 165.925 85.976 175 107 175Z" fill="#F7F9FB"/>
<path fill-rule="evenodd" clip-rule="evenodd" d="M151 169.068C151 144.494 131.301 124.573 107 124.573C82.6995 124.573 63 144.494 63 169.068" fill="#DBE0E5"/>
<path d="M109.472 -1H104.528V128.528H109.472V-1Z" fill="#DBE0E5"/>
<g opacity="0.7">
<path d="M175.719 -1H170.775V110.73H175.719V-1Z" fill="#DBE0E5"/>
<path opacity="0.7" d="M172.754 130.506C188.044 130.506 200.439 123.423 200.439 114.685C200.439 105.948 188.044 98.8651 172.754 98.8651C157.464 98.8651 145.068 105.948 145.068 114.685C145.068 123.423 157.464 130.506 172.754 130.506Z" fill="#F7F9FB"/>
<path fill-rule="evenodd" clip-rule="evenodd" d="M204.394 126.55C204.394 106.892 190.228 90.955 172.754 90.955C155.279 90.955 141.113 106.892 141.113 126.55" fill="#DBE0E5"/>
</g>
<path d="M453 155C472.882 155 489 138.882 489 119C489 99.1177 472.882 83 453 83C433.118 83 417 99.1177 417 119C417 138.882 433.118 155 453 155Z" fill="#E7FFE8"/>
<path d="M453.409 92.8182C454.538 92.8182 455.454 91.9024 455.454 90.7727C455.454 89.6431 454.538 88.7273 453.409 88.7273C452.279 88.7273 451.363 89.6431 451.363 90.7727C451.363 91.9024 452.279 92.8182 453.409 92.8182Z" fill="#00BD66"/>
<path d="M424.773 121.455C425.903 121.455 426.818 120.539 426.818 119.409C426.818 118.279 425.903 117.364 424.773 117.364C423.643 117.364 422.728 118.279 422.728 119.409C422.728 120.539 423.643 121.455 424.773 121.455Z" fill="#00BD66"/>
<path d="M481.227 121.455C482.357 121.455 483.273 120.539 483.273 119.409C483.273 118.279 482.357 117.364 481.227 117.364C480.097 117.364 479.182 118.279 479.182 119.409C479.182 120.539 480.097 121.455 481.227 121.455Z" fill="#00BD66"/>
<path d="M453.409 149.273C454.538 149.273 455.454 148.357 455.454 147.227C455.454 146.098 454.538 145.182 453.409 145.182C452.279 145.182 451.363 146.098 451.363 147.227C451.363 148.357 452.279 149.273 453.409 149.273Z" fill="#00BD66"/>
<path fill-rule="evenodd" clip-rule="evenodd" d="M453.409 94.4546L454.636 118.182H452.182L453.409 94.4546Z" fill="#192948"/>
<path fill-rule="evenodd" clip-rule="evenodd" d="M465.022 131.022L452.534 120.455L454.455 118.534L465.022 131.022Z" fill="#192948"/>
<path d="M453.41 122.273C454.991 122.273 456.273 120.991 456.273 119.409C456.273 117.828 454.991 116.545 453.41 116.545C451.828 116.545 450.546 117.828 450.546 119.409C450.546 120.991 451.828 122.273 453.41 122.273Z" fill="#192948"/>
<rect x="151" y="210" width="213" height="52" rx="4" fill="#F7F9FB"/>
<path d="M224.96 245.95H226.51V247H222.12V245.95H223.68V241.36L222.23 242.23V241.08L224.21 239.88H224.96V245.95ZM232.756 244.6V245.61H231.746V247H230.486V245.61H227.386V244.65L230.716 239.88H231.746V244.6H232.756ZM228.606 244.6H230.486V241.89L228.606 244.6ZM233.542 242.06H234.942V243.45H233.542V242.06ZM233.542 245.6H234.942V247H233.542V245.6ZM239.602 243.34C240.022 243.453 240.342 243.66 240.562 243.96C240.789 244.26 240.902 244.63 240.902 245.07C240.902 245.69 240.672 246.18 240.212 246.54C239.759 246.9 239.145 247.08 238.372 247.08C237.892 247.08 237.429 247.007 236.982 246.86C236.542 246.713 236.179 246.51 235.892 246.25L236.332 245.31C236.965 245.803 237.629 246.05 238.322 246.05C238.775 246.05 239.112 245.96 239.332 245.78C239.559 245.6 239.672 245.327 239.672 244.96C239.672 244.6 239.559 244.337 239.332 244.17C239.105 243.997 238.755 243.91 238.282 243.91H237.342V242.88H238.112C239.032 242.88 239.492 242.53 239.492 241.83C239.492 241.503 239.392 241.253 239.192 241.08C238.992 240.907 238.712 240.82 238.352 240.82C237.712 240.82 237.072 241.067 236.432 241.56L236.002 240.62C236.289 240.367 236.649 240.167 237.082 240.02C237.522 239.867 237.972 239.79 238.432 239.79C239.132 239.79 239.689 239.963 240.102 240.31C240.522 240.65 240.732 241.107 240.732 241.68C240.725 242.073 240.622 242.417 240.422 242.71C240.229 242.997 239.955 243.207 239.602 243.34ZM244.498 247.09C243.651 247.09 243.005 246.78 242.558 246.16C242.118 245.533 241.898 244.623 241.898 243.43C241.898 242.257 242.118 241.36 242.558 240.74C243.005 240.12 243.651 239.81 244.498 239.81C245.345 239.81 245.988 240.12 246.428 240.74C246.875 241.353 247.098 242.25 247.098 243.43C247.098 244.617 246.875 245.523 246.428 246.15C245.988 246.777 245.345 247.09 244.498 247.09ZM244.498 246.08C244.958 246.08 245.291 245.87 245.498 245.45C245.711 245.023 245.818 244.35 245.818 243.43C245.818 242.523 245.711 241.863 245.498 241.45C245.291 241.03 244.958 240.82 244.498 240.82C244.038 240.82 243.701 241.03 243.488 241.45C243.281 241.863 243.178 242.523 243.178 243.43C243.178 244.35 243.281 245.023 243.488 245.45C243.701 245.87 244.038 246.08 244.498 246.08ZM250.928 244.8V243.8H253.938V244.8H250.928ZM261.327 245.95H262.877V247H258.487V245.95H260.047V241.36L258.597 242.23V241.08L260.577 239.88H261.327V245.95ZM266.743 242.45C267.19 242.45 267.583 242.547 267.923 242.74C268.263 242.927 268.527 243.193 268.713 243.54C268.9 243.88 268.993 244.273 268.993 244.72C268.993 245.187 268.887 245.6 268.673 245.96C268.46 246.313 268.153 246.59 267.753 246.79C267.353 246.983 266.89 247.08 266.363 247.08C265.917 247.08 265.477 247.007 265.043 246.86C264.61 246.707 264.253 246.503 263.973 246.25L264.403 245.31C265.05 245.803 265.71 246.05 266.383 246.05C266.83 246.05 267.17 245.94 267.403 245.72C267.643 245.493 267.763 245.173 267.763 244.76C267.763 244.367 267.64 244.053 267.393 243.82C267.153 243.58 266.83 243.46 266.423 243.46C266.143 243.46 265.88 243.513 265.633 243.62C265.387 243.72 265.17 243.87 264.983 244.07H264.203V239.88H268.663V240.88H265.463V242.82C265.823 242.573 266.25 242.45 266.743 242.45ZM269.909 242.06H271.309V243.45H269.909V242.06ZM269.909 245.6H271.309V247H269.909V245.6ZM275.829 245.95H277.379V247H272.989V245.95H274.549V241.36L273.099 242.23V241.08L275.079 239.88H275.829V245.95ZM281.245 242.45C281.692 242.45 282.085 242.547 282.425 242.74C282.765 242.927 283.029 243.193 283.215 243.54C283.402 243.88 283.495 244.273 283.495 244.72C283.495 245.187 283.389 245.6 283.175 245.96C282.962 246.313 282.655 246.59 282.255 246.79C281.855 246.983 281.392 247.08 280.865 247.08C280.419 247.08 279.979 247.007 279.545 246.86C279.112 246.707 278.755 246.503 278.475 246.25L278.905 245.31C279.552 245.803 280.212 246.05 280.885 246.05C281.332 246.05 281.672 245.94 281.905 245.72C282.145 245.493 282.265 245.173 282.265 244.76C282.265 244.367 282.142 244.053 281.895 243.82C281.655 243.58 281.332 243.46 280.925 243.46C280.645 243.46 280.382 243.513 280.135 243.62C279.889 243.72 279.672 243.87 279.485 244.07H278.705V239.88H283.165V240.88H279.965V242.82C280.325 242.573 280.752 242.45 281.245 242.45Z" fill="#536383"/>
<g clip-path="url(#clip5)">
<path d="M210 249.108L206.685 245.794C206.03 245.138 205.583 244.303 205.403 243.394C205.222 242.484 205.315 241.542 205.669 240.685C206.024 239.829 206.625 239.097 207.396 238.582C208.167 238.067 209.073 237.792 210 237.792C210.927 237.792 211.833 238.067 212.604 238.582C213.375 239.097 213.976 239.829 214.331 240.685C214.685 241.542 214.778 242.484 214.597 243.394C214.417 244.303 213.97 245.138 213.315 245.794L210 249.108ZM212.578 245.057C213.088 244.547 213.435 243.898 213.576 243.191C213.716 242.483 213.644 241.75 213.368 241.084C213.092 240.418 212.625 239.849 212.025 239.448C211.426 239.047 210.721 238.834 210 238.834C209.279 238.834 208.574 239.047 207.975 239.448C207.375 239.849 206.908 240.418 206.632 241.084C206.356 241.75 206.284 242.483 206.424 243.191C206.565 243.898 206.912 244.547 207.422 245.057L210 247.635L212.578 245.057V245.057ZM210 243.521C209.724 243.521 209.459 243.411 209.263 243.216C209.068 243.02 208.958 242.755 208.958 242.479C208.958 242.203 209.068 241.938 209.263 241.743C209.459 241.547 209.724 241.438 210 241.438C210.276 241.438 210.541 241.547 210.737 241.743C210.932 241.938 211.042 242.203 211.042 242.479C211.042 242.755 210.932 243.02 210.737 243.216C210.541 243.411 210.276 243.521 210 243.521Z" fill="#536383"/>
</g>
<rect x="203" y="222" width="106" height="10" fill="#DBE0E5"/>
<g clip-path="url(#clip6)">
<path d="M177 252C168.157 252 161 244.834 161 236C161 227.157 168.156 220 177 220C185.843 220 193 227.156 193 236C193 244.842 185.833 252 177 252V252Z" fill="#1493FF"/>
<path d="M177 239.75C172.344 239.75 167.905 241.785 164.661 246.186C171.121 253.994 183.079 253.928 189.452 246.046C187.878 244.481 184.334 239.75 177 239.75Z" fill="#E3F4FF"/>
<path d="M177 236.938C173.898 236.938 171.375 234.414 171.375 231.312V229.438C171.375 226.336 173.898 223.812 177 223.812C180.102 223.812 182.625 226.336 182.625 229.438V231.312C182.625 234.414 180.102 236.938 177 236.938Z" fill="#E3F4FF"/>
</g>
<path d="M344 244.333C339.398 244.333 335.667 240.602 335.667 236C335.667 231.397 339.398 227.667 344 227.667C348.603 227.667 352.334 231.397 352.334 236C352.334 240.602 348.603 244.333 344 244.333ZM343.169 239.333L349.061 233.441L347.883 232.262L343.169 236.977L340.812 234.619L339.634 235.797L343.169 239.333Z" fill="#00BD66"/>
<path d="M406 304.333C401.398 304.333 397.667 300.602 397.667 296C397.667 291.397 401.398 287.667 406 287.667C410.603 287.667 414.334 291.397 414.334 296C414.334 300.602 410.603 304.333 406 304.333ZM405.169 299.333L411.061 293.441L409.883 292.262L405.169 296.977L402.812 294.619L401.634 295.797L405.169 299.333Z" fill="#00BD66"/>
<path d="M362 364.333C357.398 364.333 353.667 360.602 353.667 356C353.667 351.397 357.398 347.667 362 347.667C366.603 347.667 370.334 351.397 370.334 356C370.334 360.602 366.603 364.333 362 364.333ZM361.169 359.333L367.061 353.441L365.883 352.262L361.169 356.977L358.812 354.619L357.634 355.797L361.169 359.333Z" fill="#00BD66"/>
</g>
<defs>
<clipPath id="clip0">
<rect width="788" height="832" fill="white"/>
</clipPath>
<clipPath id="clip1">
<path d="M265.75 296.75H278.25V309.25H265.75V296.75Z" fill="white"/>
</clipPath>
<clipPath id="clip2">
<rect x="223" y="280" width="32" height="32" fill="white"/>
</clipPath>
<clipPath id="clip3">
<path d="M221.75 356.75H234.25V369.25H221.75V356.75Z" fill="white"/>
</clipPath>
<clipPath id="clip4">
<rect x="179" y="340" width="32" height="32" fill="white"/>
</clipPath>
<clipPath id="clip5">
<path d="M203.75 236.75H216.25V249.25H203.75V236.75Z" fill="white"/>
</clipPath>
<clipPath id="clip6">
<rect x="161" y="220" width="32" height="32" fill="white"/>
</clipPath>
</defs>
</svg>
