<svg width="788" height="832" viewBox="0 0 788 832" fill="none" xmlns="http://www.w3.org/2000/svg">
<g clip-path="url(#clip0)">
<rect width="788" height="832" fill="white"/>
<g opacity="0.7">
<path opacity="0.7" d="M111.577 346.432C125.538 345.705 142.804 353.885 144.294 369.117C145.375 380.185 145.04 391.221 146.715 402.272C148.054 411.104 150.885 419.582 154.748 427.627C158.461 435.364 166.165 441.949 168.168 450.214C169.445 455.48 168.731 462.888 166.969 468.039C164.828 474.302 165.966 473.807 170.233 479.062C178.596 489.36 186.125 499.921 191.45 512.221C199.12 529.937 204.149 550.645 201.302 570.038C200.94 572.501 200.51 581.338 197.132 581.956C193.359 582.646 195.123 577.592 195.325 575.959C196.608 565.542 197.749 556.436 196.2 545.856C190.225 505.034 161.049 478.139 142.052 443.492C141.008 441.706 138.803 437.451 137.27 434.644C134.85 430.213 132.417 421.781 129.141 418.495C122.971 412.305 128.643 424.75 129.846 427.125C131.366 430.13 133.038 433.324 134.596 435.958C141.723 448.163 149.679 461.487 157.04 474.069C125.203 481.35 102.782 442.932 94.2384 417.675C87.1993 396.866 78.7771 348.213 111.577 346.432Z" fill="#69A1AC"/>
<path d="M298.637 307.751C275.271 309.607 260.271 325.043 253.288 346.633C249.525 358.268 249.094 370.22 247.002 382.177C243.856 400.166 237.087 413.798 223.858 426.614C219.76 430.583 216.741 434.659 214.594 439.019C210.333 443.372 206.624 448.298 203.899 454.321C200.418 462.012 199.433 471.241 203.452 478.909C204.532 480.97 207.228 485.109 210.022 486.989C199.562 509.292 193.81 533.719 194.459 558.115C194.85 572.841 195.568 587.574 196.406 602.282C196.632 606.231 197.916 612.753 199.846 606.129C201.612 600.071 199.397 590.561 199.192 584.232C198.195 553.4 197.343 525.366 210.02 496.56C211.35 493.541 212.759 490.546 214.227 487.575C214.313 487.525 214.393 487.465 214.474 487.406C214.53 487.449 214.581 487.496 214.637 487.538C214.731 487.371 214.859 487.172 215.009 486.949C215.43 486.514 215.798 485.964 216.147 485.351C217.272 483.791 218.544 481.958 218.551 480.955C218.551 480.947 218.547 480.935 218.547 480.927C226.395 468.101 235.384 455.983 244.566 444.101C244.497 444.187 254.525 430.518 252.974 438.077C252.227 441.72 244.851 448.658 241.871 452.516C235.281 461.101 227.543 471.978 221.112 482.497C220.247 482.994 219.024 485.439 218.14 487.26C217.651 488.182 217.196 489.112 216.748 489.922C239.535 497.46 257.26 482.277 269.347 464.619C269.362 464.598 269.374 464.577 269.388 464.556C273.066 459.676 276.834 454.831 281.541 450.974C289.395 444.538 297.805 443.403 307.064 440.235C332.315 431.598 343.05 398.836 346.46 374.526C350.307 347.101 331.49 305.047 298.637 307.751Z" fill="#89C5CC"/>
<path opacity="0.7" d="M252.594 230.878C228.64 255.901 217.068 290.608 207.905 323.237C197.671 359.68 190.911 396.685 190.652 434.574C190.482 459.468 189.807 484.517 191.254 509.381C191.768 518.212 192.645 527.058 194.039 535.794C194.154 536.512 197.274 556.017 200.259 551.472C201.957 548.887 197.061 531.238 196.691 528.298C194.61 511.741 194.127 495.062 194.228 478.386C194.395 450.928 193.589 423.611 196.361 396.255C196.774 392.17 197.102 387.88 198.068 383.885C199.094 379.637 197.787 381.491 201.13 379.809C204.378 378.174 208.392 378.408 211.762 376.357C225.13 368.22 231.968 347.321 237.291 333.608C243.378 317.926 247.078 301.204 250.033 284.701C252.203 272.577 253.754 260.525 254.632 248.244C254.909 244.374 254.925 240.326 255.683 236.521C255.887 235.494 256.912 233.678 256.874 232.769C256.796 230.845 255.639 229.713 255.544 228.096C254.541 229.002 253.557 229.93 252.594 230.878Z" fill="#89C5CC"/>
<path opacity="0.7" d="M121.884 573.954C121.884 615.388 155.193 648.976 196.281 648.976C237.37 648.976 270.679 615.388 270.679 573.954" fill="#89C5CC"/>
<path opacity="0.7" d="M247.404 499.022C265.928 497.649 286.616 512.67 295.551 528.301C302.754 540.904 301.541 557.453 297.092 570.843C294.112 579.807 287.61 592.587 276.766 592.712C263.199 592.868 262.545 576.014 262.283 566.162C261.934 553.064 260.287 541.653 250.018 532.725C247.625 530.645 245.009 528.815 242.592 526.764C238.806 523.554 234.623 520.267 234.135 514.955C233.462 507.628 237.577 506.309 243.86 507.671C244.931 507.902 255.721 512.768 254.123 508.922C253.636 507.747 251.854 506.816 249.606 506.119C243.788 505.483 236.85 504.745 234.854 505.186C213.327 509.933 204.946 539.903 202.72 558.945C202.48 561 202.285 563.062 202.116 565.127L198.161 565.128C198.436 560.14 198.798 555.162 199.627 550.23C202.8 531.369 212.72 503.666 234.478 500.605C235.281 500.49 238.233 500.471 241.81 500.682C243.505 499.73 245.404 499.154 247.404 499.022Z" fill="#69A1AC"/>
</g>
<path d="M196 665L245.143 427H260L204.571 665H196Z" fill="#FFD938"/>
<path fill-rule="evenodd" clip-rule="evenodd" d="M599.87 301.923C605.521 295.29 609.346 287.16 608.707 278.051C606.865 251.804 570.329 257.578 563.222 270.825C556.115 284.072 556.96 317.674 566.145 320.042C569.808 320.986 577.611 318.673 585.553 313.886L580.568 349.154H610.003L599.87 301.923Z" fill="#B28B67"/>
<path fill-rule="evenodd" clip-rule="evenodd" d="M621.54 269.314C622.49 268.372 623.009 267.027 623.458 265.75C623.923 264.424 624.376 263.084 624.685 261.703C625.303 258.945 625.309 255.772 623.341 253.63C621.763 251.913 619.395 251.142 617.21 250.975C615.753 250.863 614.258 251.067 612.862 251.526C611.477 251.981 610.284 252.888 608.941 253.451C608.89 250.479 608.381 247.368 606.872 244.83C605.421 242.388 603.107 241.017 600.472 240.655C597.768 240.282 595.097 240.915 592.676 242.225C592.07 242.553 591.469 242.896 590.894 243.285C590.413 243.611 589.913 244.003 589.348 244.135C588.719 244.283 588.407 243.919 587.998 243.46C587.518 242.922 586.978 242.447 586.406 242.027C583.877 240.168 580.559 239.404 577.63 240.518C576.28 241.032 574.968 241.903 574.052 243.104C573.236 244.175 572.653 245.874 571.527 246.62C571.049 246.936 570.711 246.517 570.276 246.207C569.622 245.741 568.998 245.227 568.337 244.773C567.407 244.137 566.401 243.66 565.323 243.411C563.745 243.046 561.565 243.132 561.114 245.198C560.945 245.974 561.075 246.804 561.129 247.586C561.204 248.66 561.283 249.733 561.376 250.806C561.447 251.62 561.536 252.406 561.69 253.206C561.772 253.632 562.028 254.426 561.846 254.853C561.617 255.386 560.563 255.083 560.113 255.102C559.224 255.138 558.33 255.294 557.508 255.674C556.871 255.969 556.201 256.402 555.932 257.133C555.766 257.581 555.81 258.042 555.888 258.504C555.982 259.058 555.874 259.352 555.805 259.911C554.61 259.323 550.47 258.016 549.95 260.157C549.776 260.87 550.171 261.675 550.472 262.276C551.001 263.331 551.694 264.294 552.402 265.213C553.879 267.131 555.643 268.784 557.54 270.199C555.317 271.187 554.737 274.103 556.662 275.839C557.512 276.606 558.654 276.777 559.726 276.728C560.119 276.71 560.684 276.559 560.993 276.628C561.159 276.664 561.337 276.805 561.567 276.821C563.08 276.925 564.788 276.56 566.267 276.224C568.903 275.626 571.398 274.377 573.435 272.476C573.958 271.988 574.39 271.707 575.093 271.714C575.71 271.721 576.314 271.89 576.93 271.905C578.56 271.947 580.029 271.15 581.542 270.62C581.635 272.664 582.217 274.916 583.054 276.755C583.735 278.255 585.16 278.473 586.559 278.604C591.034 279.025 595.524 278.555 600.005 278.562C595.667 279.542 591.186 279.946 586.887 281.1C584.944 281.621 586.428 282.931 587.259 283.838C588.627 285.333 589.644 287.186 590.349 289.137C592.471 286.371 596.221 284.549 599.543 285.399C603.214 286.337 605.799 291.302 603.452 294.871C602.089 296.943 599.628 297.742 597.58 298.633C599.178 300.294 599.564 302.747 600.526 304.813C601 305.832 601.666 306.984 602.726 307.339C603.119 307.471 603.579 307.482 603.888 307.802C604.272 308.198 604.363 308.641 604.853 308.981C606.807 310.339 609.859 310.235 611.591 308.462C613.157 306.859 612.75 304.321 611.442 302.696C613.524 301.828 617.317 300.712 616.49 297.468C621.002 297.168 631.957 289.85 625.901 284.503C629.225 282.625 632.278 278.034 630.143 273.988C628.499 270.872 624.676 269.479 621.54 269.314Z" fill="#191847"/>
<path fill-rule="evenodd" clip-rule="evenodd" d="M460.436 476.405C450.334 470.339 433.385 478.132 433.397 486.808C433.431 512.765 457.12 635.101 458.357 642.834C459.594 650.567 472.843 652.61 473.615 642.859C474.842 627.344 477.123 573.634 474.841 548.773C473.899 538.511 472.885 528.738 471.886 520.019C484.316 542.467 503.54 574.606 529.558 616.437L543.683 609.984C532.591 573.441 523.496 547.642 516.398 532.589C504.244 506.813 492.848 484.739 488.052 476.964C480.507 464.733 467.375 469.001 460.436 476.405Z" fill="#B28B67"/>
<path fill-rule="evenodd" clip-rule="evenodd" d="M542.673 589.69L494.194 474.849C482.581 456.167 450.019 478.65 453.98 489.485C462.971 514.085 508.7 593.724 511.379 601.053L542.673 589.69Z" fill="#192948"/>
<path fill-rule="evenodd" clip-rule="evenodd" d="M545.365 602.742C548.384 605.228 550.349 607.259 551.258 608.833C552.364 610.749 553.658 613.728 555.142 617.771C552.92 619.054 532.951 630.583 495.235 652.358C490.707 648.11 490.002 644.813 493.119 642.466C496.236 640.119 498.808 638.14 500.836 636.528L521.513 608.04C521.911 607.492 522.678 607.37 523.226 607.768C523.236 607.774 523.245 607.781 523.254 607.789L527.55 611.097C531.492 610.753 534.433 610.02 536.374 608.9C537.952 607.989 539.762 606.094 541.805 603.216L541.805 603.216C542.59 602.111 544.121 601.852 545.226 602.636C545.273 602.67 545.32 602.705 545.365 602.742Z" fill="#192948"/>
<path fill-rule="evenodd" clip-rule="evenodd" d="M658.365 509C670.866 509 681 519.134 681 531.635V632.078C681 644.578 670.866 654.712 658.365 654.712H530.635C518.134 654.712 508 644.578 508 632.078V531.635C508 519.134 518.134 509 530.635 509H658.365ZM644.875 524.903C626.75 524.903 546.611 524.903 546.611 524.903C526 524.903 523.952 529 523.952 547.562V616.151C523.952 632.078 530.635 638.81 546.611 638.81H642.389C660.5 638.81 665.048 634 665.048 616.151V547.562C665.048 531.635 663 524.903 644.875 524.903Z" fill="#FFD938"/>
<path fill-rule="evenodd" clip-rule="evenodd" d="M476.716 636.635C478.088 640.297 478.774 643.038 478.774 644.856C478.774 647.068 478.406 650.295 477.669 654.538C475.103 654.538 452.046 654.538 408.495 654.538C406.698 648.596 407.735 645.387 411.608 644.913C415.481 644.44 418.699 644.012 421.26 643.63L453.412 629.297C454.03 629.021 454.755 629.299 455.031 629.918C455.036 629.928 455.04 629.939 455.045 629.95L457.111 634.963C460.697 636.636 463.61 637.472 465.852 637.472C467.673 637.472 470.188 636.736 473.397 635.265L473.397 635.265C474.629 634.701 476.085 635.241 476.649 636.473C476.673 636.526 476.696 636.58 476.716 636.635Z" fill="#192948"/>
<path fill-rule="evenodd" clip-rule="evenodd" d="M429.998 495.632C429.998 528.214 445.472 604.218 445.482 611.392L478.774 611.418C473.901 543.601 472.173 509.327 473.59 508.597C475.716 507.501 560.73 517.085 586.228 517.085C622.995 517.085 638.204 493.899 639.438 450.948H566.604C551.775 452.535 474.422 468.137 445.694 473.501C433.396 475.797 429.998 486.656 429.998 495.632Z" fill="#536383"/>
<path fill-rule="evenodd" clip-rule="evenodd" d="M555.258 374.541L512.688 351.226C505.609 342.82 498.634 336.291 491.764 331.64C489.664 330.763 485.993 330.233 489.426 336.327C492.86 342.421 496.197 348.985 494.448 350.863C492.699 352.74 488.337 350.118 486.25 353.237C484.859 355.317 492.311 358.602 508.606 363.093L539.538 391.414L555.258 374.541ZM488.586 394.213L469.887 383.941C467.263 373.957 464.127 368.934 460.478 368.872C457.675 367.567 462.556 380.183 457.242 379.089C451.928 377.995 438.959 368.348 436.724 370.307C433.418 373.204 436.366 382.101 439.839 386.527C446.331 394.799 451.706 397.628 464.991 401.332C471.937 403.269 479.447 407.151 487.521 412.978L488.586 394.213Z" fill="#B28B67"/>
<path fill-rule="evenodd" clip-rule="evenodd" d="M575.991 369.348C561.08 369.19 541.197 366.041 519.981 352.574L511.649 371.155C526.283 385.678 546.86 397.61 564.852 397.105C579.031 396.707 586.277 379.556 575.991 369.348Z" fill="#1C75DF"/>
<path fill-rule="evenodd" clip-rule="evenodd" d="M555.914 399.145C540.085 403.093 513.54 398.437 476.279 385.179C467.037 404.299 462.764 417.93 463.462 426.073C495.426 442.769 522.822 450.214 545.392 450.705C544.675 464.098 546.305 476.841 551.781 488.485C563.039 512.423 628.96 490.254 651.125 494.617C665.005 449.54 638.167 431.22 638.146 402.377C638.122 370.791 612.76 322.172 609.028 322.172H574.998C573.121 346.295 563.67 372.88 555.914 399.145Z" fill="#1493FF"/>
<path d="M469 665L419.857 427H405L460.429 665H469Z" fill="#FFD938"/>
<path d="M212.478 424.392C212.231 423.155 213.178 422 214.44 422H450.56C451.822 422 452.769 423.155 452.522 424.392L451.322 430.392C451.135 431.327 450.314 432 449.36 432H215.64C214.686 432 213.865 431.327 213.678 430.392L212.478 424.392Z" fill="#FFD938"/>
<path d="M331 417L432 418.667V418.667C432 420.508 430.508 422 428.667 422H333C331.895 422 331 421.105 331 420V417Z" fill="#192948"/>
<path d="M330.947 419.622C329.665 419.682 328.577 418.69 328.517 417.408L324.029 321.032C323.969 319.749 324.96 318.661 326.243 318.601V318.601L330.947 419.622V419.622Z" fill="#192948"/>
<path d="M107 175C128.024 175 145.067 165.925 145.067 154.73C145.067 143.536 128.024 134.461 107 134.461C85.976 134.461 68.9326 143.536 68.9326 154.73C68.9326 165.925 85.976 175 107 175Z" fill="#F7F9FB"/>
<path fill-rule="evenodd" clip-rule="evenodd" d="M151 169.068C151 144.494 131.301 124.573 107 124.573C82.6995 124.573 63 144.494 63 169.068" fill="#DBE0E5"/>
<path d="M109.472 -1H104.528V128.528H109.472V-1Z" fill="#DBE0E5"/>
<g opacity="0.7">
<path d="M175.719 -1H170.775V110.73H175.719V-1Z" fill="#DBE0E5"/>
<path opacity="0.7" d="M172.754 130.506C188.044 130.506 200.439 123.423 200.439 114.685C200.439 105.948 188.044 98.8651 172.754 98.8651C157.464 98.8651 145.068 105.948 145.068 114.685C145.068 123.423 157.464 130.506 172.754 130.506Z" fill="#F7F9FB"/>
<path fill-rule="evenodd" clip-rule="evenodd" d="M204.394 126.55C204.394 106.892 190.228 90.955 172.754 90.955C155.279 90.955 141.113 106.892 141.113 126.55" fill="#DBE0E5"/>
</g>
<path d="M453 155C472.882 155 489 138.882 489 119C489 99.1177 472.882 83 453 83C433.118 83 417 99.1177 417 119C417 138.882 433.118 155 453 155Z" fill="#E7FFE8"/>
<path d="M453.409 92.8182C454.538 92.8182 455.454 91.9024 455.454 90.7727C455.454 89.6431 454.538 88.7273 453.409 88.7273C452.279 88.7273 451.363 89.6431 451.363 90.7727C451.363 91.9024 452.279 92.8182 453.409 92.8182Z" fill="#00BD66"/>
<path d="M424.773 121.455C425.903 121.455 426.818 120.539 426.818 119.409C426.818 118.279 425.903 117.364 424.773 117.364C423.643 117.364 422.728 118.279 422.728 119.409C422.728 120.539 423.643 121.455 424.773 121.455Z" fill="#00BD66"/>
<path d="M481.227 121.455C482.357 121.455 483.273 120.539 483.273 119.409C483.273 118.279 482.357 117.364 481.227 117.364C480.097 117.364 479.182 118.279 479.182 119.409C479.182 120.539 480.097 121.455 481.227 121.455Z" fill="#00BD66"/>
<path d="M453.409 149.273C454.538 149.273 455.454 148.357 455.454 147.227C455.454 146.098 454.538 145.182 453.409 145.182C452.279 145.182 451.363 146.098 451.363 147.227C451.363 148.357 452.279 149.273 453.409 149.273Z" fill="#00BD66"/>
<path fill-rule="evenodd" clip-rule="evenodd" d="M453.409 94.4546L454.636 118.182H452.182L453.409 94.4546Z" fill="#192948"/>
<path fill-rule="evenodd" clip-rule="evenodd" d="M465.022 131.022L452.534 120.455L454.455 118.534L465.022 131.022Z" fill="#192948"/>
<path d="M453.41 122.273C454.991 122.273 456.273 120.991 456.273 119.409C456.273 117.828 454.991 116.545 453.41 116.545C451.828 116.545 450.546 117.828 450.546 119.409C450.546 120.991 451.828 122.273 453.41 122.273Z" fill="#192948"/>
</g>
<defs>
<clipPath id="clip0">
<rect width="788" height="832" fill="white"/>
</clipPath>
</defs>
</svg>
