<svg width="788" height="640" viewBox="0 0 788 640" fill="none" xmlns="http://www.w3.org/2000/svg">
<rect width="788" height="640" fill="white"/>
<g opacity="0.7">
<path opacity="0.7" d="M111.577 294.432C125.538 293.705 142.804 301.885 144.294 317.117C145.375 328.185 145.04 339.221 146.715 350.272C148.054 359.104 150.885 367.582 154.748 375.627C158.461 383.364 166.165 389.949 168.168 398.214C169.445 403.48 168.731 410.888 166.969 416.039C164.828 422.302 165.966 421.807 170.233 427.062C178.596 437.36 186.125 447.921 191.45 460.221C199.12 477.937 204.149 498.645 201.302 518.038C200.94 520.501 200.51 529.338 197.132 529.956C193.359 530.646 195.123 525.592 195.325 523.959C196.608 513.542 197.749 504.436 196.2 493.856C190.225 453.034 161.049 426.139 142.052 391.492C141.008 389.706 138.803 385.451 137.27 382.644C134.85 378.213 132.417 369.781 129.141 366.495C122.971 360.305 128.643 372.75 129.846 375.125C131.366 378.13 133.038 381.324 134.596 383.958C141.723 396.163 149.679 409.487 157.04 422.069C125.203 429.35 102.782 390.932 94.2384 365.675C87.1993 344.866 78.7771 296.213 111.577 294.432Z" fill="#69A1AC"/>
<path d="M298.637 255.751C275.271 257.607 260.271 273.043 253.288 294.633C249.525 306.268 249.094 318.22 247.002 330.177C243.856 348.166 237.087 361.798 223.858 374.614C219.76 378.583 216.741 382.659 214.594 387.019C210.333 391.372 206.624 396.298 203.899 402.321C200.418 410.012 199.433 419.241 203.452 426.909C204.532 428.97 207.228 433.109 210.022 434.989C199.562 457.292 193.81 481.719 194.459 506.115C194.85 520.841 195.568 535.574 196.406 550.282C196.632 554.231 197.916 560.753 199.846 554.129C201.612 548.071 199.397 538.561 199.192 532.232C198.195 501.4 197.343 473.366 210.02 444.56C211.35 441.541 212.759 438.546 214.227 435.575C214.313 435.525 214.393 435.465 214.474 435.406C214.53 435.449 214.581 435.496 214.637 435.538C214.731 435.371 214.859 435.172 215.009 434.949C215.43 434.514 215.798 433.964 216.147 433.351C217.272 431.791 218.544 429.958 218.551 428.955C218.551 428.947 218.547 428.935 218.547 428.927C226.395 416.101 235.384 403.983 244.566 392.101C244.497 392.187 254.525 378.518 252.974 386.077C252.227 389.72 244.851 396.658 241.871 400.516C235.281 409.101 227.543 419.978 221.112 430.497C220.247 430.994 219.024 433.439 218.14 435.26C217.651 436.182 217.196 437.112 216.748 437.922C239.535 445.46 257.26 430.277 269.347 412.619C269.362 412.598 269.374 412.577 269.388 412.556C273.066 407.676 276.834 402.831 281.541 398.974C289.395 392.538 297.805 391.403 307.064 388.235C332.315 379.598 343.05 346.836 346.46 322.526C350.307 295.101 331.49 253.047 298.637 255.751Z" fill="#89C5CC"/>
<path opacity="0.7" d="M252.594 178.878C228.64 203.901 217.068 238.608 207.905 271.237C197.671 307.68 190.911 344.685 190.652 382.574C190.482 407.468 189.807 432.517 191.254 457.381C191.768 466.212 192.645 475.058 194.039 483.794C194.154 484.512 197.274 504.017 200.259 499.472C201.957 496.887 197.061 479.238 196.691 476.298C194.61 459.741 194.127 443.062 194.228 426.386C194.395 398.928 193.589 371.611 196.361 344.255C196.774 340.17 197.102 335.88 198.068 331.885C199.094 327.637 197.787 329.491 201.13 327.809C204.378 326.174 208.392 326.408 211.762 324.357C225.13 316.22 231.968 295.321 237.291 281.608C243.378 265.926 247.078 249.204 250.033 232.701C252.203 220.577 253.754 208.525 254.632 196.244C254.909 192.374 254.925 188.326 255.683 184.521C255.887 183.494 256.912 181.678 256.874 180.769C256.796 178.845 255.639 177.713 255.544 176.096C254.541 177.002 253.557 177.93 252.594 178.878Z" fill="#89C5CC"/>
<path opacity="0.7" d="M121.884 521.954C121.884 563.388 155.193 596.976 196.281 596.976C237.37 596.976 270.679 563.388 270.679 521.954" fill="#89C5CC"/>
<path opacity="0.7" d="M247.404 447.022C265.928 445.649 286.616 460.67 295.551 476.301C302.754 488.904 301.541 505.453 297.092 518.843C294.112 527.807 287.61 540.587 276.766 540.712C263.199 540.868 262.545 524.014 262.283 514.162C261.934 501.064 260.287 489.653 250.018 480.725C247.625 478.645 245.009 476.815 242.592 474.764C238.806 471.554 234.623 468.267 234.135 462.955C233.462 455.628 237.577 454.309 243.86 455.671C244.931 455.902 255.721 460.768 254.123 456.922C253.636 455.747 251.854 454.816 249.606 454.119C243.788 453.483 236.85 452.745 234.854 453.186C213.327 457.933 204.946 487.903 202.72 506.945C202.48 509 202.285 511.062 202.116 513.127L198.161 513.128C198.436 508.14 198.798 503.162 199.627 498.23C202.8 479.369 212.72 451.666 234.478 448.605C235.281 448.49 238.233 448.471 241.81 448.682C243.505 447.73 245.404 447.154 247.404 447.022Z" fill="#69A1AC"/>
</g>
<path d="M196 613L245.143 375H260L204.571 613H196Z" fill="#FFD938"/>
<path fill-rule="evenodd" clip-rule="evenodd" d="M599.87 249.923C605.521 243.29 609.346 235.16 608.707 226.051C606.865 199.804 570.329 205.578 563.222 218.825C556.115 232.072 556.96 265.674 566.145 268.042C569.808 268.986 577.611 266.673 585.553 261.886L580.568 297.154H610.003L599.87 249.923Z" fill="#B28B67"/>
<path fill-rule="evenodd" clip-rule="evenodd" d="M621.54 217.314C622.49 216.372 623.009 215.027 623.458 213.75C623.923 212.424 624.376 211.084 624.685 209.703C625.303 206.945 625.309 203.772 623.341 201.63C621.763 199.913 619.395 199.142 617.21 198.975C615.753 198.863 614.258 199.067 612.862 199.526C611.477 199.981 610.284 200.888 608.941 201.451C608.89 198.479 608.381 195.368 606.872 192.83C605.421 190.388 603.107 189.017 600.472 188.655C597.768 188.282 595.097 188.915 592.676 190.225C592.07 190.553 591.469 190.896 590.894 191.285C590.413 191.611 589.913 192.003 589.348 192.135C588.719 192.283 588.407 191.919 587.998 191.46C587.518 190.922 586.978 190.447 586.406 190.027C583.877 188.168 580.559 187.404 577.63 188.518C576.28 189.032 574.968 189.903 574.052 191.104C573.236 192.175 572.653 193.874 571.527 194.62C571.049 194.936 570.711 194.517 570.276 194.207C569.622 193.741 568.998 193.227 568.337 192.773C567.407 192.137 566.401 191.66 565.323 191.411C563.745 191.046 561.565 191.132 561.114 193.198C560.945 193.974 561.075 194.804 561.129 195.586C561.204 196.66 561.283 197.733 561.376 198.806C561.447 199.62 561.536 200.406 561.69 201.206C561.772 201.632 562.028 202.426 561.846 202.853C561.617 203.386 560.563 203.083 560.113 203.102C559.224 203.138 558.33 203.294 557.508 203.674C556.871 203.969 556.201 204.402 555.932 205.133C555.766 205.581 555.81 206.042 555.888 206.504C555.982 207.058 555.874 207.352 555.805 207.911C554.61 207.323 550.47 206.016 549.95 208.157C549.776 208.87 550.171 209.675 550.472 210.276C551.001 211.331 551.694 212.294 552.402 213.213C553.879 215.131 555.643 216.784 557.54 218.199C555.317 219.187 554.737 222.103 556.662 223.839C557.512 224.606 558.654 224.777 559.726 224.728C560.119 224.71 560.684 224.559 560.993 224.628C561.159 224.664 561.337 224.805 561.567 224.821C563.08 224.925 564.788 224.56 566.267 224.224C568.903 223.626 571.398 222.377 573.435 220.476C573.958 219.988 574.39 219.707 575.093 219.714C575.71 219.721 576.314 219.89 576.93 219.905C578.56 219.947 580.029 219.15 581.542 218.62C581.635 220.664 582.217 222.916 583.054 224.755C583.735 226.255 585.16 226.473 586.559 226.604C591.034 227.025 595.524 226.555 600.005 226.562C595.667 227.542 591.186 227.946 586.887 229.1C584.944 229.621 586.428 230.931 587.259 231.838C588.627 233.333 589.644 235.186 590.349 237.137C592.471 234.371 596.221 232.549 599.543 233.399C603.214 234.337 605.799 239.302 603.452 242.871C602.089 244.943 599.628 245.742 597.58 246.633C599.178 248.294 599.564 250.747 600.526 252.813C601 253.832 601.666 254.984 602.726 255.339C603.119 255.471 603.579 255.482 603.888 255.802C604.272 256.198 604.363 256.641 604.853 256.981C606.807 258.339 609.859 258.235 611.591 256.462C613.157 254.859 612.75 252.321 611.442 250.696C613.524 249.828 617.317 248.712 616.49 245.468C621.002 245.168 631.957 237.85 625.901 232.503C629.225 230.625 632.278 226.034 630.143 221.988C628.499 218.872 624.676 217.479 621.54 217.314Z" fill="#191847"/>
<path fill-rule="evenodd" clip-rule="evenodd" d="M460.436 424.405C450.334 418.339 433.385 426.132 433.397 434.808C433.431 460.765 457.12 583.101 458.357 590.834C459.594 598.567 472.843 600.61 473.615 590.859C474.842 575.344 477.123 521.634 474.841 496.773C473.899 486.511 472.885 476.738 471.886 468.019C484.316 490.467 503.54 522.606 529.558 564.437L543.683 557.984C532.591 521.441 523.496 495.642 516.398 480.589C504.244 454.813 492.848 432.739 488.052 424.964C480.507 412.733 467.375 417.001 460.436 424.405Z" fill="#B28B67"/>
<path fill-rule="evenodd" clip-rule="evenodd" d="M542.673 537.69L494.194 422.849C482.581 404.167 450.019 426.65 453.98 437.485C462.971 462.085 508.7 541.724 511.379 549.053L542.673 537.69Z" fill="#192948"/>
<path fill-rule="evenodd" clip-rule="evenodd" d="M545.365 550.742C548.384 553.228 550.349 555.259 551.258 556.833C552.364 558.749 553.658 561.728 555.142 565.771C552.92 567.054 532.951 578.583 495.235 600.358C490.707 596.11 490.002 592.813 493.119 590.466C496.236 588.119 498.808 586.14 500.836 584.528L521.513 556.04C521.911 555.492 522.678 555.37 523.226 555.768C523.236 555.774 523.245 555.781 523.254 555.789L527.55 559.097C531.492 558.753 534.433 558.02 536.374 556.9C537.952 555.989 539.762 554.094 541.805 551.216L541.805 551.216C542.59 550.111 544.121 549.852 545.226 550.636C545.273 550.67 545.32 550.705 545.365 550.742Z" fill="#192948"/>
<path fill-rule="evenodd" clip-rule="evenodd" d="M658.365 457C670.866 457 681 467.134 681 479.635V580.078C681 592.578 670.866 602.712 658.365 602.712H530.635C518.134 602.712 508 592.578 508 580.078V479.635C508 467.134 518.134 457 530.635 457H658.365ZM644.875 472.903C626.75 472.903 546.611 472.903 546.611 472.903C526 472.903 523.952 477 523.952 495.562V564.151C523.952 580.078 530.635 586.81 546.611 586.81H642.389C660.5 586.81 665.048 582 665.048 564.151V495.562C665.048 479.635 663 472.903 644.875 472.903Z" fill="#FFD938"/>
<path fill-rule="evenodd" clip-rule="evenodd" d="M476.716 584.635C478.088 588.297 478.774 591.038 478.774 592.856C478.774 595.068 478.406 598.295 477.669 602.538C475.103 602.538 452.046 602.538 408.495 602.538C406.698 596.596 407.735 593.387 411.608 592.913C415.481 592.44 418.699 592.012 421.26 591.63L453.412 577.297C454.03 577.021 454.755 577.299 455.031 577.918C455.036 577.928 455.04 577.939 455.045 577.95L457.111 582.963C460.697 584.636 463.61 585.472 465.852 585.472C467.673 585.472 470.188 584.736 473.397 583.265L473.397 583.265C474.629 582.701 476.085 583.241 476.649 584.473C476.673 584.526 476.696 584.58 476.716 584.635Z" fill="#192948"/>
<path fill-rule="evenodd" clip-rule="evenodd" d="M429.998 443.632C429.998 476.214 445.472 552.218 445.482 559.392L478.774 559.418C473.901 491.601 472.173 457.327 473.59 456.597C475.716 455.501 560.73 465.085 586.228 465.085C622.995 465.085 638.204 441.899 639.438 398.948H566.604C551.775 400.535 474.422 416.137 445.694 421.501C433.396 423.797 429.998 434.656 429.998 443.632Z" fill="#536383"/>
<path fill-rule="evenodd" clip-rule="evenodd" d="M555.258 322.541L512.688 299.226C505.609 290.82 498.634 284.291 491.764 279.64C489.664 278.763 485.993 278.233 489.426 284.327C492.86 290.421 496.197 296.985 494.448 298.863C492.699 300.74 488.337 298.118 486.25 301.237C484.859 303.317 492.311 306.602 508.606 311.093L539.538 339.414L555.258 322.541ZM488.586 342.213L469.887 331.941C467.263 321.957 464.127 316.934 460.478 316.872C457.675 315.567 462.556 328.183 457.242 327.089C451.928 325.995 438.959 316.348 436.724 318.307C433.418 321.204 436.366 330.101 439.839 334.527C446.331 342.799 451.706 345.628 464.991 349.332C471.937 351.269 479.447 355.151 487.521 360.978L488.586 342.213Z" fill="#B28B67"/>
<path fill-rule="evenodd" clip-rule="evenodd" d="M575.991 317.348C561.08 317.19 541.197 314.041 519.981 300.574L511.649 319.155C526.283 333.678 546.86 345.61 564.852 345.105C579.031 344.707 586.277 327.556 575.991 317.348Z" fill="#1C75DF"/>
<path fill-rule="evenodd" clip-rule="evenodd" d="M555.914 347.145C540.085 351.093 513.54 346.437 476.279 333.179C467.037 352.299 462.764 365.93 463.462 374.073C495.426 390.769 522.822 398.214 545.392 398.705C544.675 412.098 546.305 424.841 551.781 436.485C563.039 460.423 628.96 438.254 651.125 442.617C665.005 397.54 638.167 379.22 638.146 350.377C638.122 318.791 612.76 270.172 609.028 270.172H574.998C573.121 294.295 563.67 320.88 555.914 347.145Z" fill="#1493FF"/>
<path d="M469 613L419.857 375H405L460.429 613H469Z" fill="#FFD938"/>
<path d="M212.478 372.392C212.231 371.155 213.178 370 214.44 370H450.56C451.822 370 452.769 371.155 452.522 372.392L451.322 378.392C451.135 379.327 450.314 380 449.36 380H215.64C214.686 380 213.865 379.327 213.678 378.392L212.478 372.392Z" fill="#FFD938"/>
<rect x="173" y="178" width="213" height="52" rx="4" fill="#F7F9FB"/>
<path d="M246.96 213.95H248.51V215H244.12V213.95H245.68V209.36L244.23 210.23V209.08L246.21 207.88H246.96V213.95ZM252.436 210.43C252.856 210.43 253.229 210.527 253.556 210.72C253.889 210.913 254.149 211.183 254.336 211.53C254.523 211.877 254.616 212.273 254.616 212.72C254.616 213.173 254.513 213.58 254.306 213.94C254.106 214.3 253.823 214.583 253.456 214.79C253.096 214.99 252.686 215.09 252.226 215.09C251.326 215.09 250.633 214.787 250.146 214.18C249.659 213.567 249.416 212.697 249.416 211.57C249.416 210.783 249.529 210.107 249.756 209.54C249.989 208.973 250.323 208.54 250.756 208.24C251.196 207.94 251.716 207.79 252.316 207.79C252.743 207.79 253.156 207.863 253.556 208.01C253.963 208.15 254.316 208.353 254.616 208.62L254.176 209.56C253.549 209.067 252.946 208.82 252.366 208.82C251.839 208.82 251.433 209.043 251.146 209.49C250.859 209.937 250.709 210.577 250.696 211.41C250.849 211.11 251.083 210.873 251.396 210.7C251.709 210.52 252.056 210.43 252.436 210.43ZM252.166 214.07C252.533 214.07 252.826 213.95 253.046 213.71C253.273 213.47 253.386 213.153 253.386 212.76C253.386 212.367 253.273 212.053 253.046 211.82C252.826 211.58 252.529 211.46 252.156 211.46C251.783 211.46 251.479 211.58 251.246 211.82C251.013 212.06 250.896 212.373 250.896 212.76C250.896 213.147 251.013 213.463 251.246 213.71C251.486 213.95 251.793 214.07 252.166 214.07ZM255.542 210.06H256.942V211.45H255.542V210.06ZM255.542 213.6H256.942V215H255.542V213.6ZM260.502 215.09C259.655 215.09 259.009 214.78 258.562 214.16C258.122 213.533 257.902 212.623 257.902 211.43C257.902 210.257 258.122 209.36 258.562 208.74C259.009 208.12 259.655 207.81 260.502 207.81C261.349 207.81 261.992 208.12 262.432 208.74C262.879 209.353 263.102 210.25 263.102 211.43C263.102 212.617 262.879 213.523 262.432 214.15C261.992 214.777 261.349 215.09 260.502 215.09ZM260.502 214.08C260.962 214.08 261.295 213.87 261.502 213.45C261.715 213.023 261.822 212.35 261.822 211.43C261.822 210.523 261.715 209.863 261.502 209.45C261.295 209.03 260.962 208.82 260.502 208.82C260.042 208.82 259.705 209.03 259.492 209.45C259.285 209.863 259.182 210.523 259.182 211.43C259.182 212.35 259.285 213.023 259.492 213.45C259.705 213.87 260.042 214.08 260.502 214.08ZM266.498 215.09C265.651 215.09 265.005 214.78 264.558 214.16C264.118 213.533 263.898 212.623 263.898 211.43C263.898 210.257 264.118 209.36 264.558 208.74C265.005 208.12 265.651 207.81 266.498 207.81C267.345 207.81 267.988 208.12 268.428 208.74C268.875 209.353 269.098 210.25 269.098 211.43C269.098 212.617 268.875 213.523 268.428 214.15C267.988 214.777 267.345 215.09 266.498 215.09ZM266.498 214.08C266.958 214.08 267.291 213.87 267.498 213.45C267.711 213.023 267.818 212.35 267.818 211.43C267.818 210.523 267.711 209.863 267.498 209.45C267.291 209.03 266.958 208.82 266.498 208.82C266.038 208.82 265.701 209.03 265.488 209.45C265.281 209.863 265.178 210.523 265.178 211.43C265.178 212.35 265.281 213.023 265.488 213.45C265.701 213.87 266.038 214.08 266.498 214.08ZM272.928 212.8V211.8H275.938V212.8H272.928ZM283.327 213.95H284.877V215H280.487V213.95H282.047V209.36L280.597 210.23V209.08L282.577 207.88H283.327V213.95ZM288.803 210.43C289.223 210.43 289.597 210.527 289.923 210.72C290.257 210.913 290.517 211.183 290.703 211.53C290.89 211.877 290.983 212.273 290.983 212.72C290.983 213.173 290.88 213.58 290.673 213.94C290.473 214.3 290.19 214.583 289.823 214.79C289.463 214.99 289.053 215.09 288.593 215.09C287.693 215.09 287 214.787 286.513 214.18C286.027 213.567 285.783 212.697 285.783 211.57C285.783 210.783 285.897 210.107 286.123 209.54C286.357 208.973 286.69 208.54 287.123 208.24C287.563 207.94 288.083 207.79 288.683 207.79C289.11 207.79 289.523 207.863 289.923 208.01C290.33 208.15 290.683 208.353 290.983 208.62L290.543 209.56C289.917 209.067 289.313 208.82 288.733 208.82C288.207 208.82 287.8 209.043 287.513 209.49C287.227 209.937 287.077 210.577 287.063 211.41C287.217 211.11 287.45 210.873 287.763 210.7C288.077 210.52 288.423 210.43 288.803 210.43ZM288.533 214.07C288.9 214.07 289.193 213.95 289.413 213.71C289.64 213.47 289.753 213.153 289.753 212.76C289.753 212.367 289.64 212.053 289.413 211.82C289.193 211.58 288.897 211.46 288.523 211.46C288.15 211.46 287.847 211.58 287.613 211.82C287.38 212.06 287.263 212.373 287.263 212.76C287.263 213.147 287.38 213.463 287.613 213.71C287.853 213.95 288.16 214.07 288.533 214.07ZM291.909 210.06H293.309V211.45H291.909V210.06ZM291.909 213.6H293.309V215H291.909V213.6ZM299.629 212.6V213.61H298.619V215H297.359V213.61H294.259V212.65L297.589 207.88H298.619V212.6H299.629ZM295.479 212.6H297.359V209.89L295.479 212.6ZM303.245 210.45C303.692 210.45 304.085 210.547 304.425 210.74C304.765 210.927 305.029 211.193 305.215 211.54C305.402 211.88 305.495 212.273 305.495 212.72C305.495 213.187 305.389 213.6 305.175 213.96C304.962 214.313 304.655 214.59 304.255 214.79C303.855 214.983 303.392 215.08 302.865 215.08C302.419 215.08 301.979 215.007 301.545 214.86C301.112 214.707 300.755 214.503 300.475 214.25L300.905 213.31C301.552 213.803 302.212 214.05 302.885 214.05C303.332 214.05 303.672 213.94 303.905 213.72C304.145 213.493 304.265 213.173 304.265 212.76C304.265 212.367 304.142 212.053 303.895 211.82C303.655 211.58 303.332 211.46 302.925 211.46C302.645 211.46 302.382 211.513 302.135 211.62C301.889 211.72 301.672 211.87 301.485 212.07H300.705V207.88H305.165V208.88H301.965V210.82C302.325 210.573 302.752 210.45 303.245 210.45Z" fill="#536383"/>
<g clip-path="url(#clip0)">
<path d="M232 217.108L228.685 213.794C228.03 213.138 227.583 212.303 227.403 211.394C227.222 210.484 227.315 209.542 227.669 208.685C228.024 207.829 228.625 207.097 229.396 206.582C230.167 206.067 231.073 205.792 232 205.792C232.927 205.792 233.833 206.067 234.604 206.582C235.375 207.097 235.976 207.829 236.331 208.685C236.685 209.542 236.778 210.484 236.597 211.394C236.417 212.303 235.97 213.138 235.315 213.794L232 217.108ZM234.578 213.057C235.088 212.547 235.435 211.898 235.576 211.191C235.716 210.483 235.644 209.75 235.368 209.084C235.092 208.418 234.625 207.849 234.025 207.448C233.426 207.047 232.721 206.834 232 206.834C231.279 206.834 230.574 207.047 229.975 207.448C229.375 207.849 228.908 208.418 228.632 209.084C228.356 209.75 228.284 210.483 228.424 211.191C228.565 211.898 228.912 212.547 229.422 213.057L232 215.635L234.578 213.057V213.057ZM232 211.521C231.724 211.521 231.459 211.411 231.263 211.216C231.068 211.02 230.958 210.755 230.958 210.479C230.958 210.203 231.068 209.938 231.263 209.743C231.459 209.547 231.724 209.438 232 209.438C232.276 209.438 232.541 209.547 232.737 209.743C232.932 209.938 233.042 210.203 233.042 210.479C233.042 210.755 232.932 211.02 232.737 211.216C232.541 211.411 232.276 211.521 232 211.521Z" fill="#536383"/>
</g>
<rect x="225" y="190" width="106" height="10" fill="#DBE0E5"/>
<g clip-path="url(#clip1)">
<path d="M199 220C190.157 220 183 212.834 183 204C183 195.157 190.156 188 199 188C207.843 188 215 195.156 215 204C215 212.842 207.833 220 199 220V220Z" fill="#00BD66"/>
<path d="M199 207.75C194.344 207.75 189.905 209.785 186.661 214.186C193.121 221.994 205.079 221.928 211.452 214.046C209.878 212.481 206.334 207.75 199 207.75Z" fill="#E7FFE8"/>
<path d="M199 204.938C195.898 204.938 193.375 202.414 193.375 199.312V197.438C193.375 194.336 195.898 191.812 199 191.812C202.102 191.812 204.625 194.336 204.625 197.438V199.312C204.625 202.414 202.102 204.938 199 204.938Z" fill="#E7FFE8"/>
</g>
<rect x="129" y="238" width="213" height="52" rx="4" fill="#F7F9FB"/>
<path d="M202.96 273.95H204.51V275H200.12V273.95H201.68V269.36L200.23 270.23V269.08L202.21 267.88H202.96V273.95ZM205.516 267.88H210.476V268.84L207.246 275H205.866L209.086 268.93H205.516V267.88ZM211.542 270.06H212.942V271.45H211.542V270.06ZM211.542 273.6H212.942V275H211.542V273.6ZM216.502 275.09C215.655 275.09 215.009 274.78 214.562 274.16C214.122 273.533 213.902 272.623 213.902 271.43C213.902 270.257 214.122 269.36 214.562 268.74C215.009 268.12 215.655 267.81 216.502 267.81C217.349 267.81 217.992 268.12 218.432 268.74C218.879 269.353 219.102 270.25 219.102 271.43C219.102 272.617 218.879 273.523 218.432 274.15C217.992 274.777 217.349 275.09 216.502 275.09ZM216.502 274.08C216.962 274.08 217.295 273.87 217.502 273.45C217.715 273.023 217.822 272.35 217.822 271.43C217.822 270.523 217.715 269.863 217.502 269.45C217.295 269.03 216.962 268.82 216.502 268.82C216.042 268.82 215.705 269.03 215.492 269.45C215.285 269.863 215.182 270.523 215.182 271.43C215.182 272.35 215.285 273.023 215.492 273.45C215.705 273.87 216.042 274.08 216.502 274.08ZM222.498 275.09C221.651 275.09 221.005 274.78 220.558 274.16C220.118 273.533 219.898 272.623 219.898 271.43C219.898 270.257 220.118 269.36 220.558 268.74C221.005 268.12 221.651 267.81 222.498 267.81C223.345 267.81 223.988 268.12 224.428 268.74C224.875 269.353 225.098 270.25 225.098 271.43C225.098 272.617 224.875 273.523 224.428 274.15C223.988 274.777 223.345 275.09 222.498 275.09ZM222.498 274.08C222.958 274.08 223.291 273.87 223.498 273.45C223.711 273.023 223.818 272.35 223.818 271.43C223.818 270.523 223.711 269.863 223.498 269.45C223.291 269.03 222.958 268.82 222.498 268.82C222.038 268.82 221.701 269.03 221.488 269.45C221.281 269.863 221.178 270.523 221.178 271.43C221.178 272.35 221.281 273.023 221.488 273.45C221.701 273.87 222.038 274.08 222.498 274.08ZM228.928 272.8V271.8H231.938V272.8H228.928ZM239.327 273.95H240.877V275H236.487V273.95H238.047V269.36L236.597 270.23V269.08L238.577 267.88H239.327V273.95ZM241.883 267.88H246.843V268.84L243.613 275H242.233L245.453 268.93H241.883V267.88ZM247.909 270.06H249.309V271.45H247.909V270.06ZM247.909 273.6H249.309V275H247.909V273.6ZM255.629 272.6V273.61H254.619V275H253.359V273.61H250.259V272.65L253.589 267.88H254.619V272.6H255.629ZM251.479 272.6H253.359V269.89L251.479 272.6ZM259.245 270.45C259.692 270.45 260.085 270.547 260.425 270.74C260.765 270.927 261.029 271.193 261.215 271.54C261.402 271.88 261.495 272.273 261.495 272.72C261.495 273.187 261.389 273.6 261.175 273.96C260.962 274.313 260.655 274.59 260.255 274.79C259.855 274.983 259.392 275.08 258.865 275.08C258.419 275.08 257.979 275.007 257.545 274.86C257.112 274.707 256.755 274.503 256.475 274.25L256.905 273.31C257.552 273.803 258.212 274.05 258.885 274.05C259.332 274.05 259.672 273.94 259.905 273.72C260.145 273.493 260.265 273.173 260.265 272.76C260.265 272.367 260.142 272.053 259.895 271.82C259.655 271.58 259.332 271.46 258.925 271.46C258.645 271.46 258.382 271.513 258.135 271.62C257.889 271.72 257.672 271.87 257.485 272.07H256.705V267.88H261.165V268.88H257.965V270.82C258.325 270.573 258.752 270.45 259.245 270.45Z" fill="#536383"/>
<g clip-path="url(#clip2)">
<path d="M188 277.108L184.685 273.794C184.03 273.138 183.583 272.303 183.403 271.394C183.222 270.484 183.315 269.542 183.669 268.685C184.024 267.829 184.625 267.097 185.396 266.582C186.167 266.067 187.073 265.792 188 265.792C188.927 265.792 189.833 266.067 190.604 266.582C191.375 267.097 191.976 267.829 192.331 268.685C192.685 269.542 192.778 270.484 192.597 271.394C192.417 272.303 191.97 273.138 191.315 273.794L188 277.108ZM190.578 273.057C191.088 272.547 191.435 271.898 191.576 271.191C191.716 270.483 191.644 269.75 191.368 269.084C191.092 268.418 190.625 267.849 190.025 267.448C189.426 267.047 188.721 266.834 188 266.834C187.279 266.834 186.574 267.047 185.975 267.448C185.375 267.849 184.908 268.418 184.632 269.084C184.356 269.75 184.284 270.483 184.424 271.191C184.565 271.898 184.912 272.547 185.422 273.057L188 275.635L190.578 273.057V273.057ZM188 271.521C187.724 271.521 187.459 271.411 187.263 271.216C187.068 271.02 186.958 270.755 186.958 270.479C186.958 270.203 187.068 269.938 187.263 269.743C187.459 269.547 187.724 269.438 188 269.438C188.276 269.438 188.541 269.547 188.737 269.743C188.932 269.938 189.042 270.203 189.042 270.479C189.042 270.755 188.932 271.02 188.737 271.216C188.541 271.411 188.276 271.521 188 271.521Z" fill="#536383"/>
</g>
<rect x="181" y="250" width="106" height="10" fill="#DBE0E5"/>
<g clip-path="url(#clip3)">
<path d="M155 280C146.157 280 139 272.834 139 264C139 255.157 146.156 248 155 248C163.843 248 171 255.156 171 264C171 272.842 163.833 280 155 280V280Z" fill="#8D4FF8"/>
<path d="M155 267.75C150.344 267.75 145.905 269.785 142.661 274.186C149.121 281.994 161.079 281.928 167.452 274.046C165.878 272.481 162.334 267.75 155 267.75Z" fill="#E8D0FF"/>
<path d="M155 264.938C151.898 264.938 149.375 262.414 149.375 259.312V257.438C149.375 254.336 151.898 251.812 155 251.812C158.102 251.812 160.625 254.336 160.625 257.438V259.312C160.625 262.414 158.102 264.938 155 264.938Z" fill="#E8D0FF"/>
</g>
<rect x="205" y="298" width="213" height="52" rx="4" fill="#F7F9FB"/>
<path d="M278.96 333.95H280.51V335H276.12V333.95H277.68V329.36L276.23 330.23V329.08L278.21 327.88H278.96V333.95ZM281.516 327.88H286.476V328.84L283.246 335H281.866L285.086 328.93H281.516V327.88ZM287.542 330.06H288.942V331.45H287.542V330.06ZM287.542 333.6H288.942V335H287.542V333.6ZM292.502 335.09C291.655 335.09 291.009 334.78 290.562 334.16C290.122 333.533 289.902 332.623 289.902 331.43C289.902 330.257 290.122 329.36 290.562 328.74C291.009 328.12 291.655 327.81 292.502 327.81C293.349 327.81 293.992 328.12 294.432 328.74C294.879 329.353 295.102 330.25 295.102 331.43C295.102 332.617 294.879 333.523 294.432 334.15C293.992 334.777 293.349 335.09 292.502 335.09ZM292.502 334.08C292.962 334.08 293.295 333.87 293.502 333.45C293.715 333.023 293.822 332.35 293.822 331.43C293.822 330.523 293.715 329.863 293.502 329.45C293.295 329.03 292.962 328.82 292.502 328.82C292.042 328.82 291.705 329.03 291.492 329.45C291.285 329.863 291.182 330.523 291.182 331.43C291.182 332.35 291.285 333.023 291.492 333.45C291.705 333.87 292.042 334.08 292.502 334.08ZM298.498 335.09C297.651 335.09 297.005 334.78 296.558 334.16C296.118 333.533 295.898 332.623 295.898 331.43C295.898 330.257 296.118 329.36 296.558 328.74C297.005 328.12 297.651 327.81 298.498 327.81C299.345 327.81 299.988 328.12 300.428 328.74C300.875 329.353 301.098 330.25 301.098 331.43C301.098 332.617 300.875 333.523 300.428 334.15C299.988 334.777 299.345 335.09 298.498 335.09ZM298.498 334.08C298.958 334.08 299.291 333.87 299.498 333.45C299.711 333.023 299.818 332.35 299.818 331.43C299.818 330.523 299.711 329.863 299.498 329.45C299.291 329.03 298.958 328.82 298.498 328.82C298.038 328.82 297.701 329.03 297.488 329.45C297.281 329.863 297.178 330.523 297.178 331.43C297.178 332.35 297.281 333.023 297.488 333.45C297.701 333.87 298.038 334.08 298.498 334.08ZM304.928 332.8V331.8H307.938V332.8H304.928ZM315.327 333.95H316.877V335H312.487V333.95H314.047V329.36L312.597 330.23V329.08L314.577 327.88H315.327V333.95ZM317.883 327.88H322.843V328.84L319.613 335H318.233L321.453 328.93H317.883V327.88ZM323.909 330.06H325.309V331.45H323.909V330.06ZM323.909 333.6H325.309V335H323.909V333.6ZM331.629 332.6V333.61H330.619V335H329.359V333.61H326.259V332.65L329.589 327.88H330.619V332.6H331.629ZM327.479 332.6H329.359V329.89L327.479 332.6ZM335.245 330.45C335.692 330.45 336.085 330.547 336.425 330.74C336.765 330.927 337.029 331.193 337.215 331.54C337.402 331.88 337.495 332.273 337.495 332.72C337.495 333.187 337.389 333.6 337.175 333.96C336.962 334.313 336.655 334.59 336.255 334.79C335.855 334.983 335.392 335.08 334.865 335.08C334.419 335.08 333.979 335.007 333.545 334.86C333.112 334.707 332.755 334.503 332.475 334.25L332.905 333.31C333.552 333.803 334.212 334.05 334.885 334.05C335.332 334.05 335.672 333.94 335.905 333.72C336.145 333.493 336.265 333.173 336.265 332.76C336.265 332.367 336.142 332.053 335.895 331.82C335.655 331.58 335.332 331.46 334.925 331.46C334.645 331.46 334.382 331.513 334.135 331.62C333.889 331.72 333.672 331.87 333.485 332.07H332.705V327.88H337.165V328.88H333.965V330.82C334.325 330.573 334.752 330.45 335.245 330.45Z" fill="#536383"/>
<g clip-path="url(#clip4)">
<path d="M264 337.108L260.685 333.794C260.03 333.138 259.583 332.303 259.403 331.394C259.222 330.484 259.315 329.542 259.669 328.685C260.024 327.829 260.625 327.097 261.396 326.582C262.167 326.067 263.073 325.792 264 325.792C264.927 325.792 265.833 326.067 266.604 326.582C267.375 327.097 267.976 327.829 268.331 328.685C268.685 329.542 268.778 330.484 268.597 331.394C268.417 332.303 267.97 333.138 267.315 333.794L264 337.108ZM266.578 333.057C267.088 332.547 267.435 331.898 267.576 331.191C267.716 330.483 267.644 329.75 267.368 329.084C267.092 328.418 266.625 327.849 266.025 327.448C265.426 327.047 264.721 326.834 264 326.834C263.279 326.834 262.574 327.047 261.975 327.448C261.375 327.849 260.908 328.418 260.632 329.084C260.356 329.75 260.284 330.483 260.424 331.191C260.565 331.898 260.912 332.547 261.422 333.057L264 335.635L266.578 333.057V333.057ZM264 331.521C263.724 331.521 263.459 331.411 263.263 331.216C263.068 331.02 262.958 330.755 262.958 330.479C262.958 330.203 263.068 329.938 263.263 329.743C263.459 329.547 263.724 329.438 264 329.438C264.276 329.438 264.541 329.547 264.737 329.743C264.932 329.938 265.042 330.203 265.042 330.479C265.042 330.755 264.932 331.02 264.737 331.216C264.541 331.411 264.276 331.521 264 331.521Z" fill="#536383"/>
</g>
<rect x="257" y="310" width="106" height="10" fill="#DBE0E5"/>
<g clip-path="url(#clip5)">
<path d="M231 340C222.157 340 215 332.834 215 324C215 315.157 222.156 308 231 308C239.843 308 247 315.156 247 324C247 332.842 239.833 340 231 340V340Z" fill="#192948"/>
<path d="M231 327.75C226.344 327.75 221.905 329.785 218.661 334.186C225.121 341.994 237.079 341.928 243.452 334.046C241.878 332.481 238.334 327.75 231 327.75Z" fill="#DBE0E5"/>
<path d="M231 324.938C227.898 324.938 225.375 322.414 225.375 319.312V317.438C225.375 314.336 227.898 311.812 231 311.812C234.102 311.812 236.625 314.336 236.625 317.438V319.312C236.625 322.414 234.102 324.938 231 324.938Z" fill="#DBE0E5"/>
</g>
<rect x="111" y="118" width="213" height="52" rx="4" fill="#F7F9FB"/>
<path d="M184.96 153.95H186.51V155H182.12V153.95H183.68V149.36L182.23 150.23V149.08L184.21 147.88H184.96V153.95ZM192.756 152.6V153.61H191.746V155H190.486V153.61H187.386V152.65L190.716 147.88H191.746V152.6H192.756ZM188.606 152.6H190.486V149.89L188.606 152.6ZM193.542 150.06H194.942V151.45H193.542V150.06ZM193.542 153.6H194.942V155H193.542V153.6ZM199.602 151.34C200.022 151.453 200.342 151.66 200.562 151.96C200.789 152.26 200.902 152.63 200.902 153.07C200.902 153.69 200.672 154.18 200.212 154.54C199.759 154.9 199.145 155.08 198.372 155.08C197.892 155.08 197.429 155.007 196.982 154.86C196.542 154.713 196.179 154.51 195.892 154.25L196.332 153.31C196.965 153.803 197.629 154.05 198.322 154.05C198.775 154.05 199.112 153.96 199.332 153.78C199.559 153.6 199.672 153.327 199.672 152.96C199.672 152.6 199.559 152.337 199.332 152.17C199.105 151.997 198.755 151.91 198.282 151.91H197.342V150.88H198.112C199.032 150.88 199.492 150.53 199.492 149.83C199.492 149.503 199.392 149.253 199.192 149.08C198.992 148.907 198.712 148.82 198.352 148.82C197.712 148.82 197.072 149.067 196.432 149.56L196.002 148.62C196.289 148.367 196.649 148.167 197.082 148.02C197.522 147.867 197.972 147.79 198.432 147.79C199.132 147.79 199.689 147.963 200.102 148.31C200.522 148.65 200.732 149.107 200.732 149.68C200.725 150.073 200.622 150.417 200.422 150.71C200.229 150.997 199.955 151.207 199.602 151.34ZM204.498 155.09C203.651 155.09 203.005 154.78 202.558 154.16C202.118 153.533 201.898 152.623 201.898 151.43C201.898 150.257 202.118 149.36 202.558 148.74C203.005 148.12 203.651 147.81 204.498 147.81C205.345 147.81 205.988 148.12 206.428 148.74C206.875 149.353 207.098 150.25 207.098 151.43C207.098 152.617 206.875 153.523 206.428 154.15C205.988 154.777 205.345 155.09 204.498 155.09ZM204.498 154.08C204.958 154.08 205.291 153.87 205.498 153.45C205.711 153.023 205.818 152.35 205.818 151.43C205.818 150.523 205.711 149.863 205.498 149.45C205.291 149.03 204.958 148.82 204.498 148.82C204.038 148.82 203.701 149.03 203.488 149.45C203.281 149.863 203.178 150.523 203.178 151.43C203.178 152.35 203.281 153.023 203.488 153.45C203.701 153.87 204.038 154.08 204.498 154.08ZM210.928 152.8V151.8H213.938V152.8H210.928ZM221.327 153.95H222.877V155H218.487V153.95H220.047V149.36L218.597 150.23V149.08L220.577 147.88H221.327V153.95ZM226.743 150.45C227.19 150.45 227.583 150.547 227.923 150.74C228.263 150.927 228.527 151.193 228.713 151.54C228.9 151.88 228.993 152.273 228.993 152.72C228.993 153.187 228.887 153.6 228.673 153.96C228.46 154.313 228.153 154.59 227.753 154.79C227.353 154.983 226.89 155.08 226.363 155.08C225.917 155.08 225.477 155.007 225.043 154.86C224.61 154.707 224.253 154.503 223.973 154.25L224.403 153.31C225.05 153.803 225.71 154.05 226.383 154.05C226.83 154.05 227.17 153.94 227.403 153.72C227.643 153.493 227.763 153.173 227.763 152.76C227.763 152.367 227.64 152.053 227.393 151.82C227.153 151.58 226.83 151.46 226.423 151.46C226.143 151.46 225.88 151.513 225.633 151.62C225.387 151.72 225.17 151.87 224.983 152.07H224.203V147.88H228.663V148.88H225.463V150.82C225.823 150.573 226.25 150.45 226.743 150.45ZM229.909 150.06H231.309V151.45H229.909V150.06ZM229.909 153.6H231.309V155H229.909V153.6ZM235.829 153.95H237.379V155H232.989V153.95H234.549V149.36L233.099 150.23V149.08L235.079 147.88H235.829V153.95ZM241.245 150.45C241.692 150.45 242.085 150.547 242.425 150.74C242.765 150.927 243.029 151.193 243.215 151.54C243.402 151.88 243.495 152.273 243.495 152.72C243.495 153.187 243.389 153.6 243.175 153.96C242.962 154.313 242.655 154.59 242.255 154.79C241.855 154.983 241.392 155.08 240.865 155.08C240.419 155.08 239.979 155.007 239.545 154.86C239.112 154.707 238.755 154.503 238.475 154.25L238.905 153.31C239.552 153.803 240.212 154.05 240.885 154.05C241.332 154.05 241.672 153.94 241.905 153.72C242.145 153.493 242.265 153.173 242.265 152.76C242.265 152.367 242.142 152.053 241.895 151.82C241.655 151.58 241.332 151.46 240.925 151.46C240.645 151.46 240.382 151.513 240.135 151.62C239.889 151.72 239.672 151.87 239.485 152.07H238.705V147.88H243.165V148.88H239.965V150.82C240.325 150.573 240.752 150.45 241.245 150.45Z" fill="#536383"/>
<g clip-path="url(#clip6)">
<path d="M170 157.108L166.685 153.794C166.03 153.138 165.583 152.303 165.403 151.394C165.222 150.484 165.315 149.542 165.669 148.685C166.024 147.829 166.625 147.097 167.396 146.582C168.167 146.067 169.073 145.792 170 145.792C170.927 145.792 171.833 146.067 172.604 146.582C173.375 147.097 173.976 147.829 174.331 148.685C174.685 149.542 174.778 150.484 174.597 151.394C174.417 152.303 173.97 153.138 173.315 153.794L170 157.108ZM172.578 153.057C173.088 152.547 173.435 151.898 173.576 151.191C173.716 150.483 173.644 149.75 173.368 149.084C173.092 148.418 172.625 147.849 172.025 147.448C171.426 147.047 170.721 146.834 170 146.834C169.279 146.834 168.574 147.047 167.975 147.448C167.375 147.849 166.908 148.418 166.632 149.084C166.356 149.75 166.284 150.483 166.424 151.191C166.565 151.898 166.912 152.547 167.422 153.057L170 155.635L172.578 153.057V153.057ZM170 151.521C169.724 151.521 169.459 151.411 169.263 151.216C169.068 151.02 168.958 150.755 168.958 150.479C168.958 150.203 169.068 149.938 169.263 149.743C169.459 149.547 169.724 149.438 170 149.438C170.276 149.438 170.541 149.547 170.737 149.743C170.932 149.938 171.042 150.203 171.042 150.479C171.042 150.755 170.932 151.02 170.737 151.216C170.541 151.411 170.276 151.521 170 151.521Z" fill="#536383"/>
</g>
<rect x="163" y="130" width="106" height="10" fill="#DBE0E5"/>
<g clip-path="url(#clip7)">
<path d="M137 160C128.157 160 121 152.834 121 144C121 135.157 128.156 128 137 128C145.843 128 153 135.156 153 144C153 152.842 145.833 160 137 160V160Z" fill="#1493FF"/>
<path d="M137 147.75C132.344 147.75 127.905 149.785 124.661 154.186C131.121 161.994 143.079 161.928 149.452 154.046C147.878 152.481 144.334 147.75 137 147.75Z" fill="#E3F4FF"/>
<path d="M137 144.938C133.898 144.938 131.375 142.414 131.375 139.312V137.438C131.375 134.336 133.898 131.812 137 131.812C140.102 131.812 142.625 134.336 142.625 137.438V139.312C142.625 142.414 140.102 144.938 137 144.938Z" fill="#E3F4FF"/>
</g>
<path d="M304 152.333C299.398 152.333 295.667 148.602 295.667 144C295.667 139.397 299.398 135.667 304 135.667C308.603 135.667 312.334 139.397 312.334 144C312.334 148.602 308.603 152.333 304 152.333ZM303.169 147.333L309.061 141.441L307.883 140.262L303.169 144.977L300.812 142.619L299.634 143.797L303.169 147.333Z" fill="#00BD66"/>
<path d="M366 212.333C361.398 212.333 357.667 208.602 357.667 204C357.667 199.397 361.398 195.667 366 195.667C370.603 195.667 374.334 199.397 374.334 204C374.334 208.602 370.603 212.333 366 212.333ZM365.169 207.333L371.061 201.441L369.883 200.262L365.169 204.977L362.812 202.619L361.634 203.797L365.169 207.333Z" fill="#00BD66"/>
<path d="M322 272.333C317.398 272.333 313.667 268.602 313.667 264C313.667 259.397 317.398 255.667 322 255.667C326.603 255.667 330.334 259.397 330.334 264C330.334 268.602 326.603 272.333 322 272.333ZM321.169 267.333L327.061 261.441L325.883 260.262L321.169 264.977L318.812 262.619L317.634 263.797L321.169 267.333Z" fill="#00BD66"/>
<path d="M331 365L432 366.667V366.667C432 368.508 430.508 370 428.667 370H333C331.895 370 331 369.105 331 368V365Z" fill="#192948"/>
<path d="M330.947 367.622C329.665 367.682 328.577 366.69 328.517 365.408L324.029 269.032C323.969 267.749 324.96 266.661 326.243 266.601V266.601L330.947 367.622V367.622Z" fill="#192948"/>
<path d="M453 103C472.882 103 489 86.8823 489 67C489 47.1177 472.882 31 453 31C433.118 31 417 47.1177 417 67C417 86.8823 433.118 103 453 103Z" fill="#E7FFE8"/>
<path d="M453.409 40.8182C454.538 40.8182 455.454 39.9024 455.454 38.7727C455.454 37.6431 454.538 36.7273 453.409 36.7273C452.279 36.7273 451.363 37.6431 451.363 38.7727C451.363 39.9024 452.279 40.8182 453.409 40.8182Z" fill="#00BD66"/>
<path d="M424.773 69.4546C425.903 69.4546 426.818 68.5388 426.818 67.4091C426.818 66.2794 425.903 65.3636 424.773 65.3636C423.643 65.3636 422.728 66.2794 422.728 67.4091C422.728 68.5388 423.643 69.4546 424.773 69.4546Z" fill="#00BD66"/>
<path d="M481.227 69.4546C482.357 69.4546 483.273 68.5388 483.273 67.4091C483.273 66.2794 482.357 65.3636 481.227 65.3636C480.097 65.3636 479.182 66.2794 479.182 67.4091C479.182 68.5388 480.097 69.4546 481.227 69.4546Z" fill="#00BD66"/>
<path d="M453.409 97.2727C454.538 97.2727 455.454 96.3569 455.454 95.2272C455.454 94.0975 454.538 93.1818 453.409 93.1818C452.279 93.1818 451.363 94.0975 451.363 95.2272C451.363 96.3569 452.279 97.2727 453.409 97.2727Z" fill="#00BD66"/>
<path fill-rule="evenodd" clip-rule="evenodd" d="M453.409 42.4546L454.636 66.1819H452.182L453.409 42.4546Z" fill="#192948"/>
<path fill-rule="evenodd" clip-rule="evenodd" d="M465.022 79.0216L452.534 68.4551L454.455 66.5339L465.022 79.0216Z" fill="#192948"/>
<path d="M453.41 70.2727C454.991 70.2727 456.273 68.9906 456.273 67.409C456.273 65.8275 454.991 64.5454 453.41 64.5454C451.828 64.5454 450.546 65.8275 450.546 67.409C450.546 68.9906 451.828 70.2727 453.41 70.2727Z" fill="#192948"/>
<defs>
<clipPath id="clip0">
<path d="M225.75 204.75H238.25V217.25H225.75V204.75Z" fill="white"/>
</clipPath>
<clipPath id="clip1">
<rect x="183" y="188" width="32" height="32" fill="white"/>
</clipPath>
<clipPath id="clip2">
<path d="M181.75 264.75H194.25V277.25H181.75V264.75Z" fill="white"/>
</clipPath>
<clipPath id="clip3">
<rect x="139" y="248" width="32" height="32" fill="white"/>
</clipPath>
<clipPath id="clip4">
<path d="M257.75 324.75H270.25V337.25H257.75V324.75Z" fill="white"/>
</clipPath>
<clipPath id="clip5">
<rect x="215" y="308" width="32" height="32" fill="white"/>
</clipPath>
<clipPath id="clip6">
<path d="M163.75 144.75H176.25V157.25H163.75V144.75Z" fill="white"/>
</clipPath>
<clipPath id="clip7">
<rect x="121" y="128" width="32" height="32" fill="white"/>
</clipPath>
</defs>
</svg>
