<svg width="788" height="640" viewBox="0 0 788 640" fill="none" xmlns="http://www.w3.org/2000/svg">
<rect width="788" height="640" fill="white"/>
<g opacity="0.7">
<path opacity="0.7" d="M111.577 294.432C125.538 293.705 142.804 301.885 144.294 317.117C145.375 328.185 145.04 339.221 146.715 350.272C148.054 359.104 150.885 367.582 154.748 375.627C158.461 383.364 166.165 389.949 168.168 398.214C169.445 403.48 168.731 410.888 166.969 416.039C164.828 422.302 165.966 421.807 170.233 427.062C178.596 437.36 186.125 447.921 191.45 460.221C199.12 477.937 204.149 498.645 201.302 518.038C200.94 520.501 200.51 529.338 197.132 529.956C193.359 530.646 195.123 525.592 195.325 523.959C196.608 513.542 197.749 504.436 196.2 493.856C190.225 453.034 161.049 426.139 142.052 391.492C141.008 389.706 138.803 385.451 137.27 382.644C134.85 378.213 132.417 369.781 129.141 366.495C122.971 360.305 128.643 372.75 129.846 375.125C131.366 378.13 133.038 381.324 134.596 383.958C141.723 396.163 149.679 409.487 157.04 422.069C125.203 429.35 102.782 390.932 94.2384 365.675C87.1993 344.866 78.7771 296.213 111.577 294.432Z" fill="#69A1AC"/>
<path d="M298.637 255.751C275.271 257.607 260.271 273.043 253.288 294.633C249.525 306.268 249.094 318.22 247.002 330.177C243.856 348.166 237.087 361.798 223.858 374.614C219.76 378.583 216.741 382.659 214.594 387.019C210.333 391.372 206.624 396.298 203.899 402.321C200.418 410.012 199.433 419.241 203.452 426.909C204.532 428.97 207.228 433.109 210.022 434.989C199.562 457.292 193.81 481.719 194.459 506.115C194.85 520.841 195.568 535.574 196.406 550.282C196.632 554.231 197.916 560.753 199.846 554.129C201.612 548.071 199.397 538.561 199.192 532.232C198.195 501.4 197.343 473.366 210.02 444.56C211.35 441.541 212.759 438.546 214.227 435.575C214.313 435.525 214.393 435.465 214.474 435.406C214.53 435.449 214.581 435.496 214.637 435.538C214.731 435.371 214.859 435.172 215.009 434.949C215.43 434.514 215.798 433.964 216.147 433.351C217.272 431.791 218.544 429.958 218.551 428.955C218.551 428.947 218.547 428.935 218.547 428.927C226.395 416.101 235.384 403.983 244.566 392.101C244.497 392.187 254.525 378.518 252.974 386.077C252.227 389.72 244.851 396.658 241.871 400.516C235.281 409.101 227.543 419.978 221.112 430.497C220.247 430.994 219.024 433.439 218.14 435.26C217.651 436.182 217.196 437.112 216.748 437.922C239.535 445.46 257.26 430.277 269.347 412.619C269.362 412.598 269.374 412.577 269.388 412.556C273.066 407.676 276.834 402.831 281.541 398.974C289.395 392.538 297.805 391.403 307.064 388.235C332.315 379.598 343.05 346.836 346.46 322.526C350.307 295.101 331.49 253.047 298.637 255.751Z" fill="#89C5CC"/>
<path opacity="0.7" d="M252.594 178.878C228.64 203.901 217.068 238.608 207.905 271.237C197.671 307.68 190.911 344.685 190.652 382.574C190.482 407.468 189.807 432.517 191.254 457.381C191.768 466.212 192.645 475.058 194.039 483.794C194.154 484.512 197.274 504.017 200.259 499.472C201.957 496.887 197.061 479.238 196.691 476.298C194.61 459.741 194.127 443.062 194.228 426.386C194.395 398.928 193.589 371.611 196.361 344.255C196.774 340.17 197.102 335.88 198.068 331.885C199.094 327.637 197.787 329.491 201.13 327.809C204.378 326.174 208.392 326.408 211.762 324.357C225.13 316.22 231.968 295.321 237.291 281.608C243.378 265.926 247.078 249.204 250.033 232.701C252.203 220.577 253.754 208.525 254.632 196.244C254.909 192.374 254.925 188.326 255.683 184.521C255.887 183.494 256.912 181.678 256.874 180.769C256.796 178.845 255.639 177.713 255.544 176.096C254.541 177.002 253.557 177.93 252.594 178.878Z" fill="#89C5CC"/>
<path opacity="0.7" d="M121.884 521.954C121.884 563.388 155.193 596.976 196.281 596.976C237.37 596.976 270.679 563.388 270.679 521.954" fill="#89C5CC"/>
<path opacity="0.7" d="M247.404 447.022C265.928 445.649 286.616 460.67 295.551 476.301C302.754 488.904 301.541 505.453 297.092 518.843C294.112 527.807 287.61 540.587 276.766 540.712C263.199 540.868 262.545 524.014 262.283 514.162C261.934 501.064 260.287 489.653 250.018 480.725C247.625 478.645 245.009 476.815 242.592 474.764C238.806 471.554 234.623 468.267 234.135 462.955C233.462 455.628 237.577 454.309 243.86 455.671C244.931 455.902 255.721 460.768 254.123 456.922C253.636 455.747 251.854 454.816 249.606 454.119C243.788 453.483 236.85 452.745 234.854 453.186C213.327 457.933 204.946 487.903 202.72 506.945C202.48 509 202.285 511.062 202.116 513.127L198.161 513.128C198.436 508.14 198.798 503.162 199.627 498.23C202.8 479.369 212.72 451.666 234.478 448.605C235.281 448.49 238.233 448.471 241.81 448.682C243.505 447.73 245.404 447.154 247.404 447.022Z" fill="#69A1AC"/>
</g>
<path d="M196 613L245.143 375H260L204.571 613H196Z" fill="#FFD938"/>
<path fill-rule="evenodd" clip-rule="evenodd" d="M599.87 249.923C605.521 243.29 609.346 235.16 608.707 226.051C606.865 199.804 570.329 205.578 563.222 218.825C556.115 232.072 556.96 265.674 566.145 268.042C569.808 268.986 577.611 266.673 585.553 261.886L580.568 297.154H610.003L599.87 249.923Z" fill="#B28B67"/>
<path fill-rule="evenodd" clip-rule="evenodd" d="M621.54 217.314C622.49 216.372 623.009 215.027 623.458 213.75C623.923 212.424 624.376 211.084 624.685 209.703C625.303 206.945 625.309 203.772 623.341 201.63C621.763 199.913 619.395 199.142 617.21 198.975C615.753 198.863 614.258 199.067 612.862 199.526C611.477 199.981 610.284 200.888 608.941 201.451C608.89 198.479 608.381 195.368 606.872 192.83C605.421 190.388 603.107 189.017 600.472 188.655C597.768 188.282 595.097 188.915 592.676 190.225C592.07 190.553 591.469 190.896 590.894 191.285C590.413 191.611 589.913 192.003 589.348 192.135C588.719 192.283 588.407 191.919 587.998 191.46C587.518 190.922 586.978 190.447 586.406 190.027C583.877 188.168 580.559 187.404 577.63 188.518C576.28 189.032 574.968 189.903 574.052 191.104C573.236 192.175 572.653 193.874 571.527 194.62C571.049 194.936 570.711 194.517 570.276 194.207C569.622 193.741 568.998 193.227 568.337 192.773C567.407 192.137 566.401 191.66 565.323 191.411C563.745 191.046 561.565 191.132 561.114 193.198C560.945 193.974 561.075 194.804 561.129 195.586C561.204 196.66 561.283 197.733 561.376 198.806C561.447 199.62 561.536 200.406 561.69 201.206C561.772 201.632 562.028 202.426 561.846 202.853C561.617 203.386 560.563 203.083 560.113 203.102C559.224 203.138 558.33 203.294 557.508 203.674C556.871 203.969 556.201 204.402 555.932 205.133C555.766 205.581 555.81 206.042 555.888 206.504C555.982 207.058 555.874 207.352 555.805 207.911C554.61 207.323 550.47 206.016 549.95 208.157C549.776 208.87 550.171 209.675 550.472 210.276C551.001 211.331 551.694 212.294 552.402 213.213C553.879 215.131 555.643 216.784 557.54 218.199C555.317 219.187 554.737 222.103 556.662 223.839C557.512 224.606 558.654 224.777 559.726 224.728C560.119 224.71 560.684 224.559 560.993 224.628C561.159 224.664 561.337 224.805 561.567 224.821C563.08 224.925 564.788 224.56 566.267 224.224C568.903 223.626 571.398 222.377 573.435 220.476C573.958 219.988 574.39 219.707 575.093 219.714C575.71 219.721 576.314 219.89 576.93 219.905C578.56 219.947 580.029 219.15 581.542 218.62C581.635 220.664 582.217 222.916 583.054 224.755C583.735 226.255 585.16 226.473 586.559 226.604C591.034 227.025 595.524 226.555 600.005 226.562C595.667 227.542 591.186 227.946 586.887 229.1C584.944 229.621 586.428 230.931 587.259 231.838C588.627 233.333 589.644 235.186 590.349 237.137C592.471 234.371 596.221 232.549 599.543 233.399C603.214 234.337 605.799 239.302 603.452 242.871C602.089 244.943 599.628 245.742 597.58 246.633C599.178 248.294 599.564 250.747 600.526 252.813C601 253.832 601.666 254.984 602.726 255.339C603.119 255.471 603.579 255.482 603.888 255.802C604.272 256.198 604.363 256.641 604.853 256.981C606.807 258.339 609.859 258.235 611.591 256.462C613.157 254.859 612.75 252.321 611.442 250.696C613.524 249.828 617.317 248.712 616.49 245.468C621.002 245.168 631.957 237.85 625.901 232.503C629.225 230.625 632.278 226.034 630.143 221.988C628.499 218.872 624.676 217.479 621.54 217.314Z" fill="#191847"/>
<path fill-rule="evenodd" clip-rule="evenodd" d="M460.436 424.405C450.334 418.339 433.385 426.132 433.397 434.808C433.431 460.765 457.12 583.101 458.357 590.834C459.594 598.567 472.843 600.61 473.615 590.859C474.842 575.344 477.123 521.634 474.841 496.773C473.899 486.511 472.885 476.738 471.886 468.019C484.316 490.467 503.54 522.606 529.558 564.437L543.683 557.984C532.591 521.441 523.496 495.642 516.398 480.589C504.244 454.813 492.848 432.739 488.052 424.964C480.507 412.733 467.375 417.001 460.436 424.405Z" fill="#B28B67"/>
<path fill-rule="evenodd" clip-rule="evenodd" d="M542.673 537.69L494.194 422.849C482.581 404.167 450.019 426.65 453.98 437.485C462.971 462.085 508.7 541.724 511.379 549.053L542.673 537.69Z" fill="#192948"/>
<path fill-rule="evenodd" clip-rule="evenodd" d="M545.365 550.742C548.384 553.228 550.349 555.259 551.258 556.833C552.364 558.749 553.658 561.728 555.142 565.771C552.92 567.054 532.951 578.583 495.235 600.358C490.707 596.11 490.002 592.813 493.119 590.466C496.236 588.119 498.808 586.14 500.836 584.528L521.513 556.04C521.911 555.492 522.678 555.37 523.226 555.768C523.236 555.774 523.245 555.781 523.254 555.789L527.55 559.097C531.492 558.753 534.433 558.02 536.374 556.9C537.952 555.989 539.762 554.094 541.805 551.216L541.805 551.216C542.59 550.111 544.121 549.852 545.226 550.636C545.273 550.67 545.32 550.705 545.365 550.742Z" fill="#192948"/>
<path fill-rule="evenodd" clip-rule="evenodd" d="M658.365 457C670.866 457 681 467.134 681 479.635V580.078C681 592.578 670.866 602.712 658.365 602.712H530.635C518.134 602.712 508 592.578 508 580.078V479.635C508 467.134 518.134 457 530.635 457H658.365ZM644.875 472.903C626.75 472.903 546.611 472.903 546.611 472.903C526 472.903 523.952 477 523.952 495.562V564.151C523.952 580.078 530.635 586.81 546.611 586.81H642.389C660.5 586.81 665.048 582 665.048 564.151V495.562C665.048 479.635 663 472.903 644.875 472.903Z" fill="#FFD938"/>
<path fill-rule="evenodd" clip-rule="evenodd" d="M476.716 584.635C478.088 588.297 478.774 591.038 478.774 592.856C478.774 595.068 478.406 598.295 477.669 602.538C475.103 602.538 452.046 602.538 408.495 602.538C406.698 596.596 407.735 593.387 411.608 592.913C415.481 592.44 418.699 592.012 421.26 591.63L453.412 577.297C454.03 577.021 454.755 577.299 455.031 577.918C455.036 577.928 455.04 577.939 455.045 577.95L457.111 582.963C460.697 584.636 463.61 585.472 465.852 585.472C467.673 585.472 470.188 584.736 473.397 583.265L473.397 583.265C474.629 582.701 476.085 583.241 476.649 584.473C476.673 584.526 476.696 584.58 476.716 584.635Z" fill="#192948"/>
<path fill-rule="evenodd" clip-rule="evenodd" d="M429.998 443.632C429.998 476.214 445.472 552.218 445.482 559.392L478.774 559.418C473.901 491.601 472.173 457.327 473.59 456.597C475.716 455.501 560.73 465.085 586.228 465.085C622.995 465.085 638.204 441.899 639.438 398.948H566.604C551.775 400.535 474.422 416.137 445.694 421.501C433.396 423.797 429.998 434.656 429.998 443.632Z" fill="#536383"/>
<path fill-rule="evenodd" clip-rule="evenodd" d="M555.258 322.541L512.688 299.226C505.609 290.82 498.634 284.291 491.764 279.64C489.664 278.763 485.993 278.233 489.426 284.327C492.86 290.421 496.197 296.985 494.448 298.863C492.699 300.74 488.337 298.118 486.25 301.237C484.859 303.317 492.311 306.602 508.606 311.093L539.538 339.414L555.258 322.541ZM488.586 342.213L469.887 331.941C467.263 321.957 464.127 316.934 460.478 316.872C457.675 315.567 462.556 328.183 457.242 327.089C451.928 325.995 438.959 316.348 436.724 318.307C433.418 321.204 436.366 330.101 439.839 334.527C446.331 342.799 451.706 345.628 464.991 349.332C471.937 351.269 479.447 355.151 487.521 360.978L488.586 342.213Z" fill="#B28B67"/>
<path fill-rule="evenodd" clip-rule="evenodd" d="M575.991 317.348C561.08 317.19 541.197 314.041 519.981 300.574L511.649 319.155C526.283 333.678 546.86 345.61 564.852 345.105C579.031 344.707 586.277 327.556 575.991 317.348Z" fill="#1C75DF"/>
<path fill-rule="evenodd" clip-rule="evenodd" d="M555.914 347.145C540.085 351.093 513.54 346.437 476.279 333.179C467.037 352.299 462.764 365.93 463.462 374.073C495.426 390.769 522.822 398.214 545.392 398.705C544.675 412.098 546.305 424.841 551.781 436.485C563.039 460.423 628.96 438.254 651.125 442.617C665.005 397.54 638.167 379.22 638.146 350.377C638.122 318.791 612.76 270.172 609.028 270.172H574.998C573.121 294.295 563.67 320.88 555.914 347.145Z" fill="#1493FF"/>
<path d="M469 613L419.857 375H405L460.429 613H469Z" fill="#FFD938"/>
<path d="M212.478 372.392C212.231 371.155 213.178 370 214.44 370H450.56C451.822 370 452.769 371.155 452.522 372.392L451.322 378.392C451.135 379.327 450.314 380 449.36 380H215.64C214.686 380 213.865 379.327 213.678 378.392L212.478 372.392Z" fill="#FFD938"/>
<rect x="187" y="192" width="261.297" height="63.7907" rx="4" fill="#F7F9FB"/>
<path d="M277.625 235.862H279.485V237.122H274.217V235.862H276.089V230.354L274.349 231.398V230.018L276.725 228.578H277.625V235.862ZM284.196 231.638C284.7 231.638 285.148 231.754 285.54 231.986C285.94 232.218 286.252 232.542 286.476 232.958C286.7 233.374 286.812 233.85 286.812 234.386C286.812 234.93 286.688 235.418 286.44 235.85C286.2 236.282 285.86 236.622 285.42 236.87C284.988 237.11 284.496 237.23 283.944 237.23C282.864 237.23 282.032 236.866 281.448 236.138C280.864 235.402 280.572 234.358 280.572 233.006C280.572 232.062 280.708 231.25 280.98 230.57C281.26 229.89 281.66 229.37 282.18 229.01C282.708 228.65 283.332 228.47 284.052 228.47C284.564 228.47 285.06 228.558 285.54 228.734C286.028 228.902 286.452 229.146 286.812 229.466L286.284 230.594C285.532 230.002 284.808 229.706 284.112 229.706C283.48 229.706 282.992 229.974 282.648 230.51C282.304 231.046 282.124 231.814 282.108 232.814C282.292 232.454 282.572 232.17 282.948 231.962C283.324 231.746 283.74 231.638 284.196 231.638ZM283.872 236.006C284.312 236.006 284.664 235.862 284.928 235.574C285.2 235.286 285.336 234.906 285.336 234.434C285.336 233.962 285.2 233.586 284.928 233.306C284.664 233.018 284.308 232.874 283.86 232.874C283.412 232.874 283.048 233.018 282.768 233.306C282.488 233.594 282.348 233.97 282.348 234.434C282.348 234.898 282.488 235.278 282.768 235.574C283.056 235.862 283.424 236.006 283.872 236.006ZM287.924 231.194H289.604V232.862H287.924V231.194ZM287.924 235.442H289.604V237.122H287.924V235.442ZM293.875 237.23C292.859 237.23 292.083 236.858 291.547 236.114C291.019 235.362 290.755 234.27 290.755 232.838C290.755 231.43 291.019 230.354 291.547 229.61C292.083 228.866 292.859 228.494 293.875 228.494C294.891 228.494 295.663 228.866 296.191 229.61C296.727 230.346 296.995 231.422 296.995 232.838C296.995 234.262 296.727 235.35 296.191 236.102C295.663 236.854 294.891 237.23 293.875 237.23ZM293.875 236.018C294.427 236.018 294.827 235.766 295.075 235.262C295.331 234.75 295.459 233.942 295.459 232.838C295.459 231.75 295.331 230.958 295.075 230.462C294.827 229.958 294.427 229.706 293.875 229.706C293.323 229.706 292.919 229.958 292.663 230.462C292.415 230.958 292.291 231.75 292.291 232.838C292.291 233.942 292.415 234.75 292.663 235.262C292.919 235.766 293.323 236.018 293.875 236.018ZM301.071 237.23C300.055 237.23 299.279 236.858 298.743 236.114C298.215 235.362 297.951 234.27 297.951 232.838C297.951 231.43 298.215 230.354 298.743 229.61C299.279 228.866 300.055 228.494 301.071 228.494C302.087 228.494 302.859 228.866 303.387 229.61C303.923 230.346 304.191 231.422 304.191 232.838C304.191 234.262 303.923 235.35 303.387 236.102C302.859 236.854 302.087 237.23 301.071 237.23ZM301.071 236.018C301.623 236.018 302.023 235.766 302.271 235.262C302.527 234.75 302.655 233.942 302.655 232.838C302.655 231.75 302.527 230.958 302.271 230.462C302.023 229.958 301.623 229.706 301.071 229.706C300.519 229.706 300.115 229.958 299.859 230.462C299.611 230.958 299.487 231.75 299.487 232.838C299.487 233.942 299.611 234.75 299.859 235.262C300.115 235.766 300.519 236.018 301.071 236.018ZM308.787 234.482V233.282H312.399V234.482H308.787ZM321.266 235.862H323.126V237.122H317.858V235.862H319.73V230.354L317.99 231.398V230.018L320.366 228.578H321.266V235.862ZM327.837 231.638C328.341 231.638 328.789 231.754 329.181 231.986C329.581 232.218 329.893 232.542 330.117 232.958C330.341 233.374 330.453 233.85 330.453 234.386C330.453 234.93 330.329 235.418 330.081 235.85C329.841 236.282 329.501 236.622 329.061 236.87C328.629 237.11 328.137 237.23 327.585 237.23C326.505 237.23 325.673 236.866 325.089 236.138C324.505 235.402 324.213 234.358 324.213 233.006C324.213 232.062 324.349 231.25 324.621 230.57C324.901 229.89 325.301 229.37 325.821 229.01C326.349 228.65 326.973 228.47 327.693 228.47C328.205 228.47 328.701 228.558 329.181 228.734C329.669 228.902 330.093 229.146 330.453 229.466L329.925 230.594C329.173 230.002 328.449 229.706 327.753 229.706C327.121 229.706 326.633 229.974 326.289 230.51C325.945 231.046 325.765 231.814 325.749 232.814C325.933 232.454 326.213 232.17 326.589 231.962C326.965 231.746 327.381 231.638 327.837 231.638ZM327.513 236.006C327.953 236.006 328.305 235.862 328.569 235.574C328.841 235.286 328.977 234.906 328.977 234.434C328.977 233.962 328.841 233.586 328.569 233.306C328.305 233.018 327.949 232.874 327.501 232.874C327.053 232.874 326.689 233.018 326.409 233.306C326.129 233.594 325.989 233.97 325.989 234.434C325.989 234.898 326.129 235.278 326.409 235.574C326.697 235.862 327.065 236.006 327.513 236.006ZM331.564 231.194H333.244V232.862H331.564V231.194ZM331.564 235.442H333.244V237.122H331.564V235.442ZM340.828 234.242V235.454H339.616V237.122H338.104V235.454H334.384V234.302L338.38 228.578H339.616V234.242H340.828ZM335.848 234.242H338.104V230.99L335.848 234.242ZM345.167 231.662C345.703 231.662 346.175 231.778 346.583 232.01C346.991 232.234 347.307 232.554 347.531 232.97C347.755 233.378 347.867 233.85 347.867 234.386C347.867 234.946 347.739 235.442 347.483 235.874C347.227 236.298 346.859 236.63 346.379 236.87C345.899 237.102 345.343 237.218 344.711 237.218C344.175 237.218 343.647 237.13 343.127 236.954C342.607 236.77 342.179 236.526 341.843 236.222L342.359 235.094C343.135 235.686 343.927 235.982 344.735 235.982C345.271 235.982 345.679 235.85 345.959 235.586C346.247 235.314 346.391 234.93 346.391 234.434C346.391 233.962 346.243 233.586 345.947 233.306C345.659 233.018 345.271 232.874 344.783 232.874C344.447 232.874 344.131 232.938 343.835 233.066C343.539 233.186 343.279 233.366 343.055 233.606H342.119V228.578H347.471V229.778H343.631V232.106C344.063 231.81 344.575 231.662 345.167 231.662Z" fill="#536383"/>
<path d="M259.379 239.976L255.313 235.91C254.509 235.106 253.961 234.081 253.739 232.966C253.518 231.85 253.631 230.694 254.067 229.643C254.502 228.592 255.239 227.694 256.185 227.062C257.13 226.431 258.242 226.093 259.379 226.093C260.517 226.093 261.628 226.431 262.574 227.062C263.52 227.694 264.257 228.592 264.692 229.643C265.127 230.694 265.241 231.85 265.019 232.966C264.797 234.081 264.25 235.106 263.445 235.91L259.379 239.976ZM262.542 235.006C263.167 234.381 263.593 233.584 263.766 232.716C263.938 231.849 263.85 230.95 263.511 230.132C263.173 229.315 262.6 228.617 261.864 228.125C261.129 227.634 260.264 227.372 259.379 227.372C258.495 227.372 257.63 227.634 256.895 228.125C256.159 228.617 255.586 229.315 255.247 230.132C254.909 230.95 254.82 231.849 254.993 232.716C255.165 233.584 255.591 234.381 256.217 235.006L259.379 238.169L262.542 235.006V235.006ZM259.379 233.122C259.04 233.122 258.715 232.987 258.476 232.747C258.236 232.508 258.101 232.183 258.101 231.844C258.101 231.505 258.236 231.18 258.476 230.94C258.715 230.7 259.04 230.566 259.379 230.566C259.718 230.566 260.043 230.7 260.283 230.94C260.522 231.18 260.657 231.505 260.657 231.844C260.657 232.183 260.522 232.508 260.283 232.747C260.043 232.987 259.718 233.122 259.379 233.122Z" fill="#536383"/>
<rect x="250.793" y="206.721" width="130.035" height="12.2674" fill="#DBE0E5"/>
<g clip-path="url(#clip0)">
<path d="M218.896 243.523C208.049 243.523 199.269 234.732 199.269 223.895C199.269 213.047 208.047 204.268 218.896 204.268C229.745 204.268 238.524 213.046 238.524 223.895C238.524 234.743 229.732 243.523 218.896 243.523V243.523Z" fill="#00BD66"/>
<path d="M218.896 228.496C213.185 228.496 207.739 230.992 203.76 236.39C211.685 245.97 226.354 245.888 234.172 236.219C232.241 234.299 227.893 228.496 218.896 228.496Z" fill="#E7FFE8"/>
<path d="M218.897 225.046C215.091 225.046 211.996 221.95 211.996 218.145V215.845C211.996 212.04 215.091 208.945 218.897 208.945C222.701 208.945 225.797 212.04 225.797 215.845V218.145C225.797 221.95 222.701 225.046 218.897 225.046Z" fill="#E7FFE8"/>
</g>
<rect x="133" y="265" width="261.297" height="63.7907" rx="4" fill="#F7F9FB"/>
<path d="M223.625 308.862H225.485V310.122H220.217V308.862H222.089V303.354L220.349 304.398V303.018L222.725 301.578H223.625V308.862ZM226.692 301.578H232.644V302.73L228.768 310.122H227.112L230.976 302.838H226.692V301.578ZM233.924 304.194H235.604V305.862H233.924V304.194ZM233.924 308.442H235.604V310.122H233.924V308.442ZM239.875 310.23C238.859 310.23 238.083 309.858 237.547 309.114C237.019 308.362 236.755 307.27 236.755 305.838C236.755 304.43 237.019 303.354 237.547 302.61C238.083 301.866 238.859 301.494 239.875 301.494C240.891 301.494 241.663 301.866 242.191 302.61C242.727 303.346 242.995 304.422 242.995 305.838C242.995 307.262 242.727 308.35 242.191 309.102C241.663 309.854 240.891 310.23 239.875 310.23ZM239.875 309.018C240.427 309.018 240.827 308.766 241.075 308.262C241.331 307.75 241.459 306.942 241.459 305.838C241.459 304.75 241.331 303.958 241.075 303.462C240.827 302.958 240.427 302.706 239.875 302.706C239.323 302.706 238.919 302.958 238.663 303.462C238.415 303.958 238.291 304.75 238.291 305.838C238.291 306.942 238.415 307.75 238.663 308.262C238.919 308.766 239.323 309.018 239.875 309.018ZM247.071 310.23C246.055 310.23 245.279 309.858 244.743 309.114C244.215 308.362 243.951 307.27 243.951 305.838C243.951 304.43 244.215 303.354 244.743 302.61C245.279 301.866 246.055 301.494 247.071 301.494C248.087 301.494 248.859 301.866 249.387 302.61C249.923 303.346 250.191 304.422 250.191 305.838C250.191 307.262 249.923 308.35 249.387 309.102C248.859 309.854 248.087 310.23 247.071 310.23ZM247.071 309.018C247.623 309.018 248.023 308.766 248.271 308.262C248.527 307.75 248.655 306.942 248.655 305.838C248.655 304.75 248.527 303.958 248.271 303.462C248.023 302.958 247.623 302.706 247.071 302.706C246.519 302.706 246.115 302.958 245.859 303.462C245.611 303.958 245.487 304.75 245.487 305.838C245.487 306.942 245.611 307.75 245.859 308.262C246.115 308.766 246.519 309.018 247.071 309.018ZM254.787 307.482V306.282H258.399V307.482H254.787ZM267.266 308.862H269.126V310.122H263.858V308.862H265.73V303.354L263.99 304.398V303.018L266.366 301.578H267.266V308.862ZM270.333 301.578H276.285V302.73L272.409 310.122H270.753L274.617 302.838H270.333V301.578ZM277.564 304.194H279.244V305.862H277.564V304.194ZM277.564 308.442H279.244V310.122H277.564V308.442ZM286.828 307.242V308.454H285.616V310.122H284.104V308.454H280.384V307.302L284.38 301.578H285.616V307.242H286.828ZM281.848 307.242H284.104V303.99L281.848 307.242ZM291.167 304.662C291.703 304.662 292.175 304.778 292.583 305.01C292.991 305.234 293.307 305.554 293.531 305.97C293.755 306.378 293.867 306.85 293.867 307.386C293.867 307.946 293.739 308.442 293.483 308.874C293.227 309.298 292.859 309.63 292.379 309.87C291.899 310.102 291.343 310.218 290.711 310.218C290.175 310.218 289.647 310.13 289.127 309.954C288.607 309.77 288.179 309.526 287.843 309.222L288.359 308.094C289.135 308.686 289.927 308.982 290.735 308.982C291.271 308.982 291.679 308.85 291.959 308.586C292.247 308.314 292.391 307.93 292.391 307.434C292.391 306.962 292.243 306.586 291.947 306.306C291.659 306.018 291.271 305.874 290.783 305.874C290.447 305.874 290.131 305.938 289.835 306.066C289.539 306.186 289.279 306.366 289.055 306.606H288.119V301.578H293.471V302.778H289.631V305.106C290.063 304.81 290.575 304.662 291.167 304.662Z" fill="#536383"/>
<path d="M205.379 312.976L201.313 308.91C200.509 308.106 199.961 307.081 199.739 305.966C199.518 304.85 199.631 303.694 200.067 302.643C200.502 301.592 201.239 300.694 202.185 300.062C203.13 299.431 204.242 299.093 205.379 299.093C206.517 299.093 207.628 299.431 208.574 300.062C209.52 300.694 210.257 301.592 210.692 302.643C211.127 303.694 211.241 304.85 211.019 305.966C210.797 307.081 210.25 308.106 209.445 308.91L205.379 312.976ZM208.542 308.006C209.167 307.381 209.593 306.584 209.766 305.716C209.938 304.849 209.85 303.95 209.511 303.132C209.173 302.315 208.6 301.617 207.864 301.125C207.129 300.634 206.264 300.372 205.379 300.372C204.495 300.372 203.63 300.634 202.895 301.125C202.159 301.617 201.586 302.315 201.247 303.132C200.909 303.95 200.82 304.849 200.993 305.716C201.165 306.584 201.591 307.381 202.217 308.006L205.379 311.169L208.542 308.006V308.006ZM205.379 306.122C205.04 306.122 204.715 305.987 204.476 305.747C204.236 305.508 204.101 305.183 204.101 304.844C204.101 304.505 204.236 304.18 204.476 303.94C204.715 303.7 205.04 303.566 205.379 303.566C205.718 303.566 206.043 303.7 206.283 303.94C206.522 304.18 206.657 304.505 206.657 304.844C206.657 305.183 206.522 305.508 206.283 305.747C206.043 305.987 205.718 306.122 205.379 306.122Z" fill="#536383"/>
<rect x="196.791" y="279.721" width="130.035" height="12.2674" fill="#DBE0E5"/>
<g clip-path="url(#clip1)">
<path d="M164.895 316.523C154.048 316.523 145.268 307.732 145.268 296.895C145.268 286.047 154.046 277.268 164.895 277.268C175.744 277.268 184.523 286.046 184.523 296.895C184.523 307.743 175.731 316.523 164.895 316.523V316.523Z" fill="#8D4FF8"/>
<path d="M164.895 301.496C159.184 301.496 153.739 303.992 149.759 309.39C157.684 318.97 172.353 318.888 180.171 309.219C178.24 307.299 173.892 301.496 164.895 301.496Z" fill="#E8D0FF"/>
<path d="M164.896 298.046C161.09 298.046 157.995 294.95 157.995 291.145V288.845C157.995 285.04 161.09 281.945 164.896 281.945C168.7 281.945 171.796 285.04 171.796 288.845V291.145C171.796 294.95 168.7 298.046 164.896 298.046Z" fill="#E8D0FF"/>
</g>
<rect x="111" y="118" width="261.297" height="63.7907" rx="4" fill="#F7F9FB"/>
<path d="M201.625 161.862H203.485V163.122H198.217V161.862H200.089V156.354L198.349 157.398V156.018L200.725 154.578H201.625V161.862ZM210.98 160.242V161.454H209.768V163.122H208.256V161.454H204.536V160.302L208.532 154.578H209.768V160.242H210.98ZM206 160.242H208.256V156.99L206 160.242ZM211.924 157.194H213.604V158.862H211.924V157.194ZM211.924 161.442H213.604V163.122H211.924V161.442ZM219.195 158.73C219.699 158.866 220.083 159.114 220.347 159.474C220.619 159.834 220.755 160.278 220.755 160.806C220.755 161.55 220.479 162.138 219.927 162.57C219.383 163.002 218.647 163.218 217.719 163.218C217.143 163.218 216.587 163.13 216.051 162.954C215.523 162.778 215.087 162.534 214.743 162.222L215.271 161.094C216.031 161.686 216.827 161.982 217.659 161.982C218.203 161.982 218.607 161.874 218.871 161.658C219.143 161.442 219.279 161.114 219.279 160.674C219.279 160.242 219.143 159.926 218.871 159.726C218.599 159.518 218.179 159.414 217.611 159.414H216.483V158.178H217.407C218.511 158.178 219.063 157.758 219.063 156.918C219.063 156.526 218.943 156.226 218.703 156.018C218.463 155.81 218.127 155.706 217.695 155.706C216.927 155.706 216.159 156.002 215.391 156.594L214.875 155.466C215.219 155.162 215.651 154.922 216.171 154.746C216.699 154.562 217.239 154.47 217.791 154.47C218.631 154.47 219.299 154.678 219.795 155.094C220.299 155.502 220.551 156.05 220.551 156.738C220.543 157.21 220.419 157.622 220.179 157.974C219.947 158.318 219.619 158.57 219.195 158.73ZM225.071 163.23C224.055 163.23 223.279 162.858 222.743 162.114C222.215 161.362 221.951 160.27 221.951 158.838C221.951 157.43 222.215 156.354 222.743 155.61C223.279 154.866 224.055 154.494 225.071 154.494C226.087 154.494 226.859 154.866 227.387 155.61C227.923 156.346 228.191 157.422 228.191 158.838C228.191 160.262 227.923 161.35 227.387 162.102C226.859 162.854 226.087 163.23 225.071 163.23ZM225.071 162.018C225.623 162.018 226.023 161.766 226.271 161.262C226.527 160.75 226.655 159.942 226.655 158.838C226.655 157.75 226.527 156.958 226.271 156.462C226.023 155.958 225.623 155.706 225.071 155.706C224.519 155.706 224.115 155.958 223.859 156.462C223.611 156.958 223.487 157.75 223.487 158.838C223.487 159.942 223.611 160.75 223.859 161.262C224.115 161.766 224.519 162.018 225.071 162.018ZM232.787 160.482V159.282H236.399V160.482H232.787ZM245.266 161.862H247.126V163.122H241.858V161.862H243.73V156.354L241.99 157.398V156.018L244.366 154.578H245.266V161.862ZM251.765 157.662C252.301 157.662 252.773 157.778 253.181 158.01C253.589 158.234 253.905 158.554 254.129 158.97C254.353 159.378 254.465 159.85 254.465 160.386C254.465 160.946 254.337 161.442 254.081 161.874C253.825 162.298 253.457 162.63 252.977 162.87C252.497 163.102 251.941 163.218 251.309 163.218C250.773 163.218 250.245 163.13 249.725 162.954C249.205 162.77 248.777 162.526 248.441 162.222L248.957 161.094C249.733 161.686 250.525 161.982 251.333 161.982C251.869 161.982 252.277 161.85 252.557 161.586C252.845 161.314 252.989 160.93 252.989 160.434C252.989 159.962 252.841 159.586 252.545 159.306C252.257 159.018 251.869 158.874 251.381 158.874C251.045 158.874 250.729 158.938 250.433 159.066C250.137 159.186 249.877 159.366 249.653 159.606H248.717V154.578H254.069V155.778H250.229V158.106C250.661 157.81 251.173 157.662 251.765 157.662ZM255.564 157.194H257.244V158.862H255.564V157.194ZM255.564 161.442H257.244V163.122H255.564V161.442ZM262.668 161.862H264.528V163.122H259.26V161.862H261.132V156.354L259.392 157.398V156.018L261.768 154.578H262.668V161.862ZM269.167 157.662C269.703 157.662 270.175 157.778 270.583 158.01C270.991 158.234 271.307 158.554 271.531 158.97C271.755 159.378 271.867 159.85 271.867 160.386C271.867 160.946 271.739 161.442 271.483 161.874C271.227 162.298 270.859 162.63 270.379 162.87C269.899 163.102 269.343 163.218 268.711 163.218C268.175 163.218 267.647 163.13 267.127 162.954C266.607 162.77 266.179 162.526 265.843 162.222L266.359 161.094C267.135 161.686 267.927 161.982 268.735 161.982C269.271 161.982 269.679 161.85 269.959 161.586C270.247 161.314 270.391 160.93 270.391 160.434C270.391 159.962 270.243 159.586 269.947 159.306C269.659 159.018 269.271 158.874 268.783 158.874C268.447 158.874 268.131 158.938 267.835 159.066C267.539 159.186 267.279 159.366 267.055 159.606H266.119V154.578H271.471V155.778H267.631V158.106C268.063 157.81 268.575 157.662 269.167 157.662Z" fill="#536383"/>
<path d="M183.379 165.976L179.313 161.91C178.509 161.106 177.961 160.081 177.739 158.966C177.518 157.85 177.631 156.694 178.067 155.643C178.502 154.592 179.239 153.694 180.185 153.062C181.13 152.431 182.242 152.093 183.379 152.093C184.517 152.093 185.628 152.431 186.574 153.062C187.52 153.694 188.257 154.592 188.692 155.643C189.127 156.694 189.241 157.85 189.019 158.966C188.797 160.081 188.25 161.106 187.445 161.91L183.379 165.976ZM186.542 161.006C187.167 160.381 187.593 159.584 187.766 158.716C187.938 157.849 187.85 156.95 187.511 156.132C187.173 155.315 186.6 154.617 185.864 154.125C185.129 153.634 184.264 153.372 183.379 153.372C182.495 153.372 181.63 153.634 180.895 154.125C180.159 154.617 179.586 155.315 179.247 156.132C178.909 156.95 178.82 157.849 178.993 158.716C179.165 159.584 179.591 160.381 180.217 161.006L183.379 164.169L186.542 161.006V161.006ZM183.379 159.122C183.04 159.122 182.715 158.987 182.476 158.747C182.236 158.508 182.101 158.183 182.101 157.844C182.101 157.505 182.236 157.18 182.476 156.94C182.715 156.7 183.04 156.566 183.379 156.566C183.718 156.566 184.043 156.7 184.283 156.94C184.522 157.18 184.657 157.505 184.657 157.844C184.657 158.183 184.522 158.508 184.283 158.747C184.043 158.987 183.718 159.122 183.379 159.122Z" fill="#536383"/>
<rect x="174.793" y="132.721" width="130.035" height="12.2674" fill="#DBE0E5"/>
<g clip-path="url(#clip2)">
<path d="M142.895 169.523C132.048 169.523 123.268 160.732 123.268 149.895C123.268 139.047 132.046 130.267 142.895 130.267C153.744 130.267 162.523 139.046 162.523 149.895C162.523 160.742 153.731 169.523 142.895 169.523V169.523Z" fill="#1493FF"/>
<path d="M142.895 154.495C137.184 154.495 131.739 156.992 127.759 162.39C135.684 171.97 150.353 171.888 158.171 162.219C156.24 160.299 151.892 154.495 142.895 154.495Z" fill="#E3F4FF"/>
<path d="M142.896 151.045C139.09 151.045 135.995 147.95 135.995 144.145V141.845C135.995 138.04 139.09 134.944 142.896 134.944C146.7 134.944 149.796 138.04 149.796 141.845V144.145C149.796 147.95 146.7 151.045 142.896 151.045Z" fill="#E3F4FF"/>
</g>
<path d="M346 158.333C341.398 158.333 337.667 154.602 337.667 150C337.667 145.397 341.398 141.667 346 141.667C350.603 141.667 354.334 145.397 354.334 150C354.334 154.602 350.603 158.333 346 158.333ZM345.169 153.333L351.061 147.441L349.883 146.262L345.169 150.977L342.812 148.619L341.634 149.797L345.169 153.333Z" fill="#00BD66"/>
<path d="M422 231.333C417.398 231.333 413.667 227.602 413.667 223C413.667 218.397 417.398 214.667 422 214.667C426.603 214.667 430.334 218.397 430.334 223C430.334 227.602 426.603 231.333 422 231.333ZM421.169 226.333L427.061 220.441L425.883 219.262L421.169 223.977L418.812 221.619L417.634 222.797L421.169 226.333Z" fill="#00BD66"/>
<path d="M368 305.333C363.398 305.333 359.667 301.602 359.667 297C359.667 292.397 363.398 288.667 368 288.667C372.603 288.667 376.334 292.397 376.334 297C376.334 301.602 372.603 305.333 368 305.333ZM367.169 300.333L373.061 294.441L371.883 293.262L367.169 297.977L364.812 295.619L363.634 296.797L367.169 300.333Z" fill="#00BD66"/>
<path d="M331 365L432 366.667V366.667C432 368.508 430.508 370 428.667 370H333C331.895 370 331 369.105 331 368V365Z" fill="#192948"/>
<path d="M330.947 367.622C329.665 367.682 328.577 366.69 328.517 365.408L324.029 269.032C323.969 267.749 324.96 266.661 326.243 266.601V266.601L330.947 367.622V367.622Z" fill="#192948"/>
<path d="M453 103C472.882 103 489 86.8823 489 67C489 47.1177 472.882 31 453 31C433.118 31 417 47.1177 417 67C417 86.8823 433.118 103 453 103Z" fill="#E7FFE8"/>
<path d="M453.409 40.8182C454.538 40.8182 455.454 39.9024 455.454 38.7727C455.454 37.6431 454.538 36.7273 453.409 36.7273C452.279 36.7273 451.363 37.6431 451.363 38.7727C451.363 39.9024 452.279 40.8182 453.409 40.8182Z" fill="#00BD66"/>
<path d="M424.773 69.4546C425.903 69.4546 426.818 68.5388 426.818 67.4091C426.818 66.2794 425.903 65.3636 424.773 65.3636C423.643 65.3636 422.728 66.2794 422.728 67.4091C422.728 68.5388 423.643 69.4546 424.773 69.4546Z" fill="#00BD66"/>
<path d="M481.227 69.4546C482.357 69.4546 483.273 68.5388 483.273 67.4091C483.273 66.2794 482.357 65.3636 481.227 65.3636C480.097 65.3636 479.182 66.2794 479.182 67.4091C479.182 68.5388 480.097 69.4546 481.227 69.4546Z" fill="#00BD66"/>
<path d="M453.409 97.2727C454.538 97.2727 455.454 96.3569 455.454 95.2272C455.454 94.0975 454.538 93.1818 453.409 93.1818C452.279 93.1818 451.363 94.0975 451.363 95.2272C451.363 96.3569 452.279 97.2727 453.409 97.2727Z" fill="#00BD66"/>
<path fill-rule="evenodd" clip-rule="evenodd" d="M453.409 42.4546L454.636 66.1819H452.182L453.409 42.4546Z" fill="#192948"/>
<path fill-rule="evenodd" clip-rule="evenodd" d="M465.022 79.0216L452.534 68.4551L454.455 66.5339L465.022 79.0216Z" fill="#192948"/>
<path d="M453.41 70.2727C454.991 70.2727 456.273 68.9906 456.273 67.409C456.273 65.8275 454.991 64.5454 453.41 64.5454C451.828 64.5454 450.546 65.8275 450.546 67.409C450.546 68.9906 451.828 70.2727 453.41 70.2727Z" fill="#192948"/>
<defs>
<clipPath id="clip0">
<rect x="199.269" y="204.268" width="39.2558" height="39.2558" fill="white"/>
</clipPath>
<clipPath id="clip1">
<rect x="145.268" y="277.268" width="39.2558" height="39.2558" fill="white"/>
</clipPath>
<clipPath id="clip2">
<rect x="123.268" y="130.267" width="39.2558" height="39.2558" fill="white"/>
</clipPath>
</defs>
</svg>
