<svg width="788" height="832" viewBox="0 0 788 832" fill="none" xmlns="http://www.w3.org/2000/svg">
<g clip-path="url(#clip0)">
<rect width="788" height="832" fill="white"/>
<path d="M307.198 92.1786H120.871C115.114 92.1786 110.447 96.8476 110.447 102.607V475.429C110.447 481.188 115.114 485.857 120.871 485.857H307.198C312.955 485.857 317.622 481.188 317.622 475.429V102.607C317.622 96.8476 312.955 92.1786 307.198 92.1786Z" fill="#DBE0E5"/>
<path d="M213.384 461.089C224.178 461.089 232.928 452.335 232.928 441.536C232.928 430.737 224.178 421.982 213.384 421.982C202.589 421.982 193.839 430.737 193.839 441.536C193.839 452.335 202.589 461.089 213.384 461.089Z" fill="white"/>
<path d="M196.445 118.25C197.884 118.25 199.051 117.083 199.051 115.643C199.051 114.203 197.884 113.036 196.445 113.036C195.006 113.036 193.839 114.203 193.839 115.643C193.839 117.083 195.006 118.25 196.445 118.25Z" fill="white"/>
<path d="M230.322 113.036H208.171C206.732 113.036 205.565 114.203 205.565 115.643C205.565 117.083 206.732 118.25 208.171 118.25H230.322C231.761 118.25 232.928 117.083 232.928 115.643C232.928 114.203 231.761 113.036 230.322 113.036Z" fill="white"/>
<path d="M294.169 128.679H133.901C131.023 128.679 128.689 131.013 128.689 133.893V193.857C128.689 196.737 131.023 199.071 133.901 199.071H294.169C297.047 199.071 299.38 196.737 299.38 193.857V133.893C299.38 131.013 297.047 128.679 294.169 128.679Z" fill="white"/>
<path d="M231.625 149.797H144.325C142.166 149.797 140.416 151.547 140.416 153.707V156.445C140.416 158.605 142.166 160.355 144.325 160.355H231.625C233.784 160.355 235.534 158.605 235.534 156.445V153.707C235.534 151.547 233.784 149.797 231.625 149.797Z" fill="#DBE0E5"/>
<path d="M200.353 167.395H144.325C142.166 167.395 140.416 169.146 140.416 171.305V174.043C140.416 176.203 142.166 177.954 144.325 177.954H200.353C202.512 177.954 204.262 176.203 204.262 174.043V171.305C204.262 169.146 202.512 167.395 200.353 167.395Z" fill="#DBE0E5"/>
<path d="M281.138 173C286.176 173 290.259 168.915 290.259 163.875C290.259 158.835 286.176 154.75 281.138 154.75C276.101 154.75 272.018 158.835 272.018 163.875C272.018 168.915 276.101 173 281.138 173Z" fill="#DDE3E9"/>
<path d="M281.138 167.786C283.297 167.786 285.047 166.035 285.047 163.875C285.047 161.715 283.297 159.964 281.138 159.964C278.98 159.964 277.229 161.715 277.229 163.875C277.229 166.035 278.98 167.786 281.138 167.786Z" fill="#F2F2F2"/>
<path d="M294.169 209.5H133.901C131.023 209.5 128.689 211.835 128.689 214.714V259.036C128.689 261.916 131.023 264.25 133.901 264.25H294.169C297.047 264.25 299.38 261.916 299.38 259.036V214.714C299.38 211.835 297.047 209.5 294.169 209.5Z" fill="white"/>
<path d="M270.715 225.925H183.415C181.256 225.925 179.506 227.676 179.506 229.836V230.227C179.506 232.387 181.256 234.138 183.415 234.138H270.715C272.874 234.138 274.624 232.387 274.624 230.227V229.836C274.624 227.676 272.874 225.925 270.715 225.925Z" fill="#DBE0E5"/>
<path d="M239.443 239.613H183.415C181.256 239.613 179.506 241.363 179.506 243.523V243.914C179.506 246.074 181.256 247.825 183.415 247.825H239.443C241.602 247.825 243.352 246.074 243.352 243.914V243.523C243.352 241.363 241.602 239.613 239.443 239.613Z" fill="#DBE0E5"/>
<path d="M156.052 252.518C164.687 252.518 171.688 245.514 171.688 236.875C171.688 228.236 164.687 221.232 156.052 221.232C147.416 221.232 140.416 228.236 140.416 236.875C140.416 245.514 147.416 252.518 156.052 252.518Z" fill="#9AA8BD"/>
<path d="M294.169 274.679H133.901C131.023 274.679 128.689 277.013 128.689 279.893V324.214C128.689 327.094 131.023 329.429 133.901 329.429H294.169C297.047 329.429 299.38 327.094 299.38 324.214V279.893C299.38 277.013 297.047 274.679 294.169 274.679Z" fill="white"/>
<path d="M231.625 291.104H144.325C142.166 291.104 140.416 292.855 140.416 295.014V295.405C140.416 297.565 142.166 299.316 144.325 299.316H231.625C233.784 299.316 235.534 297.565 235.534 295.405V295.014C235.534 292.855 233.784 291.104 231.625 291.104Z" fill="#DBE0E5"/>
<path d="M200.353 304.791H144.325C142.166 304.791 140.416 306.542 140.416 308.702V309.093C140.416 311.253 142.166 313.004 144.325 313.004H200.353C202.512 313.004 204.262 311.253 204.262 309.093V308.702C204.262 306.542 202.512 304.791 200.353 304.791Z" fill="#DBE0E5"/>
<path d="M281.138 311.179C286.176 311.179 290.259 307.093 290.259 302.054C290.259 297.014 286.176 292.929 281.138 292.929C276.101 292.929 272.018 297.014 272.018 302.054C272.018 307.093 276.101 311.179 281.138 311.179Z" fill="#DDE3E9"/>
<path d="M281.138 305.964C283.297 305.964 285.047 304.213 285.047 302.054C285.047 299.894 283.297 298.143 281.138 298.143C278.98 298.143 277.229 299.894 277.229 302.054C277.229 304.213 278.98 305.964 281.138 305.964Z" fill="#F2F2F2"/>
<path d="M294.169 339.857H133.901C131.023 339.857 128.689 342.192 128.689 345.071V389.393C128.689 392.273 131.023 394.607 133.901 394.607H294.169C297.047 394.607 299.38 392.273 299.38 389.393V345.071C299.38 342.192 297.047 339.857 294.169 339.857Z" fill="white"/>
<path d="M270.715 356.282H183.415C181.256 356.282 179.506 358.033 179.506 360.193V360.584C179.506 362.744 181.256 364.495 183.415 364.495H270.715C272.874 364.495 274.624 362.744 274.624 360.584V360.193C274.624 358.033 272.874 356.282 270.715 356.282Z" fill="#DBE0E5"/>
<path d="M239.443 369.97H183.415C181.256 369.97 179.506 371.721 179.506 373.88V374.272C179.506 376.431 181.256 378.182 183.415 378.182H239.443C241.602 378.182 243.352 376.431 243.352 374.272V373.88C243.352 371.721 241.602 369.97 239.443 369.97Z" fill="#DBE0E5"/>
<path d="M156.052 382.875C164.687 382.875 171.688 375.871 171.688 367.232C171.688 358.593 164.687 351.589 156.052 351.589C147.416 351.589 140.416 358.593 140.416 367.232C140.416 375.871 147.416 382.875 156.052 382.875Z" fill="#9AA8BD"/>
<path d="M622.521 140.411H206.868C201.111 140.411 196.444 145.08 196.444 150.839V581.018C196.444 586.778 201.111 591.447 206.868 591.447H622.521C628.277 591.447 632.944 586.778 632.944 581.018V150.839C632.944 145.08 628.277 140.411 622.521 140.411Z" fill="#F7F9FB"/>
<path d="M601.673 196.464H531.312C525.555 196.464 520.888 201.133 520.888 206.893V291.625C520.888 297.385 525.555 302.054 531.312 302.054H601.673C607.43 302.054 612.097 297.385 612.097 291.625V206.893C612.097 201.133 607.43 196.464 601.673 196.464Z" fill="white"/>
<path d="M566.492 257.732C578.006 257.732 587.34 248.394 587.34 236.875C587.34 225.356 578.006 216.018 566.492 216.018C554.978 216.018 545.645 225.356 545.645 236.875C545.645 248.394 554.978 257.732 566.492 257.732Z" fill="#DBE0E5"/>
<path d="M595.158 262.947H537.827C535.668 262.947 533.918 264.697 533.918 266.857C533.918 269.017 535.668 270.768 537.827 270.768H595.158C597.317 270.768 599.067 269.017 599.067 266.857C599.067 264.697 597.317 262.947 595.158 262.947Z" fill="#F7F9FB"/>
<path d="M584.734 275.982H548.251C546.092 275.982 544.342 277.733 544.342 279.893C544.342 282.053 546.092 283.804 548.251 283.804H584.734C586.893 283.804 588.643 282.053 588.643 279.893C588.643 277.733 586.893 275.982 584.734 275.982Z" fill="#F7F9FB"/>
<path fill-rule="evenodd" clip-rule="evenodd" d="M206.868 140.411H622.521C628.277 140.411 632.944 145.08 632.944 150.839V175.607H196.444V150.839C196.444 145.08 201.111 140.411 206.868 140.411Z" fill="#536383"/>
<path d="M213.383 163.875C216.261 163.875 218.595 161.541 218.595 158.661C218.595 155.781 216.261 153.447 213.383 153.447C210.504 153.447 208.171 155.781 208.171 158.661C208.171 161.541 210.504 163.875 213.383 163.875Z" fill="#FF5533"/>
<path d="M229.019 163.875C231.897 163.875 234.23 161.541 234.23 158.661C234.23 155.781 231.897 153.447 229.019 153.447C226.14 153.447 223.807 155.781 223.807 158.661C223.807 161.541 226.14 163.875 229.019 163.875Z" fill="#FFD938"/>
<path d="M244.654 163.875C247.533 163.875 249.866 161.541 249.866 158.661C249.866 155.781 247.533 153.447 244.654 153.447C241.776 153.447 239.442 155.781 239.442 158.661C239.442 161.541 241.776 163.875 244.654 163.875Z" fill="#00BD66"/>
<path d="M601.673 312.482H531.312C525.555 312.482 520.888 317.151 520.888 322.911V554.947C520.888 560.706 525.555 565.375 531.312 565.375H601.673C607.43 565.375 612.097 560.706 612.097 554.947V322.911C612.097 317.151 607.43 312.482 601.673 312.482Z" fill="white"/>
<path d="M583.431 335.947H549.554C546.675 335.947 544.342 338.281 544.342 341.161V364.625C544.342 367.505 546.675 369.839 549.554 369.839H583.431C586.31 369.839 588.643 367.505 588.643 364.625V341.161C588.643 338.281 586.31 335.947 583.431 335.947Z" fill="#536383"/>
<path d="M583.431 380.268H549.554C546.675 380.268 544.342 382.602 544.342 385.482V407.643C544.342 410.523 546.675 412.857 549.554 412.857H583.431C586.31 412.857 588.643 410.523 588.643 407.643V385.482C588.643 382.602 586.31 380.268 583.431 380.268Z" fill="#9AA8BD"/>
<path d="M583.431 423.286H549.554C546.675 423.286 544.342 425.62 544.342 428.5V450.661C544.342 453.541 546.675 455.875 549.554 455.875H583.431C586.31 455.875 588.643 453.541 588.643 450.661V428.5C588.643 425.62 586.31 423.286 583.431 423.286Z" fill="#DBE0E5"/>
<path d="M583.431 509.322H549.554C546.675 509.322 544.342 511.656 544.342 514.536V536.697C544.342 539.576 546.675 541.911 549.554 541.911H583.431C586.31 541.911 588.643 539.576 588.643 536.697V514.536C588.643 511.656 586.31 509.322 583.431 509.322Z" fill="#F7F9FB"/>
<path d="M583.431 466.304H549.554C546.675 466.304 544.342 468.638 544.342 471.518V493.679C544.342 496.558 546.675 498.893 549.554 498.893H583.431C586.31 498.893 588.643 496.558 588.643 493.679V471.518C588.643 468.638 586.31 466.304 583.431 466.304Z" fill="#F7F9FB"/>
<path d="M505.252 197.768H222.504C219.625 197.768 217.292 200.102 217.292 202.982V253.822C217.292 256.701 219.625 259.036 222.504 259.036H505.252C508.13 259.036 510.464 256.701 510.464 253.822V202.982C510.464 200.102 508.13 197.768 505.252 197.768Z" fill="white"/>
<path d="M442.708 216.148H232.928C230.769 216.148 229.019 217.899 229.019 220.059V221.428C229.019 223.588 230.769 225.338 232.928 225.338H442.708C444.867 225.338 446.617 223.588 446.617 221.428V220.059C446.617 217.899 444.867 216.148 442.708 216.148Z" fill="#DBE0E5"/>
<path d="M371.169 231.465H232.928C230.769 231.465 229.019 233.216 229.019 235.376V236.745C229.019 238.905 230.769 240.655 232.928 240.655H371.169C373.328 240.655 375.078 238.905 375.078 236.745V235.376C375.078 233.216 373.328 231.465 371.169 231.465Z" fill="#DBE0E5"/>
<path d="M479.133 237.527C484.17 237.527 488.253 233.441 488.253 228.402C488.253 223.362 484.17 219.277 479.133 219.277C474.095 219.277 470.012 223.362 470.012 228.402C470.012 233.441 474.095 237.527 479.133 237.527Z" fill="#DBE0E5"/>
<path d="M479.133 232.313C481.292 232.313 483.042 230.562 483.042 228.402C483.042 226.242 481.292 224.491 479.133 224.491C476.974 224.491 475.224 226.242 475.224 228.402C475.224 230.562 476.974 232.313 479.133 232.313Z" fill="#F7F9FB"/>
<path d="M505.252 269.464H222.504C219.625 269.464 217.292 271.799 217.292 274.679V315.089C217.292 317.969 219.625 320.304 222.504 320.304H505.252C508.13 320.304 510.464 317.969 510.464 315.089V274.679C510.464 271.799 508.13 269.464 505.252 269.464Z" fill="white"/>
<path d="M442.806 284.716H232.83C230.725 284.716 229.019 286.423 229.019 288.529C229.019 290.635 230.725 292.342 232.83 292.342H442.806C444.911 292.342 446.617 290.635 446.617 288.529C446.617 286.423 444.911 284.716 442.806 284.716Z" fill="#DBE0E5"/>
<path d="M371.267 297.426H232.83C230.725 297.426 229.019 299.133 229.019 301.239C229.019 303.345 230.725 305.052 232.83 305.052H371.267C373.371 305.052 375.078 303.345 375.078 301.239C375.078 299.133 373.371 297.426 371.267 297.426Z" fill="#DBE0E5"/>
<path d="M479.133 304.009C484.17 304.009 488.253 299.924 488.253 294.884C488.253 289.844 484.17 285.759 479.133 285.759C474.095 285.759 470.012 289.844 470.012 294.884C470.012 299.924 474.095 304.009 479.133 304.009Z" fill="#DBE0E5"/>
<path d="M479.133 298.795C481.292 298.795 483.042 297.044 483.042 294.884C483.042 292.724 481.292 290.973 479.133 290.973C476.974 290.973 475.224 292.724 475.224 294.884C475.224 297.044 476.974 298.795 479.133 298.795Z" fill="#F7F9FB"/>
<path d="M505.252 330.732H222.504C219.625 330.732 217.292 333.067 217.292 335.946V376.357C217.292 379.237 219.625 381.571 222.504 381.571H505.252C508.13 381.571 510.464 379.237 510.464 376.357V335.946C510.464 333.067 508.13 330.732 505.252 330.732Z" fill="white"/>
<path d="M442.806 345.984H232.83C230.725 345.984 229.019 347.691 229.019 349.797C229.019 351.903 230.725 353.61 232.83 353.61H442.806C444.911 353.61 446.617 351.903 446.617 349.797C446.617 347.691 444.911 345.984 442.806 345.984Z" fill="#DBE0E5"/>
<path d="M371.267 358.694H232.83C230.725 358.694 229.019 360.401 229.019 362.507C229.019 364.613 230.725 366.32 232.83 366.32H371.267C373.371 366.32 375.078 364.613 375.078 362.507C375.078 360.401 373.371 358.694 371.267 358.694Z" fill="#DBE0E5"/>
<path d="M479.133 365.277C484.17 365.277 488.253 361.191 488.253 356.152C488.253 351.112 484.17 347.027 479.133 347.027C474.095 347.027 470.012 351.112 470.012 356.152C470.012 361.191 474.095 365.277 479.133 365.277Z" fill="#DBE0E5"/>
<path d="M479.133 360.063C481.292 360.063 483.042 358.312 483.042 356.152C483.042 353.992 481.292 352.241 479.133 352.241C476.974 352.241 475.224 353.992 475.224 356.152C475.224 358.312 476.974 360.063 479.133 360.063Z" fill="#536383"/>
<path d="M505.252 514.536H222.504C219.625 514.536 217.292 516.87 217.292 519.75V560.161C217.292 563.041 219.625 565.375 222.504 565.375H505.252C508.13 565.375 510.464 563.041 510.464 560.161V519.75C510.464 516.87 508.13 514.536 505.252 514.536Z" fill="white"/>
<path d="M442.806 529.788H232.83C230.725 529.788 229.019 531.495 229.019 533.601C229.019 535.706 230.725 537.413 232.83 537.413H442.806C444.911 537.413 446.617 535.706 446.617 533.601C446.617 531.495 444.911 529.788 442.806 529.788Z" fill="#DBE0E5"/>
<path d="M371.267 542.497H232.83C230.725 542.497 229.019 544.205 229.019 546.31C229.019 548.416 230.725 550.123 232.83 550.123H371.267C373.371 550.123 375.078 548.416 375.078 546.31C375.078 544.205 373.371 542.497 371.267 542.497Z" fill="#DBE0E5"/>
<path d="M479.133 549.081C484.17 549.081 488.253 544.995 488.253 539.955C488.253 534.916 484.17 530.83 479.133 530.83C474.095 530.83 470.012 534.916 470.012 539.955C470.012 544.995 474.095 549.081 479.133 549.081Z" fill="#DBE0E5"/>
<path d="M479.133 543.866C481.292 543.866 483.042 542.115 483.042 539.956C483.042 537.796 481.292 536.045 479.133 536.045C476.974 536.045 475.224 537.796 475.224 539.956C475.224 542.115 476.974 543.866 479.133 543.866Z" fill="#F7F9FB"/>
<path d="M505.252 453.268H222.504C219.625 453.268 217.292 455.602 217.292 458.482V498.893C217.292 501.773 219.625 504.107 222.504 504.107H505.252C508.13 504.107 510.464 501.773 510.464 498.893V458.482C510.464 455.602 508.13 453.268 505.252 453.268Z" fill="white"/>
<path d="M442.806 468.52H232.83C230.725 468.52 229.019 470.227 229.019 472.333C229.019 474.439 230.725 476.146 232.83 476.146H442.806C444.911 476.146 446.617 474.439 446.617 472.333C446.617 470.227 444.911 468.52 442.806 468.52Z" fill="#DBE0E5"/>
<path d="M371.267 481.23H232.83C230.725 481.23 229.019 482.937 229.019 485.043C229.019 487.148 230.725 488.855 232.83 488.855H371.267C373.371 488.855 375.078 487.148 375.078 485.043C375.078 482.937 373.371 481.23 371.267 481.23Z" fill="#DBE0E5"/>
<path d="M479.133 487.813C484.17 487.813 488.253 483.727 488.253 478.688C488.253 473.648 484.17 469.563 479.133 469.563C474.095 469.563 470.012 473.648 470.012 478.688C470.012 483.727 474.095 487.813 479.133 487.813Z" fill="#DBE0E5"/>
<path d="M479.133 482.598C481.292 482.598 483.042 480.847 483.042 478.688C483.042 476.528 481.292 474.777 479.133 474.777C476.974 474.777 475.224 476.528 475.224 478.688C475.224 480.847 476.974 482.598 479.133 482.598Z" fill="#F7F9FB"/>
<path d="M505.252 392H222.504C219.625 392 217.292 394.335 217.292 397.214V437.625C217.292 440.505 219.625 442.839 222.504 442.839H505.252C508.13 442.839 510.464 440.505 510.464 437.625V397.214C510.464 394.335 508.13 392 505.252 392Z" fill="white"/>
<path d="M442.806 407.252H232.83C230.725 407.252 229.019 408.959 229.019 411.065C229.019 413.171 230.725 414.878 232.83 414.878H442.806C444.911 414.878 446.617 413.171 446.617 411.065C446.617 408.959 444.911 407.252 442.806 407.252Z" fill="#DBE0E5"/>
<path d="M371.267 419.962H232.83C230.725 419.962 229.019 421.669 229.019 423.775C229.019 425.881 230.725 427.588 232.83 427.588H371.267C373.371 427.588 375.078 425.881 375.078 423.775C375.078 421.669 373.371 419.962 371.267 419.962Z" fill="#DBE0E5"/>
<path d="M479.133 426.545C484.17 426.545 488.253 422.459 488.253 417.42C488.253 412.38 484.17 408.295 479.133 408.295C474.095 408.295 470.012 412.38 470.012 417.42C470.012 422.459 474.095 426.545 479.133 426.545Z" fill="#DBE0E5"/>
<path d="M479.133 421.33C481.292 421.33 483.042 419.58 483.042 417.42C483.042 415.26 481.292 413.509 479.133 413.509C476.974 413.509 475.224 415.26 475.224 417.42C475.224 419.58 476.974 421.33 479.133 421.33Z" fill="#F7F9FB"/>
<path d="M600.37 637.071C600.37 634.912 598.62 633.161 596.461 633.161C594.302 633.161 592.552 634.912 592.552 637.071V661.839C592.552 663.999 594.302 665.75 596.461 665.75C598.62 665.75 600.37 663.999 600.37 661.839V637.071Z" fill="#DBE0E5"/>
<path d="M618.612 616.214C618.612 614.054 616.862 612.304 614.703 612.304C612.544 612.304 610.794 614.054 610.794 616.214V661.839C610.794 663.999 612.544 665.75 614.703 665.75C616.862 665.75 618.612 663.999 618.612 661.839V616.214Z" fill="#DBE0E5"/>
<path d="M636.853 605.786C636.853 603.626 635.103 601.875 632.944 601.875C630.785 601.875 629.035 603.626 629.035 605.786V661.839C629.035 663.999 630.785 665.75 632.944 665.75C635.103 665.75 636.853 663.999 636.853 661.839V605.786Z" fill="#DBE0E5"/>
<path d="M655.095 616.214C655.095 614.054 653.345 612.304 651.186 612.304C649.027 612.304 647.277 614.054 647.277 616.214V661.839C647.277 663.999 649.027 665.75 651.186 665.75C653.345 665.75 655.095 663.999 655.095 661.839V616.214Z" fill="#DBE0E5"/>
<path d="M673.336 595.357C673.336 593.197 671.586 591.446 669.428 591.446C667.269 591.446 665.519 593.197 665.519 595.357V661.839C665.519 663.999 667.269 665.75 669.428 665.75C671.586 665.75 673.336 663.999 673.336 661.839V595.357Z" fill="#1493FF"/>
<path fill-rule="evenodd" clip-rule="evenodd" d="M533.984 628.603C532.058 630.642 529.33 631.922 526.295 631.922C520.464 631.922 515.738 627.224 515.738 621.428C515.738 615.633 520.464 610.935 526.295 610.935V591.446C509.708 591.446 496.131 604.941 496.131 621.428C496.131 637.916 509.708 651.411 526.295 651.411C535.008 651.411 542.882 647.747 548.25 641.918L533.984 628.603Z" fill="#DBE0E5"/>
<path fill-rule="evenodd" clip-rule="evenodd" d="M526.1 591.446V610.935C531.893 610.935 536.589 615.633 536.589 621.428H556.068C556.068 604.941 542.579 591.446 526.1 591.446Z" fill="#00BD66"/>
<path fill-rule="evenodd" clip-rule="evenodd" d="M536.618 621.428C536.618 624.759 535.05 627.72 532.614 629.632L544.597 644.893C551.572 639.429 556.068 630.96 556.068 621.428H536.618Z" fill="#FFD938"/>
<path d="M447.921 187.339H256.382V341.161H447.921V187.339Z" fill="#E8D0FF"/>
<path fill-rule="evenodd" clip-rule="evenodd" d="M385.199 257.391C391.479 270.074 389.579 301.62 380.825 303.542C377.333 304.308 370.037 301.877 362.691 297.116L366.245 330.42L338.438 329.448L349.558 285.402C344.437 278.982 341.09 271.217 341.993 262.679C344.592 238.077 378.919 244.709 385.199 257.391Z" fill="#B28B67"/>
<path fill-rule="evenodd" clip-rule="evenodd" d="M377.732 233.9C384.131 234.124 389.138 239.464 388.916 245.829C388.701 251.984 383.675 256.843 377.556 256.954C374.026 257.904 369.51 258.534 364.521 258.692C364.941 260.517 365.132 262.58 365.051 264.9C364.98 266.95 364.676 269.115 364.181 271.308C363.145 269.993 361.731 269.109 360.266 269.058C356.167 268.915 353.198 272.169 353.073 275.73C352.916 280.249 355.424 283.61 359.244 284.005C355.567 290.468 350.625 295.259 345.861 295.093C336.811 294.776 330.797 282.517 331.248 269.578C331.264 269.124 331.289 268.673 331.322 268.226C321.522 274.424 313.695 287.045 301.029 286.603C283.797 286 278.159 251.188 302.235 252.03C318.608 252.602 326.579 255.258 333.398 259.012C334.901 255.222 337.1 252.068 339.73 249.904C340.367 249.238 341.331 248.613 342.567 248.045C343.323 247.667 344.101 247.365 344.898 247.145C349.137 245.76 355.241 244.892 362.026 244.893C363.292 244.894 364.534 244.924 365.745 244.983C365.987 238.635 371.346 233.677 377.732 233.9Z" fill="#191847"/>
<path fill-rule="evenodd" clip-rule="evenodd" d="M356.606 423.194L400.245 565.448L421.385 686.425H437.96L415.622 423.194H356.606Z" fill="#997659"/>
<path fill-rule="evenodd" clip-rule="evenodd" d="M340.995 423.194C343.959 501.299 340.471 541.587 339.807 548.683C339.144 555.779 330.06 601.791 308.555 688.807L326.217 682.759C360.204 602.952 371.785 561.475 375.683 550.996C379.581 540.516 389.934 497.915 406.742 423.194H340.995Z" fill="#B28B67"/>
<path fill-rule="evenodd" clip-rule="evenodd" d="M308.553 682.588C307.341 685.837 306.735 688.281 306.735 689.92C306.735 691.976 307.082 694.978 307.775 698.924C310.188 698.924 331.874 698.924 372.832 698.924C374.523 693.397 373.547 690.413 369.904 689.973C366.262 689.532 363.236 689.134 360.827 688.779L330.721 675.507C330.063 675.217 329.294 675.515 329.004 676.174C329 676.182 328.997 676.19 328.993 676.198L327.109 680.718C323.737 682.274 320.997 683.052 318.889 683.052C317.226 683.052 314.948 682.407 312.055 681.117L312.055 681.117C310.74 680.531 309.2 681.123 308.614 682.438C308.592 682.487 308.572 682.537 308.553 682.588Z" fill="#E4E4E4"/>
<path fill-rule="evenodd" clip-rule="evenodd" d="M417.561 682.588C416.349 685.837 415.743 688.281 415.743 689.92C415.743 691.976 416.09 694.978 416.783 698.924C419.196 698.924 440.881 698.924 481.84 698.924C483.531 693.397 482.555 690.413 478.912 689.973C475.27 689.532 472.244 689.134 469.835 688.779L439.729 675.507C439.071 675.217 438.302 675.515 438.012 676.174C438.008 676.182 438.005 676.19 438.001 676.198L436.117 680.718C432.745 682.274 430.005 683.052 427.897 683.052C426.234 683.052 423.956 682.407 421.063 681.117L421.063 681.117C419.748 680.531 418.207 681.123 417.622 682.438C417.6 682.487 417.579 682.537 417.561 682.588Z" fill="#E4E4E4"/>
<path fill-rule="evenodd" clip-rule="evenodd" d="M350.809 423.194L369.363 495.671H426.036L417.586 423.194H350.809Z" fill="#1C75DF"/>
<path fill-rule="evenodd" clip-rule="evenodd" d="M340.371 423.194C334.266 441.441 333.107 465.6 336.892 495.671H394.725L410.627 423.194H340.371Z" fill="#1493FF"/>
<path fill-rule="evenodd" clip-rule="evenodd" d="M308.077 420.869L332.106 417.585C323.98 467.397 319.531 493.847 318.759 496.933C317.023 503.878 324.055 513.093 327.217 518.132C319.87 522.731 318.887 509.664 309.644 515.641C301.207 521.096 295.408 529.647 284.081 524.699C282.688 524.09 280.866 521.319 283.934 518.521C291.578 511.551 302.342 499.72 303.521 496.158C305.128 491.301 306.647 466.205 308.077 420.869ZM448.694 400.147L489.121 421.83C499.439 423.106 508.212 425.266 515.442 428.309C517.219 429.519 519.53 432.15 512.925 432.568L512.098 432.622C505.753 433.05 499.366 433.82 498.801 436.071C498.211 438.42 502.539 440.522 501.138 443.777C500.203 445.947 493.759 441.742 481.803 431.162L443.395 421.259L448.694 400.147Z" fill="#B28B67"/>
<path fill-rule="evenodd" clip-rule="evenodd" d="M362.206 310.787L371.905 307.69C413.237 334.262 436.95 393.143 486.685 419.106L477.694 434.08C397.928 435.428 368.044 363.743 362.206 310.787Z" fill="#DC3A16"/>
<path fill-rule="evenodd" clip-rule="evenodd" d="M336.375 441.396C376.222 435.792 405.532 431.669 424.307 429.029C428.325 428.463 426.755 422.785 425.764 419.948C414.33 387.201 383.062 354.567 376.328 306.611L350.407 306.213C334.152 342.804 332.714 385.244 336.375 441.396Z" fill="#DDE3E9"/>
<path fill-rule="evenodd" clip-rule="evenodd" d="M348.5 306.48C349.357 306.359 350.15 306.302 350.878 306.309L358.886 305.644C392.142 378.683 405.702 428.885 399.565 456.252L399.373 457.074L330.163 466.809C327.401 476.919 324.604 485.492 321.77 492.528L302.912 495.18C293.102 438.212 299.926 387.729 323.384 343.732C319.552 343.196 316.289 341.144 313.595 337.577C301.982 322.202 304.04 312.549 313.524 308.137C323.007 303.725 332.715 308.7 348.5 306.48Z" fill="#FF5533"/>
<path fill-rule="evenodd" clip-rule="evenodd" d="M355.85 463.197L330.166 466.81C333.388 455.017 336.561 441.132 339.685 425.156C344.412 443.006 349.8 455.687 355.85 463.197Z" fill="#DC3A16"/>
<path fill-rule="evenodd" clip-rule="evenodd" d="M447.921 187.339V341.161H256.382V187.339H447.921ZM434.891 201.679H270.715V326.822H434.891V201.679Z" fill="white"/>
</g>
<defs>
<clipPath id="clip0">
<rect width="788" height="832" fill="white"/>
</clipPath>
</defs>
</svg>
