<svg width="788" height="640" viewBox="0 0 788 640" fill="none" xmlns="http://www.w3.org/2000/svg">
<g clip-path="url(#clip0)">
<rect width="788" height="640" fill="white"/>
<path d="M307.198 8.17859H120.871C115.114 8.17859 110.447 12.8476 110.447 18.6072V391.429C110.447 397.188 115.114 401.857 120.871 401.857H307.198C312.955 401.857 317.622 397.188 317.622 391.429V18.6072C317.622 12.8476 312.955 8.17859 307.198 8.17859Z" fill="#DBE0E5"/>
<path d="M213.384 377.089C224.178 377.089 232.928 368.335 232.928 357.536C232.928 346.737 224.178 337.982 213.384 337.982C202.589 337.982 193.839 346.737 193.839 357.536C193.839 368.335 202.589 377.089 213.384 377.089Z" fill="white"/>
<path d="M196.445 34.2501C197.884 34.2501 199.051 33.0828 199.051 31.6429C199.051 30.203 197.884 29.0358 196.445 29.0358C195.006 29.0358 193.839 30.203 193.839 31.6429C193.839 33.0828 195.006 34.2501 196.445 34.2501Z" fill="white"/>
<path d="M230.322 29.0358H208.171C206.732 29.0358 205.565 30.203 205.565 31.6429C205.565 33.0828 206.732 34.2501 208.171 34.2501H230.322C231.761 34.2501 232.928 33.0828 232.928 31.6429C232.928 30.203 231.761 29.0358 230.322 29.0358Z" fill="white"/>
<path d="M294.169 44.6786H133.901C131.023 44.6786 128.689 47.0131 128.689 49.8929V109.857C128.689 112.737 131.023 115.071 133.901 115.071H294.169C297.047 115.071 299.38 112.737 299.38 109.857V49.8929C299.38 47.0131 297.047 44.6786 294.169 44.6786Z" fill="white"/>
<path d="M231.625 65.7965H144.325C142.166 65.7965 140.416 67.5474 140.416 69.7072V72.4447C140.416 74.6045 142.166 76.3554 144.325 76.3554H231.625C233.784 76.3554 235.534 74.6045 235.534 72.4447V69.7072C235.534 67.5474 233.784 65.7965 231.625 65.7965Z" fill="#DBE0E5"/>
<path d="M200.353 83.3947H144.325C142.166 83.3947 140.416 85.1455 140.416 87.3054V90.0429C140.416 92.2027 142.166 93.9536 144.325 93.9536H200.353C202.512 93.9536 204.262 92.2027 204.262 90.0429V87.3054C204.262 85.1455 202.512 83.3947 200.353 83.3947Z" fill="#DBE0E5"/>
<path d="M281.138 89C286.176 89 290.259 84.9146 290.259 79.875C290.259 74.8354 286.176 70.75 281.138 70.75C276.101 70.75 272.018 74.8354 272.018 79.875C272.018 84.9146 276.101 89 281.138 89Z" fill="#DDE3E9"/>
<path d="M281.138 83.7857C283.297 83.7857 285.047 82.0348 285.047 79.875C285.047 77.7151 283.297 75.9642 281.138 75.9642C278.98 75.9642 277.229 77.7151 277.229 79.875C277.229 82.0348 278.98 83.7857 281.138 83.7857Z" fill="#F2F2F2"/>
<path d="M294.169 125.5H133.901C131.023 125.5 128.689 127.835 128.689 130.714V175.036C128.689 177.916 131.023 180.25 133.901 180.25H294.169C297.047 180.25 299.38 177.916 299.38 175.036V130.714C299.38 127.835 297.047 125.5 294.169 125.5Z" fill="white"/>
<path d="M270.715 141.925H183.415C181.256 141.925 179.506 143.676 179.506 145.836V146.227C179.506 148.387 181.256 150.138 183.415 150.138H270.715C272.874 150.138 274.624 148.387 274.624 146.227V145.836C274.624 143.676 272.874 141.925 270.715 141.925Z" fill="#DBE0E5"/>
<path d="M239.443 155.613H183.415C181.256 155.613 179.506 157.363 179.506 159.523V159.914C179.506 162.074 181.256 163.825 183.415 163.825H239.443C241.602 163.825 243.352 162.074 243.352 159.914V159.523C243.352 157.363 241.602 155.613 239.443 155.613Z" fill="#DBE0E5"/>
<path d="M156.052 168.518C164.687 168.518 171.688 161.514 171.688 152.875C171.688 144.236 164.687 137.232 156.052 137.232C147.416 137.232 140.416 144.236 140.416 152.875C140.416 161.514 147.416 168.518 156.052 168.518Z" fill="#9AA8BD"/>
<path d="M294.169 190.679H133.901C131.023 190.679 128.689 193.013 128.689 195.893V240.214C128.689 243.094 131.023 245.429 133.901 245.429H294.169C297.047 245.429 299.38 243.094 299.38 240.214V195.893C299.38 193.013 297.047 190.679 294.169 190.679Z" fill="white"/>
<path d="M231.625 207.104H144.325C142.166 207.104 140.416 208.855 140.416 211.014V211.405C140.416 213.565 142.166 215.316 144.325 215.316H231.625C233.784 215.316 235.534 213.565 235.534 211.405V211.014C235.534 208.855 233.784 207.104 231.625 207.104Z" fill="#DBE0E5"/>
<path d="M200.353 220.791H144.325C142.166 220.791 140.416 222.542 140.416 224.702V225.093C140.416 227.253 142.166 229.004 144.325 229.004H200.353C202.512 229.004 204.262 227.253 204.262 225.093V224.702C204.262 222.542 202.512 220.791 200.353 220.791Z" fill="#DBE0E5"/>
<path d="M281.138 227.179C286.176 227.179 290.259 223.093 290.259 218.054C290.259 213.014 286.176 208.929 281.138 208.929C276.101 208.929 272.018 213.014 272.018 218.054C272.018 223.093 276.101 227.179 281.138 227.179Z" fill="#DDE3E9"/>
<path d="M281.138 221.964C283.297 221.964 285.047 220.213 285.047 218.054C285.047 215.894 283.297 214.143 281.138 214.143C278.98 214.143 277.229 215.894 277.229 218.054C277.229 220.213 278.98 221.964 281.138 221.964Z" fill="#F2F2F2"/>
<path d="M294.169 255.857H133.901C131.023 255.857 128.689 258.192 128.689 261.071V305.393C128.689 308.273 131.023 310.607 133.901 310.607H294.169C297.047 310.607 299.38 308.273 299.38 305.393V261.071C299.38 258.192 297.047 255.857 294.169 255.857Z" fill="white"/>
<path d="M270.715 272.282H183.415C181.256 272.282 179.506 274.033 179.506 276.193V276.584C179.506 278.744 181.256 280.495 183.415 280.495H270.715C272.874 280.495 274.624 278.744 274.624 276.584V276.193C274.624 274.033 272.874 272.282 270.715 272.282Z" fill="#DBE0E5"/>
<path d="M239.443 285.97H183.415C181.256 285.97 179.506 287.721 179.506 289.88V290.272C179.506 292.431 181.256 294.182 183.415 294.182H239.443C241.602 294.182 243.352 292.431 243.352 290.272V289.88C243.352 287.721 241.602 285.97 239.443 285.97Z" fill="#DBE0E5"/>
<path d="M156.052 298.875C164.687 298.875 171.688 291.871 171.688 283.232C171.688 274.593 164.687 267.589 156.052 267.589C147.416 267.589 140.416 274.593 140.416 283.232C140.416 291.871 147.416 298.875 156.052 298.875Z" fill="#9AA8BD"/>
<path d="M622.521 56.4108H206.868C201.111 56.4108 196.444 61.0798 196.444 66.8393V497.018C196.444 502.778 201.111 507.447 206.868 507.447H622.521C628.277 507.447 632.944 502.778 632.944 497.018V66.8393C632.944 61.0798 628.277 56.4108 622.521 56.4108Z" fill="#F7F9FB"/>
<path d="M601.673 112.464H531.312C525.555 112.464 520.888 117.133 520.888 122.893V207.625C520.888 213.385 525.555 218.054 531.312 218.054H601.673C607.43 218.054 612.097 213.385 612.097 207.625V122.893C612.097 117.133 607.43 112.464 601.673 112.464Z" fill="white"/>
<path d="M566.492 173.732C578.006 173.732 587.34 164.394 587.34 152.875C587.34 141.356 578.006 132.018 566.492 132.018C554.978 132.018 545.645 141.356 545.645 152.875C545.645 164.394 554.978 173.732 566.492 173.732Z" fill="#DBE0E5"/>
<path d="M595.158 178.947H537.827C535.668 178.947 533.918 180.697 533.918 182.857C533.918 185.017 535.668 186.768 537.827 186.768H595.158C597.317 186.768 599.067 185.017 599.067 182.857C599.067 180.697 597.317 178.947 595.158 178.947Z" fill="#F7F9FB"/>
<path d="M584.734 191.982H548.251C546.092 191.982 544.342 193.733 544.342 195.893C544.342 198.053 546.092 199.804 548.251 199.804H584.734C586.893 199.804 588.643 198.053 588.643 195.893C588.643 193.733 586.893 191.982 584.734 191.982Z" fill="#F7F9FB"/>
<path fill-rule="evenodd" clip-rule="evenodd" d="M206.868 56.4108H622.521C628.277 56.4108 632.944 61.0798 632.944 66.8393V91.6072H196.444V66.8393C196.444 61.0798 201.111 56.4108 206.868 56.4108Z" fill="#536383"/>
<path d="M213.383 79.8751C216.261 79.8751 218.595 77.5406 218.595 74.6608C218.595 71.781 216.261 69.4465 213.383 69.4465C210.504 69.4465 208.171 71.781 208.171 74.6608C208.171 77.5406 210.504 79.8751 213.383 79.8751Z" fill="#FF5533"/>
<path d="M229.019 79.8751C231.897 79.8751 234.23 77.5406 234.23 74.6608C234.23 71.781 231.897 69.4465 229.019 69.4465C226.14 69.4465 223.807 71.781 223.807 74.6608C223.807 77.5406 226.14 79.8751 229.019 79.8751Z" fill="#FFD938"/>
<path d="M244.654 79.8751C247.533 79.8751 249.866 77.5406 249.866 74.6608C249.866 71.781 247.533 69.4465 244.654 69.4465C241.776 69.4465 239.442 71.781 239.442 74.6608C239.442 77.5406 241.776 79.8751 244.654 79.8751Z" fill="#00BD66"/>
<path d="M601.673 228.482H531.312C525.555 228.482 520.888 233.151 520.888 238.911V470.947C520.888 476.706 525.555 481.375 531.312 481.375H601.673C607.43 481.375 612.097 476.706 612.097 470.947V238.911C612.097 233.151 607.43 228.482 601.673 228.482Z" fill="white"/>
<path d="M583.431 251.947H549.554C546.675 251.947 544.342 254.281 544.342 257.161V280.625C544.342 283.505 546.675 285.839 549.554 285.839H583.431C586.31 285.839 588.643 283.505 588.643 280.625V257.161C588.643 254.281 586.31 251.947 583.431 251.947Z" fill="#536383"/>
<path d="M583.431 296.268H549.554C546.675 296.268 544.342 298.602 544.342 301.482V323.643C544.342 326.523 546.675 328.857 549.554 328.857H583.431C586.31 328.857 588.643 326.523 588.643 323.643V301.482C588.643 298.602 586.31 296.268 583.431 296.268Z" fill="#9AA8BD"/>
<path d="M583.431 339.286H549.554C546.675 339.286 544.342 341.62 544.342 344.5V366.661C544.342 369.541 546.675 371.875 549.554 371.875H583.431C586.31 371.875 588.643 369.541 588.643 366.661V344.5C588.643 341.62 586.31 339.286 583.431 339.286Z" fill="#DBE0E5"/>
<path d="M583.431 425.322H549.554C546.675 425.322 544.342 427.656 544.342 430.536V452.697C544.342 455.576 546.675 457.911 549.554 457.911H583.431C586.31 457.911 588.643 455.576 588.643 452.697V430.536C588.643 427.656 586.31 425.322 583.431 425.322Z" fill="#F7F9FB"/>
<path d="M583.431 382.304H549.554C546.675 382.304 544.342 384.638 544.342 387.518V409.679C544.342 412.558 546.675 414.893 549.554 414.893H583.431C586.31 414.893 588.643 412.558 588.643 409.679V387.518C588.643 384.638 586.31 382.304 583.431 382.304Z" fill="#F7F9FB"/>
<path d="M505.252 113.768H222.504C219.625 113.768 217.292 116.102 217.292 118.982V169.822C217.292 172.701 219.625 175.036 222.504 175.036H505.252C508.13 175.036 510.464 172.701 510.464 169.822V118.982C510.464 116.102 508.13 113.768 505.252 113.768Z" fill="white"/>
<path d="M442.708 132.148H232.928C230.769 132.148 229.019 133.899 229.019 136.059V137.428C229.019 139.588 230.769 141.338 232.928 141.338H442.708C444.867 141.338 446.617 139.588 446.617 137.428V136.059C446.617 133.899 444.867 132.148 442.708 132.148Z" fill="#DBE0E5"/>
<path d="M371.169 147.465H232.928C230.769 147.465 229.019 149.216 229.019 151.376V152.745C229.019 154.905 230.769 156.655 232.928 156.655H371.169C373.328 156.655 375.078 154.905 375.078 152.745V151.376C375.078 149.216 373.328 147.465 371.169 147.465Z" fill="#DBE0E5"/>
<path d="M479.133 153.527C484.17 153.527 488.253 149.441 488.253 144.402C488.253 139.362 484.17 135.277 479.133 135.277C474.095 135.277 470.012 139.362 470.012 144.402C470.012 149.441 474.095 153.527 479.133 153.527Z" fill="#DBE0E5"/>
<path d="M479.133 148.313C481.292 148.313 483.042 146.562 483.042 144.402C483.042 142.242 481.292 140.491 479.133 140.491C476.974 140.491 475.224 142.242 475.224 144.402C475.224 146.562 476.974 148.313 479.133 148.313Z" fill="#F7F9FB"/>
<path d="M505.252 185.464H222.504C219.625 185.464 217.292 187.799 217.292 190.679V231.089C217.292 233.969 219.625 236.304 222.504 236.304H505.252C508.13 236.304 510.464 233.969 510.464 231.089V190.679C510.464 187.799 508.13 185.464 505.252 185.464Z" fill="white"/>
<path d="M442.806 200.716H232.83C230.725 200.716 229.019 202.423 229.019 204.529C229.019 206.635 230.725 208.342 232.83 208.342H442.806C444.911 208.342 446.617 206.635 446.617 204.529C446.617 202.423 444.911 200.716 442.806 200.716Z" fill="#DBE0E5"/>
<path d="M371.267 213.426H232.83C230.725 213.426 229.019 215.133 229.019 217.239C229.019 219.345 230.725 221.052 232.83 221.052H371.267C373.371 221.052 375.078 219.345 375.078 217.239C375.078 215.133 373.371 213.426 371.267 213.426Z" fill="#DBE0E5"/>
<path d="M479.133 220.009C484.17 220.009 488.253 215.924 488.253 210.884C488.253 205.844 484.17 201.759 479.133 201.759C474.095 201.759 470.012 205.844 470.012 210.884C470.012 215.924 474.095 220.009 479.133 220.009Z" fill="#DBE0E5"/>
<path d="M479.133 214.795C481.292 214.795 483.042 213.044 483.042 210.884C483.042 208.724 481.292 206.973 479.133 206.973C476.974 206.973 475.224 208.724 475.224 210.884C475.224 213.044 476.974 214.795 479.133 214.795Z" fill="#F7F9FB"/>
<path d="M505.252 246.732H222.504C219.625 246.732 217.292 249.067 217.292 251.946V292.357C217.292 295.237 219.625 297.571 222.504 297.571H505.252C508.13 297.571 510.464 295.237 510.464 292.357V251.946C510.464 249.067 508.13 246.732 505.252 246.732Z" fill="white"/>
<path d="M442.806 261.984H232.83C230.725 261.984 229.019 263.691 229.019 265.797C229.019 267.903 230.725 269.61 232.83 269.61H442.806C444.911 269.61 446.617 267.903 446.617 265.797C446.617 263.691 444.911 261.984 442.806 261.984Z" fill="#DBE0E5"/>
<path d="M371.267 274.694H232.83C230.725 274.694 229.019 276.401 229.019 278.507C229.019 280.613 230.725 282.32 232.83 282.32H371.267C373.371 282.32 375.078 280.613 375.078 278.507C375.078 276.401 373.371 274.694 371.267 274.694Z" fill="#DBE0E5"/>
<path d="M479.133 281.277C484.17 281.277 488.253 277.191 488.253 272.152C488.253 267.112 484.17 263.027 479.133 263.027C474.095 263.027 470.012 267.112 470.012 272.152C470.012 277.191 474.095 281.277 479.133 281.277Z" fill="#DBE0E5"/>
<path d="M479.133 276.063C481.292 276.063 483.042 274.312 483.042 272.152C483.042 269.992 481.292 268.241 479.133 268.241C476.974 268.241 475.224 269.992 475.224 272.152C475.224 274.312 476.974 276.063 479.133 276.063Z" fill="#536383"/>
<path d="M505.252 430.536H222.504C219.625 430.536 217.292 432.87 217.292 435.75V476.161C217.292 479.041 219.625 481.375 222.504 481.375H505.252C508.13 481.375 510.464 479.041 510.464 476.161V435.75C510.464 432.87 508.13 430.536 505.252 430.536Z" fill="white"/>
<path d="M442.806 445.788H232.83C230.725 445.788 229.019 447.495 229.019 449.601C229.019 451.706 230.725 453.413 232.83 453.413H442.806C444.911 453.413 446.617 451.706 446.617 449.601C446.617 447.495 444.911 445.788 442.806 445.788Z" fill="#DBE0E5"/>
<path d="M371.267 458.497H232.83C230.725 458.497 229.019 460.205 229.019 462.31C229.019 464.416 230.725 466.123 232.83 466.123H371.267C373.371 466.123 375.078 464.416 375.078 462.31C375.078 460.205 373.371 458.497 371.267 458.497Z" fill="#DBE0E5"/>
<path d="M479.133 465.081C484.17 465.081 488.253 460.995 488.253 455.955C488.253 450.916 484.17 446.83 479.133 446.83C474.095 446.83 470.012 450.916 470.012 455.955C470.012 460.995 474.095 465.081 479.133 465.081Z" fill="#DBE0E5"/>
<path d="M479.133 459.866C481.292 459.866 483.042 458.115 483.042 455.956C483.042 453.796 481.292 452.045 479.133 452.045C476.974 452.045 475.224 453.796 475.224 455.956C475.224 458.115 476.974 459.866 479.133 459.866Z" fill="#F7F9FB"/>
<path d="M505.252 369.268H222.504C219.625 369.268 217.292 371.602 217.292 374.482V414.893C217.292 417.773 219.625 420.107 222.504 420.107H505.252C508.13 420.107 510.464 417.773 510.464 414.893V374.482C510.464 371.602 508.13 369.268 505.252 369.268Z" fill="white"/>
<path d="M442.806 384.52H232.83C230.725 384.52 229.019 386.227 229.019 388.333C229.019 390.439 230.725 392.146 232.83 392.146H442.806C444.911 392.146 446.617 390.439 446.617 388.333C446.617 386.227 444.911 384.52 442.806 384.52Z" fill="#DBE0E5"/>
<path d="M371.267 397.23H232.83C230.725 397.23 229.019 398.937 229.019 401.043C229.019 403.148 230.725 404.855 232.83 404.855H371.267C373.371 404.855 375.078 403.148 375.078 401.043C375.078 398.937 373.371 397.23 371.267 397.23Z" fill="#DBE0E5"/>
<path d="M479.133 403.813C484.17 403.813 488.253 399.727 488.253 394.688C488.253 389.648 484.17 385.563 479.133 385.563C474.095 385.563 470.012 389.648 470.012 394.688C470.012 399.727 474.095 403.813 479.133 403.813Z" fill="#DBE0E5"/>
<path d="M479.133 398.598C481.292 398.598 483.042 396.847 483.042 394.688C483.042 392.528 481.292 390.777 479.133 390.777C476.974 390.777 475.224 392.528 475.224 394.688C475.224 396.847 476.974 398.598 479.133 398.598Z" fill="#F7F9FB"/>
<path d="M505.252 308H222.504C219.625 308 217.292 310.335 217.292 313.214V353.625C217.292 356.505 219.625 358.839 222.504 358.839H505.252C508.13 358.839 510.464 356.505 510.464 353.625V313.214C510.464 310.335 508.13 308 505.252 308Z" fill="white"/>
<path d="M442.806 323.252H232.83C230.725 323.252 229.019 324.959 229.019 327.065C229.019 329.171 230.725 330.878 232.83 330.878H442.806C444.911 330.878 446.617 329.171 446.617 327.065C446.617 324.959 444.911 323.252 442.806 323.252Z" fill="#DBE0E5"/>
<path d="M371.267 335.962H232.83C230.725 335.962 229.019 337.669 229.019 339.775C229.019 341.881 230.725 343.588 232.83 343.588H371.267C373.371 343.588 375.078 341.881 375.078 339.775C375.078 337.669 373.371 335.962 371.267 335.962Z" fill="#DBE0E5"/>
<path d="M479.133 342.545C484.17 342.545 488.253 338.459 488.253 333.42C488.253 328.38 484.17 324.295 479.133 324.295C474.095 324.295 470.012 328.38 470.012 333.42C470.012 338.459 474.095 342.545 479.133 342.545Z" fill="#DBE0E5"/>
<path d="M479.133 337.33C481.292 337.33 483.042 335.58 483.042 333.42C483.042 331.26 481.292 329.509 479.133 329.509C476.974 329.509 475.224 331.26 475.224 333.42C475.224 335.58 476.974 337.33 479.133 337.33Z" fill="#F7F9FB"/>
<path d="M600.37 553.071C600.37 550.912 598.62 549.161 596.461 549.161C594.302 549.161 592.552 550.912 592.552 553.071V577.839C592.552 579.999 594.302 581.75 596.461 581.75C598.62 581.75 600.37 579.999 600.37 577.839V553.071Z" fill="#DBE0E5"/>
<path d="M618.612 532.214C618.612 530.054 616.862 528.304 614.703 528.304C612.544 528.304 610.794 530.054 610.794 532.214V577.839C610.794 579.999 612.544 581.75 614.703 581.75C616.862 581.75 618.612 579.999 618.612 577.839V532.214Z" fill="#DBE0E5"/>
<path d="M636.853 521.786C636.853 519.626 635.103 517.875 632.944 517.875C630.785 517.875 629.035 519.626 629.035 521.786V577.839C629.035 579.999 630.785 581.75 632.944 581.75C635.103 581.75 636.853 579.999 636.853 577.839V521.786Z" fill="#DBE0E5"/>
<path d="M655.095 532.214C655.095 530.054 653.345 528.304 651.186 528.304C649.027 528.304 647.277 530.054 647.277 532.214V577.839C647.277 579.999 649.027 581.75 651.186 581.75C653.345 581.75 655.095 579.999 655.095 577.839V532.214Z" fill="#DBE0E5"/>
<path d="M673.336 511.357C673.336 509.197 671.586 507.446 669.428 507.446C667.269 507.446 665.519 509.197 665.519 511.357V577.839C665.519 579.999 667.269 581.75 669.428 581.75C671.586 581.75 673.336 579.999 673.336 577.839V511.357Z" fill="#1493FF"/>
<path fill-rule="evenodd" clip-rule="evenodd" d="M533.984 544.603C532.058 546.642 529.33 547.922 526.295 547.922C520.464 547.922 515.738 543.224 515.738 537.428C515.738 531.633 520.464 526.935 526.295 526.935V507.446C509.708 507.446 496.131 520.941 496.131 537.428C496.131 553.916 509.708 567.411 526.295 567.411C535.008 567.411 542.882 563.747 548.25 557.918L533.984 544.603Z" fill="#DBE0E5"/>
<path fill-rule="evenodd" clip-rule="evenodd" d="M526.1 507.446V526.935C531.893 526.935 536.589 531.633 536.589 537.428H556.068C556.068 520.941 542.579 507.446 526.1 507.446Z" fill="#00BD66"/>
<path fill-rule="evenodd" clip-rule="evenodd" d="M536.618 537.428C536.618 540.759 535.05 543.72 532.614 545.632L544.597 560.893C551.572 555.429 556.068 546.96 556.068 537.428H536.618Z" fill="#FFD938"/>
<path d="M447.921 103.339H256.382V257.161H447.921V103.339Z" fill="#E8D0FF"/>
<path fill-rule="evenodd" clip-rule="evenodd" d="M385.199 173.391C391.479 186.074 389.579 217.62 380.825 219.542C377.333 220.308 370.037 217.877 362.691 213.116L366.245 246.42L338.438 245.448L349.558 201.402C344.437 194.982 341.09 187.217 341.993 178.679C344.592 154.077 378.919 160.709 385.199 173.391Z" fill="#B28B67"/>
<path fill-rule="evenodd" clip-rule="evenodd" d="M377.732 149.9C384.131 150.124 389.138 155.464 388.916 161.829C388.701 167.984 383.675 172.843 377.556 172.954C374.026 173.904 369.51 174.534 364.521 174.692C364.941 176.517 365.132 178.58 365.051 180.9C364.98 182.95 364.676 185.115 364.181 187.308C363.145 185.993 361.731 185.109 360.266 185.058C356.167 184.915 353.198 188.169 353.073 191.73C352.916 196.249 355.424 199.61 359.244 200.005C355.567 206.468 350.625 211.259 345.861 211.093C336.811 210.776 330.797 198.517 331.248 185.578C331.264 185.124 331.289 184.673 331.322 184.226C321.522 190.424 313.695 203.045 301.029 202.603C283.797 202 278.159 167.188 302.235 168.03C318.608 168.602 326.579 171.258 333.398 175.012C334.901 171.222 337.1 168.068 339.73 165.904C340.367 165.238 341.331 164.613 342.567 164.045C343.323 163.667 344.101 163.365 344.898 163.145C349.137 161.76 355.241 160.892 362.026 160.893C363.292 160.894 364.534 160.924 365.745 160.983C365.987 154.635 371.346 149.677 377.732 149.9Z" fill="#191847"/>
<path fill-rule="evenodd" clip-rule="evenodd" d="M356.606 339.194L400.245 481.448L421.385 602.425H437.96L415.622 339.194H356.606Z" fill="#997659"/>
<path fill-rule="evenodd" clip-rule="evenodd" d="M340.995 339.194C343.959 417.299 340.471 457.587 339.807 464.683C339.144 471.779 330.06 517.791 308.555 604.807L326.217 598.759C360.204 518.952 371.785 477.475 375.683 466.996C379.581 456.516 389.934 413.915 406.742 339.194H340.995Z" fill="#B28B67"/>
<path fill-rule="evenodd" clip-rule="evenodd" d="M308.553 598.588C307.341 601.837 306.735 604.281 306.735 605.92C306.735 607.976 307.082 610.978 307.775 614.924C310.188 614.924 331.874 614.924 372.832 614.924C374.523 609.397 373.547 606.413 369.904 605.973C366.262 605.532 363.236 605.134 360.827 604.779L330.721 591.507C330.063 591.217 329.294 591.515 329.004 592.174C329 592.182 328.997 592.19 328.993 592.198L327.109 596.718C323.737 598.274 320.997 599.052 318.889 599.052C317.226 599.052 314.948 598.407 312.055 597.117L312.055 597.117C310.74 596.531 309.2 597.123 308.614 598.438C308.592 598.487 308.572 598.537 308.553 598.588Z" fill="#E4E4E4"/>
<path fill-rule="evenodd" clip-rule="evenodd" d="M417.561 598.588C416.349 601.837 415.743 604.281 415.743 605.92C415.743 607.976 416.09 610.978 416.783 614.924C419.196 614.924 440.881 614.924 481.84 614.924C483.531 609.397 482.555 606.413 478.912 605.973C475.27 605.532 472.244 605.134 469.835 604.779L439.729 591.507C439.071 591.217 438.302 591.515 438.012 592.174C438.008 592.182 438.005 592.19 438.001 592.198L436.117 596.718C432.745 598.274 430.005 599.052 427.897 599.052C426.234 599.052 423.956 598.407 421.063 597.117L421.063 597.117C419.748 596.531 418.207 597.123 417.622 598.438C417.6 598.487 417.579 598.537 417.561 598.588Z" fill="#E4E4E4"/>
<path fill-rule="evenodd" clip-rule="evenodd" d="M350.809 339.194L369.363 411.671H426.036L417.586 339.194H350.809Z" fill="#1C75DF"/>
<path fill-rule="evenodd" clip-rule="evenodd" d="M340.371 339.194C334.266 357.441 333.107 381.6 336.892 411.671H394.725L410.627 339.194H340.371Z" fill="#1493FF"/>
<path fill-rule="evenodd" clip-rule="evenodd" d="M308.077 336.869L332.106 333.585C323.98 383.397 319.531 409.847 318.759 412.933C317.023 419.878 324.055 429.093 327.217 434.132C319.87 438.731 318.887 425.664 309.644 431.641C301.207 437.096 295.408 445.647 284.081 440.699C282.688 440.09 280.866 437.319 283.934 434.521C291.578 427.551 302.342 415.72 303.521 412.158C305.128 407.301 306.647 382.205 308.077 336.869ZM448.694 316.147L489.121 337.83C499.439 339.106 508.212 341.266 515.442 344.309C517.219 345.519 519.53 348.15 512.925 348.568L512.098 348.622C505.753 349.05 499.366 349.82 498.801 352.071C498.211 354.42 502.539 356.522 501.138 359.777C500.203 361.947 493.759 357.742 481.803 347.162L443.395 337.259L448.694 316.147Z" fill="#B28B67"/>
<path fill-rule="evenodd" clip-rule="evenodd" d="M362.206 226.787L371.905 223.69C413.237 250.262 436.95 309.143 486.685 335.106L477.694 350.08C397.928 351.428 368.044 279.743 362.206 226.787Z" fill="#DC3A16"/>
<path fill-rule="evenodd" clip-rule="evenodd" d="M336.375 357.396C376.222 351.792 405.532 347.669 424.307 345.029C428.325 344.463 426.755 338.785 425.764 335.948C414.33 303.201 383.062 270.567 376.328 222.611L350.407 222.213C334.152 258.804 332.714 301.244 336.375 357.396Z" fill="#DDE3E9"/>
<path fill-rule="evenodd" clip-rule="evenodd" d="M348.5 222.48C349.357 222.359 350.15 222.302 350.878 222.309L358.886 221.644C392.142 294.683 405.702 344.885 399.565 372.252L399.373 373.074L330.163 382.809C327.401 392.919 324.604 401.492 321.77 408.528L302.912 411.18C293.102 354.212 299.926 303.729 323.384 259.732C319.552 259.196 316.289 257.144 313.595 253.577C301.982 238.202 304.04 228.549 313.524 224.137C323.007 219.725 332.715 224.7 348.5 222.48Z" fill="#FF5533"/>
<path fill-rule="evenodd" clip-rule="evenodd" d="M355.85 379.197L330.166 382.81C333.388 371.017 336.561 357.132 339.685 341.156C344.412 359.006 349.8 371.687 355.85 379.197Z" fill="#DC3A16"/>
<path fill-rule="evenodd" clip-rule="evenodd" d="M447.921 103.339V257.161H256.382V103.339H447.921ZM434.891 117.679H270.715V242.822H434.891V117.679Z" fill="white"/>
</g>
<defs>
<clipPath id="clip0">
<rect width="788" height="640" fill="white"/>
</clipPath>
</defs>
</svg>
