<svg width="788" height="640" viewBox="0 0 788 640" fill="none" xmlns="http://www.w3.org/2000/svg">
<g clip-path="url(#clip0)">
<rect width="788" height="640" fill="white"/>
<path d="M654.403 10.7922L787.208 79.403L718.597 212.208L585.792 143.597L654.403 10.7922Z" fill="#00BD66"/>
<circle cx="401" cy="489" r="106" fill="#FFD938"/>
<rect x="78" y="114" width="306.88" height="411" rx="4.384" fill="#8D4FF8"/>
<rect x="319.12" y="131.536" width="43.84" height="43.84" rx="4.384" fill="#8D4FF8"/>
<path d="M341.04 143.592C340.136 143.592 339.396 144.332 339.396 145.236C339.396 146.14 340.136 146.88 341.04 146.88C341.944 146.88 342.684 146.14 342.684 145.236C342.684 144.332 341.944 143.592 341.04 143.592ZM341.04 160.032C340.136 160.032 339.396 160.772 339.396 161.676C339.396 162.58 340.136 163.32 341.04 163.32C341.944 163.32 342.684 162.58 342.684 161.676C342.684 160.772 341.944 160.032 341.04 160.032ZM341.04 151.812C340.136 151.812 339.396 152.552 339.396 153.456C339.396 154.36 340.136 155.1 341.04 155.1C341.944 155.1 342.684 154.36 342.684 153.456C342.684 152.552 341.944 151.812 341.04 151.812Z" fill="white"/>
<path d="M109.67 148.914H111.792V161.4H110.108L103.375 152.65V161.4H101.27V148.914H102.954L109.67 157.647V148.914ZM114.508 161.4V148.914H122.855V150.703H116.717V154.158H122.487V155.946H116.717V159.611H122.855V161.4H114.508ZM124.937 161.4V148.914H133.284V150.703H127.146V154.158H132.916V155.946H127.146V159.611H133.284V161.4H124.937ZM135.366 148.914H139.961C142.006 148.914 143.59 149.458 144.713 150.545C145.847 151.632 146.414 153.164 146.414 155.14C146.414 157.127 145.847 158.67 144.713 159.769C143.59 160.856 142.006 161.4 139.961 161.4H135.366V148.914ZM139.82 159.559C142.696 159.559 144.134 158.086 144.134 155.14C144.134 152.217 142.696 150.756 139.82 150.756H137.628V159.559H139.82ZM152.95 161.558C151.991 161.558 151.091 161.429 150.249 161.172C149.419 160.915 148.712 160.547 148.127 160.067L148.899 158.419C149.507 158.875 150.138 159.214 150.793 159.436C151.459 159.646 152.184 159.752 152.967 159.752C153.832 159.752 154.499 159.6 154.966 159.296C155.446 158.992 155.685 158.565 155.685 158.016C155.685 157.548 155.463 157.191 155.019 156.946C154.586 156.689 153.867 156.449 152.862 156.227C151.296 155.888 150.156 155.449 149.443 154.912C148.729 154.374 148.373 153.591 148.373 152.562C148.373 151.825 148.572 151.171 148.969 150.598C149.367 150.025 149.928 149.575 150.653 149.248C151.389 148.92 152.237 148.757 153.195 148.757C154.072 148.757 154.902 148.891 155.685 149.16C156.48 149.417 157.129 149.78 157.632 150.247L156.878 151.896C155.767 151.007 154.54 150.563 153.195 150.563C152.389 150.563 151.751 150.732 151.284 151.071C150.816 151.399 150.582 151.849 150.582 152.422C150.582 152.913 150.787 153.287 151.196 153.544C151.617 153.801 152.33 154.041 153.336 154.263C154.376 154.508 155.224 154.777 155.878 155.07C156.533 155.35 157.036 155.718 157.386 156.174C157.737 156.619 157.912 157.18 157.912 157.858C157.912 158.606 157.714 159.261 157.316 159.822C156.919 160.371 156.346 160.798 155.598 161.102C154.849 161.406 153.967 161.558 152.95 161.558ZM175.097 161.4H172.712L171.116 157.244C170.976 156.858 170.76 156.589 170.468 156.437C170.175 156.285 169.795 156.209 169.328 156.209H167.066V161.4H164.821V148.914H170.17C171.584 148.914 172.66 149.224 173.396 149.844C174.133 150.463 174.501 151.352 174.501 152.509C174.501 153.339 174.279 154.047 173.835 154.631C173.402 155.204 172.782 155.613 171.976 155.859C172.712 156.011 173.244 156.525 173.572 157.402L175.097 161.4ZM169.854 154.456C170.707 154.456 171.339 154.298 171.748 153.982C172.157 153.667 172.362 153.187 172.362 152.544C172.362 151.913 172.157 151.445 171.748 151.141C171.35 150.826 170.719 150.668 169.854 150.668H167.031V154.456H169.854ZM177.134 161.4V148.914H185.481V150.703H179.343V154.158H185.113V155.946H179.343V159.611H185.481V161.4H177.134ZM196.717 148.914H199.014L193.455 161.4H191.614L186.055 148.914H188.405L192.561 158.559L196.717 148.914ZM200.201 161.4V148.914H202.463V161.4H200.201ZM205.168 161.4V148.914H213.515V150.703H207.377V154.158H213.146V155.946H207.377V159.611H213.515V161.4H205.168ZM231.309 148.914H233.483L229.064 161.4H227.223L224.084 152.422L220.91 161.4H219.069L214.667 148.914H216.964L220.086 158.226L223.33 148.914H224.943L228.117 158.296L231.309 148.914Z" fill="white"/>
<rect x="243.496" y="140.304" width="27.4" height="26.304" rx="4.384" fill="#E8D0FF"/>
<path d="M258.555 153.332C259.2 153.506 259.691 153.823 260.028 154.283C260.376 154.744 260.55 155.311 260.55 155.987C260.55 156.938 260.197 157.69 259.491 158.242C258.796 158.795 257.854 159.071 256.668 159.071C255.931 159.071 255.22 158.958 254.535 158.733C253.86 158.508 253.302 158.196 252.863 157.797L253.538 156.355C254.509 157.112 255.527 157.49 256.591 157.49C257.287 157.49 257.803 157.352 258.141 157.076C258.489 156.8 258.663 156.38 258.663 155.818C258.663 155.265 258.489 154.861 258.141 154.606C257.793 154.34 257.256 154.207 256.53 154.207H255.087V152.626H256.269C257.681 152.626 258.386 152.089 258.386 151.015C258.386 150.514 258.233 150.13 257.926 149.864C257.619 149.598 257.19 149.465 256.637 149.465C255.655 149.465 254.673 149.844 253.691 150.601L253.031 149.159C253.471 148.77 254.024 148.463 254.689 148.238C255.364 148.003 256.054 147.885 256.76 147.885C257.834 147.885 258.688 148.151 259.322 148.683C259.967 149.205 260.289 149.905 260.289 150.785C260.279 151.389 260.12 151.915 259.813 152.365C259.517 152.805 259.097 153.128 258.555 153.332Z" fill="#7525DC"/>
<circle cx="268.704" cy="141.4" r="4.384" fill="#FF5533"/>
<rect x="96.0841" y="193.46" width="270.712" height="92.064" rx="3.836" fill="white" stroke="#DBE0E5" stroke-width="1.096"/>
<g clip-path="url(#clip1)">
<rect x="113.072" y="242.232" width="50.416" height="26.304" rx="4.384" fill="#E3F4FF"/>
<path d="M127.532 261.014C126.029 261.014 124.888 260.631 124.111 259.863C123.344 259.086 122.96 257.951 122.96 256.457V249.951H124.909V256.564C124.909 257.506 125.129 258.222 125.568 258.713C126.008 259.193 126.663 259.434 127.532 259.434C128.382 259.434 129.026 259.188 129.466 258.697C129.916 258.206 130.141 257.495 130.141 256.564V249.951H132.09V256.457C132.09 257.94 131.701 259.071 130.923 259.848C130.146 260.625 129.016 261.014 127.532 261.014ZM138.077 261.014C137.239 261.014 136.451 260.902 135.714 260.677C134.988 260.452 134.369 260.129 133.858 259.71L134.533 258.268C135.065 258.667 135.617 258.963 136.19 259.158C136.773 259.342 137.407 259.434 138.093 259.434C138.85 259.434 139.433 259.301 139.842 259.035C140.261 258.769 140.471 258.395 140.471 257.915C140.471 257.506 140.277 257.194 139.888 256.979C139.509 256.754 138.88 256.544 138.001 256.35C136.63 256.053 135.633 255.669 135.009 255.199C134.385 254.728 134.073 254.043 134.073 253.143C134.073 252.498 134.247 251.925 134.594 251.424C134.942 250.923 135.433 250.529 136.067 250.243C136.712 249.956 137.453 249.813 138.292 249.813C139.059 249.813 139.786 249.931 140.471 250.166C141.167 250.391 141.734 250.708 142.174 251.117L141.514 252.56C140.543 251.782 139.469 251.394 138.292 251.394C137.586 251.394 137.029 251.542 136.62 251.838C136.211 252.125 136.006 252.519 136.006 253.02C136.006 253.45 136.185 253.777 136.543 254.002C136.911 254.227 137.535 254.437 138.415 254.631C139.325 254.846 140.067 255.081 140.64 255.337C141.213 255.582 141.653 255.905 141.959 256.304C142.266 256.692 142.42 257.183 142.42 257.777C142.42 258.431 142.246 259.004 141.898 259.495C141.55 259.976 141.049 260.349 140.394 260.615C139.74 260.881 138.967 261.014 138.077 261.014ZM152.496 260.876L151.407 258.314H146.067L144.963 260.876H142.968L147.909 249.951H149.52L154.476 260.876H152.496ZM146.727 256.779H150.747L148.737 252.099L146.727 256.779Z" fill="#1C75DF"/>
</g>
<path d="M117.951 227.586C117.112 227.586 116.325 227.474 115.588 227.249C114.862 227.023 114.243 226.701 113.732 226.282L114.407 224.84C114.939 225.238 115.491 225.535 116.064 225.729C116.647 225.914 117.281 226.006 117.967 226.006C118.723 226.006 119.307 225.873 119.716 225.607C120.135 225.341 120.345 224.967 120.345 224.487C120.345 224.077 120.15 223.765 119.762 223.551C119.383 223.326 118.754 223.116 117.874 222.922C116.504 222.625 115.506 222.241 114.882 221.771C114.258 221.3 113.946 220.615 113.946 219.715C113.946 219.07 114.12 218.497 114.468 217.996C114.816 217.495 115.307 217.101 115.941 216.815C116.586 216.528 117.327 216.385 118.166 216.385C118.933 216.385 119.659 216.503 120.345 216.738C121.04 216.963 121.608 217.28 122.048 217.689L121.388 219.132C120.416 218.354 119.342 217.965 118.166 217.965C117.46 217.965 116.903 218.114 116.493 218.41C116.084 218.697 115.88 219.091 115.88 219.592C115.88 220.022 116.059 220.349 116.417 220.574C116.785 220.799 117.409 221.009 118.289 221.203C119.199 221.418 119.941 221.653 120.514 221.909C121.086 222.154 121.526 222.477 121.833 222.875C122.14 223.264 122.294 223.755 122.294 224.349C122.294 225.003 122.12 225.576 121.772 226.067C121.424 226.548 120.923 226.921 120.268 227.187C119.613 227.453 118.841 227.586 117.951 227.586ZM123.99 227.448V219.699H125.893V227.448H123.99ZM123.867 216.186H126V218.073H123.867V216.186ZM137.136 219.5C138.015 219.5 138.67 219.766 139.1 220.298C139.529 220.819 139.744 221.617 139.744 222.691V227.448H137.826V222.753C137.826 222.139 137.724 221.699 137.519 221.433C137.325 221.157 136.998 221.019 136.537 221.019C136.005 221.019 135.586 221.208 135.279 221.587C134.982 221.955 134.834 222.466 134.834 223.121V227.448H132.916V222.753C132.916 222.149 132.809 221.709 132.594 221.433C132.389 221.157 132.062 221.019 131.612 221.019C131.08 221.019 130.661 221.208 130.354 221.587C130.047 221.955 129.893 222.466 129.893 223.121V227.448H127.991V221.893C127.991 221.075 127.95 220.344 127.868 219.699H129.663L129.801 220.927C130.026 220.466 130.349 220.114 130.768 219.868C131.198 219.623 131.689 219.5 132.241 219.5C133.428 219.5 134.2 219.991 134.558 220.973C134.803 220.513 135.151 220.154 135.601 219.899C136.062 219.633 136.573 219.5 137.136 219.5ZM145.305 227.571C144.517 227.571 143.822 227.407 143.218 227.08C142.625 226.752 142.165 226.287 141.837 225.683C141.52 225.07 141.362 224.354 141.362 223.535C141.362 222.717 141.52 222.006 141.837 221.402C142.165 220.789 142.625 220.318 143.218 219.991C143.822 219.663 144.517 219.5 145.305 219.5C146.083 219.5 146.768 219.663 147.361 219.991C147.954 220.318 148.41 220.789 148.727 221.402C149.054 222.006 149.218 222.717 149.218 223.535C149.218 224.354 149.054 225.07 148.727 225.683C148.41 226.287 147.954 226.752 147.361 227.08C146.768 227.407 146.083 227.571 145.305 227.571ZM145.29 226.067C145.944 226.067 146.441 225.857 146.778 225.438C147.126 225.008 147.3 224.374 147.3 223.535C147.3 222.707 147.126 222.078 146.778 221.648C146.43 221.208 145.939 220.988 145.305 220.988C144.661 220.988 144.165 221.208 143.817 221.648C143.469 222.078 143.295 222.707 143.295 223.535C143.295 224.374 143.464 225.008 143.801 225.438C144.149 225.857 144.645 226.067 145.29 226.067ZM155.306 219.5C157.158 219.5 158.084 220.564 158.084 222.691V227.448H156.166V222.783C156.166 222.17 156.048 221.725 155.813 221.448C155.577 221.162 155.214 221.019 154.723 221.019C154.14 221.019 153.67 221.208 153.312 221.587C152.954 221.955 152.774 222.446 152.774 223.06V227.448H150.872V221.893C150.872 221.075 150.831 220.344 150.749 219.699H152.544L152.682 220.973C152.948 220.502 153.306 220.139 153.757 219.883C154.217 219.628 154.733 219.5 155.306 219.5ZM173.457 227.448H171.371L169.974 223.811C169.852 223.474 169.662 223.239 169.407 223.106C169.151 222.973 168.818 222.906 168.409 222.906H166.43V227.448H164.466V216.523H169.146C170.384 216.523 171.325 216.794 171.969 217.336C172.614 217.878 172.936 218.656 172.936 219.669C172.936 220.395 172.741 221.014 172.353 221.525C171.974 222.026 171.432 222.384 170.726 222.599C171.371 222.732 171.836 223.182 172.123 223.95L173.457 227.448ZM168.87 221.372C169.616 221.372 170.169 221.234 170.527 220.957C170.885 220.681 171.064 220.262 171.064 219.699C171.064 219.147 170.885 218.738 170.527 218.472C170.179 218.196 169.627 218.057 168.87 218.057H166.399V221.372H168.87ZM174.947 225.3H177.095V227.448H174.947V225.3Z" fill="#192948"/>
<rect x="96.0841" y="304.156" width="270.712" height="92.064" rx="3.836" fill="white" stroke="#DBE0E5" stroke-width="1.096"/>
<path opacity="0.4" d="M113.041 339.264C113.563 339.336 113.931 339.372 114.146 339.372C114.647 339.372 114.99 339.249 115.174 339.003C115.358 338.758 115.45 338.318 115.45 337.684V327.219H117.429V337.684C117.429 338.85 117.21 339.694 116.77 340.215C116.33 340.747 115.578 341.013 114.514 341.013C114.023 341.013 113.532 340.972 113.041 340.891V339.264ZM126.718 330.395V338.144H124.846V336.947C124.6 337.377 124.273 337.704 123.864 337.929C123.454 338.154 122.984 338.267 122.452 338.267C120.56 338.267 119.613 337.203 119.613 335.075V330.395H121.516V335.091C121.516 335.653 121.629 336.067 121.854 336.333C122.089 336.599 122.447 336.732 122.928 336.732C123.49 336.732 123.94 336.548 124.278 336.18C124.616 335.812 124.784 335.321 124.784 334.707V330.395H126.718ZM128.8 338.144V326.851H130.703V338.144H128.8ZM132.801 338.144V330.395H134.703V338.144H132.801ZM132.678 326.882H134.811V328.769H132.678V326.882ZM143.584 334.369H138.244C138.285 335.198 138.489 335.812 138.858 336.211C139.236 336.599 139.794 336.794 140.53 336.794C141.379 336.794 142.167 336.518 142.893 335.965L143.445 337.285C143.077 337.581 142.622 337.822 142.08 338.006C141.548 338.18 141.006 338.267 140.453 338.267C139.185 338.267 138.188 337.909 137.461 337.193C136.735 336.477 136.372 335.495 136.372 334.247C136.372 333.459 136.53 332.758 136.848 332.145C137.165 331.531 137.61 331.055 138.182 330.718C138.755 330.37 139.405 330.196 140.131 330.196C141.195 330.196 142.034 330.544 142.648 331.239C143.272 331.925 143.584 332.871 143.584 334.078V334.369ZM140.177 331.577C139.666 331.577 139.246 331.73 138.919 332.037C138.602 332.334 138.397 332.769 138.305 333.341H141.911C141.85 332.758 141.671 332.318 141.374 332.022C141.088 331.725 140.689 331.577 140.177 331.577ZM158.671 332.237V337.484C158.17 337.73 157.566 337.924 156.86 338.067C156.154 338.211 155.433 338.282 154.697 338.282C153.571 338.282 152.595 338.057 151.766 337.607C150.937 337.157 150.303 336.512 149.863 335.674C149.423 334.835 149.204 333.832 149.204 332.666C149.204 331.521 149.423 330.528 149.863 329.689C150.303 328.851 150.927 328.206 151.735 327.756C152.554 327.306 153.51 327.081 154.605 327.081C155.372 327.081 156.088 327.194 156.753 327.419C157.428 327.644 157.991 327.961 158.441 328.37L157.765 329.812C157.254 329.413 156.753 329.127 156.262 328.953C155.771 328.779 155.234 328.692 154.651 328.692C153.525 328.692 152.671 329.03 152.088 329.705C151.515 330.38 151.229 331.367 151.229 332.666C151.229 334.006 151.526 335.019 152.119 335.704C152.712 336.379 153.597 336.717 154.773 336.717C155.489 336.717 156.195 336.62 156.891 336.426V333.664H154.528V332.237H158.671ZM160.562 335.996H162.71V338.144H160.562V335.996Z" fill="#192948"/>
<g opacity="0.4" clip-path="url(#clip2)">
<rect x="112.571" y="352.928" width="67.952" height="26.304" rx="4.384" fill="#E8D0FF"/>
<path d="M122.521 371.572V360.647H129.656V362.228H124.485V365.22H129.349V366.815H124.485V371.572H122.521ZM135.187 363.639C135.484 363.639 135.74 363.68 135.955 363.762L135.939 365.511C135.612 365.378 135.274 365.312 134.926 365.312C134.272 365.312 133.771 365.501 133.423 365.879C133.085 366.258 132.916 366.759 132.916 367.383V371.572H131.014V366.017C131.014 365.199 130.973 364.468 130.891 363.823H132.686L132.84 365.189C133.034 364.688 133.341 364.304 133.76 364.038C134.18 363.772 134.655 363.639 135.187 363.639ZM144.284 363.823V371.572H142.396V370.329C142.161 370.759 141.824 371.096 141.384 371.342C140.944 371.577 140.443 371.695 139.88 371.695C139.205 371.695 138.607 371.531 138.085 371.204C137.563 370.876 137.159 370.411 136.873 369.807C136.586 369.204 136.443 368.503 136.443 367.705C136.443 366.907 136.586 366.202 136.873 365.588C137.169 364.964 137.578 364.483 138.1 364.146C138.622 363.798 139.215 363.624 139.88 363.624C140.443 363.624 140.944 363.747 141.384 363.992C141.824 364.227 142.161 364.56 142.396 364.989V363.823H144.284ZM140.402 370.191C141.036 370.191 141.527 369.971 141.875 369.531C142.223 369.091 142.396 368.473 142.396 367.675C142.396 366.856 142.223 366.227 141.875 365.787C141.527 365.347 141.031 365.128 140.386 365.128C139.752 365.128 139.256 365.358 138.898 365.818C138.55 366.268 138.376 366.897 138.376 367.705C138.376 368.503 138.55 369.117 138.898 369.547C139.256 369.976 139.757 370.191 140.402 370.191ZM150.807 363.624C152.659 363.624 153.584 364.688 153.584 366.815V371.572H151.666V366.907C151.666 366.294 151.549 365.849 151.313 365.573C151.078 365.286 150.715 365.143 150.224 365.143C149.641 365.143 149.17 365.332 148.812 365.711C148.454 366.079 148.275 366.57 148.275 367.184V371.572H146.373V366.017C146.373 365.199 146.332 364.468 146.25 363.823H148.045L148.183 365.097C148.449 364.626 148.807 364.263 149.257 364.007C149.718 363.752 150.234 363.624 150.807 363.624ZM159.132 371.695C158.324 371.695 157.623 371.531 157.03 371.204C156.436 370.876 155.981 370.416 155.664 369.823C155.347 369.219 155.188 368.513 155.188 367.705C155.188 366.897 155.352 366.186 155.679 365.573C156.017 364.959 156.488 364.483 157.091 364.146C157.705 363.798 158.411 363.624 159.209 363.624C159.761 363.624 160.293 363.711 160.804 363.885C161.326 364.059 161.74 364.299 162.047 364.606L161.51 365.956C161.183 365.69 160.835 365.491 160.467 365.358C160.099 365.214 159.735 365.143 159.377 365.143C158.682 365.143 158.14 365.363 157.751 365.803C157.362 366.232 157.168 366.856 157.168 367.675C157.168 368.493 157.357 369.117 157.736 369.547C158.124 369.976 158.672 370.191 159.377 370.191C159.735 370.191 160.099 370.119 160.467 369.976C160.835 369.833 161.183 369.628 161.51 369.362L162.047 370.713C161.72 371.02 161.295 371.26 160.774 371.434C160.252 371.608 159.705 371.695 159.132 371.695ZM170.117 367.797H164.777C164.818 368.626 165.023 369.24 165.391 369.639C165.77 370.027 166.327 370.222 167.064 370.222C167.913 370.222 168.7 369.946 169.427 369.393L169.979 370.713C169.611 371.009 169.156 371.25 168.613 371.434C168.081 371.608 167.539 371.695 166.987 371.695C165.718 371.695 164.721 371.337 163.995 370.621C163.269 369.905 162.905 368.923 162.905 367.675C162.905 366.887 163.064 366.186 163.381 365.573C163.698 364.959 164.143 364.483 164.716 364.146C165.289 363.798 165.938 363.624 166.665 363.624C167.729 363.624 168.567 363.972 169.181 364.667C169.805 365.353 170.117 366.299 170.117 367.506V367.797ZM166.711 365.005C166.199 365.005 165.78 365.158 165.453 365.465C165.135 365.762 164.931 366.197 164.839 366.769H168.445C168.383 366.186 168.204 365.746 167.908 365.45C167.621 365.153 167.222 365.005 166.711 365.005Z" fill="#7525DC"/>
</g>
<rect x="96.0841" y="414.852" width="270.712" height="92.064" rx="3.836" fill="white" stroke="#DBE0E5" stroke-width="1.096"/>
<g clip-path="url(#clip3)">
<rect x="113.072" y="463.624" width="39.456" height="26.304" rx="4.384" fill="#E7FFE8"/>
<path d="M127.532 482.406C126.029 482.406 124.888 482.023 124.111 481.255C123.344 480.478 122.96 479.342 122.96 477.849V471.343H124.909V477.956C124.909 478.898 125.129 479.614 125.568 480.105C126.008 480.585 126.663 480.826 127.532 480.826C128.382 480.826 129.026 480.58 129.466 480.089C129.916 479.598 130.141 478.887 130.141 477.956V471.343H132.09V477.849C132.09 479.332 131.701 480.463 130.923 481.24C130.146 482.017 129.016 482.406 127.532 482.406ZM143.862 482.268H141.438L136.359 477.159V482.268H134.379V471.343H136.359V476.238L141.238 471.343H143.617L138.308 476.591L143.862 482.268Z" fill="#0B8749"/>
</g>
<path d="M117.951 448.978C117.112 448.978 116.325 448.866 115.588 448.64C114.862 448.415 114.243 448.093 113.732 447.674L114.407 446.231C114.939 446.63 115.491 446.927 116.064 447.121C116.647 447.306 117.281 447.398 117.967 447.398C118.723 447.398 119.307 447.265 119.716 446.999C120.135 446.733 120.345 446.359 120.345 445.879C120.345 445.469 120.15 445.157 119.762 444.943C119.383 444.718 118.754 444.508 117.874 444.313C116.504 444.017 115.506 443.633 114.882 443.163C114.258 442.692 113.946 442.007 113.946 441.107C113.946 440.462 114.12 439.889 114.468 439.388C114.816 438.887 115.307 438.493 115.941 438.207C116.586 437.92 117.327 437.777 118.166 437.777C118.933 437.777 119.659 437.895 120.345 438.13C121.04 438.355 121.608 438.672 122.048 439.081L121.388 440.524C120.416 439.746 119.342 439.357 118.166 439.357C117.46 439.357 116.903 439.506 116.493 439.802C116.084 440.089 115.88 440.483 115.88 440.984C115.88 441.413 116.059 441.741 116.417 441.966C116.785 442.191 117.409 442.401 118.289 442.595C119.199 442.81 119.941 443.045 120.514 443.301C121.086 443.546 121.526 443.869 121.833 444.267C122.14 444.656 122.294 445.147 122.294 445.74C122.294 446.395 122.12 446.968 121.772 447.459C121.424 447.94 120.923 448.313 120.268 448.579C119.613 448.845 118.841 448.978 117.951 448.978ZM130.772 445.065H125.432C125.473 445.894 125.678 446.508 126.046 446.907C126.424 447.295 126.982 447.49 127.718 447.49C128.567 447.49 129.355 447.214 130.081 446.661L130.634 447.981C130.266 448.277 129.81 448.518 129.268 448.702C128.736 448.876 128.194 448.963 127.642 448.963C126.373 448.963 125.376 448.605 124.65 447.889C123.923 447.173 123.56 446.191 123.56 444.943C123.56 444.155 123.719 443.454 124.036 442.84C124.353 442.227 124.798 441.751 125.371 441.413C125.944 441.066 126.593 440.892 127.32 440.892C128.383 440.892 129.222 441.24 129.836 441.935C130.46 442.621 130.772 443.567 130.772 444.774V445.065ZM127.366 442.273C126.854 442.273 126.435 442.426 126.107 442.733C125.79 443.03 125.586 443.464 125.494 444.037H129.099C129.038 443.454 128.859 443.014 128.562 442.718C128.276 442.421 127.877 442.273 127.366 442.273ZM137.693 441.107H139.596L136.205 448.84H134.532L131.187 441.107H133.197L135.422 446.661L137.693 441.107ZM147.24 445.065H141.9C141.941 445.894 142.146 446.508 142.514 446.907C142.892 447.295 143.45 447.49 144.186 447.49C145.035 447.49 145.823 447.214 146.549 446.661L147.102 447.981C146.733 448.277 146.278 448.518 145.736 448.702C145.204 448.876 144.662 448.963 144.11 448.963C142.841 448.963 141.844 448.605 141.117 447.889C140.391 447.173 140.028 446.191 140.028 444.943C140.028 444.155 140.187 443.454 140.504 442.84C140.821 442.227 141.266 441.751 141.839 441.413C142.412 441.066 143.061 440.892 143.787 440.892C144.851 440.892 145.69 441.24 146.304 441.935C146.928 442.621 147.24 443.567 147.24 444.774V445.065ZM143.833 442.273C143.322 442.273 142.903 442.426 142.575 442.733C142.258 443.03 142.053 443.464 141.961 444.037H145.567C145.506 443.454 145.327 443.014 145.03 442.718C144.744 442.421 144.345 442.273 143.833 442.273ZM153.038 440.907C153.334 440.907 153.59 440.948 153.805 441.03L153.789 442.779C153.462 442.646 153.124 442.58 152.777 442.58C152.122 442.58 151.621 442.769 151.273 443.147C150.935 443.526 150.767 444.027 150.767 444.651V448.84H148.864V443.285C148.864 442.467 148.823 441.736 148.741 441.091H150.536L150.69 442.457C150.884 441.956 151.191 441.572 151.611 441.306C152.03 441.04 152.506 440.907 153.038 440.907ZM161.931 441.091V448.84H160.059V447.643C159.813 448.073 159.486 448.4 159.077 448.625C158.668 448.85 158.197 448.963 157.665 448.963C155.773 448.963 154.827 447.899 154.827 445.771V441.091H156.729V445.787C156.729 446.349 156.842 446.763 157.067 447.029C157.302 447.295 157.66 447.428 158.141 447.428C158.704 447.428 159.154 447.244 159.491 446.876C159.829 446.508 159.998 446.017 159.998 445.403V441.091H161.931ZM166.852 448.963C165.45 448.963 164.335 448.635 163.507 447.981L164.044 446.63C164.872 447.244 165.819 447.551 166.882 447.551C167.343 447.551 167.696 447.474 167.941 447.321C168.197 447.167 168.325 446.953 168.325 446.676C168.325 446.441 168.238 446.257 168.064 446.124C167.89 445.981 167.593 445.858 167.174 445.756L165.885 445.464C164.473 445.157 163.768 444.436 163.768 443.301C163.768 442.83 163.901 442.416 164.167 442.058C164.433 441.69 164.806 441.403 165.287 441.199C165.767 440.994 166.325 440.892 166.959 440.892C167.512 440.892 168.043 440.979 168.555 441.153C169.066 441.316 169.517 441.557 169.905 441.874L169.338 443.178C168.56 442.605 167.762 442.319 166.944 442.319C166.504 442.319 166.161 442.401 165.916 442.564C165.67 442.728 165.548 442.953 165.548 443.239C165.548 443.464 165.619 443.643 165.762 443.776C165.916 443.909 166.172 444.022 166.53 444.114L167.849 444.406C168.616 444.579 169.174 444.851 169.522 445.219C169.88 445.577 170.059 446.047 170.059 446.63C170.059 447.346 169.772 447.914 169.199 448.334C168.627 448.753 167.844 448.963 166.852 448.963ZM179.747 448.978C178.908 448.978 178.12 448.866 177.384 448.64C176.657 448.415 176.039 448.093 175.527 447.674L176.202 446.231C176.734 446.63 177.287 446.927 177.859 447.121C178.442 447.306 179.077 447.398 179.762 447.398C180.519 447.398 181.102 447.265 181.511 446.999C181.931 446.733 182.14 446.359 182.14 445.879C182.14 445.469 181.946 445.157 181.557 444.943C181.179 444.718 180.55 444.508 179.67 444.313C178.299 444.017 177.302 443.633 176.678 443.163C176.054 442.692 175.742 442.007 175.742 441.107C175.742 440.462 175.916 439.889 176.264 439.388C176.611 438.887 177.102 438.493 177.737 438.207C178.381 437.92 179.123 437.777 179.962 437.777C180.729 437.777 181.455 437.895 182.14 438.13C182.836 438.355 183.404 438.672 183.844 439.081L183.184 440.524C182.212 439.746 181.138 439.357 179.962 439.357C179.256 439.357 178.698 439.506 178.289 439.802C177.88 440.089 177.675 440.483 177.675 440.984C177.675 441.413 177.854 441.741 178.212 441.966C178.581 442.191 179.205 442.401 180.084 442.595C180.995 442.81 181.736 443.045 182.309 443.301C182.882 443.546 183.322 443.869 183.629 444.267C183.936 444.656 184.089 445.147 184.089 445.74C184.089 446.395 183.915 446.968 183.567 447.459C183.22 447.94 182.718 448.313 182.064 448.579C181.409 448.845 180.637 448.978 179.747 448.978ZM185.436 446.692H187.584V448.84H185.436V446.692Z" fill="#192948"/>
<g filter="url(#filter0_d)">
<rect x="402.416" y="114" width="306.88" height="300.304" rx="4.384" fill="white"/>
<g clip-path="url(#clip4)">
<path d="M421.302 160.304V147.818H423.565V160.304H421.302ZM434.668 147.818H436.79V160.304H435.107L428.373 151.553V160.304H426.269V147.818H427.952L434.668 156.551V147.818ZM448.66 147.818H450.957L445.398 160.304H443.557L437.998 147.818H440.348L444.504 157.463L448.66 147.818ZM452.145 160.304V147.818H454.407V160.304H452.145ZM460.039 160.304V149.677H455.971V147.818H466.405V149.677H462.319V160.304H460.039ZM467.968 160.304V147.818H476.315V149.607H470.178V153.062H475.947V154.85H470.178V158.515H476.315V160.304H467.968ZM493.187 160.462C492.182 160.111 491.317 159.608 490.592 158.954C489.505 159.947 488.254 160.444 486.839 160.444C485.998 160.444 485.249 160.304 484.595 160.023C483.952 159.731 483.449 159.328 483.087 158.813C482.736 158.299 482.56 157.709 482.56 157.042C482.56 156.282 482.771 155.61 483.192 155.026C483.613 154.441 484.285 153.892 485.208 153.377C484.741 152.863 484.402 152.389 484.191 151.957C483.981 151.524 483.876 151.08 483.876 150.624C483.876 149.747 484.191 149.04 484.823 148.502C485.454 147.964 486.278 147.696 487.295 147.696C488.23 147.696 488.979 147.941 489.54 148.432C490.101 148.923 490.382 149.578 490.382 150.396C490.382 151.027 490.194 151.6 489.82 152.115C489.458 152.629 488.856 153.132 488.014 153.623L490.487 156.183C490.978 155.189 491.247 154.061 491.293 152.799H493.152C493.07 154.622 492.614 156.195 491.784 157.516C492.474 158.159 493.304 158.638 494.275 158.954L493.187 160.462ZM487.313 149.204C486.88 149.204 486.529 149.332 486.261 149.589C486.003 149.847 485.875 150.192 485.875 150.624C485.875 150.893 485.945 151.156 486.085 151.413C486.237 151.67 486.512 152.021 486.909 152.465C487.529 152.103 487.962 151.776 488.207 151.483C488.464 151.179 488.593 150.846 488.593 150.484C488.593 150.098 488.476 149.788 488.242 149.554C488.008 149.321 487.699 149.204 487.313 149.204ZM484.7 156.92C484.7 157.481 484.899 157.925 485.296 158.252C485.694 158.58 486.231 158.743 486.909 158.743C487.821 158.743 488.645 158.404 489.382 157.726L486.313 154.552C485.752 154.903 485.343 155.265 485.086 155.639C484.828 156.013 484.7 156.44 484.7 156.92ZM504.321 160.462C503.362 160.462 502.462 160.333 501.62 160.076C500.79 159.819 500.083 159.451 499.498 158.971L500.27 157.323C500.878 157.779 501.509 158.118 502.164 158.34C502.83 158.55 503.555 158.656 504.338 158.656C505.203 158.656 505.87 158.504 506.337 158.2C506.817 157.896 507.056 157.469 507.056 156.92C507.056 156.452 506.834 156.095 506.39 155.85C505.957 155.593 505.238 155.353 504.233 155.131C502.666 154.792 501.527 154.353 500.814 153.816C500.1 153.278 499.744 152.495 499.744 151.466C499.744 150.729 499.943 150.075 500.34 149.502C500.738 148.929 501.299 148.479 502.024 148.152C502.76 147.824 503.608 147.66 504.566 147.66C505.443 147.66 506.273 147.795 507.056 148.064C507.851 148.321 508.5 148.683 509.003 149.151L508.249 150.799C507.138 149.911 505.911 149.467 504.566 149.467C503.76 149.467 503.122 149.636 502.655 149.975C502.187 150.303 501.953 150.753 501.953 151.326C501.953 151.817 502.158 152.191 502.567 152.448C502.988 152.705 503.701 152.945 504.707 153.167C505.747 153.412 506.595 153.681 507.249 153.973C507.904 154.254 508.407 154.622 508.757 155.078C509.108 155.522 509.283 156.084 509.283 156.762C509.283 157.51 509.085 158.165 508.687 158.726C508.29 159.275 507.717 159.702 506.969 160.006C506.22 160.31 505.338 160.462 504.321 160.462ZM517.044 160.462C515.817 160.462 514.741 160.199 513.817 159.673C512.906 159.147 512.204 158.404 511.713 157.446C511.222 156.475 510.977 155.341 510.977 154.044C510.977 152.758 511.222 151.635 511.713 150.677C512.204 149.706 512.906 148.964 513.817 148.45C514.741 147.924 515.817 147.66 517.044 147.66C517.886 147.66 518.675 147.795 519.411 148.064C520.16 148.321 520.779 148.683 521.27 149.151L520.534 150.799C519.973 150.344 519.411 150.016 518.85 149.817C518.301 149.607 517.71 149.502 517.079 149.502C515.875 149.502 514.94 149.893 514.273 150.677C513.619 151.46 513.291 152.582 513.291 154.044C513.291 155.517 513.619 156.651 514.273 157.446C514.928 158.229 515.863 158.62 517.079 158.62C517.71 158.62 518.301 158.521 518.85 158.322C519.411 158.112 519.973 157.779 520.534 157.323L521.27 158.971C520.779 159.439 520.16 159.807 519.411 160.076C518.675 160.333 517.886 160.462 517.044 160.462ZM532.012 147.818H534.257V160.304H532.012V154.885H525.612V160.304H523.385V147.818H525.612V153.044H532.012V147.818ZM536.965 160.304V147.818H545.312V149.607H539.174V153.062H544.944V154.85H539.174V158.515H545.312V160.304H536.965ZM547.394 147.818H551.988C554.034 147.818 555.618 148.362 556.74 149.449C557.874 150.536 558.441 152.068 558.441 154.044C558.441 156.031 557.874 157.574 556.74 158.673C555.618 159.76 554.034 160.304 551.988 160.304H547.394V147.818ZM551.848 158.463C554.724 158.463 556.162 156.99 556.162 154.044C556.162 151.121 554.724 149.66 551.848 149.66H549.656V158.463H551.848ZM565.907 160.462C564.188 160.462 562.885 160.023 561.996 159.147C561.12 158.258 560.681 156.96 560.681 155.254V147.818H562.908V155.376C562.908 156.452 563.16 157.27 563.662 157.831C564.165 158.381 564.913 158.656 565.907 158.656C566.877 158.656 567.614 158.375 568.116 157.814C568.631 157.253 568.888 156.44 568.888 155.376V147.818H571.115V155.254C571.115 156.949 570.671 158.241 569.782 159.129C568.894 160.018 567.602 160.462 565.907 160.462ZM573.732 160.304V147.818H575.994V158.445H581.834V160.304H573.732ZM583.545 160.304V147.818H591.892V149.607H585.754V153.062H591.524V154.85H585.754V158.515H591.892V160.304H583.545Z" fill="#536383"/>
<rect x="601.888" y="140.304" width="27.4" height="26.304" rx="4.384" fill="#FFFAC4"/>
<path d="M615.259 159.086C613.96 159.086 612.968 158.61 612.283 157.659C611.608 156.698 611.27 155.301 611.27 153.47C611.27 151.67 611.608 150.294 612.283 149.343C612.968 148.391 613.96 147.916 615.259 147.916C616.559 147.916 617.546 148.391 618.221 149.343C618.906 150.284 619.249 151.66 619.249 153.47C619.249 155.291 618.906 156.682 618.221 157.644C617.546 158.605 616.559 159.086 615.259 159.086ZM615.259 157.536C615.965 157.536 616.477 157.214 616.794 156.57C617.121 155.915 617.285 154.882 617.285 153.47C617.285 152.079 617.121 151.066 616.794 150.432C616.477 149.788 615.965 149.465 615.259 149.465C614.554 149.465 614.037 149.788 613.71 150.432C613.393 151.066 613.234 152.079 613.234 153.47C613.234 154.882 613.393 155.915 613.71 156.57C614.037 157.214 614.554 157.536 615.259 157.536Z" fill="#E26F1D"/>
</g>
<rect x="647.92" y="131.536" width="43.84" height="43.84" rx="4.384" fill="white"/>
<path d="M669.84 143.592C668.936 143.592 668.196 144.332 668.196 145.236C668.196 146.14 668.936 146.88 669.84 146.88C670.744 146.88 671.484 146.14 671.484 145.236C671.484 144.332 670.744 143.592 669.84 143.592ZM669.84 160.032C668.936 160.032 668.196 160.772 668.196 161.676C668.196 162.58 668.936 163.32 669.84 163.32C670.744 163.32 671.484 162.58 671.484 161.676C671.484 160.772 670.744 160.032 669.84 160.032ZM669.84 151.812C668.936 151.812 668.196 152.552 668.196 153.456C668.196 154.36 668.936 155.1 669.84 155.1C670.744 155.1 671.484 154.36 671.484 153.456C671.484 152.552 670.744 151.812 669.84 151.812Z" fill="#8896AB"/>
<rect x="420.5" y="193.46" width="270.712" height="92.064" rx="3.836" fill="white" stroke="#DBE0E5" stroke-width="1.096"/>
<g clip-path="url(#clip5)">
<rect x="437.488" y="242.232" width="50.416" height="26.304" rx="4.384" fill="#E3F4FF"/>
<path d="M451.948 261.014C450.445 261.014 449.304 260.631 448.527 259.863C447.76 259.086 447.376 257.951 447.376 256.457V249.951H449.325V256.564C449.325 257.506 449.545 258.222 449.984 258.713C450.424 259.193 451.079 259.434 451.948 259.434C452.798 259.434 453.442 259.188 453.882 258.697C454.332 258.206 454.557 257.495 454.557 256.564V249.951H456.506V256.457C456.506 257.94 456.117 259.071 455.34 259.848C454.562 260.625 453.432 261.014 451.948 261.014ZM462.493 261.014C461.655 261.014 460.867 260.902 460.13 260.677C459.404 260.452 458.785 260.129 458.274 259.71L458.949 258.268C459.481 258.667 460.033 258.963 460.606 259.158C461.189 259.342 461.823 259.434 462.509 259.434C463.266 259.434 463.849 259.301 464.258 259.035C464.677 258.769 464.887 258.395 464.887 257.915C464.887 257.506 464.693 257.194 464.304 256.979C463.926 256.754 463.296 256.544 462.417 256.35C461.046 256.053 460.049 255.669 459.425 255.199C458.801 254.728 458.489 254.043 458.489 253.143C458.489 252.498 458.663 251.925 459.01 251.424C459.358 250.923 459.849 250.529 460.483 250.243C461.128 249.956 461.869 249.813 462.708 249.813C463.475 249.813 464.202 249.931 464.887 250.166C465.583 250.391 466.15 250.708 466.59 251.117L465.93 252.56C464.959 251.782 463.885 251.394 462.708 251.394C462.002 251.394 461.445 251.542 461.036 251.838C460.627 252.125 460.422 252.519 460.422 253.02C460.422 253.45 460.601 253.777 460.959 254.002C461.327 254.227 461.951 254.437 462.831 254.631C463.741 254.846 464.483 255.081 465.056 255.337C465.629 255.582 466.069 255.905 466.375 256.304C466.682 256.692 466.836 257.183 466.836 257.777C466.836 258.431 466.662 259.004 466.314 259.495C465.966 259.976 465.465 260.349 464.81 260.615C464.156 260.881 463.383 261.014 462.493 261.014ZM476.912 260.876L475.823 258.314H470.483L469.379 260.876H467.384L472.325 249.951H473.936L478.892 260.876H476.912ZM471.143 256.779H475.163L473.153 252.099L471.143 256.779Z" fill="#1C75DF"/>
</g>
<path d="M443.625 227.586C442.551 227.586 441.61 227.356 440.802 226.896C440.004 226.435 439.39 225.786 438.961 224.947C438.531 224.098 438.316 223.106 438.316 221.97C438.316 220.845 438.531 219.863 438.961 219.024C439.39 218.175 440.004 217.526 440.802 217.075C441.61 216.615 442.551 216.385 443.625 216.385C444.362 216.385 445.052 216.503 445.697 216.738C446.352 216.963 446.894 217.28 447.323 217.689L446.679 219.132C446.188 218.733 445.697 218.446 445.206 218.272C444.725 218.088 444.208 217.996 443.656 217.996C442.602 217.996 441.784 218.339 441.201 219.024C440.628 219.71 440.342 220.692 440.342 221.97C440.342 223.259 440.628 224.251 441.201 224.947C441.774 225.632 442.592 225.975 443.656 225.975C444.208 225.975 444.725 225.888 445.206 225.714C445.697 225.53 446.188 225.238 446.679 224.84L447.323 226.282C446.894 226.691 446.352 227.013 445.697 227.249C445.052 227.474 444.362 227.586 443.625 227.586ZM449.035 227.448V216.155H450.938V227.448H449.035ZM460.447 219.699V227.448H458.56V226.205C458.325 226.635 457.987 226.972 457.547 227.218C457.107 227.453 456.606 227.571 456.043 227.571C455.368 227.571 454.77 227.407 454.248 227.08C453.727 226.752 453.322 226.287 453.036 225.683C452.75 225.08 452.606 224.379 452.606 223.581C452.606 222.783 452.75 222.078 453.036 221.464C453.333 220.84 453.742 220.359 454.264 220.022C454.785 219.674 455.379 219.5 456.043 219.5C456.606 219.5 457.107 219.623 457.547 219.868C457.987 220.103 458.325 220.436 458.56 220.865V219.699H460.447ZM456.565 226.067C457.199 226.067 457.69 225.847 458.038 225.407C458.386 224.967 458.56 224.349 458.56 223.551C458.56 222.732 458.386 222.103 458.038 221.663C457.69 221.223 457.194 221.004 456.55 221.004C455.916 221.004 455.419 221.234 455.061 221.694C454.714 222.144 454.54 222.773 454.54 223.581C454.54 224.379 454.714 224.993 455.061 225.423C455.419 225.852 455.921 226.067 456.565 226.067ZM466.71 219.515C467.006 219.515 467.262 219.556 467.477 219.638L467.462 221.387C467.134 221.254 466.797 221.188 466.449 221.188C465.794 221.188 465.293 221.377 464.945 221.755C464.608 222.134 464.439 222.635 464.439 223.259V227.448H462.536V221.893C462.536 221.075 462.495 220.344 462.413 219.699H464.209L464.362 221.065C464.556 220.564 464.863 220.18 465.283 219.914C465.702 219.648 466.178 219.515 466.71 219.515ZM476.232 227.448H473.839L470.448 223.873V227.448H468.545V216.155H470.448V223.121L473.639 219.715H475.956L472.473 223.413L476.232 227.448ZM490.827 227.448H488.403L483.324 222.338V227.448H481.345V216.523H483.324V221.418L488.204 216.523H490.582L485.273 221.771L490.827 227.448ZM491.376 225.3H493.525V227.448H491.376V225.3Z" fill="#192948"/>
<rect x="420.5" y="304.156" width="270.712" height="92.064" rx="3.836" fill="white" stroke="#DBE0E5" stroke-width="1.096"/>
</g>
<g filter="url(#filter1_d)">
<rect x="375.541" y="329.541" width="267.341" height="90.9176" rx="3.78824" fill="white" stroke="#DBE0E5" stroke-width="1.08235"/>
<path d="M392.288 364.424C392.803 364.495 393.166 364.53 393.379 364.53C393.874 364.53 394.212 364.409 394.394 364.166C394.576 363.924 394.667 363.489 394.667 362.863V352.529H396.621V362.863C396.621 364.015 396.404 364.848 395.97 365.363C395.535 365.889 394.793 366.151 393.742 366.151C393.257 366.151 392.772 366.111 392.288 366.03V364.424ZM405.794 355.665V363.318H403.945V362.136C403.703 362.56 403.379 362.883 402.975 363.105C402.571 363.328 402.107 363.439 401.581 363.439C399.712 363.439 398.778 362.388 398.778 360.287V355.665H400.657V360.302C400.657 360.858 400.768 361.267 400.99 361.53C401.223 361.792 401.576 361.924 402.051 361.924C402.607 361.924 403.051 361.742 403.384 361.378C403.718 361.014 403.885 360.529 403.885 359.923V355.665H405.794ZM407.85 363.318V352.165H409.729V363.318H407.85ZM411.801 363.318V355.665H413.68V363.318H411.801ZM411.68 352.195H413.786V354.059H411.68V352.195ZM422.45 359.59H417.177C417.217 360.408 417.419 361.014 417.783 361.408C418.156 361.792 418.707 361.984 419.434 361.984C420.273 361.984 421.051 361.711 421.768 361.166L422.313 362.469C421.95 362.762 421.5 362.999 420.965 363.181C420.439 363.353 419.904 363.439 419.359 363.439C418.106 363.439 417.121 363.085 416.404 362.378C415.686 361.671 415.328 360.701 415.328 359.469C415.328 358.691 415.484 357.999 415.798 357.393C416.111 356.787 416.55 356.317 417.116 355.984C417.682 355.64 418.323 355.468 419.04 355.468C420.091 355.468 420.919 355.812 421.525 356.499C422.142 357.176 422.45 358.11 422.45 359.302V359.59ZM419.086 356.832C418.581 356.832 418.167 356.984 417.843 357.287C417.53 357.58 417.328 358.009 417.237 358.575H420.798C420.737 357.999 420.561 357.565 420.268 357.272C419.985 356.979 419.591 356.832 419.086 356.832ZM437.349 357.484V362.666C436.854 362.908 436.258 363.1 435.561 363.242C434.864 363.383 434.152 363.454 433.424 363.454C432.313 363.454 431.349 363.232 430.53 362.787C429.712 362.343 429.086 361.706 428.651 360.878C428.217 360.05 428 359.06 428 357.908C428 356.777 428.217 355.797 428.651 354.968C429.086 354.14 429.702 353.504 430.5 353.059C431.308 352.615 432.253 352.392 433.334 352.392C434.091 352.392 434.798 352.503 435.455 352.726C436.122 352.948 436.677 353.261 437.122 353.665L436.455 355.09C435.95 354.696 435.455 354.413 434.97 354.241C434.485 354.069 433.955 353.983 433.379 353.983C432.268 353.983 431.424 354.317 430.848 354.984C430.283 355.65 430 356.625 430 357.908C430 359.231 430.293 360.231 430.879 360.908C431.465 361.575 432.339 361.908 433.5 361.908C434.207 361.908 434.904 361.812 435.591 361.62V358.893H433.258V357.484H437.349ZM439.217 361.196H441.338V363.318H439.217V361.196Z" fill="#192948"/>
<g clip-path="url(#clip6)">
<rect x="391.823" y="377.706" width="136.376" height="25.9765" rx="4.32941" fill="#E8D0FF"/>
<path d="M401.648 396.329V385.541H408.694V387.101H403.588V390.056H408.391V391.632H403.588V396.329H401.648ZM414.157 388.495C414.45 388.495 414.702 388.536 414.915 388.617L414.899 390.344C414.576 390.213 414.243 390.147 413.899 390.147C413.253 390.147 412.758 390.334 412.414 390.708C412.081 391.081 411.914 391.576 411.914 392.193V396.329H410.035V390.844C410.035 390.036 409.995 389.314 409.914 388.677H411.687L411.839 390.026C412.031 389.531 412.334 389.152 412.748 388.889C413.162 388.627 413.632 388.495 414.157 388.495ZM423.14 388.677V396.329H421.276V395.102C421.044 395.526 420.711 395.86 420.276 396.102C419.842 396.335 419.347 396.451 418.791 396.451C418.125 396.451 417.534 396.289 417.018 395.966C416.503 395.643 416.104 395.183 415.821 394.587C415.538 393.991 415.397 393.299 415.397 392.511C415.397 391.723 415.538 391.026 415.821 390.42C416.114 389.804 416.518 389.329 417.034 388.995C417.549 388.652 418.135 388.48 418.791 388.48C419.347 388.48 419.842 388.601 420.276 388.844C420.711 389.076 421.044 389.405 421.276 389.829V388.677H423.14ZM419.306 394.966C419.933 394.966 420.418 394.749 420.761 394.314C421.105 393.88 421.276 393.269 421.276 392.481C421.276 391.672 421.105 391.051 420.761 390.617C420.418 390.182 419.928 389.965 419.291 389.965C418.665 389.965 418.175 390.193 417.822 390.647C417.478 391.092 417.306 391.713 417.306 392.511C417.306 393.299 417.478 393.905 417.822 394.329C418.175 394.754 418.67 394.966 419.306 394.966ZM429.582 388.48C431.411 388.48 432.325 389.531 432.325 391.632V396.329H430.431V391.723C430.431 391.117 430.315 390.677 430.082 390.405C429.85 390.122 429.491 389.98 429.007 389.98C428.431 389.98 427.966 390.167 427.612 390.541C427.259 390.905 427.082 391.39 427.082 391.996V396.329H425.203V390.844C425.203 390.036 425.163 389.314 425.082 388.677H426.855L426.991 389.935C427.254 389.47 427.607 389.112 428.052 388.859C428.506 388.607 429.017 388.48 429.582 388.48ZM437.803 396.451C437.005 396.451 436.313 396.289 435.727 395.966C435.142 395.643 434.692 395.188 434.379 394.602C434.066 394.006 433.909 393.309 433.909 392.511C433.909 391.713 434.071 391.011 434.394 390.405C434.727 389.799 435.192 389.329 435.788 388.995C436.394 388.652 437.091 388.48 437.879 388.48C438.425 388.48 438.95 388.566 439.455 388.738C439.97 388.91 440.379 389.147 440.682 389.45L440.152 390.783C439.829 390.521 439.485 390.324 439.122 390.193C438.758 390.051 438.399 389.98 438.046 389.98C437.359 389.98 436.823 390.198 436.44 390.632C436.056 391.056 435.864 391.672 435.864 392.481C435.864 393.289 436.051 393.905 436.424 394.329C436.808 394.754 437.349 394.966 438.046 394.966C438.399 394.966 438.758 394.895 439.122 394.754C439.485 394.612 439.829 394.41 440.152 394.147L440.682 395.481C440.359 395.784 439.94 396.021 439.425 396.193C438.91 396.365 438.369 396.451 437.803 396.451ZM448.652 392.602H443.379C443.419 393.42 443.621 394.026 443.985 394.42C444.358 394.804 444.909 394.996 445.636 394.996C446.475 394.996 447.253 394.723 447.97 394.178L448.515 395.481C448.152 395.774 447.702 396.011 447.167 396.193C446.642 396.365 446.106 396.451 445.561 396.451C444.308 396.451 443.323 396.097 442.606 395.39C441.889 394.683 441.53 393.713 441.53 392.481C441.53 391.703 441.687 391.011 442 390.405C442.313 389.799 442.752 389.329 443.318 388.995C443.884 388.652 444.525 388.48 445.242 388.48C446.293 388.48 447.121 388.824 447.727 389.511C448.344 390.187 448.652 391.122 448.652 392.314V392.602ZM445.288 389.844C444.783 389.844 444.369 389.996 444.045 390.299C443.732 390.592 443.53 391.021 443.439 391.587H447C446.94 391.011 446.763 390.576 446.47 390.283C446.187 389.99 445.793 389.844 445.288 389.844Z" fill="#7525DC"/>
</g>
</g>
<g clip-path="url(#clip7)">
<path d="M542.587 370.489C543.282 370.489 543.846 371.065 543.846 371.775V372.609C543.846 371.837 544.491 371.211 545.287 371.211C546.083 371.211 546.728 371.837 546.728 372.609V373.691C546.728 372.918 547.376 372.292 548.175 372.292C548.974 372.292 549.622 372.918 549.622 373.691V374.435C549.624 373.848 550.106 373.372 550.701 373.372C551.296 373.372 551.779 373.849 551.779 374.439C551.779 374.439 551.786 376.521 551.786 378.789C551.786 381.058 549.583 383.413 549.583 384.922C547.711 384.922 543.653 384.922 542.382 384.922C542.382 383.57 538.796 380.9 538.796 379.305C538.796 379.286 538.795 374.414 538.795 374.414C538.795 373.64 539.441 373.011 540.238 373.01V375.833C540.238 376.071 540.482 376.265 540.783 376.265C541.084 376.265 541.327 376.071 541.327 375.833V371.775C541.327 371.065 541.891 370.489 542.587 370.489ZM542.587 369.407C541.295 369.407 540.244 370.469 540.244 371.775V371.928H540.237C538.845 371.929 537.712 373.045 537.712 374.414L537.713 379.306C537.713 380.539 538.767 381.755 539.881 383.042C540.383 383.621 541.219 384.586 541.299 384.945V386.005H542.382H549.583H550.665V384.922C550.665 384.511 551.096 383.689 551.476 382.964C552.128 381.718 552.868 380.306 552.868 378.79C552.868 376.52 552.861 374.436 552.861 374.436C552.861 373.255 551.892 372.291 550.7 372.291C550.559 372.291 550.422 372.304 550.288 372.33C549.835 371.656 549.057 371.21 548.175 371.21C547.919 371.21 547.672 371.247 547.44 371.317C546.996 370.605 546.197 370.129 545.287 370.129C544.978 370.129 544.68 370.184 544.405 370.286C543.976 369.749 543.32 369.407 542.587 369.407Z" fill="black"/>
</g>
</g>
<defs>
<filter id="filter0_d" x="385.976" y="101.944" width="339.76" height="333.184" filterUnits="userSpaceOnUse" color-interpolation-filters="sRGB">
<feFlood flood-opacity="0" result="BackgroundImageFix"/>
<feColorMatrix in="SourceAlpha" type="matrix" values="0 0 0 0 0 0 0 0 0 0 0 0 0 0 0 0 0 0 127 0"/>
<feOffset dy="4.384"/>
<feGaussianBlur stdDeviation="8.22"/>
<feColorMatrix type="matrix" values="0 0 0 0 0.0980392 0 0 0 0 0.160784 0 0 0 0 0.282353 0 0 0 0.15 0"/>
<feBlend mode="normal" in2="BackgroundImageFix" result="effect1_dropShadow"/>
<feBlend mode="normal" in="SourceGraphic" in2="effect1_dropShadow" result="shape"/>
</filter>
<filter id="filter1_d" x="358.765" y="317.094" width="300.894" height="124.471" filterUnits="userSpaceOnUse" color-interpolation-filters="sRGB">
<feFlood flood-opacity="0" result="BackgroundImageFix"/>
<feColorMatrix in="SourceAlpha" type="matrix" values="0 0 0 0 0 0 0 0 0 0 0 0 0 0 0 0 0 0 127 0"/>
<feOffset dy="4.32941"/>
<feGaussianBlur stdDeviation="8.11765"/>
<feColorMatrix type="matrix" values="0 0 0 0 0.0980392 0 0 0 0 0.160784 0 0 0 0 0.282353 0 0 0 0.15 0"/>
<feBlend mode="normal" in2="BackgroundImageFix" result="effect1_dropShadow"/>
<feBlend mode="normal" in="SourceGraphic" in2="effect1_dropShadow" result="shape"/>
</filter>
<clipPath id="clip0">
<rect width="788" height="640" fill="white"/>
</clipPath>
<clipPath id="clip1">
<rect width="50.416" height="26.304" fill="white" transform="translate(113.072 242.232)"/>
</clipPath>
<clipPath id="clip2">
<rect width="67.952" height="26.304" fill="white" transform="translate(112.571 352.928)"/>
</clipPath>
<clipPath id="clip3">
<rect width="39.456" height="26.304" fill="white" transform="translate(113.072 463.624)"/>
</clipPath>
<clipPath id="clip4">
<rect width="209.336" height="26.304" fill="white" transform="translate(419.952 140.304)"/>
</clipPath>
<clipPath id="clip5">
<rect width="50.416" height="26.304" fill="white" transform="translate(437.488 242.232)"/>
</clipPath>
<clipPath id="clip6">
<rect width="136.376" height="25.9765" fill="white" transform="translate(391.823 377.706)"/>
</clipPath>
<clipPath id="clip7">
<rect width="15.8745" height="17.3176" fill="white" transform="translate(537.353 369.047)"/>
</clipPath>
</defs>
</svg>
