<svg width="64" height="64" viewBox="0 0 64 64" fill="none" xmlns="http://www.w3.org/2000/svg">
<rect width="64" height="64" rx="24" fill="#FFE4D8"/>
<g clip-path="url(#clip0)">
<path d="M27.9585 25.6971L21.1321 22.9666C19.0836 22.1472 17.7595 20.1925 17.7595 17.9861C17.7595 15.0278 20.1662 12.6211 23.1245 12.6211C25.3309 12.6211 27.2856 13.9452 28.105 15.9937L30.5197 22.0305C30.76 22.6313 30.467 23.3134 29.8662 23.5537C29.2712 23.7929 28.5834 23.5033 28.343 22.9002L25.9284 16.8634C25.4671 15.7098 24.3673 14.9648 23.1245 14.9648C21.4583 14.9648 20.1033 16.3198 20.1033 17.9861C20.1033 19.2289 20.8483 20.3287 22.0019 20.7899L28.8283 23.5205C29.4291 23.7608 29.722 24.4429 29.4817 25.0437C29.2388 25.6525 28.5478 25.9348 27.9585 25.6971V25.6971Z" fill="white"/>
<path d="M34.3942 25.0437C34.1539 24.4429 34.4468 23.7608 35.0476 23.5205L41.874 20.7899C43.0276 20.3287 43.7726 19.2289 43.7726 17.9861C43.7726 16.3198 42.4176 14.9648 40.7514 14.9648C39.5085 14.9648 38.4088 15.7098 37.9475 16.8634L35.5329 22.9002C35.2914 23.5034 34.6025 23.7917 34.0097 23.5537C33.4089 23.3134 33.1159 22.6313 33.3562 22.0305L35.7709 15.9937C36.5903 13.9452 38.545 12.6211 40.7514 12.6211C43.7096 12.6211 46.1163 15.0278 46.1163 17.9861C46.1163 20.1925 44.7923 22.1472 42.7438 22.9666L35.9174 25.6971C35.3263 25.9355 34.6365 25.6509 34.3942 25.0437V25.0437Z" fill="#F7F9FB"/>
<path d="M35.3541 24.2269V24.8835L34.0125 25.5401H29.9876L28.646 24.8835V24.2269C28.646 22.4147 30.1486 20.9438 32 20.9438C33.8515 20.9438 35.3541 22.4147 35.3541 24.2269Z" fill="white"/>
<path d="M34.0124 25.5401H32V20.9438C33.8514 20.9438 35.354 22.4147 35.354 24.2269V24.8835L34.0124 25.5401Z" fill="#F7F9FB"/>
<path d="M47.2344 30.75V50.8281C47.2344 51.4843 46.7188 52 46.0625 52H36.8656L34.5218 49.6563H31.3532L29.0094 52H17.9375C17.2812 52 16.7656 51.4843 16.7656 50.8281V30.75H47.2344Z" fill="#FF5533"/>
<path d="M47.2344 30.75V50.8281C47.2344 51.4843 46.7188 52 46.0625 52H34.9906L32.6468 49.6563H32V30.75H47.2344Z" fill="#FF5533"/>
<path d="M49.5781 24.8906V31.9219C49.5781 32.578 49.0626 33.0938 48.4063 33.0938H15.5938C14.9374 33.0938 14.4219 32.578 14.4219 31.9219V24.8906C14.4219 24.2343 14.9374 23.7188 15.5938 23.7188H29.0094L31.3532 26.0625H32.6468L34.9906 23.7188H48.4063C49.0626 23.7188 49.5781 24.2343 49.5781 24.8906Z" fill="#DC3A16"/>
<path d="M49.5781 24.8906V31.9219C49.5781 32.578 49.0626 33.0938 48.4062 33.0938H32V26.0625H33.6406L35.9844 23.7188H48.4062C49.0626 23.7188 49.5781 24.2343 49.5781 24.8906Z" fill="#DC3A16"/>
<path d="M28.646 23.6768H35.3541V51.9997H28.646V23.6768Z" fill="white"/>
<path d="M32 23.6768H35.354V51.9997H32V23.6768Z" fill="#F7F9FB"/>
</g>
<defs>
<clipPath id="clip0">
<rect width="40" height="40" fill="white" transform="translate(12 12)"/>
</clipPath>
</defs>
</svg>
