<svg width="140" height="140" viewBox="0 0 140 140" fill="none" xmlns="http://www.w3.org/2000/svg">
<rect width="140" height="140" fill="white"/>
<mask id="mask0" mask-type="alpha" maskUnits="userSpaceOnUse" x="0" y="0" width="140" height="140">
<rect width="139.007" height="140" rx="69.5035" fill="#E8D0FF"/>
</mask>
<g mask="url(#mask0)">
<rect width="140" height="140" fill="#FFFAC4"/>
</g>
<path d="M80.3125 93.8127C81.4375 90.0628 83.6875 86.6878 86.6876 84.0626C92.3126 79.3751 95.8752 72.2501 95.8752 64.3751C95.8752 49.7502 83.6877 37.7501 68.6876 38.5002C55.375 39.0627 44.4999 50.3127 44.125 63.6251C43.9374 71.8752 47.5 79.1877 53.3125 84.0626C56.5 86.6876 58.75 90.0626 59.875 93.8127H80.3125Z" fill="#FFD938"/>
<path d="M67.5625 94.1874H69.25L61.7499 66.2499C61.9375 66.2499 62.1249 66.2499 62.3124 66.2499C63.2499 66.2499 64.1875 65.875 64.9374 65.1249C65.3123 64.75 65.6874 64.5624 66.2499 64.5624C66.8124 64.5624 67.1874 64.75 67.5625 65.1249C68.875 66.6249 71.125 66.6249 72.4374 65.1249C72.8124 64.75 73.1875 64.5624 73.75 64.5624C74.1249 64.5624 74.6874 64.75 75.0625 65.1249C75.8126 65.875 76.5625 66.2499 77.6875 66.2499C77.875 66.2499 78.0624 66.2499 78.25 66.2499L70.9375 94.1874H72.625L80.3124 64.9374C80.3124 64.5624 80.3124 64.1873 79.9375 63.9999C79.5625 63.8124 79.1874 63.9999 79 64.1875C78.6251 64.5624 78.25 64.75 77.875 64.75C77.3125 64.75 76.9376 64.5624 76.3751 64.1875C75.625 63.4374 74.8752 63.0625 73.9375 63.0625C72.9999 63.0625 72.25 63.4374 71.5 64.1875C70.7499 64.9376 69.6249 64.9376 68.875 64.1875C68.3125 63.4374 67.3751 63.0625 66.4375 63.0625C65.5 63.0625 64.5624 63.4374 63.9999 64.1875C63.625 64.5624 63.0625 64.75 62.5 64.75C62.125 64.75 61.5625 64.5624 61.375 64.1875C61.1874 63.9999 60.8125 63.8126 60.4375 63.9999C60.0626 64.1875 59.875 64.5624 60.0626 64.9374L67.5625 94.1874Z" fill="white"/>
<path d="M64.1875 111.062C65.1251 113.312 67.3751 115 70.0001 115C72.625 115 74.875 113.312 75.8126 111.062H64.1875Z" fill="#192948"/>
<path d="M76.9376 111.25H63.25C61.3749 111.25 59.875 109.75 59.875 107.875V93.625H80.3126V107.875C80.3126 109.75 78.8124 111.25 76.9376 111.25Z" fill="#192948"/>
<path d="M80.1249 100.75H59.8749C58.7499 100.75 57.8125 99.8124 57.8125 98.6874C57.8125 97.5624 58.7499 96.625 59.8749 96.625H80.1249C81.2499 96.625 82.1874 97.5624 82.1874 98.6874C82.1874 99.8124 81.2499 100.75 80.1249 100.75Z" fill="#536383"/>
<path d="M80.1249 107.312H59.8749C58.7499 107.312 57.8125 106.375 57.8125 105.25C57.8125 104.125 58.7499 103.188 59.8749 103.188H80.1249C81.2499 103.188 82.1874 104.125 82.1874 105.25C82.1874 106.375 81.2499 107.312 80.1249 107.312Z" fill="#536383"/>
<path d="M69.9998 25C69.0624 25 68.1248 25.7501 68.1248 26.8751V33.2501C68.1248 34.1876 68.8748 35.1252 69.9998 35.1252C71.1248 35.1252 71.8749 34.3751 71.8749 33.2501V26.8751C71.8749 25.7501 70.9373 25 69.9998 25Z" fill="#FFD938"/>
<path d="M44.8749 36.4375C44.1249 35.6875 42.9999 35.6875 42.25 36.4375C41.5001 37.1876 41.4999 38.3126 42.25 39.0625L46.75 43.5625C47.5 44.3125 48.625 44.3125 49.3749 43.5625C50.1248 42.8124 50.125 41.6874 49.3749 40.9375L44.8749 36.4375Z" fill="#FFD938"/>
<path d="M39.0624 62.3125H32.6873C31.7499 62.3125 30.8123 63.0626 30.8123 64.1876C30.8123 65.125 31.5623 66.0626 32.6873 66.0626H39.0624C39.9998 66.0626 40.9374 65.3126 40.9374 64.1876C40.9374 63.2499 39.9998 62.3125 39.0624 62.3125Z" fill="#FFD938"/>
<path d="M46.7498 84.8125L42.2498 89.3125C41.4997 90.0625 41.4997 91.1875 42.2498 91.9374C42.9999 92.6873 44.1249 92.6875 44.8747 91.9374L49.3747 87.4374C50.1248 86.6874 50.1248 85.5624 49.3747 84.8125C48.6247 84.0626 47.4999 84.0624 46.7498 84.8125Z" fill="#FFD938"/>
<path d="M93.2499 84.8125C92.4999 84.0625 91.3749 84.0625 90.6248 84.8125C89.8747 85.5626 89.8747 86.6876 90.6248 87.4375L95.1248 91.9375C95.8749 92.6875 96.9999 92.6875 97.7497 91.9375C98.4996 91.1874 98.4998 90.0624 97.7497 89.3125L93.2499 84.8125Z" fill="#FFD938"/>
<path d="M107.312 62.3125H100.937C99.9999 62.3125 99.0623 63.0626 99.0623 64.1876C99.0623 65.125 99.8123 66.0626 100.937 66.0626H107.312C108.25 66.0626 109.187 65.3126 109.187 64.1876C109.187 63.2499 108.437 62.3125 107.312 62.3125Z" fill="#FFD938"/>
<path d="M95.1248 36.4375L90.6248 40.9375C89.8747 41.6875 89.8747 42.8125 90.6248 43.5624C91.3749 44.3125 92.4999 44.3125 93.2497 43.5624L97.7497 39.0624C98.4998 38.3124 98.4998 37.1874 97.7497 36.4375C96.9997 35.6876 95.8749 35.6874 95.1248 36.4375Z" fill="#FFD938"/>
</svg>
