<svg width="134" height="40" viewBox="0 0 134 40" fill="none" xmlns="http://www.w3.org/2000/svg">
<path fill-rule="evenodd" clip-rule="evenodd" d="M92.866 11.0485C92.8065 11.0079 92.7471 10.9877 92.6678 11.0079C92.362 11.0861 91.8525 11.2201 91.3247 11.3588L91.3243 11.3589L91.3238 11.359L91.3236 11.3591C90.6202 11.544 89.8847 11.7373 89.5565 11.8183C89.4574 11.8588 89.3781 11.9399 89.3781 12.0614V16.1133C89.3781 16.2146 89.3187 16.2957 89.2394 16.3362C89.1403 16.3767 89.0412 16.3565 88.9818 16.2754C88.7242 16.0323 88.4269 15.8297 88.1098 15.6676C87.5748 15.4043 86.9803 15.2624 86.3461 15.2624C85.494 15.2624 84.7211 15.4853 84.0473 15.9108C83.3735 16.3565 82.8583 16.9845 82.4818 17.7949C82.1052 18.6053 81.9071 19.5372 81.9071 20.5907C81.9071 21.6645 82.1052 22.5964 82.4818 23.4068C82.8583 24.2374 83.3735 24.8655 84.0473 25.3112C84.7211 25.7771 85.494 26 86.3461 26C87.0001 26 87.6144 25.8582 88.1693 25.5745C88.5062 25.4125 88.7836 25.2099 89.0214 24.9668C89.1007 24.8857 89.1998 24.8655 89.2791 24.906C89.3781 24.9465 89.4376 25.0275 89.4376 25.1288V25.5948C89.4376 25.6556 89.4574 25.7164 89.5169 25.7771C89.5565 25.8177 89.6159 25.8379 89.6754 25.8379H92.7272C92.866 25.8379 92.965 25.7366 92.965 25.5948V11.2308C92.965 11.17 92.9254 11.089 92.866 11.0485ZM88.9222 22.5761C88.5853 23.0421 88.0899 23.265 87.4557 23.265C86.8216 23.265 86.3261 23.0421 85.9893 22.5559C85.6325 22.0899 85.4542 21.4416 85.4542 20.5907C85.4542 19.7601 85.6325 19.132 85.9694 18.6863C86.3063 18.2609 86.8018 18.038 87.4557 18.038C88.0701 18.038 88.5655 18.2609 88.9222 18.7066C89.2591 19.1725 89.4374 19.8006 89.4374 20.6312C89.4374 21.4821 89.2591 22.1304 88.9222 22.5761ZM54.9556 23.0421C55.1339 23.0421 55.3519 23.0219 55.6294 22.9813C55.7086 22.9611 55.7681 22.9813 55.8275 23.0219C55.8672 23.0624 55.9068 23.1434 55.9068 23.2042V25.534C55.9068 25.6353 55.8474 25.7164 55.7483 25.7569C55.2925 25.919 54.7178 26 54.044 26C52.6766 26 51.6461 25.6151 50.9525 24.8249C50.2391 24.0348 49.8824 22.9611 49.8824 21.5632V18.4837C49.8824 18.3419 49.7833 18.2406 49.6446 18.2406H48.2376C48.0988 18.2406 47.9998 18.1393 47.9998 17.9975V15.7892C47.9998 15.6474 48.0988 15.5461 48.2376 15.5461H49.6446C49.704 15.5461 49.7635 15.5258 49.8031 15.4853C49.8626 15.4245 49.8824 15.3637 49.8824 15.303V13.3783C49.8824 13.277 49.9418 13.196 50.0409 13.1555C50.2638 13.0822 50.6913 12.9436 51.1705 12.7882L51.171 12.7881L51.171 12.7881C51.8849 12.5566 52.7136 12.2879 53.1522 12.1425C53.2315 12.1222 53.3108 12.1222 53.3702 12.183C53.4297 12.2235 53.4693 12.2843 53.4693 12.3653V15.303C53.4693 15.3637 53.4891 15.4245 53.5486 15.4853C53.5882 15.5258 53.6477 15.5461 53.7071 15.5461H55.6492C55.7086 15.5461 55.7681 15.5663 55.8077 15.6069C55.8672 15.6676 55.887 15.7284 55.887 15.7892V17.9975C55.887 18.0583 55.8672 18.119 55.8077 18.1798C55.7681 18.2203 55.7086 18.2406 55.6492 18.2406H53.7071C53.5684 18.2406 53.4693 18.3419 53.4693 18.4837V21.5632C53.4693 22.0494 53.608 22.4141 53.9053 22.6572C54.1827 22.9206 54.5394 23.0421 54.9556 23.0421ZM67.8564 15.7892C67.8564 15.6474 67.7573 15.5461 67.6186 15.5461H64.5668C64.428 15.5461 64.3289 15.6474 64.3289 15.7892V16.1741C64.3289 16.2754 64.2695 16.3565 64.1704 16.397C64.0911 16.4375 63.9921 16.4172 63.9128 16.3362C63.675 16.0931 63.3777 15.8702 63.0606 15.6879C62.5058 15.4043 61.8914 15.2624 61.2375 15.2624C60.3853 15.2624 59.6323 15.4853 58.9585 15.9513C58.2847 16.4172 57.7496 17.0453 57.3731 17.8759C56.9966 18.7066 56.7984 19.6385 56.7984 20.7123C56.7984 21.7658 56.9966 22.6977 57.3731 23.4878C57.7496 24.2982 58.2649 24.9262 58.9387 25.3517C59.6125 25.7771 60.3853 26 61.2375 26C61.8914 26 62.5058 25.8582 63.0606 25.5745C63.3975 25.4125 63.675 25.2099 63.9128 24.9668C63.9921 24.8857 64.0911 24.8655 64.1704 24.906C64.2695 24.9465 64.3289 25.0275 64.3289 25.1288V25.5948C64.3289 25.6556 64.3488 25.7164 64.4082 25.7771C64.4478 25.8177 64.5073 25.8379 64.5668 25.8379H67.6186C67.7573 25.8379 67.8564 25.7366 67.8564 25.5948V15.7892ZM63.8136 22.5964C63.4767 23.0421 62.9812 23.265 62.3471 23.265C61.6931 23.265 61.1977 23.0421 60.8608 22.5964C60.5239 22.1709 60.3455 21.5429 60.3455 20.7123C60.3455 19.8614 60.5239 19.1928 60.8806 18.7268C61.2373 18.2609 61.7328 18.038 62.3471 18.038C62.9812 18.038 63.4767 18.2609 63.8136 18.7066C64.1504 19.1725 64.3288 19.8208 64.3288 20.6717C64.3288 21.5024 64.1504 22.1507 63.8136 22.5964ZM79.4104 16.3565C78.8159 15.6271 77.9241 15.2624 76.7351 15.2624C76.0217 15.2624 75.3875 15.4245 74.8128 15.7284C74.3966 15.9513 74.0399 16.2349 73.7427 16.5996C73.6634 16.6806 73.5841 16.7009 73.4851 16.6806C73.386 16.6604 73.3265 16.5793 73.3265 16.478C73.2869 16.2349 73.2473 15.9513 73.2274 15.7487C73.2274 15.6271 73.1085 15.5461 72.9896 15.5461H70.0963C70.0369 15.5461 69.9774 15.5663 69.918 15.6271C69.8783 15.6676 69.8585 15.7487 69.8783 15.8095C69.9576 16.5996 69.9972 17.5113 69.9972 18.504V25.5948C69.9972 25.7366 70.0963 25.8379 70.235 25.8379H73.3463C73.4058 25.8379 73.4652 25.8177 73.5049 25.7771C73.5643 25.7164 73.5841 25.6556 73.5841 25.5948V20.1045C73.5841 19.4967 73.7427 19.0105 74.0796 18.6255C74.4165 18.2609 74.8524 18.0785 75.3875 18.0785C75.8433 18.0785 76.1604 18.2203 76.3784 18.4837C76.5964 18.7673 76.6954 19.2333 76.6954 19.8614V25.5948C76.6954 25.7366 76.7945 25.8379 76.9333 25.8379H80.0445C80.1833 25.8379 80.2824 25.7366 80.2824 25.5948V19.6993C80.2824 18.2203 79.9851 17.1061 79.4104 16.3565ZM104.399 20.8136C104.399 20.9554 104.3 21.0567 104.162 21.0567H98.3354C98.2759 21.0567 98.1966 21.0769 98.157 21.1377C98.1174 21.1985 98.0976 21.2593 98.0976 21.32C98.1966 21.9886 98.4146 22.4748 98.7515 22.7787C99.1281 23.1231 99.7028 23.3055 100.436 23.3055C100.931 23.3055 101.447 23.2244 101.942 23.0421C102.338 22.9206 102.715 22.7382 103.072 22.5154C103.131 22.4748 103.191 22.4748 103.27 22.4951C103.329 22.5154 103.389 22.5761 103.409 22.6369C103.607 23.1434 104.003 24.1969 104.162 24.6224C104.201 24.7237 104.162 24.8249 104.082 24.8857C103.607 25.2099 103.052 25.4733 102.398 25.6758C101.684 25.8987 100.971 26 100.258 26C99.1082 26 98.1174 25.7771 97.2652 25.3517C96.4131 24.9262 95.7789 24.2982 95.3232 23.4878C94.8674 22.6977 94.6494 21.7455 94.6494 20.6515C94.6494 19.6182 94.8674 18.6863 95.3033 17.8557C95.7195 17.0453 96.314 16.4172 97.0869 15.9513C97.8399 15.4853 98.7119 15.2624 99.6829 15.2624C100.634 15.2624 101.466 15.4853 102.18 15.9108C102.893 16.3362 103.448 16.9643 103.825 17.7544C104.201 18.5648 104.399 19.4967 104.399 20.5704V20.8136ZM99.7818 17.7746C98.9891 17.7746 98.454 18.2001 98.1964 19.051C98.1766 19.1118 98.1964 19.1928 98.236 19.2536C98.2757 19.3144 98.3351 19.3549 98.4144 19.3549H101.05C101.129 19.3549 101.189 19.3144 101.228 19.2738C101.288 19.2131 101.308 19.132 101.288 19.0712C101.09 18.2001 100.594 17.7746 99.7818 17.7746ZM118.886 15.2624C120.055 15.2624 120.907 15.6271 121.482 16.3565C122.037 17.0858 122.314 18.2001 122.314 19.6993V25.5948C122.314 25.7366 122.215 25.8379 122.076 25.8379H118.965C118.906 25.8379 118.846 25.8177 118.807 25.7771C118.747 25.7164 118.727 25.6556 118.727 25.5948V19.8006C118.727 19.1928 118.648 18.7471 118.47 18.4837C118.291 18.2203 117.974 18.0785 117.558 18.0785C117.063 18.0785 116.666 18.2609 116.389 18.6458C116.111 19.0307 115.973 19.5575 115.973 20.2463V25.5948C115.973 25.6556 115.953 25.7164 115.893 25.7771C115.854 25.8177 115.794 25.8379 115.735 25.8379H112.624C112.564 25.8379 112.505 25.8177 112.465 25.7771C112.406 25.7164 112.386 25.6556 112.386 25.5948V19.8006C112.386 19.1928 112.287 18.7471 112.108 18.4837C111.93 18.2203 111.633 18.0785 111.217 18.0785C110.721 18.0785 110.325 18.2609 110.067 18.6458C109.79 19.0307 109.651 19.5575 109.651 20.2463V25.5948C109.651 25.6556 109.631 25.7164 109.572 25.7771C109.532 25.8177 109.473 25.8379 109.413 25.8379H106.302C106.163 25.8379 106.064 25.7366 106.064 25.5948V18.504C106.064 17.5113 106.024 16.5996 105.945 15.8095C105.925 15.7487 105.945 15.6676 105.985 15.6271C106.044 15.5663 106.104 15.5461 106.163 15.5461H109.057C109.175 15.5461 109.294 15.6271 109.294 15.7487C109.302 15.809 109.312 15.8806 109.323 15.9571V15.9571C109.341 16.0862 109.361 16.2293 109.374 16.3565C109.393 16.4578 109.453 16.5388 109.552 16.5591C109.631 16.5793 109.73 16.5591 109.79 16.478C110.047 16.1741 110.364 15.9108 110.741 15.7082C111.276 15.4043 111.91 15.2624 112.624 15.2624C114.07 15.2624 115.041 15.8905 115.557 17.1263C115.913 16.5591 116.389 16.1133 116.983 15.7689C117.558 15.4245 118.192 15.2624 118.886 15.2624ZM128.755 22.9813C128.715 22.9003 128.735 22.799 128.795 22.718C129.805 21.6239 132.599 18.5242 133.055 18.0177C133.095 17.9772 133.115 17.9164 133.115 17.8557V15.7892C133.115 15.6474 133.016 15.5461 132.877 15.5461H124.514C124.455 15.5461 124.395 15.5663 124.355 15.6069C124.296 15.6676 124.276 15.7284 124.276 15.7892V17.9975C124.276 18.1393 124.375 18.2406 124.514 18.2406H128.279C128.378 18.2406 128.458 18.3014 128.497 18.3824C128.537 18.4635 128.517 18.5648 128.458 18.6458C127.467 19.7195 124.752 22.718 124.316 23.2042C124.276 23.2447 124.256 23.3055 124.256 23.3663V25.5948C124.256 25.6556 124.276 25.7164 124.336 25.7771C124.375 25.8177 124.435 25.8379 124.494 25.8379H133.075C133.214 25.8379 133.313 25.7366 133.313 25.5948V23.3663C133.313 23.2244 133.214 23.1231 133.075 23.1231H128.973C128.874 23.1231 128.795 23.0624 128.755 22.9813Z" fill="#192948"/>
<rect width="40" height="40" rx="20" fill="#FF5533"/>
<path fill-rule="evenodd" clip-rule="evenodd" d="M14.6592 15.0912C14.7999 14.441 14.9395 13.7904 15.0767 13.1394C15.1698 12.6656 14.7825 12.1591 14.2649 12.1632L12.8844 12.1838C12.582 12.1763 12.5564 12.1032 12.4704 12.0195C12.1482 11.707 12.3599 11.0483 12.867 11.0208L14.251 11.0001C14.2789 10.9999 14.2789 11 14.3056 11.0001C15.471 11.0242 16.4666 12.185 16.2107 13.3968L15.778 15.3771C16.9946 15.8314 18.0425 16.7094 18.7356 17.8055C19.0764 16.2508 19.43 14.6991 19.758 13.1415C19.851 12.6679 19.4649 12.161 18.9462 12.1652L17.5656 12.1857C17.0074 12.1721 16.7073 11.1617 17.4575 11.0313C17.4982 11.0243 17.5086 11.025 17.5482 11.0228L18.9334 11.0022C18.9601 11.002 18.9601 11.002 18.988 11.0022C20.1418 11.026 21.135 12.1675 20.8977 13.3733C20.4755 15.3805 20.0092 17.3781 19.5858 19.3851C19.4928 19.8535 19.8708 20.3572 20.3837 20.3615H20.3953C20.5186 18.9859 21.128 17.6522 22.1201 16.6851C23.4669 15.3718 25.4417 14.7715 27.3212 15.1406C27.3584 15.148 27.3956 15.1557 27.4317 15.1636C29.8275 15.6974 31.7512 17.8674 31.9768 20.3089C32.2083 22.8153 30.6719 25.2034 28.9552 27.0811C28.3237 27.7711 27.3898 28.6007 26.4919 29.3159C26.1477 29.5819 25.6778 29.615 25.2998 29.4002C24.9218 29.1854 24.709 28.7644 24.7613 28.3328C24.8462 27.5859 24.93 26.8924 24.9614 26.636C24.9684 26.5767 24.93 26.5216 24.8718 26.5086C22.669 26.0003 20.8268 24.0606 20.4476 21.8019C20.4325 21.7097 20.4197 21.6173 20.4081 21.5246H20.3778C20.1069 21.5223 19.844 21.4583 19.6033 21.3458C19.4056 23.4692 18.0611 25.4644 16.5829 27.0811C15.9525 27.7711 15.0186 28.6007 14.1207 29.3159C13.7765 29.5819 13.3054 29.615 12.9274 29.4002C12.5495 29.1854 12.3378 28.7644 12.3901 28.3328C12.475 27.5859 12.5588 26.8924 12.5902 26.636C12.5971 26.5767 12.5576 26.5216 12.4994 26.5086C10.2967 26.0003 8.4544 24.0606 8.07642 21.8019C7.76705 19.9603 8.41137 17.9893 9.74886 16.6851C11.0259 15.4395 12.8681 14.8353 14.6592 15.0912ZM14.4103 16.2319C12.5669 16.0098 10.6258 16.9669 9.7279 18.6161C8.94634 20.0483 8.99635 21.8928 9.85118 23.2811C10.5106 24.3503 11.6143 25.1217 12.846 25.3941C13.0519 25.4413 13.2286 25.4741 13.3787 25.4968C13.5368 25.5143 13.6811 25.5964 13.7764 25.7237C13.873 25.851 13.9125 26.0123 13.8846 26.1694C13.7857 26.7687 13.6345 27.6477 13.5543 28.111C13.5462 28.1591 13.5694 28.2074 13.6113 28.2317C13.6543 28.256 13.7066 28.2512 13.7439 28.2197C15.1767 27.0084 16.4026 25.7398 17.3911 24.1201C18.232 22.7425 18.7449 21.077 18.2669 19.5011C17.8622 18.1633 16.8352 17.0503 15.528 16.5226L14.5347 21.0739C14.394 21.6148 13.3415 21.6765 13.3857 20.9163C13.388 20.8757 13.3915 20.8658 13.3984 20.8259C13.7334 19.294 14.0742 17.7636 14.4103 16.2319ZM21.5956 21.5261C21.6852 22.1456 21.8945 22.7471 22.2236 23.2811C22.8819 24.3503 23.9868 25.1217 25.2185 25.3941C25.4231 25.4413 25.6011 25.4741 25.75 25.4968C25.9093 25.5143 26.0524 25.5964 26.1489 25.7237C26.2443 25.851 26.2838 26.0123 26.257 26.1694C26.157 26.7687 26.0058 27.6477 25.9267 28.111C25.9186 28.1591 25.9407 28.2074 25.9837 28.2317C26.0256 28.256 26.0791 28.2512 26.1163 28.2197C27.548 27.0084 28.7739 25.7398 29.7636 24.1201C30.6045 22.7425 31.1162 21.077 30.6394 19.5011C30.1683 17.9456 28.8564 16.6939 27.241 16.313C27.2026 16.3039 27.1631 16.2953 27.1235 16.2871C25.1836 15.8936 23.054 16.8645 22.0992 18.6161C21.8049 19.1554 21.6293 19.7532 21.5688 20.3631L25.8058 20.3684C26.1442 20.3821 26.4338 20.7017 26.3792 21.0416C26.3408 21.2831 26.1361 21.4866 25.8953 21.5244C25.8558 21.5307 25.8453 21.5299 25.8046 21.5314L21.5956 21.5261Z" fill="white"/>
</svg>
