<svg width="135" height="40" viewBox="0 0 135 40" fill="none" xmlns="http://www.w3.org/2000/svg">
<path fill-rule="evenodd" clip-rule="evenodd" d="M95.6496 12.0472C95.5917 12.0077 95.5339 11.988 95.4568 12.0077C95.1597 12.0836 94.665 12.2137 94.1523 12.3485L94.1503 12.349L94.1501 12.3491L94.1496 12.3492L94.149 12.3493L94.148 12.3496C93.464 12.5294 92.749 12.7174 92.4298 12.7961C92.3334 12.8356 92.2563 12.9144 92.2563 13.0327V16.9747C92.2563 17.0733 92.1985 17.1521 92.1213 17.1915C92.0249 17.231 91.9285 17.2112 91.8707 17.1324C91.6201 16.8959 91.3309 16.6988 91.0224 16.5411C90.5018 16.2849 89.9234 16.1469 89.3065 16.1469C88.4774 16.1469 87.7255 16.3637 87.07 16.7776C86.4145 17.2112 85.9132 17.8223 85.5469 18.6107C85.1806 19.3991 84.9878 20.3058 84.9878 21.3307C84.9878 22.3753 85.1806 23.282 85.5469 24.0704C85.9132 24.8785 86.4145 25.4896 87.07 25.9232C87.7255 26.3765 88.4774 26.5933 89.3065 26.5933C89.9427 26.5933 90.5404 26.4554 91.0802 26.1794C91.408 26.0217 91.6779 25.8246 91.9093 25.5881C91.9864 25.5093 92.0828 25.4896 92.1599 25.529C92.2563 25.5684 92.3141 25.6473 92.3141 25.7458V26.1991C92.3141 26.2583 92.3334 26.3174 92.3912 26.3765C92.4298 26.416 92.4877 26.4357 92.5455 26.4357H95.5146C95.6496 26.4357 95.746 26.3371 95.746 26.1991V12.2245C95.746 12.1654 95.7074 12.0866 95.6496 12.0472ZM91.8127 23.2623C91.485 23.7156 91.003 23.9325 90.386 23.9325C89.769 23.9325 89.287 23.7156 88.9593 23.2426C88.6122 22.7893 88.4387 22.1585 88.4387 21.3307C88.4387 20.5226 88.6122 19.9116 88.94 19.4779C89.2678 19.064 89.7498 18.8472 90.386 18.8472C90.9837 18.8472 91.4657 19.064 91.8127 19.4976C92.1405 19.951 92.314 20.562 92.314 21.3701C92.314 22.198 92.1405 22.8287 91.8127 23.2623ZM58.767 23.7156C58.9405 23.7156 59.1526 23.6959 59.4225 23.6565C59.4997 23.6368 59.5575 23.6565 59.6153 23.6959C59.6539 23.7354 59.6925 23.8142 59.6925 23.8733V26.14C59.6925 26.2386 59.6346 26.3174 59.5382 26.3568C59.0948 26.5145 58.5357 26.5933 57.8801 26.5933C56.5498 26.5933 55.5473 26.2189 54.8725 25.4501C54.1784 24.6814 53.8314 23.6368 53.8314 22.2768V19.2808C53.8314 19.1429 53.735 19.0443 53.6 19.0443H52.2311C52.0962 19.0443 51.9998 18.9458 51.9998 18.8078V16.6594C51.9998 16.5214 52.0962 16.4228 52.2311 16.4228H53.6C53.6578 16.4228 53.7157 16.4031 53.7542 16.3637C53.8121 16.3046 53.8314 16.2454 53.8314 16.1863V14.3138C53.8314 14.2153 53.8892 14.1364 53.9856 14.097C54.2025 14.0258 54.6186 13.8908 55.085 13.7396L55.0851 13.7396C55.7796 13.5144 56.5858 13.253 57.0125 13.1115C57.0897 13.0918 57.1668 13.0918 57.2246 13.1509C57.2825 13.1904 57.321 13.2495 57.321 13.3283V16.1863C57.321 16.2454 57.3403 16.3046 57.3981 16.3637C57.4367 16.4031 57.4945 16.4228 57.5524 16.4228H59.4418C59.4997 16.4228 59.5575 16.4425 59.5961 16.482C59.6539 16.5411 59.6732 16.6002 59.6732 16.6594V18.8078C59.6732 18.8669 59.6539 18.926 59.5961 18.9852C59.5575 19.0246 59.4997 19.0443 59.4418 19.0443H57.5524C57.4174 19.0443 57.321 19.1429 57.321 19.2808V22.2768C57.321 22.7498 57.456 23.1046 57.7452 23.3411C58.0151 23.5974 58.3621 23.7156 58.767 23.7156ZM71.318 16.6594C71.318 16.5214 71.2216 16.4228 71.0867 16.4228H68.1176C67.9826 16.4228 67.8862 16.5214 67.8862 16.6594V17.0339C67.8862 17.1324 67.8284 17.2112 67.732 17.2507C67.6548 17.2901 67.5584 17.2704 67.4813 17.1915C67.25 16.955 66.9608 16.7382 66.6523 16.5608C66.1124 16.2849 65.5148 16.1469 64.8785 16.1469C64.0495 16.1469 63.3168 16.3637 62.6613 16.817C62.0058 17.2704 61.4853 17.8814 61.1189 18.6895C60.7526 19.4976 60.5598 20.4043 60.5598 21.449C60.5598 22.4739 60.7526 23.3806 61.1189 24.1493C61.4853 24.9377 61.9865 25.5487 62.6421 25.9626C63.2976 26.3765 64.0495 26.5933 64.8785 26.5933C65.5148 26.5933 66.1124 26.4554 66.6523 26.1794C66.98 26.0217 67.25 25.8246 67.4813 25.5881C67.5584 25.5093 67.6548 25.4896 67.732 25.529C67.8284 25.5684 67.8862 25.6473 67.8862 25.7458V26.1991C67.8862 26.2583 67.9055 26.3174 67.9633 26.3765C68.0019 26.416 68.0597 26.4357 68.1176 26.4357H71.0867C71.2216 26.4357 71.318 26.3371 71.318 26.1991V16.6594ZM67.3848 23.282C67.057 23.7156 66.575 23.9325 65.9581 23.9325C65.3218 23.9325 64.8398 23.7156 64.5121 23.282C64.1843 22.8681 64.0108 22.2571 64.0108 21.449C64.0108 20.6211 64.1843 19.9707 64.5313 19.5173C64.8784 19.064 65.3604 18.8472 65.9581 18.8472C66.575 18.8472 67.057 19.064 67.3848 19.4976C67.7125 19.951 67.8861 20.5817 67.8861 21.4095C67.8861 22.2177 67.7125 22.8484 67.3848 23.282ZM82.559 17.2112C81.9806 16.5017 81.113 16.1469 79.9562 16.1469C79.2621 16.1469 78.6451 16.3046 78.086 16.6002C77.6811 16.817 77.3341 17.093 77.0449 17.4478C76.9678 17.5266 76.8907 17.5463 76.7943 17.5266C76.6979 17.5069 76.64 17.4281 76.64 17.3295C76.6015 17.093 76.5629 16.817 76.5436 16.6199C76.5436 16.5017 76.4279 16.4228 76.3123 16.4228H73.4974C73.4395 16.4228 73.3817 16.4425 73.3239 16.5017C73.2853 16.5411 73.266 16.6199 73.2853 16.6791C73.3624 17.4478 73.401 18.3347 73.401 19.3005V26.1991C73.401 26.3371 73.4974 26.4357 73.6324 26.4357H76.6593C76.7171 26.4357 76.775 26.416 76.8135 26.3765C76.8714 26.3174 76.8907 26.2583 76.8907 26.1991V20.8576C76.8907 20.2663 77.0449 19.7933 77.3727 19.4188C77.7004 19.064 78.1246 18.8866 78.6451 18.8866C79.0886 18.8866 79.3971 19.0246 79.6091 19.2808C79.8212 19.5568 79.9176 20.0101 79.9176 20.6211V26.1991C79.9176 26.3371 80.014 26.4357 80.149 26.4357H83.1759C83.3109 26.4357 83.4073 26.3371 83.4073 26.1991V20.4634C83.4073 19.0246 83.1181 17.9405 82.559 17.2112ZM106.87 21.5475C106.87 21.6855 106.774 21.784 106.639 21.784H100.971C100.913 21.784 100.836 21.8037 100.797 21.8629C100.759 21.922 100.739 21.9811 100.739 22.0403C100.836 22.6907 101.048 23.1638 101.376 23.4594C101.742 23.7945 102.301 23.9719 103.014 23.9719C103.496 23.9719 103.998 23.893 104.48 23.7156C104.865 23.5974 105.232 23.42 105.579 23.2032C105.637 23.1638 105.694 23.1638 105.772 23.1835C105.829 23.2032 105.887 23.2623 105.906 23.3214C106.099 23.8142 106.485 24.8391 106.639 25.253C106.678 25.3516 106.639 25.4501 106.562 25.5093C106.099 25.8246 105.559 26.0809 104.923 26.278C104.229 26.4948 103.535 26.5933 102.841 26.5933C101.723 26.5933 100.759 26.3765 99.9297 25.9626C99.1007 25.5487 98.4837 24.9377 98.0403 24.1493C97.5968 23.3806 97.3847 22.4542 97.3847 21.3898C97.3847 20.3846 97.5968 19.4779 98.021 18.6698C98.4259 17.8814 99.0042 17.2704 99.7562 16.817C100.489 16.3637 101.337 16.1469 102.282 16.1469C103.207 16.1469 104.017 16.3637 104.711 16.7776C105.405 17.1915 105.945 17.8026 106.311 18.5713C106.678 19.3597 106.87 20.2663 106.87 21.311V21.5475ZM102.378 18.591C101.607 18.591 101.086 19.0049 100.836 19.8327C100.816 19.8918 100.836 19.9707 100.874 20.0298C100.913 20.0889 100.971 20.1284 101.048 20.1284H103.612C103.689 20.1284 103.747 20.0889 103.785 20.0495C103.843 19.9904 103.863 19.9116 103.843 19.8524C103.65 19.0049 103.168 18.591 102.378 18.591ZM120.964 16.1469C122.102 16.1469 122.931 16.5017 123.49 17.2112C124.03 17.9208 124.3 19.0049 124.3 20.4634V26.1991C124.3 26.3371 124.203 26.4357 124.068 26.4357H121.041C120.983 26.4357 120.926 26.416 120.887 26.3765C120.829 26.3174 120.81 26.2583 120.81 26.1991V20.562C120.81 19.9707 120.733 19.5371 120.559 19.2808C120.386 19.0246 120.077 18.8866 119.672 18.8866C119.19 18.8866 118.805 19.064 118.535 19.4385C118.265 19.813 118.13 20.3255 118.13 20.9956V26.1991C118.13 26.2583 118.111 26.3174 118.053 26.3765C118.014 26.416 117.956 26.4357 117.899 26.4357H114.872C114.814 26.4357 114.756 26.416 114.717 26.3765C114.66 26.3174 114.64 26.2583 114.64 26.1991V20.562C114.64 19.9707 114.544 19.5371 114.37 19.2808C114.197 19.0246 113.908 18.8866 113.503 18.8866C113.021 18.8866 112.635 19.064 112.385 19.4385C112.115 19.813 111.98 20.3255 111.98 20.9956V26.1991C111.98 26.2583 111.96 26.3174 111.903 26.3765C111.864 26.416 111.806 26.4357 111.748 26.4357H108.721C108.586 26.4357 108.49 26.3371 108.49 26.1991V19.3005C108.49 18.3347 108.451 17.4478 108.374 16.6791C108.355 16.6199 108.374 16.5411 108.413 16.5017C108.471 16.4425 108.529 16.4228 108.586 16.4228H111.401C111.517 16.4228 111.633 16.5017 111.633 16.6199C111.64 16.6786 111.65 16.7483 111.66 16.8227C111.678 16.9483 111.698 17.0875 111.71 17.2112C111.729 17.3098 111.787 17.3886 111.883 17.4083C111.96 17.4281 112.057 17.4083 112.115 17.3295C112.365 17.0339 112.674 16.7776 113.04 16.5805C113.561 16.2849 114.178 16.1469 114.872 16.1469C116.279 16.1469 117.224 16.7579 117.725 17.9602C118.072 17.4083 118.535 16.9747 119.113 16.6396C119.672 16.3046 120.289 16.1469 120.964 16.1469ZM130.566 23.6565C130.527 23.5777 130.546 23.4791 130.604 23.4003C131.587 22.3359 134.306 19.3203 134.749 18.8275C134.788 18.7881 134.807 18.7289 134.807 18.6698V16.6594C134.807 16.5214 134.711 16.4228 134.576 16.4228H126.44C126.382 16.4228 126.324 16.4425 126.285 16.482C126.228 16.5411 126.208 16.6002 126.208 16.6594V18.8078C126.208 18.9458 126.305 19.0443 126.44 19.0443H130.103C130.199 19.0443 130.276 19.1034 130.315 19.1823C130.353 19.2611 130.334 19.3597 130.276 19.4385C129.312 20.4832 126.671 23.4003 126.247 23.8733C126.208 23.9127 126.189 23.9719 126.189 24.031V26.1991C126.189 26.2583 126.208 26.3174 126.266 26.3765C126.305 26.416 126.363 26.4357 126.42 26.4357H134.769C134.904 26.4357 135 26.3371 135 26.1991V24.031C135 23.893 134.904 23.7945 134.769 23.7945H130.778C130.681 23.7945 130.604 23.7354 130.566 23.6565Z" fill="#192948"/>
<rect width="40" height="40" rx="20" fill="#FF5533"/>
<path fill-rule="evenodd" clip-rule="evenodd" d="M14.6592 15.0912C14.7999 14.441 14.9395 13.7904 15.0767 13.1394C15.1698 12.6656 14.7825 12.1591 14.2649 12.1632L12.8844 12.1838C12.582 12.1763 12.5564 12.1032 12.4704 12.0195C12.1482 11.707 12.3599 11.0483 12.867 11.0208L14.251 11.0001C14.2789 10.9999 14.2789 11 14.3056 11.0001C15.471 11.0242 16.4666 12.185 16.2107 13.3968L15.778 15.3771C16.9946 15.8314 18.0425 16.7094 18.7356 17.8055C19.0764 16.2508 19.43 14.6991 19.758 13.1415C19.851 12.6679 19.4649 12.161 18.9462 12.1652L17.5656 12.1857C17.0074 12.1721 16.7073 11.1617 17.4575 11.0313C17.4982 11.0243 17.5086 11.025 17.5482 11.0228L18.9334 11.0022C18.9601 11.002 18.9601 11.002 18.988 11.0022C20.1418 11.026 21.135 12.1675 20.8977 13.3733C20.4755 15.3805 20.0092 17.3781 19.5858 19.3851C19.4928 19.8535 19.8708 20.3572 20.3837 20.3615H20.3953C20.5186 18.9859 21.128 17.6522 22.1201 16.6851C23.4669 15.3718 25.4417 14.7715 27.3212 15.1406C27.3584 15.148 27.3956 15.1557 27.4317 15.1636C29.8275 15.6974 31.7512 17.8674 31.9768 20.3089C32.2083 22.8153 30.6719 25.2034 28.9552 27.0811C28.3237 27.7711 27.3898 28.6007 26.4919 29.3159C26.1477 29.5819 25.6778 29.615 25.2998 29.4002C24.9218 29.1854 24.709 28.7644 24.7613 28.3328C24.8462 27.5859 24.93 26.8924 24.9614 26.636C24.9684 26.5767 24.93 26.5216 24.8718 26.5086C22.669 26.0003 20.8268 24.0606 20.4476 21.8019C20.4325 21.7097 20.4197 21.6173 20.4081 21.5246H20.3778C20.1069 21.5223 19.844 21.4583 19.6033 21.3458C19.4056 23.4692 18.0611 25.4644 16.5829 27.0811C15.9525 27.7711 15.0186 28.6007 14.1207 29.3159C13.7765 29.5819 13.3054 29.615 12.9274 29.4002C12.5495 29.1854 12.3378 28.7644 12.3901 28.3328C12.475 27.5859 12.5588 26.8924 12.5902 26.636C12.5971 26.5767 12.5576 26.5216 12.4994 26.5086C10.2967 26.0003 8.4544 24.0606 8.07642 21.8019C7.76705 19.9603 8.41137 17.9893 9.74886 16.6851C11.0259 15.4395 12.8681 14.8353 14.6592 15.0912ZM14.4103 16.2319C12.5669 16.0098 10.6258 16.9669 9.7279 18.6161C8.94634 20.0483 8.99635 21.8928 9.85118 23.2811C10.5106 24.3503 11.6143 25.1217 12.846 25.3941C13.0519 25.4413 13.2286 25.4741 13.3787 25.4968C13.5368 25.5143 13.6811 25.5964 13.7764 25.7237C13.873 25.851 13.9125 26.0123 13.8846 26.1694C13.7857 26.7687 13.6345 27.6477 13.5543 28.111C13.5462 28.1591 13.5694 28.2074 13.6113 28.2317C13.6543 28.256 13.7066 28.2512 13.7439 28.2197C15.1767 27.0084 16.4026 25.7398 17.3911 24.1201C18.232 22.7425 18.7449 21.077 18.2669 19.5011C17.8622 18.1633 16.8352 17.0503 15.528 16.5226L14.5347 21.0739C14.394 21.6148 13.3415 21.6765 13.3857 20.9163C13.388 20.8757 13.3915 20.8658 13.3984 20.8259C13.7334 19.294 14.0742 17.7636 14.4103 16.2319ZM21.5956 21.5261C21.6852 22.1456 21.8945 22.7471 22.2236 23.2811C22.8819 24.3503 23.9868 25.1217 25.2185 25.3941C25.4231 25.4413 25.6011 25.4741 25.75 25.4968C25.9093 25.5143 26.0524 25.5964 26.1489 25.7237C26.2443 25.851 26.2838 26.0123 26.257 26.1694C26.157 26.7687 26.0058 27.6477 25.9267 28.111C25.9186 28.1591 25.9407 28.2074 25.9837 28.2317C26.0256 28.256 26.0791 28.2512 26.1163 28.2197C27.548 27.0084 28.7739 25.7398 29.7636 24.1201C30.6045 22.7425 31.1162 21.077 30.6394 19.5011C30.1683 17.9456 28.8564 16.6939 27.241 16.313C27.2026 16.3039 27.1631 16.2953 27.1235 16.2871C25.1836 15.8936 23.054 16.8645 22.0992 18.6161C21.8049 19.1554 21.6293 19.7532 21.5688 20.3631L25.8058 20.3684C26.1442 20.3821 26.4338 20.7017 26.3792 21.0416C26.3408 21.2831 26.1361 21.4866 25.8953 21.5244C25.8558 21.5307 25.8453 21.5299 25.8046 21.5314L21.5956 21.5261Z" fill="white"/>
</svg>
