<?xml version="1.0" encoding="utf-8"?>
<!-- Generator: Adobe Illustrator 25.1.0, SVG Export Plug-In . SVG Version: 6.00 Build 0)  -->
<svg version="1.1" id="Calque_1" xmlns="http://www.w3.org/2000/svg" xmlns:xlink="http://www.w3.org/1999/xlink" x="0px" y="0px"
	 viewBox="0 0 885 193" style="enable-background:new 0 0 885 193;" xml:space="preserve">
<style type="text/css">
	.st0{fill:url(#SVGID_1_);}
	.st1{fill:#FFFFFF;}
	.st2{fill:#1E3C87;}
</style>
<g>
	<g>
		
			<linearGradient id="SVGID_1_" gradientUnits="userSpaceOnUse" x1="42.2492" y1="169.5732" x2="135.7009" y2="59.8691" gradientTransform="matrix(0.9854 0.1705 -0.1705 0.9854 22.462 -23.1675)">
			<stop  offset="0" style="stop-color:#0397A7"/>
			<stop  offset="1" style="stop-color:#00ECCD"/>
		</linearGradient>
		<path class="st0" d="M197.42,72.49L144.24,6.95c-3.83-4.72-9.89-7.04-15.89-6.08L44.99,14.15c-6,0.96-11.04,5.04-13.21,10.72
			L1.61,103.7c-2.17,5.68-1.15,12.08,2.68,16.8l53.18,65.54c3.83,4.72,9.89,7.04,15.89,6.08l83.35-13.29
			c6-0.96,11.04-5.04,13.21-10.72L200.1,89.3C202.27,83.62,201.25,77.21,197.42,72.49z"/>
		<polygon class="st1" points="123.87,57.18 105,90.94 86.45,50.86 63.29,57.03 34.6,131.8 60.2,131.8 77.45,87.7 94.46,129.71 
			107.55,129.71 132.71,84.68 132.71,142.28 156.6,134.2 156.6,62.99 		"/>
	</g>
	<g>
		<g>
			<g>
				<path class="st2" d="M488.18,85c6.43-6.18,14.35-9.21,23.77-9.21c9.53,0,17.45,3.03,23.88,9.21c6.43,6.06,9.65,13.93,9.65,23.62
					c0,9.57-3.22,17.44-9.65,23.5c-6.32,5.93-14.24,8.96-23.77,8.96c-9.53,0-17.45-3.03-23.88-8.96c-6.32-6.06-9.53-13.93-9.53-23.5
					C478.65,98.93,481.86,91.06,488.18,85z M512.06,122.79c7.05,0,12.68-5.6,12.68-14.18c0-8.69-5.64-14.52-12.68-14.52
					c-7.05,0-12.68,5.83-12.68,14.52C499.38,117.19,505.02,122.79,512.06,122.79z"/>
				<path class="st2" d="M451.15,75.8c-0.54,0-1.07,0.02-1.59,0.05c-6.98,0.24-15.81,3.54-19.6,5.93l-1.28-4.68h-18.93v62.47h22.91
					V99.32c3.33-2.43,8.76-3.33,11.45-3.33c2.94,0,4.35,2.3,4.35,6.14v37.43h23.17V97.3C471.63,83.61,465.48,75.8,451.15,75.8z"/>
			</g>
			<polygon class="st2" points="300.52,63.47 281.31,97.85 262.41,57.03 238.83,63.31 209.61,139.45 235.68,139.45 253.25,94.55 
				270.57,137.33 283.9,137.33 309.53,91.48 309.53,149.47 333.85,141.24 333.85,69.38 			"/>
			<path class="st2" d="M346.52,78.94v17.59c0.01,0,0.02,0,0.03-0.01c2.04-0.63,11.28-3.25,22.82-3.25l-0.02,0
				c8.18-0.11,12.08,2.29,12.08,8.68h-10.98c-15.66,0-29.6,3.79-29.6,19.58c0,9.64,7.64,19.63,22.11,19.63
				c13.21,0,19.39-4.66,19.39-4.66l1.32,3.04h17.53v-37.94C401.19,67.11,363.25,76.03,346.52,78.94z M381.56,115.85
				c0,7.2-4.56,10.4-13.18,10.4c-5.74,0-9.14-1.63-9.14-5.8c0-4.17,3.86-5.38,11.92-5.38l10.4,0.09V115.85z"/>
		</g>
		<g>
			<g>
				<path class="st2" d="M827.21,85c6.43-6.18,14.35-9.21,23.77-9.21c9.53,0,17.45,3.03,23.88,9.21c6.43,6.06,9.65,13.93,9.65,23.62
					c0,9.57-3.22,17.44-9.65,23.5c-6.32,5.93-14.24,8.96-23.77,8.96c-9.53,0-17.45-3.03-23.88-8.96c-6.32-6.06-9.53-13.93-9.53-23.5
					C817.68,98.93,820.9,91.06,827.21,85z M851.1,122.79c7.05,0,12.68-5.6,12.68-14.18c0-8.69-5.64-14.52-12.68-14.52
					c-7.05,0-12.68,5.83-12.68,14.52C838.41,117.19,844.05,122.79,851.1,122.79z"/>
				<path class="st2" d="M790.18,75.8c-0.54,0-1.07,0.02-1.59,0.05c-6.98,0.24-15.81,3.54-19.6,5.93l-1.28-4.68h-18.93v62.47h22.91
					V99.32c3.33-2.43,8.76-3.33,11.45-3.33c2.94,0,4.35,2.3,4.35,6.14v37.43h23.17V97.3C810.66,83.61,804.52,75.8,790.18,75.8z"/>
			</g>
			<polygon class="st2" points="639.56,63.47 620.34,97.85 601.45,57.03 577.87,63.31 548.65,139.45 574.71,139.45 592.28,94.55 
				609.61,137.33 622.94,137.33 648.56,91.48 648.56,149.47 672.89,141.24 672.89,69.38 			"/>
			<path class="st2" d="M685.56,78.94v17.59c0.01,0,0.02,0,0.03-0.01c2.04-0.63,11.28-3.25,22.82-3.25l-0.02,0
				c8.18-0.11,12.08,2.29,12.08,8.68h-10.98c-15.66,0-29.6,3.79-29.6,19.58c0,9.64,7.64,19.63,22.11,19.63
				c13.21,0,19.39-4.66,19.39-4.66l1.32,3.04h17.53v-37.94C740.23,67.11,702.29,76.03,685.56,78.94z M720.59,115.85
				c0,7.2-4.56,10.4-13.18,10.4c-5.74,0-9.14-1.63-9.14-5.8c0-4.17,3.86-5.38,11.92-5.38l10.4,0.09V115.85z"/>
		</g>
	</g>
</g>
</svg>
