<svg width="138" height="40" viewBox="0 0 138 40" fill="none" xmlns="http://www.w3.org/2000/svg">
<path fill-rule="evenodd" clip-rule="evenodd" d="M96.866 11.0485C96.8065 11.0079 96.7471 10.9877 96.6678 11.0079C96.362 11.0861 95.8525 11.2201 95.3247 11.3588L95.3243 11.3589L95.3238 11.359L95.3236 11.3591C94.6202 11.544 93.8847 11.7373 93.5565 11.8183C93.4574 11.8588 93.3781 11.9399 93.3781 12.0614V16.1133C93.3781 16.2146 93.3187 16.2957 93.2394 16.3362C93.1403 16.3767 93.0412 16.3565 92.9818 16.2754C92.7242 16.0323 92.4269 15.8297 92.1098 15.6676C91.5748 15.4043 90.9803 15.2624 90.3461 15.2624C89.494 15.2624 88.7211 15.4853 88.0473 15.9108C87.3735 16.3565 86.8583 16.9845 86.4818 17.7949C86.1052 18.6053 85.9071 19.5372 85.9071 20.5907C85.9071 21.6645 86.1052 22.5964 86.4818 23.4068C86.8583 24.2374 87.3735 24.8655 88.0473 25.3112C88.7211 25.7771 89.494 26 90.3461 26C91.0001 26 91.6144 25.8582 92.1693 25.5745C92.5062 25.4125 92.7836 25.2099 93.0214 24.9668C93.1007 24.8857 93.1998 24.8655 93.2791 24.906C93.3781 24.9465 93.4376 25.0275 93.4376 25.1288V25.5948C93.4376 25.6556 93.4574 25.7164 93.5169 25.7771C93.5565 25.8177 93.6159 25.8379 93.6754 25.8379H96.7272C96.866 25.8379 96.965 25.7366 96.965 25.5948V11.2308C96.965 11.17 96.9254 11.089 96.866 11.0485ZM92.9222 22.5761C92.5853 23.0421 92.0899 23.265 91.4557 23.265C90.8216 23.265 90.3261 23.0421 89.9893 22.5559C89.6325 22.0899 89.4542 21.4416 89.4542 20.5907C89.4542 19.7601 89.6325 19.132 89.9694 18.6863C90.3063 18.2609 90.8018 18.038 91.4557 18.038C92.0701 18.038 92.5655 18.2609 92.9222 18.7066C93.2591 19.1725 93.4374 19.8006 93.4374 20.6312C93.4374 21.4821 93.2591 22.1304 92.9222 22.5761ZM58.9556 23.0421C59.1339 23.0421 59.3519 23.0219 59.6294 22.9813C59.7086 22.9611 59.7681 22.9813 59.8275 23.0219C59.8672 23.0624 59.9068 23.1434 59.9068 23.2042V25.534C59.9068 25.6353 59.8474 25.7164 59.7483 25.7569C59.2925 25.919 58.7178 26 58.044 26C56.6766 26 55.6461 25.6151 54.9525 24.8249C54.2391 24.0348 53.8824 22.9611 53.8824 21.5632V18.4837C53.8824 18.3419 53.7833 18.2406 53.6446 18.2406H52.2376C52.0988 18.2406 51.9998 18.1393 51.9998 17.9975V15.7892C51.9998 15.6474 52.0988 15.5461 52.2376 15.5461H53.6446C53.704 15.5461 53.7635 15.5258 53.8031 15.4853C53.8626 15.4245 53.8824 15.3637 53.8824 15.303V13.3783C53.8824 13.277 53.9418 13.196 54.0409 13.1555C54.2638 13.0822 54.6913 12.9436 55.1705 12.7882L55.171 12.7881L55.171 12.7881C55.8849 12.5566 56.7136 12.2879 57.1522 12.1425C57.2315 12.1222 57.3108 12.1222 57.3702 12.183C57.4297 12.2235 57.4693 12.2843 57.4693 12.3653V15.303C57.4693 15.3637 57.4891 15.4245 57.5486 15.4853C57.5882 15.5258 57.6477 15.5461 57.7071 15.5461H59.6492C59.7086 15.5461 59.7681 15.5663 59.8077 15.6069C59.8672 15.6676 59.887 15.7284 59.887 15.7892V17.9975C59.887 18.0583 59.8672 18.119 59.8077 18.1798C59.7681 18.2203 59.7086 18.2406 59.6492 18.2406H57.7071C57.5684 18.2406 57.4693 18.3419 57.4693 18.4837V21.5632C57.4693 22.0494 57.608 22.4141 57.9053 22.6572C58.1827 22.9206 58.5394 23.0421 58.9556 23.0421ZM71.8564 15.7892C71.8564 15.6474 71.7573 15.5461 71.6186 15.5461H68.5668C68.428 15.5461 68.3289 15.6474 68.3289 15.7892V16.1741C68.3289 16.2754 68.2695 16.3565 68.1704 16.397C68.0911 16.4375 67.9921 16.4172 67.9128 16.3362C67.675 16.0931 67.3777 15.8702 67.0606 15.6879C66.5058 15.4043 65.8914 15.2624 65.2375 15.2624C64.3853 15.2624 63.6323 15.4853 62.9585 15.9513C62.2847 16.4172 61.7496 17.0453 61.3731 17.8759C60.9966 18.7066 60.7984 19.6385 60.7984 20.7123C60.7984 21.7658 60.9966 22.6977 61.3731 23.4878C61.7496 24.2982 62.2649 24.9262 62.9387 25.3517C63.6125 25.7771 64.3853 26 65.2375 26C65.8914 26 66.5058 25.8582 67.0606 25.5745C67.3975 25.4125 67.675 25.2099 67.9128 24.9668C67.9921 24.8857 68.0911 24.8655 68.1704 24.906C68.2695 24.9465 68.3289 25.0275 68.3289 25.1288V25.5948C68.3289 25.6556 68.3488 25.7164 68.4082 25.7771C68.4478 25.8177 68.5073 25.8379 68.5668 25.8379H71.6186C71.7573 25.8379 71.8564 25.7366 71.8564 25.5948V15.7892ZM67.8136 22.5964C67.4767 23.0421 66.9812 23.265 66.3471 23.265C65.6931 23.265 65.1977 23.0421 64.8608 22.5964C64.5239 22.1709 64.3455 21.5429 64.3455 20.7123C64.3455 19.8614 64.5239 19.1928 64.8806 18.7268C65.2373 18.2609 65.7328 18.038 66.3471 18.038C66.9812 18.038 67.4767 18.2609 67.8136 18.7066C68.1504 19.1725 68.3288 19.8208 68.3288 20.6717C68.3288 21.5024 68.1504 22.1507 67.8136 22.5964ZM83.4104 16.3565C82.8159 15.6271 81.9241 15.2624 80.7351 15.2624C80.0217 15.2624 79.3875 15.4245 78.8128 15.7284C78.3966 15.9513 78.0399 16.2349 77.7427 16.5996C77.6634 16.6806 77.5841 16.7009 77.4851 16.6806C77.386 16.6604 77.3265 16.5793 77.3265 16.478C77.2869 16.2349 77.2473 15.9513 77.2274 15.7487C77.2274 15.6271 77.1085 15.5461 76.9896 15.5461H74.0963C74.0369 15.5461 73.9774 15.5663 73.918 15.6271C73.8783 15.6676 73.8585 15.7487 73.8783 15.8095C73.9576 16.5996 73.9972 17.5113 73.9972 18.504V25.5948C73.9972 25.7366 74.0963 25.8379 74.235 25.8379H77.3463C77.4058 25.8379 77.4652 25.8177 77.5049 25.7771C77.5643 25.7164 77.5841 25.6556 77.5841 25.5948V20.1045C77.5841 19.4967 77.7427 19.0105 78.0796 18.6255C78.4165 18.2609 78.8524 18.0785 79.3875 18.0785C79.8433 18.0785 80.1604 18.2203 80.3784 18.4837C80.5964 18.7673 80.6954 19.2333 80.6954 19.8614V25.5948C80.6954 25.7366 80.7945 25.8379 80.9333 25.8379H84.0445C84.1833 25.8379 84.2824 25.7366 84.2824 25.5948V19.6993C84.2824 18.2203 83.9851 17.1061 83.4104 16.3565ZM108.399 20.8136C108.399 20.9554 108.3 21.0567 108.162 21.0567H102.335C102.276 21.0567 102.197 21.0769 102.157 21.1377C102.117 21.1985 102.098 21.2593 102.098 21.32C102.197 21.9886 102.415 22.4748 102.752 22.7787C103.128 23.1231 103.703 23.3055 104.436 23.3055C104.931 23.3055 105.447 23.2244 105.942 23.0421C106.338 22.9206 106.715 22.7382 107.072 22.5154C107.131 22.4748 107.191 22.4748 107.27 22.4951C107.329 22.5154 107.389 22.5761 107.409 22.6369C107.607 23.1434 108.003 24.1969 108.162 24.6224C108.201 24.7237 108.162 24.8249 108.082 24.8857C107.607 25.2099 107.052 25.4733 106.398 25.6758C105.684 25.8987 104.971 26 104.258 26C103.108 26 102.117 25.7771 101.265 25.3517C100.413 24.9262 99.7789 24.2982 99.3232 23.4878C98.8674 22.6977 98.6494 21.7455 98.6494 20.6515C98.6494 19.6182 98.8674 18.6863 99.3033 17.8557C99.7195 17.0453 100.314 16.4172 101.087 15.9513C101.84 15.4853 102.712 15.2624 103.683 15.2624C104.634 15.2624 105.466 15.4853 106.18 15.9108C106.893 16.3362 107.448 16.9643 107.825 17.7544C108.201 18.5648 108.399 19.4967 108.399 20.5704V20.8136ZM103.782 17.7746C102.989 17.7746 102.454 18.2001 102.196 19.051C102.177 19.1118 102.196 19.1928 102.236 19.2536C102.276 19.3144 102.335 19.3549 102.414 19.3549H105.05C105.129 19.3549 105.189 19.3144 105.228 19.2738C105.288 19.2131 105.308 19.132 105.288 19.0712C105.09 18.2001 104.594 17.7746 103.782 17.7746ZM122.886 15.2624C124.055 15.2624 124.907 15.6271 125.482 16.3565C126.037 17.0858 126.314 18.2001 126.314 19.6993V25.5948C126.314 25.7366 126.215 25.8379 126.076 25.8379H122.965C122.906 25.8379 122.846 25.8177 122.807 25.7771C122.747 25.7164 122.727 25.6556 122.727 25.5948V19.8006C122.727 19.1928 122.648 18.7471 122.47 18.4837C122.291 18.2203 121.974 18.0785 121.558 18.0785C121.063 18.0785 120.666 18.2609 120.389 18.6458C120.111 19.0307 119.973 19.5575 119.973 20.2463V25.5948C119.973 25.6556 119.953 25.7164 119.893 25.7771C119.854 25.8177 119.794 25.8379 119.735 25.8379H116.624C116.564 25.8379 116.505 25.8177 116.465 25.7771C116.406 25.7164 116.386 25.6556 116.386 25.5948V19.8006C116.386 19.1928 116.287 18.7471 116.108 18.4837C115.93 18.2203 115.633 18.0785 115.217 18.0785C114.721 18.0785 114.325 18.2609 114.067 18.6458C113.79 19.0307 113.651 19.5575 113.651 20.2463V25.5948C113.651 25.6556 113.631 25.7164 113.572 25.7771C113.532 25.8177 113.473 25.8379 113.413 25.8379H110.302C110.163 25.8379 110.064 25.7366 110.064 25.5948V18.504C110.064 17.5113 110.024 16.5996 109.945 15.8095C109.925 15.7487 109.945 15.6676 109.985 15.6271C110.044 15.5663 110.104 15.5461 110.163 15.5461H113.057C113.175 15.5461 113.294 15.6271 113.294 15.7487C113.302 15.809 113.312 15.8806 113.323 15.9571V15.9571C113.341 16.0862 113.361 16.2293 113.374 16.3565C113.393 16.4578 113.453 16.5388 113.552 16.5591C113.631 16.5793 113.73 16.5591 113.79 16.478C114.047 16.1741 114.364 15.9108 114.741 15.7082C115.276 15.4043 115.91 15.2624 116.624 15.2624C118.07 15.2624 119.041 15.8905 119.557 17.1263C119.913 16.5591 120.389 16.1133 120.983 15.7689C121.558 15.4245 122.192 15.2624 122.886 15.2624ZM132.755 22.9813C132.715 22.9003 132.735 22.799 132.795 22.718C133.805 21.6239 136.599 18.5242 137.055 18.0177C137.095 17.9772 137.115 17.9164 137.115 17.8557V15.7892C137.115 15.6474 137.016 15.5461 136.877 15.5461H128.514C128.455 15.5461 128.395 15.5663 128.355 15.6069C128.296 15.6676 128.276 15.7284 128.276 15.7892V17.9975C128.276 18.1393 128.375 18.2406 128.514 18.2406H132.279C132.378 18.2406 132.458 18.3014 132.497 18.3824C132.537 18.4635 132.517 18.5648 132.458 18.6458C131.467 19.7195 128.752 22.718 128.316 23.2042C128.276 23.2447 128.256 23.3055 128.256 23.3663V25.5948C128.256 25.6556 128.276 25.7164 128.336 25.7771C128.375 25.8177 128.435 25.8379 128.494 25.8379H137.075C137.214 25.8379 137.313 25.7366 137.313 25.5948V23.3663C137.313 23.2244 137.214 23.1231 137.075 23.1231H132.973C132.874 23.1231 132.795 23.0624 132.755 22.9813Z" fill="#192948"/>
<rect width="40" height="40" rx="20" fill="#FF5533"/>
<path fill-rule="evenodd" clip-rule="evenodd" d="M14.6592 15.0912C14.7999 14.441 14.9395 13.7904 15.0767 13.1394C15.1698 12.6656 14.7825 12.1591 14.2649 12.1632L12.8844 12.1838C12.582 12.1763 12.5564 12.1032 12.4704 12.0195C12.1482 11.707 12.3599 11.0483 12.867 11.0208L14.251 11.0001C14.2789 10.9999 14.2789 11 14.3056 11.0001C15.471 11.0242 16.4666 12.185 16.2107 13.3968L15.778 15.3771C16.9946 15.8314 18.0425 16.7094 18.7356 17.8055C19.0764 16.2508 19.43 14.6991 19.758 13.1415C19.851 12.6679 19.4649 12.161 18.9462 12.1652L17.5656 12.1857C17.0074 12.1721 16.7073 11.1617 17.4575 11.0313C17.4982 11.0243 17.5086 11.025 17.5482 11.0228L18.9334 11.0022C18.9601 11.002 18.9601 11.002 18.988 11.0022C20.1418 11.026 21.135 12.1675 20.8977 13.3733C20.4755 15.3805 20.0092 17.3781 19.5858 19.3851C19.4928 19.8535 19.8708 20.3572 20.3837 20.3615H20.3953C20.5186 18.9859 21.128 17.6522 22.1201 16.6851C23.4669 15.3718 25.4417 14.7715 27.3212 15.1406C27.3584 15.148 27.3956 15.1557 27.4317 15.1636C29.8275 15.6974 31.7512 17.8674 31.9768 20.3089C32.2083 22.8153 30.6719 25.2034 28.9552 27.0811C28.3237 27.7711 27.3898 28.6007 26.4919 29.3159C26.1477 29.5819 25.6778 29.615 25.2998 29.4002C24.9218 29.1854 24.709 28.7644 24.7613 28.3328C24.8462 27.5859 24.93 26.8924 24.9614 26.636C24.9684 26.5767 24.93 26.5216 24.8718 26.5086C22.669 26.0003 20.8268 24.0606 20.4476 21.8019C20.4325 21.7097 20.4197 21.6173 20.4081 21.5246H20.3778C20.1069 21.5223 19.844 21.4583 19.6033 21.3458C19.4056 23.4692 18.0611 25.4644 16.5829 27.0811C15.9525 27.7711 15.0186 28.6007 14.1207 29.3159C13.7765 29.5819 13.3054 29.615 12.9274 29.4002C12.5495 29.1854 12.3378 28.7644 12.3901 28.3328C12.475 27.5859 12.5588 26.8924 12.5902 26.636C12.5971 26.5767 12.5576 26.5216 12.4994 26.5086C10.2967 26.0003 8.4544 24.0606 8.07642 21.8019C7.76705 19.9603 8.41137 17.9893 9.74886 16.6851C11.0259 15.4395 12.8681 14.8353 14.6592 15.0912ZM14.4103 16.2319C12.5669 16.0098 10.6258 16.9669 9.7279 18.6161C8.94634 20.0483 8.99635 21.8928 9.85118 23.2811C10.5106 24.3503 11.6143 25.1217 12.846 25.3941C13.0519 25.4413 13.2286 25.4741 13.3787 25.4968C13.5368 25.5143 13.6811 25.5964 13.7764 25.7237C13.873 25.851 13.9125 26.0123 13.8846 26.1694C13.7857 26.7687 13.6345 27.6477 13.5543 28.111C13.5462 28.1591 13.5694 28.2074 13.6113 28.2317C13.6543 28.256 13.7066 28.2512 13.7439 28.2197C15.1767 27.0084 16.4026 25.7398 17.3911 24.1201C18.232 22.7425 18.7449 21.077 18.2669 19.5011C17.8622 18.1633 16.8352 17.0503 15.528 16.5226L14.5347 21.0739C14.394 21.6148 13.3415 21.6765 13.3857 20.9163C13.388 20.8757 13.3915 20.8658 13.3984 20.8259C13.7334 19.294 14.0742 17.7636 14.4103 16.2319ZM21.5956 21.5261C21.6852 22.1456 21.8945 22.7471 22.2236 23.2811C22.8819 24.3503 23.9868 25.1217 25.2185 25.3941C25.4231 25.4413 25.6011 25.4741 25.75 25.4968C25.9093 25.5143 26.0524 25.5964 26.1489 25.7237C26.2443 25.851 26.2838 26.0123 26.257 26.1694C26.157 26.7687 26.0058 27.6477 25.9267 28.111C25.9186 28.1591 25.9407 28.2074 25.9837 28.2317C26.0256 28.256 26.0791 28.2512 26.1163 28.2197C27.548 27.0084 28.7739 25.7398 29.7636 24.1201C30.6045 22.7425 31.1162 21.077 30.6394 19.5011C30.1683 17.9456 28.8564 16.6939 27.241 16.313C27.2026 16.3039 27.1631 16.2953 27.1235 16.2871C25.1836 15.8936 23.054 16.8645 22.0992 18.6161C21.8049 19.1554 21.6293 19.7532 21.5688 20.3631L25.8058 20.3684C26.1442 20.3821 26.4338 20.7017 26.3792 21.0416C26.3408 21.2831 26.1361 21.4866 25.8953 21.5244C25.8558 21.5307 25.8453 21.5299 25.8046 21.5314L21.5956 21.5261Z" fill="white"/>
</svg>
