<svg width="564" height="350" viewBox="0 0 564 350" fill="none" xmlns="http://www.w3.org/2000/svg">
<path fill-rule="evenodd" clip-rule="evenodd" d="M380.175 246.735C396.856 246.735 408.663 250.171 415.596 257.041C422.528 263.913 425.997 273.736 425.997 286.516C425.997 291.601 425.447 299.295 424.348 309.602H372.657C373.205 317.022 377.735 320.732 386.251 320.732C390.232 320.732 400.667 319.29 417.555 316.404L421.054 344.23C406.5 348.075 392.908 350 380.279 350C363.801 350 351.204 345.466 342.488 336.397C333.767 327.328 329.41 314.62 329.41 298.265C329.41 281.913 333.699 269.237 342.282 260.235C350.86 251.236 363.494 246.735 380.175 246.735ZM215.395 246.451C226.518 246.451 237.021 248.305 246.906 252.015L242.58 284.582C231.873 280.739 224.628 278.811 220.853 278.811C217.076 278.811 214.606 280.46 213.44 283.758C212.271 287.055 211.69 292.141 211.69 299.012C211.69 305.884 212.236 310.862 213.336 313.954C214.435 317.045 217.043 318.593 221.163 318.593C225.283 318.593 231.801 317.699 240.728 315.913L245.258 344.563C233.175 347.997 223.016 349.716 214.778 349.716C199.539 349.716 188.039 345.32 180.284 336.524C172.525 327.732 168.647 315.433 168.647 299.631C168.647 283.83 172.627 271.014 180.592 261.187C188.554 251.366 200.156 246.451 215.395 246.451ZM325.206 247.764L323.97 281.98H309.966C305.848 281.98 302.962 282.738 301.315 284.248C299.667 285.763 298.845 288.576 298.845 292.699V347.939H256.421V249.208H293.078L294.313 255.803H295.137C298.432 252.783 302.208 250.685 306.467 249.518C310.718 248.351 316.968 247.764 325.206 247.764ZM469.144 249.208L472.85 293.111H474.085L479.852 249.208H514.246L519.602 293.111H521.043L525.161 249.208H563.671L549.258 347.939H503.331L496.328 314.136H495.3L488.709 347.939H443.609L429.192 249.208H469.144ZM379.454 279.919C376.57 279.919 374.579 280.816 373.481 282.599C372.38 284.387 371.833 287.133 371.833 290.844H386.663V287.545C386.663 282.465 384.258 279.919 379.454 279.919ZM166.093 137.081C182.772 137.081 194.579 140.517 201.515 147.386C208.445 154.259 211.915 164.081 211.915 176.862C211.915 181.947 211.364 189.642 210.267 199.947H158.576C159.124 207.367 163.654 211.078 172.167 211.078C176.149 211.078 186.583 209.636 203.47 206.75L206.973 234.576C192.416 238.421 178.824 240.347 166.195 240.347C149.72 240.347 137.12 235.812 128.404 226.743C119.685 217.675 115.327 204.964 115.327 188.611C115.327 172.259 119.618 159.583 128.2 150.581C136.779 141.583 149.41 137.081 166.093 137.081ZM254.212 137.08C266.226 137.08 279.441 138.455 293.856 141.203L289.533 172.327C271.409 168.755 260.423 166.967 256.581 166.967C254.795 166.967 253.905 167.656 253.905 169.028C253.905 170.132 255.07 171.089 257.405 171.914C268.799 175.625 277.037 179.303 282.118 182.942C287.195 186.586 290.697 190.331 292.62 194.176C294.543 198.024 295.503 202.491 295.503 207.574C295.503 229.422 282.803 240.347 257.405 240.347C244.226 240.347 231.456 238.903 219.098 236.019L221.777 205.719C238.938 209.841 250.332 211.903 255.964 211.903C257.886 211.903 258.846 211.284 258.846 210.047C258.846 208.811 257.747 207.78 255.551 206.955C241.408 202.147 231.113 197.063 224.662 191.704C218.204 186.343 214.981 178.649 214.981 168.617C214.981 158.586 218.515 150.823 225.587 145.325C232.658 139.831 242.198 137.08 254.212 137.08ZM457.151 137.081V162.874H441.519V163.72C445.884 167.103 448.069 172.108 448.069 178.731C448.069 200.86 433.844 211.926 405.398 211.926H392.089C390.96 211.926 390.399 212.56 390.399 213.828C390.399 215.097 390.96 215.731 392.089 215.731H425.677C443.701 215.731 452.717 223.061 452.717 237.719L452.687 238.286H361.348C354.947 234.896 351.743 229.286 351.743 221.439C351.743 213.546 357.092 207.415 367.797 203.045C357.939 195.998 353.01 186.237 353.01 173.762C353.01 161.289 357.092 152.058 365.262 146.066C373.426 140.078 384.906 137.081 399.693 137.081H457.151ZM50.662 110.286C72.4926 110.286 87.9363 115.541 96.9981 126.053C106.06 136.566 110.59 151.715 110.59 171.502C110.59 216.026 90.2699 238.286 49.6319 238.286H0V110.286H50.662ZM505.248 137.081L506.484 145.944C515.134 140.036 524.534 137.081 534.698 137.081C553.915 137.081 563.531 146.427 563.531 165.113V238.286H520.077V174.387C520.077 172.193 518.944 171.09 516.679 171.09C514.412 171.09 511.906 171.781 509.16 173.151V238.286H466.326V137.081H505.248ZM345.486 139.142V238.286H302.65V139.142H345.486ZM48.1899 143.882H43.8668V206.132H49.0151C56.0174 206.132 60.5476 203.729 62.6071 198.918C64.6651 194.108 65.6959 186.105 65.6959 174.903C65.6959 163.705 64.5644 155.735 62.2979 150.993C60.0329 146.253 55.3279 143.882 48.1899 143.882ZM401.139 172.737C398.256 172.737 396.265 173.634 395.167 175.417C394.067 177.205 393.519 179.951 393.519 183.662H408.347V180.364C408.347 175.284 405.944 172.737 401.139 172.737ZM165.372 170.265C162.487 170.265 160.497 171.163 159.4 172.946C158.299 174.733 157.751 177.479 157.751 181.19H172.578V177.891C172.578 172.81 170.175 170.265 165.372 170.265ZM326.182 26.796C342.86 26.796 354.67 30.2323 361.604 37.1014C368.535 43.974 372.004 53.7971 372.004 66.5756C372.004 71.6625 371.454 79.3569 370.356 89.6623H318.664C319.212 97.0823 323.743 100.793 332.257 100.793C336.239 100.793 346.671 99.3496 363.559 96.4649L367.061 124.291C352.505 128.136 338.914 130.061 326.283 130.061C309.808 130.061 297.21 125.527 288.493 116.458C279.774 107.388 275.417 94.6799 275.417 78.3265C275.417 61.9738 279.707 49.2975 288.288 40.2955C296.867 31.2977 309.499 26.796 326.182 26.796ZM160.235 0V128.001H116.686V34.8341H88.0601L89.914 0H160.235ZM212.298 0.795198V35.4515C220.671 29.6814 229.938 26.7953 240.099 26.7953C258.77 26.7953 268.107 35.4515 268.107 52.766V128.001H224.654V64.1025C224.654 61.908 223.521 60.8048 221.258 60.8048C218.991 60.8048 216.487 61.4964 213.741 62.8656V128.001H170.905V0.795198H212.298ZM325.461 59.9802C322.577 59.9802 320.586 60.8776 319.488 62.6591C318.387 64.4483 317.84 67.1944 317.84 70.9037H332.669V67.606C332.669 62.5261 330.264 59.9802 325.461 59.9802Z" fill="#151428"/>
</svg>
