<svg width="304" height="464" viewBox="0 0 304 464" fill="none" xmlns="http://www.w3.org/2000/svg">
<g clip-path="url(#clip0)">
<rect width="304" height="464" fill="white"/>
<path d="M257.447 71.5486C319.506 104.113 247.245 195.767 246.696 344.559C246.232 470.634 23.4225 419.921 16.4515 322.546C8.62363 213.2 135.035 7.31485 257.447 71.5486Z" fill="#E3F4FF"/>
<path fill-rule="evenodd" clip-rule="evenodd" d="M134.837 115.707C146.266 115.707 150.423 102.024 156.916 94.5153C161.562 89.143 169.49 90.7449 171.837 83.2238C177.739 64.3111 161.943 51 141.337 51C120.731 51 106.837 62.6743 103.837 80.2238C100.837 97.7733 114.231 115.707 134.837 115.707Z" fill="#191847"/>
<path fill-rule="evenodd" clip-rule="evenodd" d="M136.1 103.49C131.492 98.0814 128.373 91.4529 128.894 84.0255C130.396 62.625 160.186 67.3328 165.981 78.1339C171.775 88.9351 171.087 116.333 163.598 118.263C160.611 119.033 154.248 117.147 147.773 113.244L151.837 142H127.837L136.1 103.49Z" fill="#57331F"/>
<path fill-rule="evenodd" clip-rule="evenodd" d="M146.217 89.7233C145.345 89.262 144.346 88.9999 143.284 88.9999C139.884 88.9999 137.127 91.6862 137.127 94.9999C137.127 96.3524 137.587 97.6004 138.361 98.6039C136.903 101.008 135.907 103.535 135.581 106.132C130.524 106.132 112.071 86.9999 130.454 68.9999C148.837 50.9999 175.403 76.6959 167.42 78.1945C162.831 79.0561 153.587 83.4378 146.217 89.7233V89.7233Z" fill="#191847"/>
<path fill-rule="evenodd" clip-rule="evenodd" d="M119.837 225L157.468 348.024L175.697 452.648H189.99L170.728 225H119.837Z" fill="#57331F"/>
<path fill-rule="evenodd" clip-rule="evenodd" d="M106.375 225C108.931 292.547 105.923 327.389 105.351 333.526C104.779 339.663 96.9455 379.455 78.401 454.708L93.6313 449.478C122.939 380.459 132.926 344.589 136.288 335.526C139.649 326.463 148.577 289.621 163.071 225H106.375Z" fill="#57331F"/>
<path fill-rule="evenodd" clip-rule="evenodd" d="M78.5154 449.402C77.3967 452.388 76.8373 454.623 76.8373 456.106C76.8373 457.909 77.1377 460.54 77.7385 464C79.8305 464 98.6311 464 134.14 464C135.606 459.155 134.76 456.539 131.602 456.152C128.444 455.766 125.821 455.417 123.732 455.106L97.5173 443.419C97.0128 443.194 96.4216 443.421 96.1967 443.925C96.1929 443.934 96.1892 443.942 96.1856 443.951L94.5005 448.039C91.5772 449.403 89.2017 450.085 87.374 450.085C85.889 450.085 83.8383 449.485 81.2218 448.286L81.2218 448.285C80.2177 447.825 79.0305 448.266 78.5702 449.27C78.5504 449.313 78.5321 449.357 78.5154 449.402Z" fill="#DBE0E5"/>
<path fill-rule="evenodd" clip-rule="evenodd" d="M172.515 449.402C171.397 452.388 170.837 454.623 170.837 456.106C170.837 457.909 171.138 460.54 171.739 464C173.83 464 192.631 464 228.14 464C229.606 459.155 228.76 456.539 225.602 456.152C222.444 455.766 219.821 455.417 217.732 455.106L191.517 443.419C191.013 443.194 190.422 443.421 190.197 443.925C190.193 443.934 190.189 443.942 190.186 443.951L188.5 448.039C185.577 449.403 183.202 450.085 181.374 450.085C179.889 450.085 177.838 449.485 175.222 448.286L175.222 448.285C174.218 447.825 173.031 448.266 172.57 449.27C172.55 449.313 172.532 449.357 172.515 449.402Z" fill="#DBE0E5"/>
<path fill-rule="evenodd" clip-rule="evenodd" d="M114.837 225L130.837 287.68H179.708L172.421 225H114.837Z" fill="#0B8749"/>
<path fill-rule="evenodd" clip-rule="evenodd" d="M105.837 225C100.573 240.781 99.5727 261.674 102.837 287.68H152.708L166.421 225H105.837Z" fill="#00BD66"/>
<path fill-rule="evenodd" clip-rule="evenodd" d="M202.882 218.123L231.21 245.758C239.452 249.273 246.205 253.156 251.47 257.404C252.654 258.832 253.943 261.568 248.372 260.344C242.802 259.12 236.888 258.082 235.841 259.894C234.794 261.705 237.879 264.481 235.944 266.852C234.654 268.432 230.316 263.405 222.93 251.77L193.473 234.403L202.882 218.123ZM82.1452 213.02L103.043 213.102C90.1394 254.756 83.1736 276.857 82.1452 279.406C79.8312 285.14 84.7278 293.874 86.8218 298.567C80.0018 301.619 80.7285 290.317 72.1252 294.32C64.2725 297.973 58.2989 304.593 49.2263 298.994C48.1108 298.306 46.8885 295.715 49.8418 293.69C57.1996 288.645 67.8025 279.815 69.2352 276.908C71.1888 272.945 75.4922 251.649 82.1452 213.02Z" fill="#57331F"/>
<path fill-rule="evenodd" clip-rule="evenodd" d="M145.378 123.514L154.13 122.896C165.256 161.379 187.768 197.582 221.668 231.505L190.396 262.614C157.779 215.872 139.456 169.175 145.378 123.514Z" fill="#192948"/>
<path fill-rule="evenodd" clip-rule="evenodd" d="M103.837 234H180.837C162.998 190.625 154.079 153.779 154.079 123.461L130.851 120C112.597 149.358 107.442 185.505 103.837 234Z" fill="#DBE0E5"/>
<path fill-rule="evenodd" clip-rule="evenodd" d="M130.36 120.016C130.363 120.011 130.366 120.005 130.369 120H131.885C133.699 120.062 136.463 120.175 140.175 120.338L145.787 136.377C146.381 155.932 149.848 195.342 156.188 254.606H105.713C105.846 258.699 106.064 262.83 106.368 267H68.8373C74.4512 203.664 94.9525 154.664 130.341 120L130.36 120.016V120.016Z" fill="#192948"/>
<path fill-rule="evenodd" clip-rule="evenodd" d="M109.048 202.233C110.484 227.748 114.081 245.337 119.837 255H105.726C105.109 236.643 106.216 219.054 109.048 202.233V202.233Z" fill="black" fill-opacity="0.1"/>
<path fill-rule="evenodd" clip-rule="evenodd" d="M116.948 224L141.837 212.429V224H116.948Z" fill="white" fill-opacity="0.2"/>
</g>
<defs>
<clipPath id="clip0">
<rect width="304" height="464" fill="white"/>
</clipPath>
</defs>
</svg>
