<svg width="295" height="461" viewBox="0 0 295 461" fill="none" xmlns="http://www.w3.org/2000/svg">
<rect width="294.542" height="461" fill="white"/>
<path fill-rule="evenodd" clip-rule="evenodd" d="M129.837 112.707C141.266 112.707 145.423 99.0241 151.916 91.5153C156.562 86.143 164.49 87.7449 166.837 80.2238C172.739 61.3111 156.943 48 136.337 48C115.731 48 101.837 59.6743 98.8373 77.2238C95.8373 94.7733 109.231 112.707 129.837 112.707Z" fill="#191847"/>
<path fill-rule="evenodd" clip-rule="evenodd" d="M131.1 100.49C126.492 95.0814 123.373 88.4529 123.894 81.0255C125.396 59.625 155.186 64.3328 160.981 75.1339C166.775 85.9351 166.087 113.333 158.598 115.263C155.611 116.033 149.248 114.147 142.773 110.244L146.837 139H122.837L131.1 100.49Z" fill="#57331F"/>
<path fill-rule="evenodd" clip-rule="evenodd" d="M141.217 86.7233C140.345 86.262 139.346 85.9999 138.284 85.9999C134.884 85.9999 132.127 88.6862 132.127 91.9999C132.127 93.3524 132.586 94.6004 133.361 95.6039C131.902 98.0083 130.907 100.535 130.58 103.132C125.524 103.132 107.071 83.9999 125.454 65.9999C143.837 47.9999 170.403 73.6959 162.42 75.1945C157.831 76.0561 148.587 80.4378 141.217 86.7233V86.7233Z" fill="#191847"/>
<path fill-rule="evenodd" clip-rule="evenodd" d="M114.837 222L152.468 345.024L170.697 449.648H184.99L165.728 222H114.837Z" fill="#57331F"/>
<path fill-rule="evenodd" clip-rule="evenodd" d="M101.375 222C103.931 289.547 100.923 324.389 100.351 330.526C99.7789 336.663 91.9455 376.455 73.401 451.708L88.6313 446.478C117.939 377.459 127.926 341.589 131.288 332.526C134.649 323.463 143.577 286.621 158.071 222H101.375Z" fill="#57331F"/>
<path fill-rule="evenodd" clip-rule="evenodd" d="M73.5154 446.402C72.3967 449.388 71.8373 451.623 71.8373 453.106C71.8373 454.909 72.1377 457.54 72.7385 461C74.8305 461 93.6311 461 129.14 461C130.606 456.155 129.76 453.539 126.602 453.152C123.444 452.766 120.821 452.417 118.732 452.106L92.5173 440.419C92.0128 440.194 91.4216 440.421 91.1967 440.925C91.1929 440.934 91.1892 440.942 91.1856 440.951L89.5005 445.039C86.5772 446.403 84.2017 447.085 82.374 447.085C80.889 447.085 78.8383 446.485 76.2218 445.286L76.2218 445.285C75.2177 444.825 74.0305 445.266 73.5702 446.27C73.5504 446.313 73.5321 446.357 73.5154 446.402Z" fill="#DBE0E5"/>
<path fill-rule="evenodd" clip-rule="evenodd" d="M167.515 446.402C166.397 449.388 165.837 451.623 165.837 453.106C165.837 454.909 166.138 457.54 166.739 461C168.83 461 187.631 461 223.14 461C224.606 456.155 223.76 453.539 220.602 453.152C217.444 452.766 214.821 452.417 212.732 452.106L186.517 440.419C186.013 440.194 185.422 440.421 185.197 440.925C185.193 440.934 185.189 440.942 185.186 440.951L183.5 445.039C180.577 446.403 178.202 447.085 176.374 447.085C174.889 447.085 172.838 446.485 170.222 445.286L170.222 445.285C169.218 444.825 168.031 445.266 167.57 446.27C167.55 446.313 167.532 446.357 167.515 446.402Z" fill="#DBE0E5"/>
<path fill-rule="evenodd" clip-rule="evenodd" d="M109.837 222L125.837 284.68H174.708L167.421 222H109.837Z" fill="#0B8749"/>
<path fill-rule="evenodd" clip-rule="evenodd" d="M100.837 222C95.5727 237.781 94.5727 258.674 97.8373 284.68H147.708L161.421 222H100.837Z" fill="#00BD66"/>
<path fill-rule="evenodd" clip-rule="evenodd" d="M197.882 215.122L226.21 242.757C234.452 246.273 241.205 250.155 246.47 254.404C247.654 255.832 248.943 258.568 243.372 257.344C237.802 256.119 231.888 255.082 230.841 256.893C229.794 258.705 232.879 261.481 230.944 263.852C229.654 265.432 225.316 260.405 217.93 248.77L188.473 231.402L197.882 215.122ZM77.1452 210.02L98.0426 210.102C85.1394 251.756 78.1736 273.857 77.1452 276.405C74.8312 282.14 79.7278 290.874 81.8218 295.567C75.0018 298.619 75.7285 287.317 67.1252 291.319C59.2725 294.973 53.2989 301.592 44.2263 295.994C43.1108 295.306 41.8885 292.715 44.8418 290.69C52.1996 285.644 62.8025 276.815 64.2352 273.908C66.1888 269.945 70.4922 248.649 77.1452 210.02Z" fill="#57331F"/>
<path fill-rule="evenodd" clip-rule="evenodd" d="M140.378 120.514L149.13 119.896C160.256 158.379 182.768 194.582 216.668 228.505L185.396 259.614C152.779 212.872 134.456 166.175 140.378 120.514Z" fill="#192948"/>
<path fill-rule="evenodd" clip-rule="evenodd" d="M98.8373 231H175.837C157.998 187.625 149.079 150.779 149.079 120.461L125.851 117C107.597 146.358 102.442 182.505 98.8373 231Z" fill="#DBE0E5"/>
<path fill-rule="evenodd" clip-rule="evenodd" d="M125.36 117.016C125.363 117.011 125.366 117.005 125.369 117H126.885C128.699 117.062 131.463 117.175 135.175 117.338L140.787 133.377C141.381 152.932 144.848 192.342 151.188 251.606H100.713C100.846 255.699 101.064 259.83 101.368 264H63.8373C69.4512 200.664 89.9525 151.664 125.341 117L125.36 117.016V117.016Z" fill="#192948"/>
<path fill-rule="evenodd" clip-rule="evenodd" d="M104.048 199.233C105.484 224.748 109.081 242.337 114.837 252H100.726C100.109 233.643 101.216 216.054 104.048 199.233V199.233Z" fill="black" fill-opacity="0.1"/>
<path fill-rule="evenodd" clip-rule="evenodd" d="M111.948 221L136.837 209.429V221H111.948Z" fill="white" fill-opacity="0.2"/>
</svg>
