<svg width="259" height="286" viewBox="0 0 259 286" fill="none" xmlns="http://www.w3.org/2000/svg">
<rect width="259" height="286" fill="white"/>
<circle cx="130" cy="160" r="125" fill="#E3F4FF"/>
<path fill-rule="evenodd" clip-rule="evenodd" d="M112.837 73.7069C124.266 73.7069 128.423 60.0241 134.916 52.5153C139.562 47.143 147.49 48.7449 149.837 41.2238C155.739 22.3111 139.943 9 119.337 9C98.7312 9 84.8373 20.6743 81.8373 38.2238C78.8373 55.7733 92.2312 73.7069 112.837 73.7069Z" fill="#192948"/>
<path fill-rule="evenodd" clip-rule="evenodd" d="M114.1 61.4901C109.492 56.0814 106.373 49.4529 106.894 42.0255C108.396 20.625 138.186 25.3328 143.981 36.1339C149.775 46.9351 149.087 74.333 141.598 76.2635C138.611 77.0333 132.248 75.1475 125.773 71.2443L129.837 100H105.837L114.1 61.4901Z" fill="#57331F"/>
<path fill-rule="evenodd" clip-rule="evenodd" d="M124.217 47.7236C123.345 47.2622 122.346 47.0002 121.284 47.0002C117.884 47.0002 115.127 49.6865 115.127 53.0002C115.127 54.3527 115.587 55.6006 116.361 56.6041C114.903 59.0086 113.907 61.5349 113.581 64.132C108.524 64.132 90.0709 45.0002 108.454 27.0002C126.837 9.00019 153.403 34.6961 145.42 36.1947C140.831 37.0563 131.587 41.4381 124.217 47.7236V47.7236Z" fill="#192948"/>
<path fill-rule="evenodd" clip-rule="evenodd" d="M180.882 176.123L209.21 203.758C217.452 207.273 224.205 211.156 229.47 215.404C230.654 216.832 231.943 219.568 226.372 218.344C220.802 217.12 214.888 216.082 213.841 217.894C212.794 219.705 215.879 222.481 213.944 224.852C212.654 226.432 208.316 221.405 200.93 209.77L171.473 192.403L180.882 176.123ZM60.1452 171.02L81.0426 171.102C68.1394 212.756 61.1736 234.857 60.1452 237.406C57.8312 243.14 62.7278 251.874 64.8218 256.567C58.0018 259.619 58.7285 248.317 50.1252 252.32C42.2725 255.973 36.2989 262.593 27.2263 256.994C26.1108 256.306 24.8885 253.715 27.8418 251.69C35.1996 246.645 45.8025 237.815 47.2352 234.908C49.1888 230.945 53.4922 209.649 60.1452 171.02Z" fill="#57331F"/>
<path fill-rule="evenodd" clip-rule="evenodd" d="M123.378 81.5142L132.13 80.8959C143.256 119.379 165.768 155.582 199.668 189.505L168.396 220.614C135.779 173.872 117.456 127.175 123.378 81.5142Z" fill="#192948"/>
<path fill-rule="evenodd" clip-rule="evenodd" d="M81.8373 192H158.837C140.998 148.625 132.079 111.779 132.079 81.4607L108.851 78C90.5972 107.358 85.4421 143.505 81.8373 192Z" fill="#DBE0E5"/>
<path fill-rule="evenodd" clip-rule="evenodd" d="M108.36 78.0164C108.363 78.0109 108.366 78.0055 108.369 78H109.885C111.699 78.0625 114.463 78.175 118.175 78.3377L123.787 94.3769C124.381 113.932 127.848 153.342 134.188 212.606H83.7133C83.8456 216.699 84.0638 220.83 84.3678 225H46.8372C52.4511 161.664 72.9525 112.664 108.341 78L108.36 78.0164V78.0164Z" fill="#192948"/>
<path fill-rule="evenodd" clip-rule="evenodd" d="M87.0475 160.233C88.484 185.748 92.0806 203.337 97.8373 213H83.7264C83.1086 194.643 84.2156 177.054 87.0475 160.233V160.233Z" fill="black" fill-opacity="0.1"/>
<path fill-rule="evenodd" clip-rule="evenodd" d="M94.9481 182L119.837 170.429V182H94.9481Z" fill="white" fill-opacity="0.2"/>
<g clip-path="url(#clip0)">
<path d="M221.544 59.1858V70.5342C221.544 72.1003 220.277 73.3714 218.715 73.3714C217.154 73.3714 215.887 72.1003 215.887 70.5342V59.1858C215.887 57.6197 217.154 56.3486 218.715 56.3486C220.277 56.3486 221.544 57.6197 221.544 59.1858Z" fill="#00BD66"/>
<path d="M232.856 53.5114V70.5342C232.856 72.1003 231.589 73.3713 230.028 73.3713C228.467 73.3713 227.2 72.1003 227.2 70.5342V53.5114C227.2 51.9453 228.467 50.6743 230.028 50.6743C231.589 50.6743 232.856 51.9453 232.856 53.5114Z" fill="#1493FF"/>
<path d="M244.168 47.8371V70.5341C244.168 72.1002 242.901 73.3712 241.34 73.3712C239.779 73.3712 238.512 72.1002 238.512 70.5341V47.8371C238.512 46.271 239.779 45 241.34 45C242.901 45 244.168 46.271 244.168 47.8371Z" fill="#FF5533"/>
<path d="M205.518 48.3643V79.0998L185.564 77.8388L170.449 67.9909C175.86 54.7431 188.717 46 203.161 46C204.462 46 205.518 47.0592 205.518 48.3643Z" fill="#00BD66"/>
<path d="M238.512 81.4639C238.512 100.272 223.954 115.635 205.518 116.849C204.738 116.901 203.953 116.928 203.161 116.928C197.27 116.928 191.514 115.467 186.378 112.683L191.075 93.4428L205.518 79.0996H236.155C237.456 79.0996 238.512 80.1588 238.512 81.4639Z" fill="#FF5533"/>
<path d="M238.512 81.4639C238.512 100.272 223.954 115.635 205.518 116.849V79.0996H236.155C237.456 79.0996 238.512 80.1588 238.512 81.4639Z" fill="#8D4FF8"/>
<path d="M205.518 79.1001C203.922 81.9 186.055 113.25 185.171 114.801C184.48 115.91 183.023 116.243 181.922 115.551C170.484 108.363 163.096 95.6673 163.096 81.4644C163.096 77.1172 163.784 72.8395 165.142 68.7509C165.553 67.5136 166.889 66.8421 168.124 67.2551C168.149 67.2631 205.184 78.9943 205.518 79.1001Z" fill="#1493FF"/>
<path d="M248 71.5C248 72.88 246.859 74 245.453 74H214.547C213.141 74 212 72.88 212 71.5C212 70.12 213.141 69 214.547 69H245.453C246.859 69 248 70.12 248 71.5Z" fill="#192948"/>
</g>
<mask id="mask0" mask-type="alpha" maskUnits="userSpaceOnUse" x="5" y="36" width="250" height="250">
<circle cx="130" cy="161" r="125" fill="#E3F4FF"/>
</mask>
<g mask="url(#mask0)">
<path fill-rule="evenodd" clip-rule="evenodd" d="M112.837 73.7069C124.266 73.7069 128.423 60.0241 134.916 52.5153C139.562 47.143 147.49 48.7449 149.837 41.2238C155.739 22.3111 139.943 9 119.337 9C98.7312 9 84.8373 20.6743 81.8373 38.2238C78.8373 55.7733 92.2312 73.7069 112.837 73.7069Z" fill="#192948"/>
<path fill-rule="evenodd" clip-rule="evenodd" d="M114.1 61.4901C109.492 56.0814 106.373 49.4529 106.894 42.0255C108.396 20.625 138.186 25.3328 143.981 36.1339C149.775 46.9351 149.087 74.333 141.598 76.2635C138.611 77.0333 132.248 75.1475 125.773 71.2443L129.837 100H105.837L114.1 61.4901Z" fill="#57331F"/>
<path fill-rule="evenodd" clip-rule="evenodd" d="M124.217 47.7236C123.345 47.2622 122.346 47.0002 121.284 47.0002C117.884 47.0002 115.127 49.6865 115.127 53.0002C115.127 54.3527 115.587 55.6006 116.361 56.6041C114.903 59.0086 113.907 61.5349 113.581 64.132C108.524 64.132 90.0709 45.0002 108.454 27.0002C126.837 9.00019 153.403 34.6961 145.42 36.1947C140.831 37.0563 131.587 41.4381 124.217 47.7236V47.7236Z" fill="#192948"/>
<path fill-rule="evenodd" clip-rule="evenodd" d="M97.8372 183L135.468 306.024L153.697 410.648H167.99L148.728 183H97.8372Z" fill="#57331F"/>
<path fill-rule="evenodd" clip-rule="evenodd" d="M84.3749 183C86.9309 250.547 83.9229 285.389 83.3508 291.526C82.7787 297.663 74.9454 337.455 56.4009 412.708L71.6312 407.478C100.939 338.459 110.926 302.589 114.288 293.526C117.649 284.463 126.577 247.621 141.071 183H84.3749Z" fill="#57331F"/>
<path fill-rule="evenodd" clip-rule="evenodd" d="M92.8372 183L108.837 245.68H157.707L150.421 183H92.8372Z" fill="#0B8749"/>
<path fill-rule="evenodd" clip-rule="evenodd" d="M83.8372 183C78.5726 198.781 77.5726 219.674 80.8372 245.68H130.707L144.421 183H83.8372Z" fill="#00BD66"/>
<path fill-rule="evenodd" clip-rule="evenodd" d="M180.882 176.123L209.21 203.758C217.452 207.273 224.205 211.156 229.47 215.404C230.654 216.832 231.943 219.568 226.372 218.344C220.802 217.12 214.888 216.082 213.841 217.894C212.794 219.705 215.879 222.481 213.944 224.852C212.654 226.432 208.316 221.405 200.93 209.77L171.473 192.403L180.882 176.123ZM60.1452 171.02L81.0426 171.102C68.1394 212.756 61.1736 234.857 60.1452 237.406C57.8312 243.14 62.7278 251.874 64.8218 256.567C58.0018 259.619 58.7285 248.317 50.1252 252.32C42.2725 255.973 36.2989 262.593 27.2263 256.994C26.1108 256.306 24.8885 253.715 27.8418 251.69C35.1996 246.645 45.8025 237.815 47.2352 234.908C49.1888 230.945 53.4922 209.649 60.1452 171.02Z" fill="#57331F"/>
<path fill-rule="evenodd" clip-rule="evenodd" d="M123.378 81.5142L132.13 80.8959C143.256 119.379 165.768 155.582 199.668 189.505L168.396 220.614C135.779 173.872 117.456 127.175 123.378 81.5142Z" fill="#192948"/>
<path fill-rule="evenodd" clip-rule="evenodd" d="M81.8373 192H158.837C140.998 148.625 132.079 111.779 132.079 81.4607L108.851 78C90.5972 107.358 85.4421 143.505 81.8373 192Z" fill="#DBE0E5"/>
<path fill-rule="evenodd" clip-rule="evenodd" d="M108.36 78.0164C108.363 78.0109 108.366 78.0055 108.369 78H109.885C111.699 78.0625 114.463 78.175 118.175 78.3377L123.787 94.3769C124.381 113.932 127.848 153.342 134.188 212.606H83.7133C83.8456 216.699 84.0638 220.83 84.3678 225H46.8372C52.4511 161.664 72.9525 112.664 108.341 78L108.36 78.0164V78.0164Z" fill="#192948"/>
<path fill-rule="evenodd" clip-rule="evenodd" d="M87.0475 160.233C88.484 185.748 92.0806 203.337 97.8373 213H83.7264C83.1086 194.643 84.2156 177.054 87.0475 160.233V160.233Z" fill="black" fill-opacity="0.1"/>
<path fill-rule="evenodd" clip-rule="evenodd" d="M94.9481 182L119.837 170.429V182H94.9481Z" fill="white" fill-opacity="0.2"/>
</g>
<defs>
<clipPath id="clip0">
<rect x="163" y="46" width="88" height="71" fill="white"/>
</clipPath>
</defs>
</svg>
