<?xml version="1.0" encoding="UTF-8"?>
<svg width="670px" height="597px" viewBox="0 0 670 597" version="1.1" xmlns="http://www.w3.org/2000/svg" xmlns:xlink="http://www.w3.org/1999/xlink">
    <!-- Generator: Sketch 58 (84663) - https://sketch.com -->
    <title>Web—Section Left Copy 2</title>
    <desc>Created with Sketch.</desc>
    <g id="Web—Section-Left-Copy-2" stroke="none" stroke-width="1" fill="none" fill-rule="evenodd">
        <path d="M126.030984,212.826604 C303.526894,235.348073 363.911958,93.1013625 491.309901,158.206409 C618.707844,223.311455 684.797609,355.346695 609.615004,452.649973 C534.432398,549.953251 289.799206,525.268223 167.96534,463.006625 C46.1314746,400.745028 -51.4649252,190.305135 126.030984,212.826604 Z" id="Path-2" fill="#F2F2F2"></path>
        <g id="Mobile3" transform="translate(150.000000, 68.000000)">
            <rect id="Container" fill="#DDE3E9" x="0" y="0" width="159" height="302" rx="8"></rect>
            <circle id="Touch" fill="#FFFFFF" cx="79" cy="268" r="15"></circle>
            <g id="Camera" transform="translate(64.000000, 16.000000)" fill="#FFFFFF">
                <circle id="Lens" cx="2" cy="2" r="2"></circle>
                <rect id="Sensor" x="9" y="0" width="21" height="4" rx="2"></rect>
            </g>
            <g id="Rows" transform="translate(14.000000, 28.000000)">
                <g id="Row">
                    <rect id="Container" fill="#FFFFFF" x="0" y="0" width="131" height="54" rx="4"></rect>
                    <g id="Text-Stuff" transform="translate(9.000000, 16.200000)" fill="#DDE3E9">
                        <rect id="Label" x="0" y="0" width="73" height="8.1" rx="3"></rect>
                        <rect id="Label" x="0" y="13.5" width="49" height="8.1" rx="3"></rect>
                    </g>
                    <g id="Check" transform="translate(110.000000, 20.000000)">
                        <circle id="Background" fill="#DDE3E9" cx="7" cy="7" r="7"></circle>
                        <circle id="Indicator" fill="#F2F2F2" cx="7" cy="7" r="3"></circle>
                    </g>
                </g>
                <g id="Row" transform="translate(0.000000, 62.000000)">
                    <rect id="Background" fill="#FFFFFF" x="0" y="0" width="131" height="42" rx="4"></rect>
                    <g id="Text" transform="translate(39.000000, 12.600000)" fill="#DDE3E9">
                        <rect id="Name" x="0" y="0" width="73" height="6.3" rx="3"></rect>
                        <rect id="Name" x="0" y="10.5" width="49" height="6.3" rx="3"></rect>
                    </g>
                    <circle id="Avatar" fill="#C5CFD6" cx="21" cy="21" r="12"></circle>
                </g>
                <g id="Row" transform="translate(0.000000, 112.000000)">
                    <rect id="Container" fill="#FFFFFF" x="0" y="0" width="131" height="42" rx="4"></rect>
                    <g id="Text-Stuff" transform="translate(9.000000, 12.600000)">
                        <rect id="Label" fill="#DDE3E9" x="0" y="0" width="73" height="6.3" rx="3"></rect>
                        <rect id="Label" fill="#AFB9C5" x="0" y="10.5" width="49" height="6.3" rx="3"></rect>
                    </g>
                    <g id="Check" transform="translate(110.000000, 14.000000)">
                        <circle id="Background" fill="#DDE3E9" cx="7" cy="7" r="7"></circle>
                        <circle id="Indicator" fill="#F2F2F2" cx="7" cy="7" r="3"></circle>
                    </g>
                </g>
                <g id="Row" transform="translate(0.000000, 162.000000)">
                    <rect id="Background" fill="#FFFFFF" x="0" y="0" width="131" height="42" rx="4"></rect>
                    <g id="Text" transform="translate(39.000000, 12.600000)" fill="#DDE3E9">
                        <rect id="Name" x="0" y="0" width="73" height="6.3" rx="3"></rect>
                        <rect id="Name" x="0" y="10.5" width="49" height="6.3" rx="3"></rect>
                    </g>
                    <circle id="Avatar" fill="#C5CFD6" cx="21" cy="21" r="12"></circle>
                </g>
            </g>
        </g>
        <g id="Web" transform="translate(216.000000, 105.000000)">
            <rect id="Container" fill="#F2F2F2" x="0" y="0" width="335" height="346" rx="8"></rect>
            <rect id="Background" fill="#FFFFFF" x="249" y="43" width="70" height="81" rx="8"></rect>
            <g id="Profile-Info" transform="translate(259.000000, 58.000000)" fill="#DDE3E9">
                <circle id="Avatar" cx="25" cy="16" r="16"></circle>
                <rect id="Name" x="0" y="36" width="50" height="6" rx="3"></rect>
                <rect id="Name" x="8" y="46" width="34" height="6" rx="3"></rect>
            </g>
            <path d="M8,0 L327,0 C331.418278,-8.11624501e-16 335,3.581722 335,8 L335,27 L335,27 L0,27 L0,8 C-5.41083001e-16,3.581722 3.581722,8.11624501e-16 8,0 Z" id="Header" fill="#C5CFD6"></path>
            <g id="Buttons" transform="translate(9.000000, 10.000000)" fill="#F2F2F2">
                <circle id="buttons" cx="4" cy="4" r="4"></circle>
                <circle id="buttons" cx="16" cy="4" r="4"></circle>
                <circle id="buttons" cx="28" cy="4" r="4"></circle>
            </g>
            <g id="Components" transform="translate(249.000000, 132.000000)">
                <rect id="Background" fill="#FFFFFF" x="0" y="0" width="70" height="194" rx="8"></rect>
                <g id="Rows" transform="translate(18.000000, 18.000000)">
                    <rect id="Data" fill="#DDE3E9" x="0" y="0" width="34" height="26" rx="4"></rect>
                    <rect id="Data" fill="#AFB9C5" x="0" y="34" width="34" height="25" rx="4"></rect>
                    <rect id="Data" fill="#DDE3E9" x="0" y="67" width="34" height="25" rx="4"></rect>
                    <rect id="Data" fill="#DDE3E9" x="0" y="133" width="34" height="25" rx="4"></rect>
                    <rect id="Data" fill="#C5CFD6" x="0" y="100" width="34" height="25" rx="4"></rect>
                </g>
            </g>
            <g id="Rows" transform="translate(16.000000, 44.000000)">
                <g id="Row">
                    <rect id="Container" fill="#FFFFFF" x="0" y="0" width="225" height="47" rx="4"></rect>
                    <g id="Text-Stuff" transform="translate(9.000000, 14.100000)" fill="#DDE3E9">
                        <rect id="Label" x="0" y="0" width="167" height="7.05" rx="3"></rect>
                        <rect id="Label" x="0" y="11.75" width="112.09589" height="7.05" rx="3"></rect>
                    </g>
                    <g id="Check" transform="translate(193.954198, 16.500000)">
                        <circle id="Background" fill="#DDE3E9" cx="7" cy="7" r="7"></circle>
                        <circle id="Indicator" fill="#F2F2F2" cx="7" cy="7" r="3"></circle>
                    </g>
                </g>
                <g id="Row" transform="translate(0.000000, 55.000000)">
                    <rect id="Container" fill="#FFFFFF" x="0" y="0" width="225" height="39" rx="4"></rect>
                    <g id="Text-Stuff" transform="translate(9.000000, 11.700000)" fill="#DDE3E9">
                        <rect id="Label" x="0" y="0" width="167" height="5.85" rx="2.925"></rect>
                        <rect id="Label" x="0" y="9.75" width="112.09589" height="5.85" rx="2.925"></rect>
                    </g>
                    <g id="Check" transform="translate(193.954198, 12.500000)">
                        <circle id="Background" fill="#DDE3E9" cx="7" cy="7" r="7"></circle>
                        <circle id="Indicator" fill="#F2F2F2" cx="7" cy="7" r="3"></circle>
                    </g>
                </g>
                <g id="Row" transform="translate(0.000000, 102.000000)">
                    <rect id="Container" fill="#FFFFFF" x="0" y="0" width="225" height="39" rx="4"></rect>
                    <g id="Text-Stuff" transform="translate(9.000000, 11.700000)" fill="#DDE3E9">
                        <rect id="Label" x="0" y="0" width="167" height="5.85" rx="2.925"></rect>
                        <rect id="Label" x="0" y="9.75" width="112.09589" height="5.85" rx="2.925"></rect>
                    </g>
                    <g id="Check" transform="translate(193.954198, 12.500000)">
                        <circle id="Background" fill="#DDE3E9" cx="7" cy="7" r="7"></circle>
                        <circle id="Indicator" fill="#AFB9C5" cx="7" cy="7" r="3"></circle>
                    </g>
                </g>
                <g id="Row" transform="translate(0.000000, 243.000000)">
                    <rect id="Container" fill="#FFFFFF" x="0" y="0" width="225" height="39" rx="4"></rect>
                    <g id="Text-Stuff" transform="translate(9.000000, 11.700000)" fill="#DDE3E9">
                        <rect id="Label" x="0" y="0" width="167" height="5.85" rx="2.925"></rect>
                        <rect id="Label" x="0" y="9.75" width="112.09589" height="5.85" rx="2.925"></rect>
                    </g>
                    <g id="Check" transform="translate(193.954198, 12.500000)">
                        <circle id="Background" fill="#DDE3E9" cx="7" cy="7" r="7"></circle>
                        <circle id="Indicator" fill="#F2F2F2" cx="7" cy="7" r="3"></circle>
                    </g>
                </g>
                <g id="Row" transform="translate(0.000000, 196.000000)">
                    <rect id="Container" fill="#FFFFFF" x="0" y="0" width="225" height="39" rx="4"></rect>
                    <g id="Text-Stuff" transform="translate(9.000000, 11.700000)" fill="#DDE3E9">
                        <rect id="Label" x="0" y="0" width="167" height="5.85" rx="2.925"></rect>
                        <rect id="Label" x="0" y="9.75" width="112.09589" height="5.85" rx="2.925"></rect>
                    </g>
                    <g id="Check" transform="translate(193.954198, 12.500000)">
                        <circle id="Background" fill="#DDE3E9" cx="7" cy="7" r="7"></circle>
                        <circle id="Indicator" fill="#F2F2F2" cx="7" cy="7" r="3"></circle>
                    </g>
                </g>
                <g id="Row" transform="translate(0.000000, 149.000000)">
                    <rect id="Container" fill="#FFFFFF" x="0" y="0" width="225" height="39" rx="4"></rect>
                    <g id="Text-Stuff" transform="translate(9.000000, 11.700000)" fill="#DDE3E9">
                        <rect id="Label" x="0" y="0" width="167" height="5.85" rx="2.925"></rect>
                        <rect id="Label" x="0" y="9.75" width="112.09589" height="5.85" rx="2.925"></rect>
                    </g>
                    <g id="Check" transform="translate(193.954198, 12.500000)">
                        <circle id="Background" fill="#DDE3E9" cx="7" cy="7" r="7"></circle>
                        <circle id="Indicator" fill="#F2F2F2" cx="7" cy="7" r="3"></circle>
                    </g>
                </g>
            </g>
        </g>
        <g id="Graph" transform="translate(520.000000, 451.000000)">
            <rect id="Value" fill="#DDE3E9" x="0" y="32" width="6" height="25" rx="3"></rect>
            <rect id="Value" fill="#DDE3E9" x="14" y="16" width="6" height="41" rx="3"></rect>
            <rect id="Value" fill="#DDE3E9" x="28" y="8" width="6" height="49" rx="3"></rect>
            <rect id="Value" fill="#DDE3E9" x="42" y="16" width="6" height="41" rx="3"></rect>
            <rect id="Value" fill="#C5CFD6" x="56" y="0" width="6" height="57" rx="3"></rect>
        </g>
        <g id="Chart" transform="translate(446.000000, 451.000000)">
            <path d="M29.0511329,28.5039 C27.5729953,30.0679 25.4790636,31.05 23.1501577,31.05 C18.6752322,31.05 15.0476025,27.4459 15.0476025,23 C15.0476025,18.5541 18.6752322,14.95 23.1501577,14.95 L23.1501577,0 C10.419886,0 0,10.3523 0,23 C0,35.6477 10.419886,46 23.1501577,46 C29.8370808,46 35.8804294,43.1894 40,38.7182 L29.0511329,28.5039 Z" id="Value" fill="#DDE3E9"></path>
            <path d="M23,0 L23,14.95 C27.4459,14.95 31.05,18.5541 31.05,23 L46,23 C46,10.3523 35.6477,0 23,0 Z" id="Value" fill="#AFB9C5"></path>
            <path d="M31.0727226,23 C31.0727226,25.5552376 29.8693544,27.8265598 28,29.2930738 L37.1963511,41 C42.5495024,36.8088151 46,30.3119634 46,23 L31.0727226,23 Z" id="Value" fill="#C5CFD6"></path>
        </g>
        <g id="Image" transform="translate(84.000000, 156.000000)">
            <path d="M48.007,51.9862978 C48.003,51.9962978 47.999,52.0062978 47.993,52.0182978 C47.999,52.0082978 48.007,51.9682978 48.007,51.9862978" id="Fill-35" fill="#C5CFD6"></path>
            <path d="M47.9976864,52.0014952 C47.9976864,52.0034952 47.9956864,52.0074952 47.9956864,52.0114952 C47.9956864,52.0014952 48.0136864,51.9714952 47.9976864,52.0014952" id="Fill-37" fill="#C5CFD6"></path>
            <path d="M48.0671431,51.8323017 C48.0531431,51.8723017 48.0351431,51.9103017 48.0191431,51.9503017 C48.0271431,51.9303017 48.0351431,51.9143017 48.0431431,51.8943017 C47.8351431,52.4143017 47.9671431,52.0763017 48.0671431,51.8323017" id="Fill-39" fill="#C5CFD6"></path>
            <path d="M48.0223751,51.95275 C48.0143751,51.97075 48.0063751,51.99075 47.9983751,52.00875 C47.9403751,52.12075 48.0223751,51.95275 48.0223751,51.95275" id="Fill-41" fill="#C5CFD6"></path>
            <polygon id="Fill-43" fill="#C5CFD6" points="48 52.001 48 52.001 48 51.999"></polygon>
            <path d="M47.999,52.002 C47.999,52 47.999,52 48.001,51.998 C47.999,52 47.999,52 47.999,52.002" id="Fill-45" fill="#C5CFD6"></path>
            <path d="M47.9895117,52.0163509 C47.9775117,52.0403509 48.0455117,51.9243509 47.9895117,52.0163509" id="Fill-47" fill="#C5CFD6"></path>
            <path d="M47.998,52.002 L48.002,51.998 C48,52 48,52.002 47.998,52.002" id="Fill-49" fill="#C5CFD6"></path>
            <rect id="Photo-Background" fill="#DDE3E9" x="0" y="0" width="95" height="63" rx="4"></rect>
            <g id="icons8-night_landscape" transform="translate(8.000000, 18.000000)">
                <polygon id="Mountains" fill="#AFB9C5" points="28 0 0 45 56 45"></polygon>
                <polygon id="Mountains" fill="#C5CFD6" points="55.5 12 31 45 80 45"></polygon>
            </g>
            <circle id="Sun" fill="#FFFFFF" cx="74" cy="21" r="9"></circle>
        </g>
        <rect id="Rectangle" fill="#99C6F7" x="262" y="141" width="147" height="118"></rect>
        <g id="Image" transform="translate(225.000000, 150.000000)">
            <g id="Group-3" transform="translate(133.500000, 192.000000) scale(-1, 1) translate(-133.500000, -192.000000) ">
                <g id="Humaaan" transform="translate(133.500000, 192.000000) scale(-1, 1) translate(-133.500000, -192.000000) ">
                    <g id="Head/Front/Pony" transform="translate(114.043637, 54.620196) rotate(-8.000000) translate(-114.043637, -54.620196) translate(53.523637, 8.479350)">
                        <g id="Head" stroke-width="1" transform="translate(48.044118, 27.423077)" fill="#B28B67">
                            <path d="M33.9363552,8.08001758 C39.0920324,17.6348561 38.4794039,41.8714963 31.8161505,43.5792125 C29.1588512,44.2602481 23.4980102,42.5919809 17.736598,39.1391819 L21.3529412,64.5769231 L0,64.5769231 L7.35071317,30.5101694 C3.25118289,25.725565 0.476568002,19.8620107 0.940220121,13.2917477 C2.27616145,-5.63944128 28.780678,-1.47482091 33.9363552,8.08001758 Z"></path>
                        </g>
                        <path d="M75.625,17.6923077 C80.5387099,17.6923077 84.5220588,21.6528657 84.5220588,26.5384615 C84.5220588,31.2633294 80.7964899,35.1230226 76.1068294,35.3718639 C73.4243756,36.1948649 69.9776832,36.7991453 66.1553063,37.0539764 C66.526252,38.4415967 66.7279412,40.0180244 66.7279412,41.7994589 C66.7279412,43.3726107 66.5532875,45.0410349 66.2316937,46.7350854 C65.4025792,45.754634 64.2941477,45.1153846 63.1691176,45.1153846 C60.0217243,45.1153846 57.8308824,47.6897473 57.8308824,50.4230769 C57.8308824,53.8919211 59.8448695,56.4014257 62.7849517,56.602375 C60.1377409,61.6557102 56.4755162,65.4615385 52.816801,65.4615385 C45.8675614,65.4615385 40.9264706,56.2237472 40.9264706,46.2915415 C40.9264706,45.9428835 40.9334126,45.5965429 40.9471098,45.2527866 C33.5961344,50.2674005 27.9307597,60.1538462 18.2040456,60.1538462 C4.97099065,60.1538462 -0.284407163,33.6153846 18.2040456,33.6153846 C30.7776103,33.6153846 36.9624656,35.4381214 42.2926062,38.1335184 C43.3438562,35.187175 44.9461102,32.7105935 46.905295,30.9807103 C47.3767208,30.452864 48.0992787,29.9477863 49.0316433,29.4795385 C49.6015477,29.1694846 50.1903729,28.9171076 50.7955253,28.7269874 C54.0102299,27.551664 58.6686362,26.7223782 63.8725218,26.5416936 C64.8435517,26.5079786 65.7972196,26.4981092 66.7275661,26.5105311 C66.7432065,21.6377057 70.7207033,17.6923077 75.625,17.6923077 Z" id="hair" fill="#191847"></path>
                    </g>
                    <g id="Bottom/Standing/Shorts" transform="translate(0.000000, 171.929577)">
                        <polygon id="Leg" fill="#997659" points="113.92 9.9475983e-14 147.411446 109.126043 163.635537 201.930713 176.356345 201.930713 159.212967 9.9475983e-14"></polygon>
                        <path d="M101.938577,0 C104.213397,59.9160628 101.536242,90.821853 101.02711,96.2654878 C100.517978,101.709123 93.5462947,137.005942 77.0416817,203.75814 L90.5966532,199.118294 C116.680655,137.896649 125.569153,106.07868 128.56079,98.0395464 C131.552428,90.0004131 139.498069,57.3205643 152.397713,0 L101.938577,0 Z" id="Leg" fill="#B28B67"></path>
                        <g id="Accessories/Shoe/Flat-Sneaker" transform="translate(74.760000, 176.518828)" fill="#E4E4E4">
                            <path d="M2.28004921,22.4680239 C1.35018034,24.9605595 0.885245902,26.8353722 0.885245902,28.092462 C0.885245902,29.6703374 1.15118635,31.9728501 1.68306723,35 C3.53494727,35 20.178105,35 51.6125403,35 C52.9100303,30.7601938 52.1610439,28.4712589 49.3655809,28.1331953 C46.5701179,27.7951316 44.2478793,27.4898872 42.3988652,27.217462 L19.2938401,17.0363435 C18.7884459,16.8136439 18.1982092,17.0428133 17.9755097,17.5482075 C17.9728332,17.5542814 17.9702173,17.5603818 17.9676624,17.5665078 L16.5215329,21.0338582 L16.5215329,21.0338582 C13.9336653,22.2273206 11.8307543,22.8240519 10.2127997,22.8240519 C8.93655596,22.8240519 7.18822216,22.3294296 4.96779829,21.3401852 L4.96778998,21.3402038 C3.95883528,20.8906937 2.77651599,21.3442132 2.32700593,22.3531679 C2.31016951,22.3909584 2.29450973,22.4292621 2.28004921,22.4680239 Z" id="shoe"></path>
                        </g>
                        <g id="Accessories/Shoe/Flat-Sneaker" transform="translate(158.420000, 176.518828)" fill="#E4E4E4">
                            <path d="M2.28004921,22.4680239 C1.35018034,24.9605595 0.885245902,26.8353722 0.885245902,28.092462 C0.885245902,29.6703374 1.15118635,31.9728501 1.68306723,35 C3.53494727,35 20.178105,35 51.6125403,35 C52.9100303,30.7601938 52.1610439,28.4712589 49.3655809,28.1331953 C46.5701179,27.7951316 44.2478793,27.4898872 42.3988652,27.217462 L19.2938401,17.0363435 C18.7884459,16.8136439 18.1982092,17.0428133 17.9755097,17.5482075 C17.9728332,17.5542814 17.9702173,17.5603818 17.9676624,17.5665078 L16.5215329,21.0338582 L16.5215329,21.0338582 C13.9336653,22.2273206 11.8307543,22.8240519 10.2127997,22.8240519 C8.93655596,22.8240519 7.18822216,22.3294296 4.96779829,21.3401852 L4.96778998,21.3402038 C3.95883528,20.8906937 2.77651599,21.3442132 2.32700593,22.3531679 C2.31016951,22.3909584 2.29450973,22.4292621 2.28004921,22.4680239 Z" id="shoe"></path>
                        </g>
                        <polygon id="Bottom" fill="#69A1AC" points="109.47 0 123.71 55.5985701 167.204583 55.5985701 160.719363 0"></polygon>
                        <path d="M101.46,-3.55271368e-15 C96.7745409,13.9978066 95.8845409,32.5306633 98.79,55.5985701 L143.174583,55.5985701 L155.379363,-3.55271368e-15 L101.46,-3.55271368e-15 Z" id="Bottom" fill="#89C5CC"></path>
                    </g>
                    <g id="Body/Hoodie" transform="translate(129.294852, 163.138234) rotate(-8.000000) translate(-129.294852, -163.138234) translate(15.374852, 80.173445)">
                        <path d="M60.8367484,82.5738074 L79.448488,82.6467583 C67.9565976,119.622742 61.7526844,139.241967 60.8367484,141.504434 C58.7758925,146.594984 63.1369408,154.347805 65.0018981,158.514112 C58.9277942,161.223168 59.5749965,151.190429 51.9126778,154.743506 C44.9188686,157.986591 39.5986954,163.862843 31.5183595,158.893399 C30.5249297,158.282435 29.4362924,155.982046 32.0665776,154.184413 C38.6195772,149.705855 48.0628467,141.86757 49.3387811,139.287538 C51.0787456,135.769204 54.9114014,116.864627 60.8367484,82.5738074 L60.8367484,82.5738074 Z M169.91451,81.8561849 L198.323908,102.649326 C206.029122,104.721644 212.466579,107.299957 217.636279,110.384265 C218.857452,111.493363 220.333354,113.739469 215.268854,113.351286 L214.634689,113.303963 C209.767036,112.951299 204.830629,112.853553 204.160943,114.503563 C203.46214,116.225314 206.526901,118.284338 205.114317,120.60743 C204.172594,122.156158 199.723517,118.27278 191.767086,108.957296 L163.63433,97.329659 L169.91451,81.8561849 Z" id="Skin" fill="#B28B67"></path>
                        <path d="M109.322975,8.51632858 L116.880263,6.53351317 C147.490049,28.552467 163.301289,74.6149999 200.375195,96.5054531 L192.884816,107.615822 C131.700593,105.441569 111.672808,49.321244 109.322975,8.51632858 Z" id="Coat-Back" fill="#E87613" transform="translate(154.849085, 57.074668) rotate(5.000000) translate(-154.849085, -57.074668) "></path>
                        <path d="M80.15625,101.197861 C111.035783,101.197861 133.750119,101.197861 148.299261,101.197861 C151.413049,101.197861 150.826315,96.7164265 150.376198,94.4550701 C145.181305,68.3562845 124.902412,40.2230565 124.902412,3.07209214 L105.246759,0 C88.98901,26.0614734 83.3667984,58.148424 80.15625,101.197861 Z" id="Shirt" fill="#DDE3E9"></path>
                        <path d="M103.766747,-6.66133815e-15 C104.430853,-5.77315973e-15 105.039204,0.0414186465 105.591799,0.124255939 L111.748132,0.474688934 C129.225913,59.514453 134.172756,99.101358 126.588661,119.235404 L126.355004,119.839572 L72.7208532,119.840255 C69.5432105,127.225509 66.5024708,133.439185 63.598634,138.481283 L63.598634,138.481283 L48.984375,138.481283 C47.6089499,94.1552344 58.1824001,56.5334778 80.7047255,25.6160138 C77.8496697,24.7997999 75.5886579,22.8920981 73.921875,19.8944255 C66.7376992,6.97384267 69.3322413,-0.1398952 77.0098468,-2.47822101 C84.6874523,-4.81654682 91.5342687,-1.86517468e-14 103.766747,-6.66133815e-15 Z" id="Coat-Front" fill="#FF9B21"></path>
                        <path d="M92.625,119.839572 L72.7209102,119.840122 C76.4276074,111.225265 80.320589,101.016236 84.399855,89.2130367 C86.0870946,103.278795 88.8286555,113.487953 92.625,119.839572 Z" id="Shade" fill-opacity="0.1" fill="#000000"></path>
                    </g>
                </g>
            </g>
        </g>
        <path d="M409,141 L409,259 L262,259 L262,141 L409,141 Z M399,152 L273,152 L273,248 L399,248 L399,152 Z" id="Combined-Shape" fill="#FFFFFF"></path>
    </g>
</svg>