<svg width="140" height="140" viewBox="0 0 140 140" fill="none" xmlns="http://www.w3.org/2000/svg">
<rect width="140" height="140" fill="white"/>
<mask id="mask0" mask-type="alpha" maskUnits="userSpaceOnUse" x="0" y="0" width="140" height="140">
<rect width="139.007" height="140" rx="69.5035" fill="#E8D0FF"/>
</mask>
<g mask="url(#mask0)">
<rect width="140" height="140" fill="#E7FFE8"/>
<rect x="26" y="27" width="44" height="44" rx="4" fill="white"/>
<path d="M54 60C54 57.2386 56.2386 55 59 55H70V67C70 69.2091 68.2091 71 66 71H54V60Z" fill="#F7F9FB"/>
<path d="M57.1219 50.7598C58.4756 50.7598 59.5779 49.6575 59.5779 48.3038V40.4445C59.5779 39.0907 58.4756 37.9885 57.1219 37.9885H54.1746C53.6215 37.9885 53.1127 38.1751 52.701 38.4856V50.7598H57.1219Z" fill="#FF5533"/>
<path d="M36 47.0754C36 47.6658 36.2338 48.216 36.6395 48.6217C36.1807 49.1237 35.9469 49.7967 36.0108 50.4971C36.1257 51.7458 37.2506 52.7243 38.5729 52.7243H44.6412C44.3406 53.6369 43.8593 55.3099 43.8593 56.6539C43.8593 58.7847 45.6698 60.5835 46.8065 60.5835C47.8272 60.5835 48.5562 60.0088 48.5876 59.9852C48.7035 59.8919 48.7713 59.7504 48.7713 59.6011V56.2698L51.6006 50.1405L51.7185 50.0806V39.5511C50.9188 39.1739 49.907 38.9705 49.2625 38.9705H40.245C39.1751 38.9705 38.2389 39.6916 38.0188 40.6868C37.9059 41.1986 37.9717 41.7144 38.1966 42.1624C37.4706 42.5278 36.9824 43.2754 36.9824 44.1282C36.9824 44.4759 37.0619 44.809 37.2132 45.1106C36.4872 45.476 36 46.2236 36 47.0754Z" fill="#FF5533"/>
<rect x="56.6001" y="56.5557" width="56.4" height="56.4" rx="4" fill="white"/>
<path d="M71.0394 82.3823C69.1192 82.3823 67.5557 83.9458 67.5557 85.8661V97.0142C67.5557 98.9345 69.1192 100.498 71.0394 100.498H75.22C76.0045 100.498 76.7263 100.233 77.3103 99.7929V82.3823H71.0394Z" fill="#00BD66"/>
<path d="M101 87.6081C101 86.7706 100.668 85.9902 100.093 85.4147C100.744 84.7026 101.075 83.748 100.985 82.7545C100.822 80.9833 99.2261 79.5953 97.3505 79.5953H88.7427C89.1691 78.3007 89.8519 75.9276 89.8519 74.0213C89.8519 70.9988 87.2837 68.4473 85.6714 68.4473C84.2236 68.4473 83.1895 69.2625 83.145 69.2959C82.9806 69.4283 82.8844 69.629 82.8844 69.8408V74.5661L78.8711 83.2603L78.7039 83.3453V98.281C79.8382 98.8161 81.2735 99.1046 82.1876 99.1046H94.9787C96.4963 99.1046 97.8243 98.0817 98.1364 96.6701C98.2966 95.9441 98.2033 95.2125 97.8842 94.5771C98.914 94.0587 99.6066 92.9982 99.6066 91.7886C99.6066 91.2953 99.4937 90.8229 99.2791 90.3951C100.309 89.8767 101 88.8163 101 87.6081Z" fill="#00BD66"/>
</g>
</svg>
