<svg width="295" height="461" viewBox="0 0 295 461" fill="none" xmlns="http://www.w3.org/2000/svg">
<rect width="294.542" height="461" fill="white"/>
<path fill-rule="evenodd" clip-rule="evenodd" d="M137.76 90.262C133.482 84.4005 130.826 77.4234 131.96 69.9328C135.226 48.3503 165.329 55.5546 170.386 66.982C175.443 78.4094 172.523 106.141 164.704 107.488C161.585 108.025 155.227 105.594 148.916 101.107L150.751 130.603L126.192 128.646L137.76 90.262Z" fill="#B28B67"/>
<path fill-rule="evenodd" clip-rule="evenodd" d="M161.636 54.2777C158.361 52.996 153.517 52.2638 151.449 52.3332C152.836 49.6578 153.544 46.6105 153.406 43.5775C153.272 40.6303 152.155 38.0409 151.146 35.3405C150.681 34.0957 150.14 32.8516 149.266 31.8582C148.375 30.8461 147.202 30.1314 145.945 29.7348C144.657 29.3289 143.284 29.2447 141.949 29.4136C141.359 29.4883 140.817 29.71 140.235 29.811C139.64 29.9144 139.386 29.5299 138.991 29.1324C138.04 28.1746 136.579 27.6227 135.3 27.365C133.865 27.0759 132.345 27.1727 130.926 27.5346C129.544 27.8869 128.193 28.53 127.134 29.5395C126.663 29.9889 126.226 30.5083 125.922 31.096C125.797 31.3371 125.768 31.4836 125.51 31.555C125.271 31.6211 124.999 31.6019 124.753 31.6633C122.372 32.2568 120.248 33.8745 118.987 36.0683C118.251 37.3481 117.766 39.6661 117.639 42.2973C117.511 44.9285 119.357 51.9677 121.394 54.6439C123.213 57.0328 126.03 58.738 128.81 59.6078C126.761 61.5874 125.297 64.1486 124.157 66.781C122.917 69.6405 122.052 72.6454 121.574 75.7392C121.12 78.6787 120.851 81.804 121.32 84.7535C121.758 87.5117 122.981 89.8432 125.204 91.4377C126.223 92.1682 127.335 92.7446 128.458 93.2798C129.564 93.8073 130.674 94.3229 131.85 94.6631C134.075 95.3068 136.688 95.4349 138.573 93.7892C139.252 93.1959 140.007 92.4425 140.528 91.6931C140.715 91.4236 140.829 91.2466 140.651 90.9544C140.438 90.6044 140.07 90.32 139.783 90.0366C138.144 88.4208 137.214 86.3639 137.126 84.0007C137.037 81.6029 137.926 78.5879 140.339 77.7368C143.317 76.6862 146.368 78.4077 148.816 79.9809C150.205 76.2664 152.709 73.0217 156.346 71.5569C160.369 69.9364 164.828 70.0646 168.937 68.7265C170.008 68.3778 171.102 67.9723 171.935 67.1544C172.283 66.8126 172.695 66.366 172.861 65.8904C173.079 65.2657 172.707 64.6976 172.426 64.1747C170.935 61.4017 164.911 55.5594 161.636 54.2777Z" fill="#191847"/>
<path fill-rule="evenodd" clip-rule="evenodd" d="M120.986 215.979L158.203 346.076L185.356 441.965H205.161L176.306 215.979H120.986Z" fill="#192948"/>
<path fill-rule="evenodd" clip-rule="evenodd" d="M111.033 215.979C110.172 283.032 107.237 319.605 106.333 325.697C105.429 331.79 91.7629 370.545 65.3342 441.965H85.8506C119.496 373.45 138.278 334.694 142.197 325.697C146.115 316.701 158.206 280.128 176.418 215.979H111.033Z" fill="#536383"/>
<path fill-rule="evenodd" clip-rule="evenodd" d="M63.5004 460.529L64.5269 438.972H86.084C96.3057 446.158 109.651 451.975 126.118 456.423V460.529H87.1105L73.7656 458.476V460.529H63.5004Z" fill="#192948"/>
<path fill-rule="evenodd" clip-rule="evenodd" d="M182.577 460.529L183.604 438.972H205.161C215.383 446.158 228.728 451.975 245.196 456.423V460.529H206.188L192.843 458.476V460.529H182.577Z" fill="#192948"/>
<path fill-rule="evenodd" clip-rule="evenodd" d="M207.79 196.444L240.274 220.7C249.128 223.174 256.516 226.216 262.435 229.825C263.829 231.116 265.502 233.717 259.67 233.212C253.838 232.706 247.681 232.435 246.854 234.408C246.027 236.381 249.534 238.786 247.877 241.443C246.772 243.214 241.693 238.694 232.639 227.882L200.36 214.176L207.79 196.444ZM73.0481 196.479L91.3536 198.023C74.372 241.242 65.2499 264.107 63.9871 266.618C61.1459 272.268 65.4348 281.561 67.1897 286.51C59.9595 289.061 61.6364 277.613 52.5031 280.986C44.1667 284.066 37.508 290.318 28.6873 283.878C27.6029 283.086 26.5663 280.348 29.7553 278.527C37.7002 273.99 49.2782 265.864 50.9841 263.022C53.3104 259.146 60.665 236.965 73.0481 196.479Z" fill="#B28B67"/>
<path fill-rule="evenodd" clip-rule="evenodd" d="M138.529 115.345L149.555 110.976C167.065 147.991 191.998 183.329 231.854 212.061L223.413 228.758C188.84 211.161 156.311 197.829 141.731 169.207C136.838 159.601 138.879 127.158 138.529 115.345Z" fill="#DBE0E5"/>
<path fill-rule="evenodd" clip-rule="evenodd" d="M106.247 224.368C138.664 225.852 164.021 224.344 182.318 219.846C184.585 219.288 184.72 215.449 183.503 212.92C164.552 173.549 151.109 139.012 149.443 110.982C146.497 112.686 141.195 113.231 133.539 112.615C114.85 142.714 107.44 176.414 106.247 224.368Z" fill="#1C75DF"/>
<path fill-rule="evenodd" clip-rule="evenodd" d="M128.322 110.496L136.826 109.99C139.495 121.461 155.069 278.015 177.401 328.202L73.0791 334.404C72.5453 287.243 87.0279 229.693 102.291 181.348C88.4999 201 78.8098 227.532 68.9999 263L49.1626 259.17C59.9883 196.008 87.9999 143.5 126.514 111.278C126.599 111.047 126.683 110.817 126.767 110.588L127.519 110.544C127.786 110.35 128.053 110.157 128.32 109.965L128.322 110.496Z" fill="#F7F9FB"/>
</svg>
