<svg width="259" height="286" viewBox="0 0 259 286" fill="none" xmlns="http://www.w3.org/2000/svg">
<rect width="259" height="286" fill="white"/>
<circle cx="134" cy="161" r="125" fill="#E8D0FF"/>
<circle cx="134" cy="161" r="125" fill="#E8D0FF"/>
<path fill-rule="evenodd" clip-rule="evenodd" d="M115.143 64.3066C110.914 58.4509 108.302 51.4711 109.459 43.962C112.794 22.3264 142.691 29.4263 147.672 40.8553C152.652 52.2843 149.637 80.0792 141.858 81.4595C138.756 82.01 132.445 79.5987 126.189 75.1282L127.893 104.673L103.487 102.808L115.143 64.3066Z" fill="#B28B67"/>
<path fill-rule="evenodd" clip-rule="evenodd" d="M138.907 28.2228C135.644 26.9469 130.814 26.2252 128.751 26.2997C130.141 23.6164 130.855 20.562 130.725 17.5241C130.599 14.5721 129.49 11.9809 128.491 9.27819C128.03 8.03242 127.494 6.78741 126.624 5.7944C125.738 4.78273 124.57 4.06969 123.317 3.67546C122.034 3.27195 120.664 3.19098 119.332 3.36343C118.743 3.4397 118.202 3.66313 117.622 3.76566C117.027 3.87074 116.775 3.48619 116.382 3.08897C115.436 2.13183 113.98 1.58253 112.705 1.32745C111.275 1.04134 109.758 1.142 108.341 1.50798C106.963 1.86427 105.613 2.51186 104.554 3.52569C104.083 3.97696 103.646 4.49834 103.341 5.08779C103.217 5.32969 103.187 5.47646 102.929 5.54859C102.691 5.6154 102.419 5.59682 102.174 5.65895C99.7975 6.25934 97.6749 7.88497 96.4116 10.0857C95.6745 11.3695 95.185 13.6927 95.0512 16.3288C94.9175 18.9649 96.7405 26.0119 98.766 28.6878C100.574 31.0764 103.379 32.7777 106.151 33.6422C104.102 35.6303 102.636 38.1995 101.491 40.8393C100.248 43.7068 99.377 46.719 98.8928 49.8194C98.4328 52.7651 98.1562 55.8965 98.6164 58.85C99.047 61.612 100.26 63.9445 102.474 65.5364C103.488 66.2656 104.596 66.8403 105.715 67.3738C106.817 67.8994 107.923 68.4132 109.095 68.7512C111.313 69.3906 113.919 69.5126 115.803 67.8594C116.482 67.2634 117.237 66.5068 117.759 65.7548C117.946 65.4844 118.06 65.3069 117.884 65.0146C117.672 64.6645 117.306 64.3805 117.02 64.0973C115.389 62.4827 114.466 60.4245 114.385 58.0574C114.302 55.6556 115.196 52.6331 117.605 51.7747C120.578 50.715 123.617 52.4321 126.055 54.002C127.45 50.2776 129.956 47.0212 133.587 45.545C137.604 43.9119 142.051 44.0294 146.153 42.679C147.222 42.3271 148.315 41.9182 149.148 41.0969C149.496 40.7536 149.908 40.3052 150.075 39.8284C150.294 39.202 149.923 38.6339 149.644 38.1107C148.165 35.3366 142.171 29.4987 138.907 28.2228Z" fill="#192948"/>
<path fill-rule="evenodd" clip-rule="evenodd" d="M184.994 170.402L217.499 194.786C226.354 197.281 233.742 200.344 239.664 203.973C241.059 205.27 242.736 207.883 236.906 207.367C231.075 206.851 224.92 206.571 224.097 208.549C223.274 210.527 226.782 212.945 225.13 215.608C224.029 217.383 218.945 212.841 209.879 201.98L177.594 188.181L184.994 170.402ZM50.315 170.24L68.6143 171.816C51.7051 215.152 42.6213 238.079 41.3629 240.596C38.5315 246.261 42.8322 255.59 44.5937 260.559C37.3707 263.108 39.0297 251.624 29.9057 254.995C21.5777 258.072 14.9314 264.336 6.10525 257.862C5.02012 257.066 3.97986 254.317 7.16468 252.494C15.0992 247.954 26.6597 239.819 28.3605 236.969C30.6799 233.084 37.9981 210.841 50.315 170.24Z" fill="#B28B67"/>
<mask id="mask0" mask-type="alpha" maskUnits="userSpaceOnUse" x="8" y="36" width="251" height="250">
<circle cx="133.342" cy="161" r="125" fill="#E8D0FF"/>
</mask>
<g mask="url(#mask0)">
<path fill-rule="evenodd" clip-rule="evenodd" d="M115.19 64.3066C110.961 58.4509 108.35 51.4711 109.507 43.962C112.842 22.3264 142.739 29.4263 147.719 40.8553C152.7 52.2843 149.685 80.0792 141.906 81.4595C138.803 82.01 132.492 79.5987 126.237 75.1282L127.941 104.673L103.534 102.808L115.19 64.3066Z" fill="#B28B67"/>
<path fill-rule="evenodd" clip-rule="evenodd" d="M138.955 28.2228C135.691 26.9469 130.861 26.2252 128.799 26.2997C130.188 23.6164 130.902 20.562 130.772 17.5241C130.646 14.5721 129.538 11.9809 128.538 9.27819C128.077 8.03242 127.541 6.78741 126.672 5.7944C125.786 4.78273 124.618 4.06969 123.364 3.67546C122.081 3.27195 120.712 3.19098 119.38 3.36343C118.791 3.4397 118.249 3.66313 117.669 3.76566C117.075 3.87074 116.822 3.48619 116.43 3.08897C115.484 2.13183 114.027 1.58253 112.752 1.32745C111.322 1.04134 109.805 1.142 108.389 1.50798C107.01 1.86427 105.661 2.51186 104.602 3.52569C104.131 3.97696 103.694 4.49834 103.389 5.08779C103.264 5.32969 103.235 5.47646 102.977 5.54859C102.738 5.6154 102.467 5.59682 102.221 5.65895C99.845 6.25934 97.7225 7.88497 96.4591 10.0857C95.722 11.3695 95.2325 13.6927 95.0987 16.3288C94.965 18.9649 96.788 26.0119 98.8135 28.6878C100.621 31.0764 103.427 32.7777 106.198 33.6422C104.149 35.6303 102.683 38.1995 101.539 40.8393C100.295 43.7068 99.4246 46.719 98.9403 49.8194C98.4803 52.7651 98.2037 55.8965 98.6639 58.85C99.0945 61.612 100.308 63.9445 102.522 65.5364C103.536 66.2656 104.644 66.8403 105.762 67.3738C106.864 67.8994 107.971 68.4132 109.143 68.7512C111.361 69.3906 113.967 69.5126 115.851 67.8594C116.53 67.2634 117.285 66.5068 117.806 65.7548C117.994 65.4844 118.108 65.3069 117.931 65.0146C117.719 64.6645 117.353 64.3805 117.067 64.0973C115.436 62.4827 114.514 60.4245 114.432 58.0574C114.35 55.6556 115.243 52.6331 117.652 51.7747C120.626 50.715 123.665 52.4321 126.102 54.002C127.497 50.2776 130.003 47.0212 133.634 45.545C137.652 43.9119 142.099 44.0294 146.201 42.679C147.269 42.3271 148.362 41.9182 149.195 41.0969C149.543 40.7536 149.955 40.3052 150.122 39.8284C150.341 39.202 149.971 38.6339 149.692 38.1107C148.212 35.3366 142.218 29.4987 138.955 28.2228Z" fill="#192948"/>
<path fill-rule="evenodd" clip-rule="evenodd" d="M98.328 189.979L135.545 320.076L162.698 415.965H182.503L153.648 189.979H98.328Z" fill="#192948"/>
<path fill-rule="evenodd" clip-rule="evenodd" d="M88.3752 189.979C87.5143 257.032 84.579 293.605 83.6751 299.697C82.7713 305.79 69.105 344.545 42.6763 415.965H63.1927C96.8386 347.45 115.621 308.694 119.539 299.697C123.457 290.701 135.548 254.128 153.76 189.979H88.3752Z" fill="#536383"/>
<path fill-rule="evenodd" clip-rule="evenodd" d="M185.042 170.402L217.547 194.786C226.401 197.281 233.789 200.344 239.712 203.973C241.107 205.27 242.783 207.883 236.953 207.367C231.123 206.851 224.968 206.571 224.145 208.549C223.321 210.527 226.83 212.945 225.178 215.608C224.076 217.383 218.992 212.841 209.926 201.98L177.642 188.181L185.042 170.402ZM50.3625 170.24L68.6618 171.816C51.7527 215.152 42.6688 238.079 41.4104 240.596C38.579 246.261 42.8797 255.59 44.6412 260.559C37.4182 263.108 39.0773 251.624 29.9532 254.995C21.6252 258.072 14.9789 264.336 6.15276 257.862C5.06764 257.066 4.02738 254.317 7.21219 252.494C15.1467 247.954 26.7072 239.819 28.4081 236.969C30.7275 233.084 38.0456 210.841 50.3625 170.24Z" fill="#B28B67"/>
<path fill-rule="evenodd" clip-rule="evenodd" d="M115.71 89.3396L126.749 84.9914C144.344 121.989 169.372 157.324 209.34 186.081L200.909 202.747C166.251 185.12 133.646 171.755 118.998 143.144C114.082 133.542 116.078 101.14 115.71 89.3396Z" fill="#DBE0E5"/>
<path fill-rule="evenodd" clip-rule="evenodd" d="M83.7413 198.365C116.099 199.898 141.406 198.426 159.661 193.95C161.923 193.396 162.051 189.553 160.833 187.021C141.86 147.587 128.391 112.999 126.686 84.9421C123.748 86.6434 118.457 87.1804 110.815 86.5531C92.2061 116.651 84.8608 150.371 83.7413 198.365Z" fill="#1C75DF"/>
<path fill-rule="evenodd" clip-rule="evenodd" d="M105.453 84.445L113.937 83.9515C116.617 95.4343 132.388 252.122 154.743 302.378L50.6727 308.431C50.0698 261.236 64.4331 203.667 79.5883 155.309C65.8589 174.955 56.2308 201.492 46.4965 236.971L26.6996 233.109C37.4059 169.918 65.2743 117.414 103.651 85.2247C103.735 84.9938 103.819 84.764 103.902 84.5352L104.653 84.4916C104.918 84.2984 105.184 84.1059 105.451 83.9139L105.453 84.445Z" fill="white"/>
</g>
<g clip-path="url(#clip0)">
<path d="M174 141.149C167.261 131.429 166.189 118.932 170.937 105.972L178.441 108.749C173.541 122.017 176.91 131.12 180.586 136.52C185.333 143.463 193.757 147.937 201.874 147.937C216.73 147.937 225.459 132.817 225.459 132.663L232.351 136.52C232.045 137.137 225.153 149.326 212.288 153.955V164.446H225.919C227.297 164.446 228.523 165.526 228.523 167.069C228.523 168.457 227.45 169.692 225.919 169.692H178.748C177.369 169.692 176.297 168.612 176.297 167.069C176.297 165.68 177.369 164.446 178.748 164.446H192.378V154.417C185.027 152.257 178.441 147.629 174 141.149Z" fill="#F7F9FB"/>
<path d="M211.982 134.669C211.982 136.674 213.36 138.372 214.892 138.372H238.784C240.468 138.372 241.694 136.674 241.694 134.669C241.694 132.663 240.315 130.966 238.784 130.966H214.892C213.36 130.966 211.982 132.663 211.982 134.669Z" fill="#536383"/>
<path d="M218.108 109.983L204.631 123.56L204.477 123.714C203.865 123.406 203.405 123.097 202.946 122.634L166.495 85.9145C167.261 85.4516 168.027 84.9888 168.64 84.2173L179.973 72.8002C180.279 72.4916 180.739 72.0288 181.045 71.5659L217.189 108.286C217.649 108.749 217.955 109.366 218.261 109.829C218.261 109.829 218.261 109.829 218.108 109.983Z" fill="#F7F9FB"/>
<path d="M221.937 110.446C220.712 109.211 219.027 109.057 218.108 109.983L204.631 123.56C203.712 124.486 203.865 126.183 205.09 127.417C206.315 128.651 208 128.806 208.919 127.88L222.396 114.149C223.315 113.223 223.009 111.526 221.937 110.446Z" fill="#536383"/>
<path d="M218.108 109.983L211.369 116.772L173.847 78.9716L179.82 72.9545C180.126 72.6459 180.586 72.1831 180.892 71.7202L217.189 108.286C217.649 108.749 217.955 109.366 218.261 109.829C218.261 109.829 218.261 109.829 218.108 109.983Z" fill="#DBE0E5"/>
<path d="M170.477 89.9259L166.649 86.0688C167.414 85.6059 168.18 85.1431 168.793 84.3716L180.126 72.9545C180.432 72.6459 180.892 72.1831 181.198 71.7202L184.721 75.5774L170.477 89.9259Z" fill="#9AA8BD"/>
<path d="M183.036 74.6514L169.559 88.2286C168.64 89.1543 166.955 89 165.73 87.7657C164.504 86.5314 164.351 84.8343 165.27 83.9086L167.261 81.9029C167.108 81.7486 167.108 81.7486 166.955 81.5943L158.225 72.8C157.613 72.1829 157.153 71.4114 157 70.64L165.73 62C166.495 62.3086 167.261 62.6171 167.874 63.2343L176.45 72.0286C176.604 72.1829 176.604 72.1829 176.757 72.3371L178.748 70.3314C179.667 69.4057 181.351 69.56 182.577 70.7943C183.802 71.8743 183.955 73.7257 183.036 74.6514Z" fill="#536383"/>
<path d="M222.396 114.148L215.658 120.937L211.369 116.617L218.108 109.829C219.027 108.903 220.712 109.057 221.937 110.291C223.009 111.526 223.315 113.223 222.396 114.148Z" fill="#192948"/>
<path d="M183.036 74.6514L176.297 81.44L161.441 66.4743L165.73 62C166.495 62.3086 167.261 62.6171 167.874 63.2343L176.45 72.0286C176.604 72.1829 176.604 72.1829 176.757 72.3371L178.748 70.3314C179.667 69.4057 181.351 69.56 182.577 70.7943C183.802 71.8743 183.955 73.7257 183.036 74.6514Z" fill="#192948"/>
<path d="M218.108 109.983L204.631 123.56L204.477 123.714C203.865 123.406 203.405 123.097 202.946 122.634L202.793 122.48L217.036 108.131L217.189 108.286C217.649 108.748 217.955 109.366 218.261 109.828C218.261 109.828 218.261 109.828 218.108 109.983Z" fill="#9AA8BD"/>
<path d="M177.829 111.372C172.415 111.372 168.027 106.951 168.027 101.497C168.027 96.0439 172.415 91.623 177.829 91.623C183.242 91.623 187.631 96.0439 187.631 101.497C187.631 106.951 183.242 111.372 177.829 111.372Z" fill="#536383"/>
<path d="M177.829 107.669C174.445 107.669 171.703 104.906 171.703 101.497C171.703 98.0887 174.445 95.3257 177.829 95.3257C181.212 95.3257 183.955 98.0887 183.955 101.497C183.955 104.906 181.212 107.669 177.829 107.669Z" fill="#192948"/>
<path d="M238.784 138.371H214.892C213.207 138.371 211.982 136.674 211.982 134.668H241.694C241.694 136.828 240.468 138.371 238.784 138.371Z" fill="#192948"/>
<path d="M225.919 169.691H178.748C177.369 169.691 176.297 168.611 176.297 167.068H228.523C228.523 168.457 227.297 169.691 225.919 169.691Z" fill="#192948"/>
</g>
<defs>
<clipPath id="clip0">
<rect width="85" height="108" transform="matrix(-1 0 0 1 242 62)" fill="white"/>
</clipPath>
</defs>
</svg>
