<svg width="304" height="464" viewBox="0 0 304 464" fill="none" xmlns="http://www.w3.org/2000/svg">
<g clip-path="url(#clip0)">
<rect width="304" height="464" fill="white"/>
<path d="M294.249 406.825C252.964 463.459 115.098 404.246 42.9333 299.63C-29.2317 195.015 9.41764 64.2341 97.1122 52.7069C184.807 41.1797 335.534 350.192 294.249 406.825Z" fill="#E8D0FF"/>
<path fill-rule="evenodd" clip-rule="evenodd" d="M142.848 93.3066C138.619 87.4509 136.007 80.4711 137.165 72.962C140.5 51.3264 170.397 58.4263 175.377 69.8553C180.358 81.2843 177.343 109.079 169.563 110.46C166.461 111.01 160.15 108.599 153.895 104.128L155.599 133.673L131.192 131.808L142.848 93.3066Z" fill="#B28B67"/>
<path fill-rule="evenodd" clip-rule="evenodd" d="M166.613 57.2228C163.349 55.9469 158.519 55.2252 156.456 55.2997C157.846 52.6164 158.56 49.562 158.43 46.5241C158.304 43.5721 157.196 40.9809 156.196 38.2782C155.735 37.0324 155.199 35.7874 154.33 34.7944C153.444 33.7827 152.276 33.0697 151.022 32.6755C149.739 32.2719 148.37 32.191 147.038 32.3634C146.449 32.4397 145.907 32.6631 145.327 32.7657C144.733 32.8707 144.48 32.4862 144.088 32.089C143.142 31.1318 141.685 30.5825 140.41 30.3275C138.98 30.0413 137.463 30.142 136.047 30.508C134.668 30.8643 133.319 31.5119 132.26 32.5257C131.788 32.977 131.351 33.4983 131.047 34.0878C130.922 34.3297 130.893 34.4765 130.635 34.5486C130.396 34.6154 130.125 34.5968 129.879 34.6589C127.503 35.2593 125.38 36.885 124.117 39.0857C123.38 40.3695 122.89 42.6927 122.757 45.3288C122.623 47.9649 124.446 55.0119 126.471 57.6878C128.279 60.0764 131.085 61.7777 133.856 62.6422C131.807 64.6303 130.341 67.1995 129.196 69.8393C127.953 72.7068 127.082 75.719 126.598 78.8194C126.138 81.7651 125.862 84.8965 126.322 87.85C126.752 90.612 127.966 92.9445 130.18 94.5364C131.194 95.2656 132.302 95.8403 133.42 96.3738C134.522 96.8994 135.629 97.4132 136.801 97.7512C139.019 98.3906 141.625 98.5126 143.509 96.8594C144.188 96.2634 144.943 95.5068 145.464 94.7548C145.652 94.4844 145.766 94.3069 145.589 94.0146C145.377 93.6645 145.011 93.3805 144.725 93.0973C143.094 91.4827 142.172 89.4245 142.09 87.0574C142.008 84.6556 142.901 81.6331 145.31 80.7747C148.284 79.715 151.323 81.4321 153.76 83.002C155.155 79.2776 157.661 76.0212 161.292 74.545C165.31 72.9119 169.757 73.0294 173.858 71.679C174.927 71.3271 176.02 70.9182 176.853 70.0969C177.201 69.7536 177.613 69.3052 177.78 68.8284C177.999 68.202 177.629 67.6339 177.35 67.1107C175.87 64.3366 169.876 58.4987 166.613 57.2228Z" fill="#191847"/>
<path fill-rule="evenodd" clip-rule="evenodd" d="M125.986 218.979L163.203 349.076L190.356 444.965H210.161L181.306 218.979H125.986Z" fill="#192948"/>
<path fill-rule="evenodd" clip-rule="evenodd" d="M116.033 218.979C115.172 286.032 112.237 322.605 111.333 328.697C110.429 334.79 96.7629 373.545 70.3342 444.965H90.8506C124.496 376.45 143.278 337.694 147.197 328.697C151.115 319.701 163.206 283.128 181.418 218.979H116.033Z" fill="#536383"/>
<path fill-rule="evenodd" clip-rule="evenodd" d="M68.5004 463.529L69.5269 441.972H91.084C101.306 449.158 114.651 454.975 131.119 459.423V463.529H92.1105L78.7657 461.476V463.529H68.5004Z" fill="#192948"/>
<path fill-rule="evenodd" clip-rule="evenodd" d="M187.577 463.529L188.604 441.972H210.161C220.383 449.158 233.728 454.975 250.196 459.423V463.529H211.188L197.843 461.476V463.529H187.577Z" fill="#192948"/>
<path fill-rule="evenodd" clip-rule="evenodd" d="M212.7 199.402L245.205 223.786C254.059 226.281 261.447 229.344 267.37 232.973C268.765 234.27 270.441 236.883 264.611 236.367C258.781 235.851 252.626 235.571 251.802 237.549C250.979 239.527 254.488 241.945 252.836 244.608C251.734 246.383 246.65 241.841 237.584 230.98L205.3 217.181L212.7 199.402ZM78.0204 199.24L96.3197 200.816C79.4106 244.152 70.3267 267.079 69.0683 269.596C66.2369 275.261 70.5376 284.59 72.2991 289.559C65.0761 292.108 66.7352 280.624 57.6111 283.995C49.2831 287.072 42.6368 293.336 33.8107 286.862C32.7255 286.066 31.6853 283.317 34.8701 281.494C42.8046 276.954 54.3651 268.819 56.066 265.969C58.3854 262.084 65.7035 239.841 78.0204 199.24Z" fill="#B28B67"/>
<path fill-rule="evenodd" clip-rule="evenodd" d="M143.368 118.339L154.406 113.991C172.002 150.989 197.03 186.324 236.997 215.081L228.567 231.746C193.909 214.119 161.304 200.755 146.656 172.144C141.74 162.542 143.736 130.14 143.368 118.339Z" fill="#DBE0E5"/>
<path fill-rule="evenodd" clip-rule="evenodd" d="M111.399 227.365C143.757 228.898 169.064 227.426 187.319 222.95C189.581 222.396 189.709 218.553 188.491 216.021C169.518 176.587 156.049 141.999 154.344 113.942C151.406 115.643 146.115 116.18 138.472 115.553C119.864 145.651 112.519 179.371 111.399 227.365Z" fill="#1C75DF"/>
<path fill-rule="evenodd" clip-rule="evenodd" d="M133.111 113.445L141.595 112.952C144.275 124.434 160.046 281.122 182.401 331.378L78.3306 337.431C77.7277 290.236 92.091 232.667 107.246 184.309C93.5168 203.955 83.8887 230.492 74.1544 265.971L54.3575 262.109C65.0638 198.918 92.9322 146.414 131.309 114.225C131.393 113.994 131.477 113.764 131.56 113.535L132.31 113.492C132.576 113.298 132.842 113.106 133.109 112.914L133.111 113.445Z" fill="white"/>
</g>
<defs>
<clipPath id="clip0">
<rect width="304" height="464" fill="white"/>
</clipPath>
</defs>
</svg>
