<svg width="140" height="140" viewBox="0 0 140 140" fill="none" xmlns="http://www.w3.org/2000/svg">
<rect width="140" height="140" fill="white"/>
<mask id="mask0" mask-type="alpha" maskUnits="userSpaceOnUse" x="0" y="0" width="140" height="140">
<rect width="139.007" height="140" rx="69.5035" fill="#E8D0FF"/>
</mask>
<g mask="url(#mask0)">
<rect width="140" height="140" fill="#FFE4D8"/>
<path d="M1 47.9995H18.7123C18.7123 47.9995 18.5 61.9995 19 69.9995C19.5 77.9995 21 90.9995 21 90.9995H1V47.9995Z" fill="#192948"/>
<path d="M21.4938 86.0133L11.6927 81.1478C9.64071 80.1289 8.34424 78.0463 8.34424 75.7682V64.4492H-9.8277V75.7682C-9.8277 78.0463 -11.1238 80.1289 -13.1762 81.1478L-22.9773 86.0133C-26.0555 87.5416 -28 90.6653 -28 94.0825V112.565H26.5162V94.0825C26.5165 90.6653 24.572 87.5413 21.4938 86.0133Z" fill="#FFCBBE"/>
<path d="M21.4935 86.0138L11.6923 81.1484C10.5851 80.5985 9.72506 79.7256 9.14266 78.6929L3.54122 84.2546C1.17566 86.6034 -2.65949 86.6034 -5.02506 84.2546L-10.6265 78.6929C-11.2089 79.7256 -12.0689 80.5985 -13.1762 81.1484L-22.9773 86.0138C-26.0555 87.5418 -28 90.6655 -28 94.0827V112.565C-28 112.565 -15.5 115.673 -1 115.673C13.5 115.673 26.5162 112.565 26.5162 112.565V94.0827C26.5162 90.6658 24.5716 87.5418 21.4935 86.0138Z" fill="#1493FF"/>
<path d="M-9.8269 74.7067C-7.01794 75.8399 -3.95481 76.4779 -0.740942 76.4779C2.47292 76.4779 5.53605 75.8399 8.34502 74.7067V64.4492H-9.8269V74.7067V74.7067Z" fill="#FDAD9D"/>
<path d="M-0.741884 70.4637C-10.7781 70.4637 -18.9138 62.3854 -18.9138 52.4207V46.4063C-18.9138 36.4413 -10.7777 28.3633 -0.741884 28.3633C9.29434 28.3633 17.43 36.4417 17.43 46.4063V52.4207C17.43 62.3857 9.29434 70.4637 -0.741884 70.4637Z" fill="#FFCBBE"/>
<path d="M0.669818 26.8081C-9.36524 26.8081 -17.5 34.8211 -17.5 44.7061V47.689C-17.5 47.689 -11.4434 47.689 -5.38679 41.7231C-5.38679 41.7231 3.69812 53.655 18.84 47.689V44.7061C18.84 34.8215 10.7049 26.8081 0.669818 26.8081Z" fill="#192948"/>
<path d="M92.4938 86.0138L82.6927 81.1483C80.6407 80.1294 79.3442 78.0468 79.3442 75.7687V64.4497H61.1723V75.7687C61.1723 78.0468 59.8762 80.1294 57.8238 81.1483L48.0227 86.0138C44.9445 87.5421 43 90.6658 43 94.083V112.565H97.5162V94.083C97.5165 90.6658 95.572 87.5417 92.4938 86.0138Z" fill="#FFCBBE"/>
<path d="M92.4935 86.0138L82.6923 81.1484C81.5851 80.5985 80.7251 79.7256 80.1427 78.6929L74.5412 84.2546C72.1757 86.6034 68.3405 86.6034 65.9749 84.2546L60.3735 78.6929C59.7911 79.7256 58.9311 80.5985 57.8238 81.1484L48.0227 86.0138C44.9445 87.5418 43 90.6655 43 94.0827V112.565C43 112.565 57.8238 115.673 70.2581 115.673C82.6923 115.673 97.5162 112.565 97.5162 112.565V94.0827C97.5162 90.6658 95.5716 87.5418 92.4935 86.0138Z" fill="#192948"/>
<path d="M61.1731 74.7072C63.9821 75.8404 67.0452 76.4784 70.2591 76.4784C73.4729 76.4784 76.5361 75.8404 79.345 74.7072V64.4497H61.1731V74.7072V74.7072Z" fill="#FDAD9D"/>
<path d="M70.2581 70.4642C60.2219 70.4642 52.0862 62.3858 52.0862 52.4212V46.4068C52.0862 36.4418 60.2223 28.3638 70.2581 28.3638C80.2943 28.3638 88.43 36.4421 88.43 46.4068V52.4212C88.43 62.3862 80.2943 70.4642 70.2581 70.4642Z" fill="#FFCBBE"/>
<path d="M63.4974 58.4347V40.3917C63.4974 35.7997 65.2395 31.6214 68.0844 28.4365C58.7377 29.1816 51.3828 36.9337 51.3828 46.406V52.4204C51.3828 61.8927 58.7377 69.6444 68.0844 70.3899C65.2395 67.205 63.4974 63.0267 63.4974 58.4347Z" fill="#FDAD9D"/>
<path d="M88.8317 46.17C70.5811 46.17 52.3301 41.7019 52.3301 41.7019C52.3301 31.8313 60.5012 23.8296 70.5806 23.8296C80.66 23.8296 88.8311 31.8313 88.8311 41.7019L88.8317 46.17Z" fill="#A64C31"/>
<path d="M71.91 23.9814C71.3898 23.9382 70.8896 23.8296 70.3577 23.8296C60.2191 23.8296 52 31.8169 52 41.6697C52 41.6697 57.6348 43.0351 65.7683 44.2551V37.2097C65.7683 31.9363 68.1669 27.2473 71.91 23.9814Z" fill="#8A3E25"/>
<path d="M164.494 86.0138L154.693 81.1483C152.641 80.1294 151.344 78.0468 151.344 75.7687V64.4497H133.172V75.7687C133.172 78.0468 131.876 80.1294 129.824 81.1483L120.023 86.0138C116.945 87.5421 115 90.6658 115 94.083V112.565H169.516V94.083C169.517 90.6658 167.572 87.5417 164.494 86.0138Z" fill="#FFCBBE"/>
<path d="M164.493 86.0143L154.692 81.1488C153.585 80.599 152.725 79.7261 152.143 78.6934L146.541 84.2551C144.176 86.6039 140.341 86.6039 137.975 84.2551L132.374 78.6934C131.791 79.7261 130.931 80.599 129.824 81.1488L120.023 86.0143C116.945 87.5423 115 90.666 115 94.0832V112.565C115 112.565 131.752 115.185 142.5 115.177C153.06 115.17 169.516 112.565 169.516 112.565V94.0832C169.516 90.6663 167.572 87.5423 164.493 86.0143Z" fill="#8D4FF8"/>
<path d="M133.173 74.7072C135.982 75.8404 139.045 76.4784 142.259 76.4784C145.473 76.4784 148.536 75.8404 151.345 74.7072V64.4497H133.173V74.7072V74.7072Z" fill="#FDAD9D"/>
<path d="M142.258 70.4642C132.222 70.4642 124.086 62.3858 124.086 52.4212V46.4068C124.086 36.4418 132.222 28.3638 142.258 28.3638C152.294 28.3638 160.43 36.4421 160.43 46.4068V52.4212C160.43 62.3862 152.294 70.4642 142.258 70.4642Z" fill="#FFCBBE"/>
<path d="M135.497 58.4352V40.3922C135.497 35.8002 137.24 31.6219 140.084 28.437C130.738 29.1821 123.383 36.9342 123.383 46.4065V52.4209C123.383 61.8932 130.738 69.6449 140.084 70.3904C137.24 67.2055 135.497 63.0272 135.497 58.4352Z" fill="#FDAD9D"/>
</g>
<rect x="36" y="95" width="30" height="30" rx="4" fill="white"/>
<path d="M48.2787 115.319C47.8988 115.319 47.5344 115.16 47.2662 114.877L44.402 111.858C43.8593 111.266 43.867 110.324 44.4194 109.742C44.9719 109.16 45.8651 109.152 46.427 109.724L48.2787 111.675L55.8587 103.686C56.4207 103.114 57.3139 103.122 57.8663 103.704C58.4187 104.287 58.4264 105.228 57.8837 105.82L49.2912 114.877C49.023 115.16 48.6586 115.319 48.2787 115.319Z" fill="#00BD66"/>
<path d="M58.0639 129.32L56.9972 127.304L55.1404 128.123C55.0406 128.167 54.9249 128.16 54.832 128.104C54.7385 128.049 54.678 127.951 54.6705 127.843L54.0009 118.512C53.9907 118.374 54.0686 118.244 54.1957 118.186C54.3233 118.128 54.4734 118.156 54.5714 118.254L61.2679 124.925C61.346 125.002 61.3803 125.113 61.3604 125.221C61.3401 125.328 61.2679 125.419 61.1672 125.464L59.4476 126.222L60.46 128.13C60.5427 128.295 60.4757 128.494 60.3103 128.577L58.5132 129.469C58.346 129.551 58.1462 129.483 58.0639 129.32Z" fill="#192948"/>
<rect x="74" y="95" width="30" height="30" rx="4" fill="white"/>
<path fill-rule="evenodd" clip-rule="evenodd" d="M94.046 106.561C94.6318 105.975 94.6318 105.025 94.046 104.439C93.4602 103.854 92.5105 103.854 91.9247 104.439L88.7426 107.621L85.5607 104.44C84.9749 103.854 84.0251 103.854 83.4393 104.44C82.8536 105.025 82.8536 105.975 83.4393 106.561L86.6212 109.743L83.4394 112.925C82.8536 113.51 82.8536 114.46 83.4394 115.046C84.0252 115.632 84.975 115.632 85.5607 115.046L88.7426 111.864L91.9246 115.046C92.5104 115.632 93.4602 115.632 94.0459 115.046C94.6317 114.46 94.6317 113.511 94.0459 112.925L90.8639 109.743L94.046 106.561Z" fill="#FF5533"/>
</svg>
