<svg width="140" height="140" viewBox="0 0 140 140" fill="none" xmlns="http://www.w3.org/2000/svg">
<rect width="140" height="140" fill="white"/>
<mask id="mask0" mask-type="alpha" maskUnits="userSpaceOnUse" x="0" y="0" width="140" height="140">
<rect width="139.007" height="140" rx="69.5035" fill="#E8D0FF"/>
</mask>
<g mask="url(#mask0)">
<rect width="140" height="140" fill="#E3F4FF"/>
<path d="M44.2471 103.12L31.5951 115.769L29.1322 113.306L26.5962 110.77L39.2479 98.1187L41.7721 100.643L44.2471 103.12Z" fill="#8896AB"/>
<path d="M44.2475 103.12L31.5955 115.769L29.1326 113.306L41.7725 100.643L44.2475 103.12Z" fill="#536383"/>
<path d="M39.6276 118.826L15.3564 143.168C13.214 145.317 10.3646 146.501 7.33364 146.501C4.30976 146.501 1.46501 145.322 -0.677392 143.18L-0.689176 143.168C-5.10361 138.739 -5.10361 131.532 -0.689176 127.103L23.5963 102.745L31.6309 110.806L39.6276 118.826Z" fill="#536383"/>
<path d="M71.3185 116.782C58.7318 116.782 47.3269 111.614 39.1035 103.282C30.9869 95.0621 25.9651 83.7578 25.9651 71.3053C25.9651 46.2302 46.3118 25.8281 71.3185 25.8281C83.7868 25.8298 95.0935 30.8994 103.298 39.0905C111.555 47.3302 116.672 58.7294 116.672 71.3053C116.672 96.3803 96.3268 116.781 71.3185 116.782V116.782Z" fill="white"/>
<path fill-rule="evenodd" clip-rule="evenodd" d="M71.3182 27.6567C47.3261 27.6569 27.7934 47.2356 27.7934 71.3055C27.7934 83.257 32.6113 94.1052 40.4045 101.997C48.3 109.998 59.2429 114.954 71.3184 114.954C95.3124 114.953 114.844 95.3754 114.844 71.3055C114.844 59.2355 109.935 48.2962 102.007 40.3849C94.1292 32.5205 83.2806 27.6584 71.3182 27.6567ZM24.1367 71.3055C24.1367 45.2254 45.2973 24 71.3185 24C84.2926 24.0017 96.0579 29.279 104.59 37.7966M104.59 37.7966C113.176 46.3646 118.5 58.2239 118.5 71.3055C118.5 97.3857 97.3413 118.609 71.3186 118.611C58.2208 118.611 46.3533 113.231 37.8021 104.566C29.3623 96.0191 24.1367 84.2589 24.1367 71.3055" fill="#8896AB"/>
<path d="M87.4211 82.7752L80.3738 79.2768C78.8983 78.5442 77.9661 77.0468 77.9661 75.4087V67.27H64.9V75.4087C64.9 77.0468 63.968 78.5442 62.4923 79.2768L55.445 82.7752C53.2317 83.8742 51.8335 86.1202 51.8335 88.5773V101.867H91.0323V88.5773C91.0326 86.1202 89.6344 83.8739 87.4211 82.7752Z" fill="#FFCBBE"/>
<path d="M87.4209 82.7767L80.3735 79.2783C79.5774 78.8829 78.959 78.2553 78.5402 77.5127L74.5126 81.5117C72.8117 83.2006 70.0541 83.2006 68.3532 81.5117L64.3256 77.5127C63.9068 78.2553 63.2884 78.8829 62.4923 79.2783L55.445 82.7767C53.2317 83.8753 51.8335 86.1214 51.8335 88.5785V101.868C51.8335 101.868 62.4923 104.103 71.4329 104.103C80.3735 104.103 91.0323 101.868 91.0323 101.868V88.5785C91.0323 86.1216 89.6342 83.8753 87.4209 82.7767Z" fill="#1493FF"/>
<path d="M64.9006 74.6455C66.9204 75.4603 69.1229 75.919 71.4337 75.919C73.7446 75.919 75.9471 75.4603 77.9668 74.6455V67.27H64.9006V74.6455V74.6455Z" fill="#FDAD9D"/>
<path d="M71.4329 71.5948C64.2165 71.5948 58.3667 65.7862 58.3667 58.6213V54.2968C58.3667 47.1316 64.2168 41.3232 71.4329 41.3232C78.6492 41.3232 84.4991 47.1318 84.4991 54.2968V58.6213C84.4991 65.7864 78.6492 71.5948 71.4329 71.5948Z" fill="#FFCBBE"/>
<path d="M66.5716 62.9461V49.9726C66.5716 46.6708 67.8242 43.6665 69.8698 41.3765C63.1492 41.9122 57.8608 47.4862 57.8608 54.2971V58.6216C57.8608 65.4325 63.1492 71.0063 69.8698 71.5422C67.8242 69.2522 66.5716 66.2479 66.5716 62.9461Z" fill="#FDAD9D"/>
<path d="M84.7875 54.1265C71.6648 54.1265 58.5417 50.9138 58.5417 50.9138C58.5417 43.8165 64.417 38.063 71.6644 38.063C78.9119 38.063 84.7871 43.8165 84.7871 50.9138L84.7875 54.1265Z" fill="#A64C31"/>
<path d="M72.6206 38.1731C72.2465 38.142 71.8869 38.064 71.5045 38.064C64.2145 38.064 58.3047 43.8071 58.3047 50.8916C58.3047 50.8916 62.3563 51.8733 68.2045 52.7506V47.6847C68.2045 43.8929 69.9292 40.5214 72.6206 38.1731Z" fill="#8A3E25"/>
<path d="M39.6275 118.826L15.3563 143.167C13.2139 145.317 10.3645 146.5 7.33354 146.5C4.30966 146.5 1.46491 145.322 -0.67749 143.179L31.6308 110.805L39.6275 118.826Z" fill="#192948"/>
</g>
</svg>
