<svg width="64" height="64" viewBox="0 0 64 64" fill="none" xmlns="http://www.w3.org/2000/svg">
<rect width="64" height="64" rx="16" fill="#E3F4FF"/>
<path d="M35.7936 41.5301C40.8476 39.4352 43.2464 33.6398 41.1515 28.5858C39.0566 23.5318 33.2613 21.1329 28.2073 23.2278C23.1532 25.3227 20.7544 31.1181 22.8493 36.1721C24.9442 41.2261 30.7396 43.625 35.7936 41.5301Z" fill="#1493FF"/>
<path d="M44.1669 16.1147C42.289 16.1147 40.7611 17.6425 40.7611 19.5205C40.7611 21.3984 42.289 22.9263 44.1669 22.9263C46.0448 22.9263 47.5726 21.3985 47.5726 19.5205C47.5726 17.6425 46.0448 16.1147 44.1669 16.1147V16.1147Z" fill="#FFE274"/>
<path d="M16.1362 27.6674L13.8887 27C15.0234 23.1791 17.4066 19.7425 20.5993 17.3232C23.9003 14.8221 27.8397 13.5 31.9918 13.5C34.9945 13.5 37.8664 14.185 40.5278 15.5359L39.4666 17.6265C37.1371 16.444 34.6223 15.8444 31.9918 15.8444C28.3552 15.8444 24.9053 17.002 22.0153 19.1918C19.2176 21.3118 17.1297 24.3217 16.1362 27.6674Z" fill="#1493FF"/>
<path d="M37.3748 50.4865L36.7075 48.239C40.0532 47.2455 43.0632 45.1576 45.1831 42.3599C47.373 39.4698 48.5305 36.02 48.5305 32.3834C48.5305 29.4742 47.7645 26.6134 46.3152 24.1102L48.3442 22.9355C49.9998 25.7953 50.8749 29.0623 50.8749 32.3834C50.8749 36.5354 49.5529 40.4749 47.0517 43.7758C44.6324 46.9686 41.1957 49.3518 37.3748 50.4865V50.4865Z" fill="#E0F4FF"/>
<path d="M26.6085 50.4864C23.6152 49.5974 20.8597 47.9545 18.6402 45.7349C16.4206 43.5153 14.7775 40.7599 13.8887 37.7665L16.1361 37.0991C16.9143 39.7196 18.3534 42.1326 20.2979 44.0771C22.2425 46.0217 24.6555 47.4608 27.2759 48.239L26.6085 50.4864Z" fill="#1493FF"/>
<path d="M31.9919 46.6885C30.114 46.6885 28.5862 48.2163 28.5862 50.0943C28.5862 51.9722 30.114 53.5 31.9919 53.5C33.8698 53.5 35.3977 51.9722 35.3977 50.0943C35.3977 48.2163 33.8698 46.6885 31.9919 46.6885Z" fill="#1493FF"/>
<path d="M14.2808 35.7891C16.1617 35.7891 17.6866 34.2643 17.6866 32.3833C17.6866 30.5024 16.1617 28.9775 14.2808 28.9775C12.3998 28.9775 10.875 30.5024 10.875 32.3833C10.875 34.2643 12.3998 35.7891 14.2808 35.7891Z" fill="#1493FF"/>
<path d="M44.1669 16.1147C42.289 16.1147 40.7611 17.6425 40.7611 19.5205C40.7611 21.3984 42.289 22.9263 44.1669 22.9263C46.0448 22.9263 47.5726 21.3985 47.5726 19.5205C47.5726 17.6425 46.0448 16.1147 44.1669 16.1147V16.1147Z" fill="#1C75DF"/>
<path d="M37.3748 50.4865L36.7075 48.239C40.0532 47.2455 43.0632 45.1576 45.1831 42.3599C47.373 39.4698 48.5305 36.02 48.5305 32.3834C48.5305 29.4742 47.7645 26.6134 46.3152 24.1102L48.3442 22.9355C49.9998 25.7953 50.8749 29.0623 50.8749 32.3834C50.8749 36.5354 49.5529 40.4749 47.0517 43.7758C44.6324 46.9686 41.1957 49.3518 37.3748 50.4865V50.4865Z" fill="#1C75DF"/>
<path d="M41.8955 32.3833C41.8955 26.9223 37.4526 22.4795 31.9917 22.4795V42.2871C37.4527 42.2871 41.8955 37.8442 41.8955 32.3833V32.3833Z" fill="#1C75DF"/>
<path d="M40.5277 15.5359C37.8663 14.185 34.9944 13.5 31.9917 13.5V15.8444C34.6222 15.8444 37.1371 16.444 39.4664 17.6265L40.5277 15.5359Z" fill="#1C75DF"/>
<path d="M35.3975 50.0943C35.3975 48.2163 33.8696 46.6885 31.9917 46.6885V53.5C33.8696 53.4999 35.3975 51.9722 35.3975 50.0943V50.0943Z" fill="#1C75DF"/>
</svg>
