<svg width="64" height="64" viewBox="0 0 64 64" fill="none" xmlns="http://www.w3.org/2000/svg">
<rect width="64" height="64" rx="24" fill="#E7FFE8"/>
<path d="M18.4838 29.9351C16.5635 29.9351 15 31.4986 15 33.4188V44.567C15 46.4872 16.5635 48.0507 18.4838 48.0507H22.6643C23.4489 48.0507 24.1707 47.786 24.7546 47.3456V29.9351H18.4838Z" fill="#00BD66"/>
<path d="M48.4444 35.1608C48.4444 34.3233 48.1128 33.5429 47.5372 32.9674C48.188 32.2553 48.5197 31.3007 48.4291 30.3072C48.266 28.536 46.6704 27.1481 44.7948 27.1481H36.1871C36.6135 25.8535 37.2963 23.4804 37.2963 21.574C37.2963 18.5515 34.728 16 33.1157 16C31.6679 16 30.6339 16.8152 30.5893 16.8487C30.4249 16.9811 30.3287 17.1817 30.3287 17.3935V22.1189L26.3154 30.813L26.1482 30.898V45.8338C27.2825 46.3689 28.7178 46.6573 29.632 46.6573H42.4231C43.9406 46.6573 45.2686 45.6345 45.5807 44.2229C45.741 43.4968 45.6476 42.7652 45.3285 42.1298C46.3583 41.6114 47.0509 40.5509 47.0509 39.3414C47.0509 38.8481 46.9381 38.3757 46.7235 37.9479C47.7533 37.4295 48.4444 36.369 48.4444 35.1608Z" fill="#00BD66"/>
</svg>
