<svg width="64" height="64" viewBox="0 0 64 64" fill="none" xmlns="http://www.w3.org/2000/svg">
<rect width="64" height="64" rx="16" fill="#E7FFE8"/>
<path d="M10.5955 29.2529C10.5955 28.1484 11.4909 27.2529 12.5955 27.2529H50.4044C51.509 27.2529 52.4044 28.1484 52.4044 29.2529V44.8748C52.4044 45.9793 51.509 46.8748 50.4044 46.8748H12.5955C11.4909 46.8748 10.5955 45.9793 10.5955 44.8748V29.2529Z" fill="#00BD66"/>
<path d="M31.4375 27.2529H52.4046V44.8748C52.4046 45.9793 51.5092 46.8748 50.4046 46.8748H31.4375V27.2529Z" fill="#0B8749"/>
<path d="M45 28.375H18V26.8915C18 20.8859 22.7549 16 28.5994 16H34.4006C40.2451 16 45 20.8859 45 26.8915V28.375ZM20.4715 25.8942H42.5285C42.047 21.7249 38.5856 18.4808 34.4006 18.4808H28.5994C24.4144 18.4808 20.953 21.7249 20.4715 25.8942V25.8942Z" fill="#DBE0E5"/>
<path d="M34.4454 16H31.5V18.4808H34.4454C38.6126 18.4808 42.0595 21.7249 42.5389 25.8942H31.5001V28.375H45V26.8915C44.9999 20.8859 40.2652 16 34.4454 16V16Z" fill="#8896AB"/>
<path d="M9 24.75C9 23.6454 9.89543 22.75 11 22.75H52C53.1046 22.75 54 23.6454 54 24.75V27.5C54 28.6046 53.1046 29.5 52 29.5H11C9.89543 29.5 9 28.6046 9 27.5V24.75Z" fill="#00BD66"/>
<path d="M31.5 22.75H52C53.1046 22.75 54 23.6454 54 24.75V27.5C54 28.6046 53.1046 29.5 52 29.5H31.5V22.75Z" fill="#0B8749"/>
<path d="M37.5914 38.1657C36.9839 38.1657 36.4897 37.6715 36.4897 37.0639C36.4897 36.4564 36.9839 35.9622 37.5914 35.9622C37.9515 35.9622 38.2786 36.1306 38.4887 36.4242L40.6378 34.8859C39.9356 33.905 38.7968 33.3193 37.5915 33.3193C35.9918 33.3193 34.6238 34.328 34.0884 35.7425H28.7865C28.2511 34.328 26.8831 33.3193 25.2834 33.3193C24.0781 33.3193 22.9393 33.905 22.2371 34.886L24.3861 36.4242C24.5963 36.1306 24.9233 35.9622 25.2834 35.9622C25.8909 35.9622 26.3852 36.4564 26.3852 37.0639C26.3852 37.6714 25.891 38.1657 25.2834 38.1657C24.9265 38.1657 24.6011 37.9995 24.3907 37.71L22.2526 39.2633C22.9555 40.2309 24.0885 40.8086 25.2834 40.8086C26.8832 40.8086 28.2511 39.7999 28.7865 38.3854H34.0883C34.6237 39.7999 35.9917 40.8086 37.5914 40.8086C38.7863 40.8086 39.9194 40.2309 40.6223 39.2633L38.4842 37.71C38.2737 37.9996 37.9483 38.1657 37.5914 38.1657V38.1657Z" fill="white"/>
<path d="M37.5914 38.1657C36.9839 38.1657 36.4897 37.6715 36.4897 37.0639C36.4897 36.4564 36.9839 35.9622 37.5914 35.9622C37.9515 35.9622 38.2786 36.1306 38.4888 36.4242L40.6378 34.8859C39.9356 33.905 38.7968 33.3193 37.5915 33.3193C35.9918 33.3193 34.6238 34.328 34.0884 35.7425H31.4375V38.3853H34.0884C34.6238 39.7998 35.9918 40.8085 37.5915 40.8085C38.7864 40.8085 39.9195 40.2308 40.6224 39.2633L38.4843 37.71C38.2737 37.9996 37.9483 38.1657 37.5914 38.1657V38.1657Z" fill="#E7FFE8"/>
</svg>
