<?xml version="1.0" encoding="UTF-8"?>
<svg width="733px" height="597px" viewBox="0 0 733 597" version="1.1" xmlns="http://www.w3.org/2000/svg" xmlns:xlink="http://www.w3.org/1999/xlink">
    <!-- Generator: Sketch 57.1 (83088) - https://sketch.com -->
    <title>Web—Section Left Copy</title>
    <desc>Created with Sketch.</desc>
    <g id="Web—Section-Left-Copy" stroke="none" stroke-width="1" fill="none" fill-rule="evenodd">
        <g id="Image" transform="translate(100.000000, 53.000000)">
            <g id="Web" transform="translate(69.000000, 0.000000)">
                <rect id="Container" fill="#F2F2F2" x="0" y="0" width="396" height="346" rx="8"></rect>
                <path d="M8,0 L388,0 C392.418278,-8.11624501e-16 396,3.581722 396,8 L396,27 L396,27 L0,27 L0,8 C-5.41083001e-16,3.581722 3.581722,8.11624501e-16 8,0 Z" id="Header" fill="#C5CFD6"></path>
                <g id="Buttons" transform="translate(9.000000, 10.000000)" fill="#F2F2F2">
                    <circle id="buttons" cx="4" cy="4" r="4"></circle>
                    <circle id="buttons" cx="16" cy="4" r="4"></circle>
                    <circle id="buttons" cx="28" cy="4" r="4"></circle>
                </g>
                <g id="Content" transform="translate(16.000000, 43.000000)">
                    <g id="Components" transform="translate(294.000000, 89.000000)">
                        <rect id="Background" fill="#FFFFFF" x="0" y="0" width="70" height="194" rx="8"></rect>
                        <g id="Rows" transform="translate(18.000000, 18.000000)">
                            <rect id="Data" fill="#DDE3E9" x="0" y="0" width="34" height="26" rx="4"></rect>
                            <rect id="Data" fill="#AFB9C5" x="0" y="34" width="34" height="25" rx="4"></rect>
                            <rect id="Data" fill="#DDE3E9" x="0" y="67" width="34" height="25" rx="4"></rect>
                            <rect id="Data" fill="#DDE3E9" x="0" y="133" width="34" height="25" rx="4"></rect>
                            <rect id="Data" fill="#C5CFD6" x="0" y="100" width="34" height="25" rx="4"></rect>
                        </g>
                    </g>
                    <g id="Profile" transform="translate(294.000000, 0.000000)">
                        <rect id="Background" fill="#FFFFFF" x="0" y="0" width="70" height="81" rx="8"></rect>
                        <g id="Profile-Info" transform="translate(10.000000, 15.000000)" fill="#DDE3E9">
                            <circle id="Avatar" cx="25" cy="16" r="16"></circle>
                            <rect id="Name" x="0" y="36" width="50" height="6" rx="3"></rect>
                            <rect id="Name" x="8" y="46" width="34" height="6" rx="3"></rect>
                        </g>
                    </g>
                    <g id="Rows">
                        <g id="Row">
                            <rect id="Container" fill="#FFFFFF" x="0" y="0" width="286" height="47" rx="4"></rect>
                            <g id="Text-Stuff" transform="translate(9.000000, 14.100000)" fill="#DDE3E9">
                                <rect id="Label" x="0" y="0" width="228" height="7.05" rx="3"></rect>
                                <rect id="Label" x="0" y="11.75" width="153.041096" height="7.05" rx="3"></rect>
                            </g>
                            <g id="Check" transform="translate(248.435115, 16.500000)">
                                <circle id="Background" fill="#DDE3E9" cx="7" cy="7" r="7"></circle>
                                <circle id="Indicator" fill="#F2F2F2" cx="7" cy="7" r="3"></circle>
                            </g>
                        </g>
                        <g id="Row" transform="translate(0.000000, 55.000000)">
                            <rect id="Container" fill="#FFFFFF" x="0" y="0" width="286" height="39" rx="4"></rect>
                            <g id="Text-Stuff" transform="translate(9.000000, 11.700000)" fill="#DDE3E9">
                                <rect id="Label" x="0" y="0" width="228" height="5.85" rx="2.925"></rect>
                                <rect id="Label" x="0" y="9.75" width="153.041096" height="5.85" rx="2.925"></rect>
                            </g>
                            <g id="Check" transform="translate(248.435115, 12.500000)">
                                <circle id="Background" fill="#DDE3E9" cx="7" cy="7" r="7"></circle>
                                <circle id="Indicator" fill="#F2F2F2" cx="7" cy="7" r="3"></circle>
                            </g>
                        </g>
                        <g id="Row" transform="translate(0.000000, 102.000000)">
                            <rect id="Container" fill="#FFFFFF" x="0" y="0" width="286" height="39" rx="4"></rect>
                            <g id="Text-Stuff" transform="translate(9.000000, 11.700000)" fill="#DDE3E9">
                                <rect id="Label" x="0" y="0" width="228" height="5.85" rx="2.925"></rect>
                                <rect id="Label" x="0" y="9.75" width="153.041096" height="5.85" rx="2.925"></rect>
                            </g>
                            <g id="Check" transform="translate(248.435115, 12.500000)">
                                <circle id="Background" fill="#DDE3E9" cx="7" cy="7" r="7"></circle>
                                <circle id="Indicator" fill="#AFB9C5" cx="7" cy="7" r="3"></circle>
                            </g>
                        </g>
                        <g id="Row" transform="translate(0.000000, 243.000000)">
                            <rect id="Container" fill="#FFFFFF" x="0" y="0" width="286" height="39" rx="4"></rect>
                            <g id="Text-Stuff" transform="translate(9.000000, 11.700000)" fill="#DDE3E9">
                                <rect id="Label" x="0" y="0" width="228" height="5.85" rx="2.925"></rect>
                                <rect id="Label" x="0" y="9.75" width="153.041096" height="5.85" rx="2.925"></rect>
                            </g>
                            <g id="Check" transform="translate(248.435115, 12.500000)">
                                <circle id="Background" fill="#DDE3E9" cx="7" cy="7" r="7"></circle>
                                <circle id="Indicator" fill="#F2F2F2" cx="7" cy="7" r="3"></circle>
                            </g>
                        </g>
                        <g id="Row" transform="translate(0.000000, 196.000000)">
                            <rect id="Container" fill="#FFFFFF" x="0" y="0" width="286" height="39" rx="4"></rect>
                            <g id="Text-Stuff" transform="translate(9.000000, 11.700000)" fill="#DDE3E9">
                                <rect id="Label" x="0" y="0" width="228" height="5.85" rx="2.925"></rect>
                                <rect id="Label" x="0" y="9.75" width="153.041096" height="5.85" rx="2.925"></rect>
                            </g>
                            <g id="Check" transform="translate(248.435115, 12.500000)">
                                <circle id="Background" fill="#DDE3E9" cx="7" cy="7" r="7"></circle>
                                <circle id="Indicator" fill="#F2F2F2" cx="7" cy="7" r="3"></circle>
                            </g>
                        </g>
                        <g id="Row" transform="translate(0.000000, 149.000000)">
                            <rect id="Container" fill="#FFFFFF" x="0" y="0" width="286" height="39" rx="4"></rect>
                            <g id="Text-Stuff" transform="translate(9.000000, 11.700000)" fill="#DDE3E9">
                                <rect id="Label" x="0" y="0" width="228" height="5.85" rx="2.925"></rect>
                                <rect id="Label" x="0" y="9.75" width="153.041096" height="5.85" rx="2.925"></rect>
                            </g>
                            <g id="Check" transform="translate(248.435115, 12.500000)">
                                <circle id="Background" fill="#DDE3E9" cx="7" cy="7" r="7"></circle>
                                <circle id="Indicator" fill="#F2F2F2" cx="7" cy="7" r="3"></circle>
                            </g>
                        </g>
                    </g>
                </g>
            </g>
            <g id="Group-3" transform="translate(266.500000, 300.000000) scale(-1, 1) translate(-266.500000, -300.000000) translate(0.000000, 107.000000)">
                <g id="Humaaan" transform="translate(399.500000, 193.000000) scale(-1, 1) translate(-399.500000, -193.000000) translate(266.000000, 1.000000)">
                    <g id="Head/Front/Chongo" transform="translate(114.043637, 54.620196) rotate(-8.000000) translate(-114.043637, -54.620196) translate(53.523637, 8.479350)">
                        <g id="Head" stroke-width="1" transform="translate(48.044118, 27.423077)" fill="#B28B67">
                            <path d="M33.9363552,8.08001758 C39.0920324,17.6348561 38.4794039,41.8714963 31.8161505,43.5792125 C29.1588512,44.2602481 23.4980102,42.5919809 17.736598,39.1391819 L21.3529412,64.5769231 L0,64.5769231 L7.35071317,30.5101694 C3.25118289,25.725565 0.476568002,19.8620107 0.940220121,13.2917477 C2.27616145,-5.63944128 28.780678,-1.47482091 33.9363552,8.08001758 Z"></path>
                        </g>
                        <path d="M73.5461978,25.0965175 C70.6284593,24.2119021 66.3929282,23.9119007 64.6111662,24.1148491 C65.6247136,21.7003619 66.0269041,19.0103327 65.6990218,16.3911143 C65.3803343,13.8460584 64.2365602,11.6790172 63.1787412,9.40821973 C62.6911405,8.36153073 62.1385627,7.32054654 61.3147021,6.51994854 C60.4754486,5.70430412 59.4130661,5.16591319 58.2990562,4.90905437 C57.1590282,4.6461342 55.966964,4.66802638 54.8251651,4.90662983 C54.3200601,5.01216871 53.8668551,5.24178709 53.3714898,5.36943209 C52.8642053,5.50021474 52.6181232,5.18452512 52.2499196,4.86726668 C51.3625804,4.10282288 50.0617442,3.72545006 48.9391524,3.59038882 C47.6796592,3.43892626 46.3727612,3.6278266 45.1715703,4.03949955 C44.0023911,4.44026206 42.8791863,5.09103763 42.033871,6.03910483 C41.6574942,6.46111774 41.3158536,6.94146228 41.0938144,7.47179516 C41.0027511,7.68943346 40.9876988,7.81836204 40.7692695,7.89808668 C40.5672547,7.97189259 40.3309805,7.97403189 40.1224953,8.04427229 C38.1065705,8.72314403 36.3829746,10.2718558 35.4444846,12.2603367 C34.8969469,13.4204087 34.6375834,15.4628855 34.7086223,17.7521664 C34.7796612,20.0414472 36.858656,26.0148343 38.8031332,28.1936417 C40.5387847,30.1384096 43.0899873,31.4217766 45.5521018,31.9835573 C43.9178664,33.8408277 42.8300108,36.1616848 42.0255616,38.5220476 C41.1517762,41.0860007 40.6109815,43.7500731 40.4112824,46.4644903 C40.2215956,49.0434898 40.2040232,51.7708142 40.8121108,54.2947623 C41.3809669,56.6550539 42.5974827,58.5913358 44.6283236,59.8197229 C45.5585723,60.3824305 46.5594512,60.8051565 47.5661195,61.1915144 C48.5582122,61.5722388 49.5533018,61.9424093 50.5925268,62.1560542 C52.5593441,62.5602396 54.8255738,62.4908549 56.3406164,60.934299 C56.8866556,60.3731602 57.487183,59.6680464 57.8855594,58.9825428 C58.0287951,58.7360239 58.1151588,58.5747919 57.9411373,58.3338352 C57.7326521,58.0452434 57.3954386,57.8241109 57.1276294,57.5983433 C55.6003951,56.3111255 54.6550259,54.5926958 54.4167085,52.5505184 C54.1749174,50.4784621 54.7347148,47.8039784 56.7608562,46.8996956 C59.2619297,45.783408 62.0163049,47.0647071 64.2392846,48.2590792 C65.1840408,44.9437321 67.1238865,41.9586218 70.1652099,40.4378636 C73.5299204,38.7554454 77.3908816,38.5585584 80.8486305,37.1150289 C81.74966,36.7388683 82.6673764,36.3118637 83.3307694,35.5454233 C83.6079778,35.2250985 83.9332039,34.8095748 84.0438829,34.3859217 C84.1892981,33.8294181 83.8283142,33.3628364 83.5494712,32.928986 C82.0709356,30.6285949 76.4639363,25.9811329 73.5461978,25.0965175 Z" id="hair" fill="#191847"></path>
                    </g>
                    <g id="Bottom/Standing/Skinny-Jeans" transform="translate(0.000000, 171.929577)">
                        <polygon id="Leg" fill="#191847" points="113.92 9.9475983e-14 146.186916 112.853995 169.729192 196.033473 186.9 196.033473 161.882967 9.9475983e-14"></polygon>
                        <path d="M105.290864,0 C104.544534,58.1662576 101.99956,89.8917151 101.215944,95.1763725 C100.432327,100.46103 88.5836329,134.080063 65.6698616,196.033473 L83.4576556,196.033473 C112.62864,136.599762 128.912629,102.980729 132.309624,95.1763725 C135.70662,87.3720163 146.190078,55.6465588 161.98,0 L105.290864,0 Z" id="Leg" fill="#2F3676"></path>
                        <g id="Accessories/Shoe/Flat-Pointy" transform="translate(64.080000, 176.518828)" fill="#191847">
                            <path d="M0,35 L0.885245902,16.625 L19.4754098,16.625 C28.2903373,22.75 39.798534,27.7083333 54,31.5 L54,35 L20.3606557,35 L8.85245902,33.25 L8.85245902,35 L0,35 Z" id="Shoe"></path>
                        </g>
                        <g id="Accessories/Shoe/Flat-Pointy" transform="translate(167.320000, 176.518828)" fill="#191847">
                            <path d="M0,35 L0.885245902,16.625 L19.4754098,16.625 C28.2903373,22.75 39.798534,27.7083333 54,31.5 L54,35 L20.3606557,35 L8.85245902,33.25 L8.85245902,35 L0,35 Z" id="Shoe"></path>
                        </g>
                    </g>
                    <g id="Body/Pointing-Forward" transform="translate(129.294852, 163.138234) rotate(-8.000000) translate(-129.294852, -163.138234) translate(15.374852, 80.173445)">
                        <path d="M212.464277,41.1962135 C216.323171,40.4043826 225.74163,33.4225365 227.364477,34.8401151 C229.765375,36.9373312 227.624587,43.3770001 225.10223,46.5803906 C220.387948,52.5675233 216.484725,54.614942 206.837305,57.2960492 C201.793135,58.6978704 196.339496,61.5077004 190.476387,65.7255391 L189.703125,52.1433871 L203.282059,44.708333 C205.187376,37.4821881 207.46495,33.8464702 210.114781,33.8011795 C212.150403,32.8571353 208.605382,41.9880443 212.464277,41.1962135 Z M189.09287,10.2454019 C186.599547,14.6562722 184.175973,19.4076116 185.446222,20.7665053 C186.716472,22.125399 189.883954,20.2270844 191.399342,22.4848978 C192.409602,23.9901068 186.99821,26.3679131 175.165167,29.6183169 L152.702815,50.1174792 L141.287004,37.9050194 L172.200403,21.0294675 C177.341112,14.9449021 182.406142,10.2193845 187.395494,6.85291487 C188.920079,6.21851546 191.586193,5.83453162 189.09287,10.2454019 Z" id="Skin" fill="#997659"></path>
                        <path d="M127.230937,30.8366913 C137.943326,32.4179339 152.561129,32.4253508 169.302774,25.2081223 L173.174912,39.4376588 C161.034308,48.1576292 144.924596,54.3505065 132.077124,51.9453884 C121.952609,50.0500227 118.696981,36.9661925 127.230937,30.8366913 Z" id="Sleeve" fill="#2026A2" transform="translate(147.754124, 38.838038) rotate(-9.000000) translate(-147.754124, -38.838038) "></path>
                        <path d="M126.953027,-1.42108547e-13 C128.31652,17.4600739 135.179321,36.7025754 140.811492,55.7127728 C152.305191,58.5708421 171.582236,55.2012997 198.641378,45.6042132 C205.352897,59.4435515 208.455464,69.3099384 207.949079,75.2033737 C184.734516,87.2899451 164.838022,92.6779427 148.446471,93.0325018 C148.97346,102.723237 147.789928,111.948327 143.812721,120.377489 C135.63745,137.703893 87.7666921,121.657711 71.6710764,124.815991 C61.5915286,92.1888725 81.0806393,78.9293432 81.0963205,58.0526108 C81.1134931,35.1903641 99.5312715,-1.42108547e-13 102.241079,-1.42108547e-13 L102.241079,-1.42108547e-13 Z" id="Clothes" fill="#1F28CF"></path>
                    </g>
                </g>
                <g id="Humaaan">
                    <g id="Head/Front/Airy" transform="translate(146.854992, 53.957671) rotate(7.000000) translate(-146.854992, -53.957671) translate(86.334992, 7.816826)">
                        <g id="Head" stroke-width="1" transform="translate(48.044118, 27.423077)" fill="#B28B67">
                            <path d="M33.9363552,8.08001758 C39.0920324,17.6348561 38.4794039,41.8714963 31.8161505,43.5792125 C29.1588512,44.2602481 23.4980102,42.5919809 17.736598,39.1391819 L21.3529412,64.5769231 L0,64.5769231 L7.35071317,30.5101694 C3.25118289,25.725565 0.476568002,19.8620107 0.940220121,13.2917477 C2.27616145,-5.63944128 28.780678,-1.47482091 33.9363552,8.08001758 Z"></path>
                        </g>
                        <path d="M69.8098379,24.4908041 C66.9955821,24.0319373 59.4180741,23.7164537 58.0206463,23.7166573 C57.127624,23.7166573 56.1598598,23.9195119 55.6309488,23.104224 C55.1978136,22.4365963 55.3564869,21.3074541 55.2272202,20.5326964 C55.0771238,19.6326821 54.8639257,18.744277 54.6482771,17.8581122 C54.0346178,15.3364836 53.106675,12.9374639 51.8082904,10.6850859 C49.3720324,6.45935696 45.8030062,3.14932479 41.2972562,1.22322498 C36.3216127,-0.903489023 30.6912631,-1.39046213 25.3392555,-0.95909072 C19.6119049,-0.497576266 14.4273517,1.38229064 9.01979822,3.15136149 C3.86669382,4.83713162 -1.53064902,5.50068594 -6.92023178,4.67745495 C-12.3504529,3.84811389 -16.4534953,0.921794531 -21.033783,-1.85564263 C-25.7227118,-4.69906861 -31.0812543,-6.55877227 -36.624405,-6.13127057 C-41.7987475,-5.7320789 -46.5677278,-3.60780893 -50.8463932,-0.770085683 C-54.8495756,1.88494627 -58.1527168,5.07929433 -60.0175875,9.5750887 C-62.0237736,14.4112143 -62.0219356,19.7196489 -58.7228787,23.9936475 C-53.9410331,30.1888578 -45.0637009,31.7909199 -37.6781428,31.6316506 C-33.4062164,31.5397958 -29.2106655,30.764427 -25.1774638,29.3540177 C-19.7987043,27.4729288 -15.150618,24.2846908 -10.1186118,21.697888 C-7.75709561,20.4840195 -5.31614067,19.4870586 -2.75755919,18.768921 C-0.274740642,18.0717612 2.17070698,17.7520006 4.41868087,19.2432666 C6.79673828,20.8208884 8.92769827,22.3706075 11.6482205,23.3581995 C14.2580593,24.3056687 17.0224873,24.835616 19.803048,24.8142308 C25.213052,24.7726823 30.5460679,23.0966882 35.8004618,21.9740635 C40.0852536,21.058774 44.6698297,20.1465396 49.0381445,21.0263906 C50.8609475,21.3936062 53.5234733,22.1516631 54.1818552,24.035196 C43.1010674,26.031969 38.7490998,39.6574399 41.8729421,49.659839 C43.5589226,55.058499 53.6935825,61.3694755 57.6340716,58.5313184 C60.1304848,56.7332642 58.6149054,54.3727447 57.6340716,52.8144715 C55.7557228,49.8303101 55.1130653,45.9970517 58.5887662,43.919422 C61.5868135,42.1275402 64.7390537,46.3827839 64.7986838,46.3780995 C65.6226822,46.3135364 72.7427446,42.3098673 77.648338,36.4674987 C82.4877242,36.7527311 83.2219291,33.5800217 82.0663784,30.9853417 C80.9108278,28.3906617 73.6982528,25.1252337 69.8098379,24.4908041 Z" id="hair" fill="#191847"></path>
                    </g>
                    <g id="Bottom/Standing/Shorts" transform="translate(0.000000, 172.929577)">
                        <polygon id="Leg" fill="#997659" points="113.92 9.9475983e-14 147.411446 109.126043 163.635537 201.930713 176.356345 201.930713 159.212967 9.9475983e-14"></polygon>
                        <path d="M101.938577,0 C104.213397,59.9160628 101.536242,90.821853 101.02711,96.2654878 C100.517978,101.709123 93.5462947,137.005942 77.0416817,203.75814 L90.5966532,199.118294 C116.680655,137.896649 125.569153,106.07868 128.56079,98.0395464 C131.552428,90.0004131 139.498069,57.3205643 152.397713,0 L101.938577,0 Z" id="Leg" fill="#B28B67"></path>
                        <g id="Accessories/Shoe/Flat-Sneaker" transform="translate(74.760000, 176.518828)" fill="#E4E4E4">
                            <path d="M2.28004921,22.4680239 C1.35018034,24.9605595 0.885245902,26.8353722 0.885245902,28.092462 C0.885245902,29.6703374 1.15118635,31.9728501 1.68306723,35 C3.53494727,35 20.178105,35 51.6125403,35 C52.9100303,30.7601938 52.1610439,28.4712589 49.3655809,28.1331953 C46.5701179,27.7951316 44.2478793,27.4898872 42.3988652,27.217462 L19.2938401,17.0363435 C18.7884459,16.8136439 18.1982092,17.0428133 17.9755097,17.5482075 C17.9728332,17.5542814 17.9702173,17.5603818 17.9676624,17.5665078 L16.5215329,21.0338582 L16.5215329,21.0338582 C13.9336653,22.2273206 11.8307543,22.8240519 10.2127997,22.8240519 C8.93655596,22.8240519 7.18822216,22.3294296 4.96779829,21.3401852 L4.96778998,21.3402038 C3.95883528,20.8906937 2.77651599,21.3442132 2.32700593,22.3531679 C2.31016951,22.3909584 2.29450973,22.4292621 2.28004921,22.4680239 Z" id="shoe"></path>
                        </g>
                        <g id="Accessories/Shoe/Flat-Sneaker" transform="translate(158.420000, 176.518828)" fill="#E4E4E4">
                            <path d="M2.28004921,22.4680239 C1.35018034,24.9605595 0.885245902,26.8353722 0.885245902,28.092462 C0.885245902,29.6703374 1.15118635,31.9728501 1.68306723,35 C3.53494727,35 20.178105,35 51.6125403,35 C52.9100303,30.7601938 52.1610439,28.4712589 49.3655809,28.1331953 C46.5701179,27.7951316 44.2478793,27.4898872 42.3988652,27.217462 L19.2938401,17.0363435 C18.7884459,16.8136439 18.1982092,17.0428133 17.9755097,17.5482075 C17.9728332,17.5542814 17.9702173,17.5603818 17.9676624,17.5665078 L16.5215329,21.0338582 L16.5215329,21.0338582 C13.9336653,22.2273206 11.8307543,22.8240519 10.2127997,22.8240519 C8.93655596,22.8240519 7.18822216,22.3294296 4.96779829,21.3401852 L4.96778998,21.3402038 C3.95883528,20.8906937 2.77651599,21.3442132 2.32700593,22.3531679 C2.31016951,22.3909584 2.29450973,22.4292621 2.28004921,22.4680239 Z" id="shoe"></path>
                        </g>
                        <polygon id="Bottom" fill="#69A1AC" points="109.47 0 123.71 55.5985701 167.204583 55.5985701 160.719363 0"></polygon>
                        <path d="M101.46,-3.55271368e-15 C96.7745409,13.9978066 95.8845409,32.5306633 98.79,55.5985701 L143.174583,55.5985701 L155.379363,-3.55271368e-15 L101.46,-3.55271368e-15 Z" id="Bottom" fill="#89C5CC"></path>
                    </g>
                    <g id="Body/Jacket-2" transform="translate(133.500000, 162.725352) rotate(7.000000) translate(-133.500000, -162.725352) translate(19.580000, 79.760563)">
                        <path d="M45.8745644,72.7914439 L64.125,76.4006963 C45.7710734,110.493025 35.9281922,128.56198 34.5963565,130.607559 C31.5997262,135.210113 34.395643,143.645249 35.4284429,148.08725 C28.9492352,149.590518 31.5044357,139.870539 23.3051235,141.899982 C15.8211716,143.752364 9.47568283,148.506235 2.4972042,142.094881 C1.63924126,141.306643 1.01117182,138.842833 3.93640209,137.579157 C11.2242175,134.430879 21.9913509,128.535791 23.7372425,126.24708 C26.1180776,123.126014 33.4971849,105.307469 45.8745644,72.7914439 Z M226.386337,45.4992404 C223.516803,49.6767321 220.68698,54.1994564 221.83357,55.6635251 C222.980161,57.1275938 226.301583,55.5116606 227.613776,57.8925235 C228.488571,59.4797654 222.889849,61.3784383 210.81761,63.5885421 L186.648228,82.0584043 L176.34375,68.9007302 L208.615161,54.7748282 C214.26836,49.1599875 219.727329,44.8924489 224.992069,41.9722124 C226.566326,41.4726671 229.255871,41.3217486 226.386337,45.4992404 Z" id="Skin" fill="#B28B67"></path>
                        <path d="M109.809339,8.78101794 L117.366627,6.79820252 C135.490586,21.4928929 145.705761,59.7122982 157.291581,63.8759427 C168.245505,67.8125 182.75978,61.8059366 199.945837,53.906539 L206.437578,65.5305802 C191.838585,84.3231103 158.782177,102.012881 144.128761,94.8471575 C120.700995,83.3906547 111.374864,35.9663931 109.809339,8.78101794 Z" id="Coat-Back" fill="#DB2721" transform="translate(158.123459, 51.637224) rotate(5.000000) translate(-158.123459, -51.637224) "></path>
                        <path d="M80.15625,101.197861 C111.035783,101.197861 133.750119,101.197861 148.299261,101.197861 C151.413049,101.197861 150.826315,96.7164265 150.376198,94.4550701 C145.181305,68.3562845 124.902412,40.2230565 124.902412,3.07209214 L105.246759,0 C88.98901,26.0614734 83.3667984,58.148424 80.15625,101.197861 Z" id="Shirt" fill="#DDE3E9"></path>
                        <path d="M107.526459,-9.9475983e-14 L111.761323,0 C129.406853,59.9525846 134.271413,99.8991087 126.355004,119.839572 L126.355004,119.839572 L65.015625,119.839572 C65.9861214,105.248142 69.0980091,89.8171325 73.3602833,74.7716738 C59.4688827,99.7480277 47.7920306,117.729608 38.3302246,128.716578 L24.046875,125.92815 C33.2475591,69.0548213 59.8915125,27.0787712 103.978735,-9.9475983e-14 L107.526459,-9.9475983e-14 Z" id="Coat-Front" fill="#FF4133"></path>
                    </g>
                </g>
            </g>
            <g transform="translate(227.861501, 168.793699) rotate(-14.000000) translate(-227.861501, -168.793699) translate(177.361501, 134.793699)">
                <path d="M50.8280383,54.6067275 C50.8260383,54.6117275 50.8240383,54.6167275 50.8210383,54.6227275 C50.8240383,54.6177275 50.8280383,54.5977275 50.8280383,54.6067275" id="Fill-35" fill="#C5CFD6"></path>
                <path d="M50.8233815,54.6143262 C50.8233815,54.6153262 50.8223815,54.6173262 50.8223815,54.6193262 C50.8223815,54.6143262 50.8313815,54.5993262 50.8233815,54.6143262" id="Fill-37" fill="#C5CFD6"></path>
                <path d="M50.8581098,54.5297294 C50.8511098,54.5497294 50.8421098,54.5687294 50.8341098,54.5887294 C50.8381098,54.5787294 50.8421098,54.5707294 50.8461098,54.5607294 C50.7421098,54.8207294 50.8081098,54.6517294 50.8581098,54.5297294" id="Fill-39" fill="#C5CFD6"></path>
                <path d="M50.8357258,54.5899536 C50.8317258,54.5989536 50.8277258,54.6089536 50.8237258,54.6179536 C50.7947258,54.6739536 50.8357258,54.5899536 50.8357258,54.5899536" id="Fill-41" fill="#C5CFD6"></path>
                <polygon id="Fill-43" fill="#C5CFD6" points="50.8245383 54.6140786 50.8245383 54.6140786 50.8245383 54.6130786"></polygon>
                <path d="M50.8240383,54.6145786 C50.8240383,54.6135786 50.8240383,54.6135786 50.8250383,54.6125786 C50.8240383,54.6135786 50.8240383,54.6135786 50.8240383,54.6145786" id="Fill-45" fill="#C5CFD6"></path>
                <path d="M50.8192941,54.621754 C50.8132941,54.633754 50.8472941,54.575754 50.8192941,54.621754" id="Fill-47" fill="#C5CFD6"></path>
                <path d="M50.8235383,54.6145786 L50.8255383,54.6125786 C50.8245383,54.6135786 50.8245383,54.6145786 50.8235383,54.6145786" id="Fill-49" fill="#C5CFD6"></path>
                <rect id="Photo-Background" fill="#2B44FF" x="0.574535623" y="0.818446954" width="100" height="66" rx="4"></rect>
                <g id="icons8-night_landscape" transform="translate(9.057629, 20.092572)" fill="#000000" fill-opacity="0.2">
                    <polygon id="Mountains" points="29.3115079 0 0.47121868 47 58.1517972 47"></polygon>
                    <polygon id="Mountains" points="59.0474583 12.5892857 33.5509707 47 84.543946 47"></polygon>
                </g>
                <circle id="Sun" fill="#FFFFFF" cx="79.0165764" cy="23.6424793" r="9.5"></circle>
            </g>
        </g>
    </g>
</svg>