<svg xmlns="http://www.w3.org/2000/svg" xlink="http://www.w3.org/1999/xlink" width="0" height="0" style="display:none;"><symbol viewBox="0 0 24 24" id="gift-line"><path fill="none" d="M0 0h24v24H0z"/><path d="M15 2a4 4 0 0 1 3.464 6.001L23 8v2h-2v10a1 1 0 0 1-1 1H4a1 1 0 0 1-1-1V10H1V8l4.536.001A4 4 0 0 1 12 3.355 3.983 3.983 0 0 1 15 2zm-4 8H5v9h6v-9zm8 0h-6v9h6v-9zM9 4a2 2 0 0 0-.15 3.995L9 8h2V6a2 2 0 0 0-1.697-1.977l-.154-.018L9 4zm6 0a2 2 0 0 0-1.995 1.85L13 6v2h2a2 2 0 0 0 1.995-1.85L17 6a2 2 0 0 0-2-2z"/></symbol><symbol viewBox="0 0 24 24" id="check-line"><path fill="none" d="M0 0h24v24H0z"/><path d="M10 15.172l9.192-9.193 1.415 1.414L10 18l-6.364-6.364 1.414-1.414z"/></symbol><symbol viewBox="0 0 24 24" id="lock-line"><path fill="none" d="M0 0h24v24H0z"/><path d="M19 10h1a1 1 0 0 1 1 1v10a1 1 0 0 1-1 1H4a1 1 0 0 1-1-1V11a1 1 0 0 1 1-1h1V9a7 7 0 1 1 14 0v1zM5 12v8h14v-8H5zm6 2h2v4h-2v-4zm6-4V9A5 5 0 0 0 7 9v1h10z"/></symbol><symbol viewBox="0 0 24 24" id="arrow-right-line"><path fill="none" d="M0 0h24v24H0z"/><path d="M16.172 11l-5.364-5.364 1.414-1.414L20 12l-7.778 7.778-1.414-1.414L16.172 13H4v-2z"/></symbol><symbol viewBox="0 0 24 24" id="arrow-down-s-line"><path fill="none" d="M0 0h24v24H0z"/><path d="M12 13.172l4.95-4.95 1.414 1.414L12 16 5.636 9.636 7.05 8.222z"/></symbol></svg>